<svg width="126" height="188" viewBox="0 0 126 188" fill="none" xmlns="http://www.w3.org/2000/svg">
<g clip-path="url(#clip0_244_597)">
<path d="M54.0998 134.307H9.52936C8.41921 134.307 7.31993 134.089 6.29434 133.665C5.26875 133.242 4.33693 132.62 3.55213 131.837C2.76733 131.054 2.14492 130.125 1.72046 129.102C1.29601 128.079 1.07782 126.982 1.07837 125.875C1.07837 123.64 1.96874 121.496 3.55361 119.916C5.13848 118.335 7.28802 117.448 9.52936 117.448H54.0998V134.307Z" fill="#D6DEE5"/>
<path d="M54.0998 135.149H9.52941C7.06305 135.149 4.6977 134.172 2.95372 132.433C1.20974 130.694 0.22998 128.335 0.22998 125.875C0.22998 123.416 1.20974 121.057 2.95372 119.318C4.6977 117.578 7.06305 116.601 9.52941 116.601H54.0998C54.3215 116.601 54.5341 116.689 54.6909 116.845C54.8477 117.002 54.9357 117.214 54.9357 117.435V134.295C54.9385 134.406 54.9189 134.517 54.8782 134.62C54.8374 134.724 54.7763 134.818 54.6984 134.898C54.6205 134.977 54.5274 135.041 54.4246 135.084C54.3218 135.127 54.2114 135.149 54.0998 135.149ZM9.52941 118.294C7.54341 118.34 5.65441 119.159 4.26627 120.577C2.87812 121.994 2.10098 123.896 2.10098 125.877C2.10098 127.858 2.87812 129.761 4.26627 131.178C5.65441 132.595 7.54341 133.415 9.52941 133.461H53.2514V118.294H9.52941Z" fill="#99ADBF"/>
<path d="M54.0996 131.294H9.89285C8.45183 131.294 7.06983 130.723 6.05087 129.707C5.03192 128.691 4.45947 127.312 4.45947 125.875C4.45947 124.438 5.03192 123.06 6.05087 122.044C7.06983 121.028 8.45183 120.457 9.89285 120.457H54.0996V131.294Z" fill="#EBEFF2"/>
<path d="M54.0996 132.127H9.89282C8.2301 132.127 6.63548 131.469 5.45976 130.296C4.28405 129.124 3.62354 127.534 3.62354 125.875C3.62354 124.217 4.28405 122.627 5.45976 121.454C6.63548 120.282 8.2301 119.623 9.89282 119.623H54.0996C54.3213 119.623 54.5339 119.711 54.6907 119.867C54.8474 120.024 54.9355 120.236 54.9355 120.457V131.294C54.9355 131.515 54.8474 131.727 54.6907 131.883C54.5339 132.04 54.3213 132.127 54.0996 132.127ZM9.89282 121.316C9.28045 121.297 8.6706 121.401 8.09943 121.622C7.52825 121.843 7.00737 122.176 6.56767 122.602C6.12797 123.027 5.77839 123.536 5.53968 124.099C5.30096 124.662 5.17795 125.266 5.17795 125.877C5.17795 126.488 5.30096 127.093 5.53968 127.656C5.77839 128.219 6.12797 128.728 6.56767 129.153C7.00737 129.579 7.52825 129.912 8.09943 130.133C8.6706 130.354 9.28045 130.458 9.89282 130.439H53.2512V121.316H9.89282Z" fill="#99ADBF"/>
<path d="M53.8657 100.559H9.29948C8.18722 100.56 7.08557 100.343 6.05771 99.919C5.02985 99.4952 4.096 98.8732 3.3097 98.0887C2.52341 97.3041 1.90014 96.3725 1.47564 95.3473C1.05113 94.322 0.833753 93.2233 0.835954 92.1141C0.835954 89.8789 1.72632 87.7352 3.31119 86.1547C4.89606 84.5742 7.0456 83.6863 9.28694 83.6863H53.8657V100.559Z" fill="#D6DEE5"/>
<path d="M53.8657 101.405H9.29943C6.83307 101.405 4.46772 100.428 2.72374 98.6885C0.979759 96.9493 0 94.5904 0 92.1308C0 89.6713 0.979759 87.3124 2.72374 85.5732C4.46772 83.834 6.83307 82.8569 9.29943 82.8569H53.8657C54.0874 82.8569 54.3 82.9448 54.4567 83.1011C54.6135 83.2574 54.7016 83.4695 54.7016 83.6905V100.546C54.7049 100.658 54.6858 100.769 54.6453 100.873C54.6048 100.977 54.5437 101.072 54.4658 101.152C54.3878 101.232 54.2945 101.296 54.1914 101.339C54.0884 101.382 53.9776 101.405 53.8657 101.405ZM9.29943 84.5492C7.31343 84.5956 5.42443 85.415 4.03629 86.8322C2.64814 88.2493 1.871 90.1518 1.871 92.1329C1.871 94.114 2.64814 96.0165 4.03629 97.4337C5.42443 98.8509 7.31343 99.6703 9.29943 99.7167H53.0214V84.5492H9.29943Z" fill="#99ADBF"/>
<path d="M53.8657 97.5325H9.65896C8.21794 97.5325 6.83594 96.9616 5.81699 95.9455C4.79803 94.9293 4.22559 93.5511 4.22559 92.114C4.22559 90.677 4.79803 89.2988 5.81699 88.2826C6.83594 87.2664 8.21794 86.6956 9.65896 86.6956H53.8657V97.5325Z" fill="#EBEFF2"/>
<path d="M53.8657 98.3662H9.65893C7.99621 98.3662 6.4016 97.7075 5.22588 96.535C4.05016 95.3625 3.38965 93.7723 3.38965 92.1141C3.38965 90.456 4.05016 88.8657 5.22588 87.6933C6.4016 86.5208 7.99621 85.8621 9.65893 85.8621H53.8657C54.0874 85.8621 54.3 85.9499 54.4568 86.1062C54.6136 86.2626 54.7016 86.4746 54.7016 86.6957V97.5326C54.7016 97.7537 54.6136 97.9657 54.4568 98.1221C54.3 98.2784 54.0874 98.3662 53.8657 98.3662ZM9.65893 87.5668C8.5206 87.6754 7.46372 88.2032 6.69459 89.0471C5.92547 89.891 5.49931 90.9904 5.49931 92.1308C5.49931 93.2712 5.92547 94.3707 6.69459 95.2146C7.46372 96.0585 8.5206 96.5862 9.65893 96.6948H53.0173V87.5668H9.65893Z" fill="#99ADBF"/>
<path d="M53.8657 117.431H9.29947C8.18861 117.432 7.08833 117.216 6.06156 116.793C5.03479 116.37 4.10168 115.75 3.31561 114.967C2.52953 114.184 1.90591 113.254 1.48043 112.231C1.05494 111.208 0.835936 110.111 0.835938 109.003C0.835936 107.895 1.05494 106.798 1.48043 105.775C1.90591 104.752 2.52953 103.822 3.31561 103.039C4.10168 102.256 5.03479 101.636 6.06156 101.213C7.08833 100.79 8.18861 100.574 9.29947 100.575H53.8657V117.431Z" fill="#D6DEE5"/>
<path d="M53.8657 118.277H9.29943C6.83307 118.277 4.46772 117.3 2.72374 115.561C0.979759 113.821 0 111.463 0 109.003C0 106.543 0.979759 104.184 2.72374 102.445C4.46772 100.706 6.83307 99.729 9.29943 99.729H53.8657C54.0874 99.729 54.3 99.8168 54.4567 99.9732C54.6135 100.129 54.7016 100.342 54.7016 100.563V117.422C54.7044 117.534 54.6848 117.644 54.644 117.748C54.6033 117.851 54.5421 117.946 54.4642 118.025C54.3863 118.105 54.2932 118.168 54.1904 118.211C54.0876 118.255 53.9772 118.277 53.8657 118.277ZM9.29943 101.421C7.31343 101.468 5.42443 102.287 4.03629 103.704C2.64814 105.121 1.871 107.024 1.871 109.005C1.871 110.986 2.64814 112.889 4.03629 114.306C5.42443 115.723 7.31343 116.542 9.29943 116.589H53.0214V101.421H9.29943Z" fill="#99ADBF"/>
<path d="M53.8657 114.413H9.65896C8.21794 114.413 6.83594 113.842 5.81699 112.826C4.79803 111.81 4.22559 110.432 4.22559 108.995C4.22559 107.558 4.79803 106.179 5.81699 105.163C6.83594 104.147 8.21794 103.576 9.65896 103.576H53.8657V114.413Z" fill="#EBEFF2"/>
<path d="M53.8657 115.255H9.65893C7.99621 115.255 6.4016 114.596 5.22588 113.424C4.05016 112.251 3.38965 110.661 3.38965 109.003C3.38965 107.345 4.05016 105.755 5.22588 104.582C6.4016 103.41 7.99621 102.751 9.65893 102.751H53.8657C54.0874 102.751 54.3 102.839 54.4568 102.995C54.6135 103.151 54.7016 103.363 54.7016 103.585V114.413C54.7027 114.523 54.6819 114.633 54.6404 114.735C54.5989 114.837 54.5375 114.93 54.4598 115.008C54.382 115.086 54.2895 115.148 54.1875 115.191C54.0856 115.233 53.9762 115.255 53.8657 115.255ZM9.65893 104.443C8.46964 104.479 7.34109 104.975 6.51256 105.827C5.68403 106.679 5.22064 107.819 5.22064 109.005C5.22064 110.192 5.68403 111.332 6.51256 112.183C7.34109 113.035 8.46964 113.531 9.65893 113.567H53.0173V104.443H9.65893Z" fill="#99ADBF"/>
<path d="M17.9594 109.32H12.4758V118.31H17.9594V109.32Z" fill="#EBEFF2"/>
<path d="M17.9719 119.156H12.4758C12.2541 119.156 12.0415 119.068 11.8847 118.912C11.728 118.756 11.6399 118.544 11.6399 118.323V109.32C11.6399 109.099 11.728 108.887 11.8847 108.73C12.0415 108.574 12.2541 108.486 12.4758 108.486H17.9719C18.1936 108.486 18.4062 108.574 18.5629 108.73C18.7197 108.887 18.8078 109.099 18.8078 109.32V118.31C18.8094 118.421 18.789 118.53 18.7478 118.633C18.7065 118.736 18.6452 118.829 18.5674 118.908C18.4896 118.986 18.3969 119.049 18.2947 119.092C18.1924 119.134 18.0827 119.156 17.9719 119.156ZM13.3368 117.464H17.1234V110.162H13.3242L13.3368 117.464Z" fill="#99ADBF"/>
<path d="M29.0519 109.32H23.5684V118.31H29.0519V109.32Z" fill="#D6DEE5"/>
<path d="M29.0519 119.156H23.5683C23.3466 119.156 23.134 119.068 22.9773 118.912C22.8205 118.756 22.7324 118.544 22.7324 118.323V109.32C22.7324 109.099 22.8205 108.887 22.9773 108.73C23.134 108.574 23.3466 108.486 23.5683 108.486H29.0519C29.2736 108.486 29.4862 108.574 29.6429 108.73C29.7997 108.887 29.8878 109.099 29.8878 109.32V118.31C29.8894 118.421 29.869 118.53 29.8278 118.633C29.7865 118.736 29.7252 118.829 29.6474 118.908C29.5696 118.986 29.4769 119.049 29.3747 119.092C29.2724 119.134 29.1627 119.156 29.0519 119.156ZM24.4168 117.464H28.2034V110.162H24.4168V117.464Z" fill="#99ADBF"/>
<path d="M23.443 126.788H17.9595V135.779H23.443V126.788Z" fill="#D6DEE5"/>
<path d="M23.4387 136.625H17.9719C17.7502 136.625 17.5376 136.537 17.3808 136.381C17.2241 136.224 17.136 136.012 17.136 135.791V126.788C17.136 126.567 17.2241 126.355 17.3808 126.199C17.5376 126.042 17.7502 125.955 17.9719 125.955H23.4387C23.6604 125.955 23.873 126.042 24.0298 126.199C24.1865 126.355 24.2746 126.567 24.2746 126.788V135.779C24.2763 135.889 24.2559 135.999 24.2146 136.102C24.1734 136.204 24.112 136.297 24.0343 136.376C23.9565 136.455 23.8638 136.518 23.7615 136.56C23.6593 136.603 23.5495 136.625 23.4387 136.625ZM18.8078 134.937H22.5986V127.634H18.8078V134.937Z" fill="#99ADBF"/>
<path d="M23.443 93.0435H17.9595V102.034H23.443V93.0435Z" fill="#D6DEE5"/>
<path d="M23.4387 102.88H17.9719C17.7502 102.88 17.5376 102.792 17.3808 102.636C17.2241 102.48 17.136 102.268 17.136 102.047V93.0436C17.136 92.8225 17.2241 92.6105 17.3808 92.4541C17.5376 92.2978 17.7502 92.21 17.9719 92.21H23.4387C23.6604 92.21 23.873 92.2978 24.0298 92.4541C24.1865 92.6105 24.2746 92.8225 24.2746 93.0436V102.034C24.2763 102.145 24.2559 102.254 24.2146 102.357C24.1734 102.46 24.112 102.553 24.0343 102.632C23.9565 102.71 23.8638 102.773 23.7615 102.816C23.6593 102.858 23.5495 102.88 23.4387 102.88ZM18.8078 101.188H22.5986V93.8897H18.8078V101.188Z" fill="#99ADBF"/>
<path d="M33.0726 126.788H27.5891V135.779H33.0726V126.788Z" fill="#EBEFF2"/>
<path d="M33.0726 136.625H27.5849C27.3632 136.625 27.1506 136.537 26.9939 136.381C26.8371 136.224 26.749 136.012 26.749 135.791V126.788C26.749 126.567 26.8371 126.355 26.9939 126.199C27.1506 126.042 27.3632 125.955 27.5849 125.955H33.0726C33.2943 125.955 33.5069 126.042 33.6637 126.199C33.8205 126.355 33.9085 126.567 33.9085 126.788V135.779C33.9102 135.889 33.8898 135.999 33.8485 136.102C33.8073 136.204 33.746 136.297 33.6682 136.376C33.5904 136.455 33.4977 136.518 33.3954 136.56C33.2932 136.603 33.1835 136.625 33.0726 136.625ZM28.4208 134.937H32.2242V127.634H28.4208V134.937Z" fill="#99ADBF"/>
<path d="M121.449 142.693L88.7731 187.146L56.106 142.702C56.106 139.751 58.785 137.208 62.6427 136.058C64.1512 135.611 65.7169 135.387 67.2904 135.391C72.4019 135.391 76.7068 137.629 78.0401 140.697C79.3692 137.629 83.6782 135.391 88.7856 135.391C93.893 135.391 98.2063 137.629 99.5353 140.697C100.864 137.629 105.169 135.391 110.281 135.391C115.112 135.391 119.242 137.404 120.801 140.209C121.225 140.969 121.448 141.824 121.449 142.693Z" fill="#D6DEE5"/>
<path d="M85.8432 177.797L82.7588 178.964L56.106 142.702C56.106 139.751 58.785 137.208 62.6427 136.058L85.8432 177.797Z" fill="#EBEFF2"/>
<path d="M88.7729 188C88.64 188.001 88.5088 187.97 88.3903 187.909C88.2718 187.849 88.1695 187.762 88.0917 187.654L55.4329 143.21C55.3184 143.062 55.2553 142.881 55.2532 142.693C55.2532 139.459 58.0535 136.533 62.3918 135.241L62.4796 135.22C64.0418 134.764 65.6623 134.536 67.2902 134.545C71.9462 134.545 76.0421 136.296 78.0399 139.017C80.0377 136.291 84.1295 134.545 88.7855 134.545C93.4415 134.545 97.5374 136.296 99.5352 139.017C101.533 136.291 105.625 134.545 110.281 134.545C115.271 134.545 119.798 136.658 121.54 139.797C122.043 140.688 122.307 141.692 122.309 142.714C122.309 142.894 122.252 143.069 122.146 143.214L89.4417 187.654C89.3651 187.76 89.2647 187.847 89.1486 187.907C89.0324 187.967 88.9038 187.999 88.7729 188ZM56.9584 142.427L88.7729 185.724L120.596 142.431C120.549 141.792 120.361 141.171 120.044 140.614C118.59 137.996 114.661 136.237 110.268 136.237C105.625 136.237 101.525 138.209 100.3 141.035C100.238 141.19 100.131 141.323 99.9927 141.417C99.8541 141.512 99.6903 141.562 99.5227 141.562C99.355 141.562 99.1912 141.512 99.0526 141.417C98.914 141.323 98.8069 141.19 98.7453 141.035C97.5207 138.209 93.4206 136.237 88.7729 136.237C84.1253 136.237 80.0294 138.209 78.8048 141.035C78.7432 141.19 78.6361 141.323 78.4974 141.417C78.3588 141.512 78.195 141.562 78.0274 141.562C77.8597 141.562 77.696 141.512 77.5573 141.417C77.4187 141.323 77.3116 141.19 77.25 141.035C76.0212 138.209 71.9253 136.237 67.2777 136.237C65.7937 136.23 64.3167 136.44 62.8933 136.858H62.8056C59.3742 137.925 57.1172 140.076 56.9584 142.427Z" fill="#99ADBF"/>
<path d="M57.084 23.9206C60.8456 15.0468 65.6896 2.21752 72.1303 1.14216C78.5709 0.0668018 105.788 1.93826 111.096 4.66833C118.619 8.53212 120.909 29.2307 120.909 29.2307L57.084 23.9206Z" fill="#D6DEE5"/>
<path d="M115.179 8.98643C108.91 6.37723 82.9594 4.63499 76.6901 5.68117C71.1606 6.60231 66.8139 16.1388 63.3157 24.4374L57.084 23.9247C60.8456 15.0468 65.6854 2.21752 72.1303 1.14216C78.5751 0.0668018 105.788 1.93826 111.1 4.66833C112.676 5.4811 114.026 7.03579 115.179 8.98643Z" fill="#EBEFF2"/>
<path d="M120.909 30.0767H120.838L57.0169 24.7624C56.8819 24.7512 56.7516 24.7074 56.6373 24.6348C56.523 24.5621 56.4281 24.4629 56.3608 24.3456C56.29 24.2318 56.2477 24.1027 56.2375 23.9693C56.2273 23.8358 56.2495 23.7018 56.3023 23.5787L57.205 21.4363C60.9415 12.5041 65.5933 1.37962 71.9922 0.308427C78.391 -0.762763 105.963 1.07535 111.484 3.91796C119.317 7.9443 121.657 28.2761 121.754 29.1388C121.768 29.2567 121.758 29.3764 121.723 29.4899C121.687 29.6034 121.628 29.7081 121.549 29.7969C121.47 29.8857 121.373 29.9566 121.264 30.0049C121.155 30.0531 121.037 30.0776 120.918 30.0767H120.909ZM58.3168 23.1744L119.952 28.3011C119.375 24.133 116.834 8.56117 110.724 5.41846C105.554 2.75924 78.4119 0.954475 72.2722 1.97565C66.797 2.89262 62.1578 13.9921 58.7682 22.099L58.3168 23.1744Z" fill="#99ADBF"/>
<path d="M120.788 140.209C119.229 137.404 115.1 135.391 110.268 135.391C105.161 135.391 100.852 137.629 99.5226 140.701C98.1936 137.629 93.8845 135.391 88.7729 135.391C83.6614 135.391 79.3565 137.629 78.0274 140.701C76.6983 137.629 72.3892 135.391 67.2776 135.391C61.1003 135.391 56.0974 138.663 56.0974 142.693H55.9219C48.5599 106.663 48.5599 69.5213 55.9219 33.4905H121.281C114.083 68.6852 113.916 104.95 120.788 140.209Z" fill="#D6DEE5"/>
<path d="M63.9216 33.4822C57.0169 67.2861 56.5915 102.088 62.6678 136.05C58.8017 137.192 56.1143 139.743 56.1143 142.693H55.9387C48.5767 106.663 48.5767 69.5213 55.9387 33.4905L63.9216 33.4822Z" fill="#EBEFF2"/>
<path d="M78.0274 141.543C77.8312 141.547 77.64 141.482 77.4872 141.359C77.3344 141.236 77.2297 141.064 77.1915 140.872C70.0863 107.061 69.8773 69.5482 76.6314 35.2451C76.6528 35.1356 76.6956 35.0314 76.7574 34.9385C76.8192 34.8455 76.8987 34.7656 76.9915 34.7033C77.0843 34.641 77.1884 34.5975 77.298 34.5753C77.4076 34.5531 77.5205 34.5527 77.6303 34.574C77.7401 34.5954 77.8446 34.6381 77.9378 34.6997C78.031 34.7613 78.1112 34.8407 78.1736 34.9332C78.2361 35.0257 78.2797 35.1295 78.302 35.2388C78.3242 35.3481 78.3246 35.4607 78.3032 35.5702C71.5909 69.6565 71.7873 106.931 78.8549 140.526C78.8794 140.634 78.8818 140.747 78.8621 140.856C78.8424 140.965 78.801 141.07 78.7402 141.163C78.6795 141.256 78.6006 141.336 78.5084 141.399C78.4161 141.461 78.3122 141.505 78.2029 141.526C78.1451 141.538 78.0863 141.544 78.0274 141.543Z" fill="#99ADBF"/>
<path d="M99.5228 141.543C99.3284 141.547 99.1386 141.484 98.986 141.364C98.8334 141.244 98.7276 141.074 98.6868 140.885C91.2348 108.019 91.1136 70.1194 98.3399 34.1824C98.3843 33.9613 98.5149 33.7669 98.703 33.6418C98.8911 33.5167 99.1213 33.4713 99.343 33.5155C99.5647 33.5598 99.7597 33.69 99.8851 33.8776C100.011 34.0652 100.056 34.2948 100.012 34.5159C92.8272 70.2361 92.9484 107.874 100.35 140.522C100.376 140.63 100.38 140.742 100.362 140.852C100.343 140.962 100.303 141.067 100.244 141.161C100.184 141.255 100.106 141.336 100.015 141.399C99.9232 141.463 99.8199 141.508 99.7108 141.531C99.649 141.543 99.5857 141.547 99.5228 141.543Z" fill="#99ADBF"/>
<path d="M56.1058 143.548H55.9303C55.7335 143.551 55.5418 143.486 55.3889 143.362C55.236 143.239 55.1317 143.065 55.0944 142.873C47.6632 106.729 47.6632 69.4584 55.0944 33.3153C55.1317 33.1226 55.236 32.9492 55.3889 32.8257C55.5418 32.7022 55.7335 32.6365 55.9303 32.64H121.281C121.407 32.639 121.531 32.6662 121.645 32.7196C121.758 32.773 121.858 32.8512 121.937 32.9485C122.017 33.0458 122.074 33.1594 122.104 33.2812C122.134 33.4029 122.137 33.5298 122.113 33.6529C114.903 68.7369 114.737 104.898 121.624 140.047C121.7 140.254 121.69 140.484 121.596 140.684C121.503 140.885 121.333 141.04 121.125 141.116C120.916 141.191 120.686 141.181 120.485 141.088C120.284 140.995 120.128 140.825 120.052 140.618C118.594 137.996 114.665 136.237 110.272 136.237C105.629 136.237 101.529 138.208 100.304 141.034C100.243 141.19 100.136 141.323 99.9969 141.417C99.8583 141.511 99.6945 141.562 99.5268 141.562C99.3592 141.562 99.1954 141.511 99.0568 141.417C98.9181 141.323 98.8111 141.19 98.7494 141.034C97.5248 138.208 93.4247 136.237 88.7771 136.237C84.1295 136.237 80.0335 138.208 78.8089 141.034C78.7473 141.19 78.6403 141.323 78.5016 141.417C78.363 141.511 78.1992 141.562 78.0316 141.562C77.8639 141.562 77.7001 141.511 77.5615 141.417C77.4229 141.323 77.3158 141.19 77.2542 141.034C76.0254 138.208 71.9295 136.237 67.2818 136.237C61.6186 136.237 57.0002 139.1 56.9501 142.635C56.9665 142.777 56.9448 142.921 56.8874 143.052C56.8206 143.202 56.7108 143.329 56.5718 143.418C56.4327 143.506 56.2706 143.551 56.1058 143.548ZM56.6241 34.3448C49.5789 69.058 49.4255 104.812 56.1727 139.584C57.9824 136.62 62.2748 134.545 67.2902 134.545C71.9462 134.545 76.0379 136.295 78.0357 139.017C80.0336 136.295 84.1253 134.545 88.7813 134.545C93.4373 134.545 97.5332 136.295 99.531 139.017C101.529 136.295 105.621 134.545 110.277 134.545C113.833 134.545 117.152 135.616 119.396 137.371C113.109 103.282 113.397 68.3096 120.245 34.3281L56.6241 34.3448Z" fill="#99ADBF"/>
<path d="M64.36 67.6435C65.2412 58.9473 59.9923 51.2967 52.6363 50.5554C45.2803 49.8142 38.6028 56.2629 37.7217 64.9592C36.8405 73.6554 42.0894 81.306 49.4454 82.0473C56.8014 82.7885 63.4789 76.3397 64.36 67.6435Z" fill="white"/>
<path d="M50.5972 82.9442C50.1793 82.9442 49.7613 82.9234 49.3684 82.8859C45.5567 82.4983 42.1588 80.3851 39.8015 76.9589C37.4297 73.399 36.3937 69.1185 36.8758 64.8716C37.7995 55.7269 44.9047 48.9288 52.7204 49.7124C60.5361 50.496 66.1325 58.582 65.2046 67.7267C64.3353 76.3879 57.9114 82.9442 50.5972 82.9442ZM51.4958 51.3379C45.0426 51.3379 39.3752 57.244 38.5685 65.0383C38.1249 68.8888 39.0573 72.772 41.2016 76.0044C43.2914 79.0221 46.2171 80.8686 49.5356 81.202C56.4151 81.8939 62.6927 75.7835 63.5245 67.5558C64.3562 59.3281 59.4369 52.1007 52.5574 51.3921C52.2047 51.3554 51.8504 51.3373 51.4958 51.3379Z" fill="#99ADBF"/>
<path d="M64.4357 66.2971C64.435 68.3636 63.7365 70.3697 62.453 71.992C61.1694 73.6143 59.3755 74.7583 57.3603 75.2397C55.3451 75.7211 53.2261 75.5118 51.3448 74.6455C49.4635 73.7792 47.9294 72.3065 46.9899 70.4646C46.0504 68.6227 45.7601 66.519 46.1659 64.4925C46.5717 62.466 47.6499 60.6348 49.2267 59.294C50.8035 57.9533 52.7871 57.181 54.8577 57.1017C56.9284 57.0225 58.9655 57.6408 60.6407 58.8571C58.0118 61.2913 56.6618 63.7796 57.5103 64.98C58.3587 66.1804 61.0712 65.7386 64.1975 64.1464C64.3636 64.8511 64.4436 65.5732 64.4357 66.2971Z" fill="#99ADBF"/>
<path d="M112.148 69.2539C113.782 60.6665 108.125 52.3846 99.5139 50.7558C90.9029 49.127 82.5982 54.768 80.9649 63.3554C79.3316 71.9428 84.9882 80.2247 93.5992 81.8535C102.21 83.4823 110.515 77.8413 112.148 69.2539Z" fill="white"/>
<path d="M96.5469 82.9694C93.2404 82.9694 90.0082 81.9916 87.2589 80.1597C84.5096 78.3277 82.3668 75.7238 81.1015 72.6774C79.8361 69.6309 79.505 66.2787 80.1501 63.0446C80.7952 59.8105 82.3874 56.8398 84.7255 54.5082C87.0635 52.1765 90.0424 50.5887 93.2854 49.9454C96.5284 49.3021 99.8899 49.6322 102.945 50.8941C106 52.156 108.611 54.2929 110.448 57.0346C112.285 59.7764 113.265 62.9998 113.265 66.2972C113.265 68.4866 112.833 70.6546 111.992 72.6774C111.152 74.7002 109.921 76.5381 108.368 78.0862C106.816 79.6344 104.973 80.8625 102.945 81.7003C100.916 82.5382 98.7424 82.9694 96.5469 82.9694ZM96.5469 51.3172C93.5771 51.3222 90.6754 52.2049 88.2085 53.854C85.7415 55.503 83.8201 57.8443 82.6871 60.5819C81.554 63.3196 81.2601 66.3308 81.8425 69.235C82.4249 72.1391 83.8576 74.806 85.9593 76.8985C88.061 78.991 90.7376 80.4152 93.6507 80.9912C96.5639 81.5671 99.5829 81.269 102.326 80.1345C105.069 79 107.414 77.0799 109.063 74.617C110.713 72.1541 111.593 69.2589 111.593 66.2972C111.587 62.322 109.998 58.5118 107.177 55.7032C104.356 52.8947 100.533 51.3172 96.5469 51.3172Z" fill="#99ADBF"/>
<path d="M104.601 66.2971C104.6 68.3636 103.902 70.3697 102.618 71.992C101.334 73.6143 99.5405 74.7583 97.5253 75.2397C95.5102 75.7211 93.3911 75.5118 91.5098 74.6455C89.6285 73.7792 88.0945 72.3065 87.1549 70.4646C86.2154 68.6227 85.9252 66.519 86.3309 64.4925C86.7367 62.466 87.8149 60.6348 89.3917 59.294C90.9685 57.9533 92.9521 57.181 95.0228 57.1017C97.0934 57.0225 99.1305 57.6408 100.806 58.8571C98.1768 61.2913 96.831 63.7796 97.6753 64.98C98.5196 66.1804 101.236 65.7386 104.363 64.1464C104.529 64.8511 104.609 65.5732 104.601 66.2971Z" fill="#99ADBF"/>
<path d="M60.7367 41.7598C64.1848 40.4135 67.4657 40.5511 68.0592 42.0683C68.6527 43.5854 66.3414 45.9029 62.8933 47.2533C59.4452 48.6038 56.1643 48.462 55.5666 46.9449C54.969 45.4277 57.2844 43.1061 60.7367 41.7598Z" fill="#99ADBF"/>
<path d="M91.6737 46.7698C91.2557 48.3454 88.0166 48.8539 84.4348 47.9286C80.8529 47.0032 78.2783 44.9567 78.6921 43.3812C79.1059 41.8057 82.3492 41.2972 85.931 42.2225C89.5129 43.1478 92.0874 45.1943 91.6737 46.7698Z" fill="#99ADBF"/>
<path d="M98.0348 174.562L88.7771 187.146L79.5237 174.554C80.6678 173.222 82.0875 172.153 83.6851 171.42C85.2828 170.687 87.0206 170.307 88.7792 170.307C90.5379 170.307 92.2757 170.687 93.8733 171.42C95.471 172.153 96.8906 173.222 98.0348 174.554V174.562Z" fill="#D6DEE5"/>
<path d="M88.7771 188C88.6442 188.001 88.513 187.97 88.3945 187.909C88.276 187.849 88.1737 187.762 88.0959 187.654L78.8382 175.058C78.7217 174.903 78.6633 174.711 78.6732 174.517C78.6831 174.323 78.7607 174.139 78.8926 173.995C80.1171 172.577 81.6344 171.438 83.3407 170.657C85.0469 169.877 86.902 169.473 88.7792 169.473C90.6564 169.473 92.5115 169.877 94.2178 170.657C95.9241 171.438 97.4413 172.577 98.6659 173.995C98.7977 174.139 98.8753 174.323 98.8853 174.517C98.8952 174.711 98.8368 174.903 98.7202 175.058L89.4626 187.654C89.3844 187.762 89.2813 187.85 89.1621 187.91C89.0428 187.971 88.9108 188.001 88.7771 188ZM80.6229 174.642L88.7771 185.737L96.9356 174.642C95.8822 173.545 94.617 172.672 93.2164 172.075C91.8157 171.479 90.3085 171.172 88.7855 171.172C87.2625 171.172 85.7553 171.479 84.3546 172.075C82.954 172.672 81.6888 173.545 80.6354 174.642H80.6229Z" fill="#99ADBF"/>
<path d="M122.61 40.4302L52.5825 35.9871C52.3308 35.9717 52.0845 35.9069 51.8579 35.7966C51.6313 35.6862 51.4288 35.5323 51.2618 35.3438C51.0949 35.1553 50.9669 34.9358 50.8851 34.6978C50.8034 34.4599 50.7694 34.2083 50.7853 33.9572L51.408 24.2082C51.4413 23.7016 51.6748 23.2288 52.0571 22.8936C52.4395 22.5584 52.9396 22.3881 53.4476 22.4201L123.476 26.8507C123.983 26.8829 124.457 27.1148 124.793 27.4954C125.13 27.876 125.301 28.3743 125.269 28.8806L124.65 38.6255C124.636 38.8778 124.571 39.1247 124.461 39.3522C124.35 39.5796 124.196 39.7831 124.006 39.9508C123.817 40.1185 123.596 40.2472 123.356 40.3295C123.117 40.4118 122.863 40.446 122.61 40.4302Z" fill="#D6DEE5"/>
<path d="M125.147 30.8437L125.11 31.3064L60.0847 27.1967C59.0528 27.1316 58.0371 27.478 57.2612 28.1595C56.4853 28.8411 56.0125 29.8021 55.947 30.8312L55.6085 36.1788L54.5469 36.1122C54.0362 36.0798 53.537 35.9474 53.0778 35.7224C52.6186 35.4974 52.2083 35.1843 51.8706 34.801C51.5329 34.4178 51.2742 33.9718 51.1095 33.4887C50.9448 33.0057 50.8772 32.4949 50.9107 31.9858L51.2743 26.1714C51.342 25.1437 51.8156 24.1848 52.5913 23.505C53.367 22.8252 54.3814 22.48 55.412 22.5451L121.499 26.7132C122.01 26.745 122.511 26.8772 122.971 27.1021C123.432 27.327 123.843 27.6402 124.182 28.0239C124.521 28.4075 124.781 28.8541 124.946 29.3379C125.112 29.8218 125.18 30.3335 125.147 30.8437Z" fill="#EBEFF2"/>
<path d="M120.893 41.147H120.588L54.4968 36.979C53.245 36.8985 52.076 36.3274 51.2452 35.3902C50.4143 34.4531 49.989 33.2261 50.0623 31.9773L50.4343 26.1421C50.4726 25.5235 50.6328 24.9186 50.9056 24.3617C51.1784 23.8049 51.5585 23.3072 52.0243 22.8969C52.49 22.4866 53.0322 22.1719 53.62 21.9706C54.2077 21.7693 54.8295 21.6855 55.4497 21.7239L121.54 25.892C122.791 25.9735 123.959 26.5451 124.789 27.4821C125.619 28.4192 126.044 29.6455 125.971 30.8936L125.603 36.7289C125.527 37.928 124.995 39.0531 124.118 39.876C123.24 40.6988 122.081 41.1577 120.876 41.1595L120.893 41.147ZM120.692 39.4506C121.499 39.5009 122.293 39.2297 122.899 38.6968C123.506 38.1638 123.875 37.4126 123.927 36.608L124.299 30.7728C124.348 29.9684 124.076 29.1774 123.542 28.5728C123.007 27.9681 122.255 27.5992 121.449 27.5467L55.3619 23.3786C54.5539 23.3285 53.7588 23.5997 53.151 24.133C52.8501 24.3952 52.6046 24.7145 52.4288 25.0724C52.253 25.4302 52.1504 25.8193 52.127 26.2171L51.755 32.0315C51.7046 32.8361 51.9765 33.6278 52.511 34.2326C53.0454 34.8375 53.7987 35.2061 54.6054 35.2576L120.692 39.4506Z" fill="#99ADBF"/>
<path d="M56.5071 83.7279C60.0847 92.8559 63.6791 97.1907 68.983 98.3661C69.5338 98.4903 70.0923 98.578 70.6548 98.6287C71.5614 98.722 72.4742 98.7415 73.384 98.687C75.2604 98.5626 77.0935 98.0692 78.7778 97.2351C80.462 96.401 81.9641 95.2427 83.1975 93.8271C83.7213 93.2334 84.1952 92.5977 84.6144 91.9264C84.7899 91.6555 84.9529 91.3762 85.1159 91.0928C86.4533 88.7587 87.4021 86.0912 88.5222 83.707C84.1045 87.9168 78.4914 91.4971 72.3809 91.2804C66.4543 91.0636 61.2634 87.3207 56.5071 83.7279Z" fill="#D6DEE5"/>
<path d="M72.3558 99.5624C71.7597 99.5643 71.1639 99.5337 70.5712 99.4707C69.9769 99.4141 69.3865 99.3222 68.8032 99.1956C63.2445 97.9452 59.4536 93.5729 55.7172 84.0364C55.6361 83.8635 55.6169 83.6681 55.663 83.4828C55.709 83.2975 55.8174 83.1335 55.9701 83.0184C56.1227 82.9032 56.3104 82.8438 56.5017 82.8501C56.693 82.8563 56.8764 82.9279 57.0212 83.0527C62.2079 86.9749 66.9517 90.2385 72.4227 90.4302C77.4381 90.6094 82.6458 88.1419 87.9454 83.0903C88.0815 82.9318 88.2721 82.83 88.4798 82.8049C88.6874 82.7798 88.897 82.8332 89.067 82.9547C89.2371 83.0761 89.3553 83.2567 89.3984 83.4608C89.4414 83.665 89.4062 83.8778 89.2996 84.0572C88.9151 84.8908 88.5556 85.7245 88.1879 86.5831C87.5085 88.2697 86.7297 89.9148 85.8557 91.5097C85.6927 91.8056 85.5213 92.1016 85.3291 92.3892C84.8903 93.0965 84.3926 93.7658 83.8412 94.3898C82.5322 95.8891 80.9388 97.1153 79.1527 97.998C77.3667 98.8807 75.4232 99.4025 73.4341 99.5332C73.0622 99.5541 72.7236 99.5624 72.3558 99.5624ZM58.4673 86.2246C61.5852 93.2269 64.7867 96.5656 69.1669 97.5325C69.6833 97.6486 70.2069 97.7307 70.7342 97.7785C71.6019 97.8679 72.4755 97.8874 73.3464 97.8368C75.485 97.6804 77.5562 97.022 79.391 95.9151C81.2258 94.8083 82.7722 93.2845 83.9038 91.468C84.0794 91.2013 84.2298 90.9387 84.3803 90.6678C85.0769 89.4146 85.7021 88.1232 86.2527 86.7998C81.5717 90.4969 76.9031 92.2808 72.36 92.1141C67.3111 91.9432 62.9728 89.4715 58.4673 86.233V86.2246Z" fill="#99ADBF"/>
<path d="M68.9829 98.3662C69.5338 98.4904 70.0923 98.5781 70.6547 98.6288C71.5614 98.7222 72.4741 98.7417 73.3839 98.6872C75.2603 98.5628 77.0935 98.0693 78.7777 97.2352C80.462 96.4011 81.9641 95.2429 83.1975 93.8272C83.7213 93.2335 84.1951 92.5978 84.6143 91.9266C84.7899 91.6557 84.9529 91.3764 85.1159 91.093C81.977 90.4261 78.1277 90.747 75.2647 92.1683C72.5694 93.5243 70.3714 95.693 68.9829 98.3662Z" fill="#EBEFF2"/>
<path d="M72.356 99.5624C71.7599 99.5644 71.1641 99.5337 70.5713 99.4707C69.9771 99.4141 69.3867 99.3222 68.8034 99.1956C68.6757 99.1682 68.5563 99.1112 68.4547 99.0295C68.3531 98.9477 68.2721 98.8433 68.2182 98.7246C68.1601 98.6088 68.1299 98.4811 68.1299 98.3516C68.1299 98.2221 68.1601 98.0944 68.2182 97.9786C69.6944 95.1405 72.032 92.84 74.8971 91.4055C77.8228 89.9551 81.8059 89.5174 85.2999 90.2635C85.4295 90.2902 85.5509 90.3472 85.6541 90.4298C85.7572 90.5124 85.8393 90.6183 85.8934 90.7387C85.9498 90.8589 85.9766 90.9909 85.9715 91.1236C85.9664 91.2562 85.9296 91.3858 85.8642 91.5014C85.6928 91.8057 85.5215 92.1016 85.3334 92.3892C84.0559 94.4318 82.3118 96.144 80.2437 97.3856C78.1756 98.6273 75.8422 99.3632 73.4343 99.5332C73.0623 99.5541 72.7238 99.5624 72.356 99.5624ZM70.3247 97.7451L70.7427 97.7868C71.6103 97.8783 72.484 97.8979 73.3549 97.8452C75.1195 97.7249 76.8429 97.2578 78.4259 96.471C80.0089 95.6842 81.4204 94.593 82.5791 93.2603C83.0108 92.774 83.4048 92.2557 83.7577 91.7098C80.9616 91.3639 77.9064 91.8057 75.6578 92.9102C73.4717 94.0073 71.6276 95.6791 70.3247 97.7451Z" fill="#99ADBF"/>
<path d="M47.7846 136.654C46.1545 136.654 44.5273 136.591 42.9029 136.466C42.7354 136.456 42.5718 136.412 42.4216 136.337C42.2715 136.263 42.1379 136.159 42.0287 136.032C41.9196 135.904 41.8372 135.757 41.7863 135.597C41.7354 135.438 41.7172 135.27 41.7326 135.103C41.7436 134.937 41.788 134.774 41.8631 134.625C41.9382 134.475 42.0425 134.343 42.1699 134.234C42.2973 134.126 42.4452 134.044 42.6048 133.994C42.7644 133.943 42.9326 133.925 43.0993 133.94C67.7083 135.841 93.1908 122.595 108.024 100.179C108.21 99.8984 108.501 99.7029 108.831 99.6357C109.162 99.5685 109.506 99.635 109.788 99.8207C110.069 100.006 110.265 100.296 110.333 100.626C110.4 100.956 110.333 101.299 110.147 101.58C95.7863 123.274 71.7332 136.654 47.7846 136.654Z" fill="#D6DEE5"/>
<path d="M47.7844 137.5C46.1419 137.5 44.4742 137.437 42.8359 137.312C42.2763 137.269 41.757 137.006 41.3918 136.58C41.0267 136.155 40.8455 135.603 40.8882 135.045C40.9093 134.763 40.9863 134.488 41.1147 134.237C41.2432 133.985 41.4205 133.761 41.6364 133.578C41.8476 133.398 42.0933 133.264 42.3584 133.182C42.6236 133.1 42.9026 133.073 43.1786 133.103C67.47 134.978 92.6516 121.882 107.318 99.7583C107.627 99.2907 108.111 98.965 108.661 98.8528C109.212 98.7407 109.785 98.8512 110.254 99.1602C110.723 99.4692 111.049 99.9512 111.162 100.5C111.274 101.049 111.163 101.621 110.853 102.088C96.3755 123.925 72.2095 137.5 47.7844 137.5ZM42.9822 134.778C42.8888 134.777 42.798 134.809 42.7272 134.87C42.6821 134.905 42.6447 134.95 42.6175 135C42.5903 135.051 42.5739 135.106 42.5692 135.163C42.5645 135.22 42.5716 135.278 42.5902 135.332C42.6087 135.386 42.6383 135.436 42.6771 135.479C42.713 135.521 42.757 135.555 42.8065 135.58C42.856 135.605 42.9101 135.62 42.9654 135.624C44.562 135.749 46.1878 135.812 47.7886 135.812C71.6453 135.812 95.2721 122.524 109.441 101.134C109.472 101.088 109.495 101.035 109.506 100.981C109.517 100.926 109.517 100.869 109.505 100.814C109.494 100.759 109.472 100.707 109.44 100.661C109.408 100.615 109.367 100.576 109.32 100.546C109.273 100.514 109.221 100.492 109.166 100.481C109.111 100.47 109.054 100.47 108.999 100.482C108.944 100.493 108.892 100.515 108.846 100.547C108.8 100.579 108.76 100.62 108.73 100.667C94.687 121.874 71.1772 134.966 47.7928 134.966C46.2046 134.966 44.6205 134.907 43.0323 134.782L42.9822 134.778Z" fill="#99ADBF"/>
<path d="M44.679 140.697C49.7526 140.697 53.8656 138.59 53.8656 135.991C53.8656 133.392 49.7526 131.285 44.679 131.285C39.6054 131.285 35.4924 133.392 35.4924 135.991C35.4924 138.59 39.6054 140.697 44.679 140.697Z" fill="#D6DEE5"/>
<path d="M44.679 141.543C39.0534 141.543 34.6482 139.105 34.6482 135.991C34.6482 132.878 39.0534 130.46 44.679 130.46C50.3047 130.46 54.7099 132.899 54.7099 136.012C54.7099 139.126 50.3089 141.543 44.679 141.543ZM44.679 132.127C39.7681 132.127 36.32 134.166 36.32 135.991C36.32 137.817 39.7472 139.855 44.679 139.855C49.6109 139.855 53.0172 137.817 53.0172 135.991C53.0172 134.166 49.5942 132.127 44.679 132.127Z" fill="#99ADBF"/>
</g>
<defs>
<clipPath id="clip0_244_597">
<rect width="126" height="188" fill="white"/>
</clipPath>
</defs>
</svg>
