<svg width="159" height="200" viewBox="0 0 159 200" fill="none" xmlns="http://www.w3.org/2000/svg">
<g clip-path="url(#clip0_246_1258)">
<path d="M45.6437 122.089C45.4769 122.088 45.3117 122.056 45.1562 121.996C26.0131 114.458 11.86 95.4929 9.93166 74.8389C9.91522 74.6624 9.93336 74.4845 9.98506 74.3151C10.0368 74.1457 10.121 73.9883 10.233 73.8518C10.3449 73.7153 10.4824 73.6024 10.6376 73.5196C10.7928 73.4367 10.9626 73.3856 11.1374 73.369C11.3122 73.3524 11.4885 73.3707 11.6563 73.4229C11.8241 73.4751 11.98 73.5601 12.1152 73.6731C12.2505 73.7861 12.3623 73.9249 12.4444 74.0816C12.5264 74.2383 12.5771 74.4097 12.5936 74.5861C14.4253 94.2514 27.9063 112.276 46.1313 119.481C46.4529 119.568 46.7302 119.774 46.9076 120.058C47.085 120.342 47.1492 120.684 47.0875 121.014C47.0258 121.344 46.8426 121.638 46.5748 121.837C46.307 122.037 45.9744 122.127 45.6437 122.089Z" fill="#505578"/>
<path d="M45.6438 122.989C45.3658 122.988 45.0902 122.936 44.8312 122.833C25.385 115.162 11.0079 95.9096 9.04443 74.9452C8.99065 74.3515 9.17221 73.7605 9.54931 73.3017C9.92641 72.8429 10.4683 72.5538 11.0563 72.4976C11.3459 72.4665 11.6389 72.4949 11.9174 72.581C12.1959 72.6671 12.4544 72.8091 12.6771 72.9986C12.9019 73.182 13.0887 73.4085 13.2266 73.6649C13.3646 73.9213 13.451 74.2027 13.481 74.4929C15.282 93.8256 28.5345 111.566 46.4565 118.634C46.7291 118.741 46.9779 118.901 47.1884 119.106C47.3988 119.311 47.5666 119.556 47.682 119.827C47.8011 120.097 47.8656 120.388 47.8717 120.684C47.8777 120.979 47.8252 121.273 47.7171 121.548C47.5596 121.973 47.2761 122.34 46.9053 122.598C46.5344 122.855 46.0941 122.992 45.6438 122.989ZM11.2715 74.2623H11.2276C11.168 74.2671 11.1099 74.2841 11.0571 74.3123C11.0042 74.3405 10.9576 74.3794 10.9201 74.4264C10.8825 74.4716 10.8542 74.5238 10.8368 74.5802C10.8195 74.6365 10.8134 74.6958 10.8191 74.7545C12.7123 95.0804 26.6325 113.726 45.4813 121.157C45.5634 121.193 45.6546 121.203 45.7424 121.186C45.8302 121.168 45.9106 121.123 45.9728 121.058C46.0349 120.993 46.0758 120.91 46.09 120.821C46.1043 120.732 46.0911 120.64 46.0523 120.559C46.0293 120.504 45.9956 120.455 45.9534 120.414C45.9111 120.373 45.8611 120.341 45.8063 120.319C27.2738 113.012 13.5688 94.6636 11.7064 74.6481C11.7011 74.5887 11.6839 74.531 11.656 74.4784C11.6281 74.4258 11.5899 74.3795 11.5438 74.3421C11.4643 74.2859 11.3685 74.2578 11.2715 74.2623Z" fill="#252945"/>
<path d="M141.359 150.405C139.435 153.411 134.454 154.985 129.06 155.783C120.419 157.069 110.694 156.369 110.694 156.369L108.168 93.6926L110.69 91.9588C110.743 91.9588 110.839 91.9189 110.971 91.8923C111.322 91.8036 111.669 91.7327 112.008 91.6617C112.245 91.6041 112.486 91.5598 112.728 91.5243L112.851 91.4977C113.519 91.3824 114.169 91.2893 114.766 91.2272C125.049 90.1408 128.888 96.2289 131.124 101.958C133.628 108.387 146.367 142.601 141.359 150.405Z" fill="#A06ACC"/>
<path d="M117.085 157.455C113.334 157.455 110.677 157.269 110.624 157.264C110.405 157.251 110.198 157.155 110.045 156.996C109.893 156.837 109.804 156.626 109.798 156.404L107.277 93.7281C107.269 93.5754 107.301 93.4233 107.368 93.2866C107.436 93.1498 107.538 93.0331 107.663 92.9477L110.185 91.2139C110.293 91.1398 110.416 91.0899 110.545 91.0676L110.795 91.0144C111.085 90.9346 111.419 90.8636 111.748 90.7971C112.078 90.7306 112.337 90.673 112.596 90.6375L112.702 90.6109C113.404 90.4912 114.055 90.3981 114.678 90.336C125.629 89.1787 129.662 95.7589 131.95 101.625C134.586 108.392 147.456 142.561 142.106 150.897C140.292 153.73 135.956 155.672 129.187 156.661C125.177 157.213 121.133 157.479 117.085 157.455ZM111.546 155.517C114.028 155.65 121.891 155.961 128.928 154.896C135.078 153.983 139.11 152.263 140.612 149.917C144.662 143.603 135.636 116.001 130.294 102.286C128.098 96.6856 124.557 91.0942 114.863 92.1229C114.274 92.185 113.668 92.2693 113.005 92.3845L112.86 92.4156C112.64 92.4466 112.421 92.4865 112.201 92.5397H112.113C111.81 92.6018 111.502 92.6683 111.195 92.7481L111.046 92.7792L109.078 94.136L111.546 155.517Z" fill="#663B8A"/>
<path d="M129.055 155.783C120.415 157.069 110.69 156.369 110.69 156.369L108.168 93.6927L110.69 91.9589C110.743 91.9589 110.839 91.919 110.971 91.8924C111.366 91.8037 112.043 91.6707 112.728 91.5244L112.851 91.4978C113.519 91.3825 114.169 91.2894 114.766 91.2273C116.488 105.248 120.283 153.699 128.621 155.668C128.77 155.704 128.915 155.739 129.055 155.783Z" fill="#743DA1"/>
<path d="M117.081 157.455C113.334 157.455 110.677 157.269 110.624 157.264C110.405 157.251 110.198 157.155 110.045 156.996C109.893 156.837 109.804 156.626 109.798 156.404L107.277 93.7279C107.269 93.5753 107.301 93.4232 107.368 93.2864C107.436 93.1497 107.538 93.0329 107.663 92.9475L110.185 91.2138C110.293 91.1397 110.416 91.0898 110.545 91.0675L110.795 91.0143C111.037 90.9566 111.423 90.8768 111.854 90.7881L112.548 90.6462L112.702 90.6108C113.404 90.4866 114.055 90.3979 114.678 90.3314C114.794 90.3179 114.91 90.3274 115.022 90.3596C115.133 90.3918 115.237 90.4459 115.328 90.5189C115.418 90.5918 115.494 90.6822 115.55 90.7847C115.606 90.8872 115.641 90.9999 115.654 91.1163C115.899 93.1338 116.189 95.874 116.532 99.0444C118.258 115.264 122.3 153.251 128.831 154.79C129.007 154.834 129.17 154.874 129.332 154.927C129.536 154.976 129.716 155.097 129.839 155.268C129.963 155.439 130.021 155.649 130.005 155.86C129.988 156.071 129.898 156.269 129.75 156.418C129.601 156.567 129.405 156.658 129.196 156.674C125.181 157.223 121.133 157.484 117.081 157.455ZM111.546 155.517C116.479 155.776 121.423 155.677 126.341 155.22C120.525 149.012 117.323 123.348 114.757 99.2351C114.467 96.517 114.213 94.1181 113.989 92.2292C113.672 92.2735 113.347 92.3268 113.005 92.3844L112.728 91.5242L112.908 92.411L112.21 92.5573C111.792 92.6416 111.423 92.717 111.169 92.7746L111.046 92.8012L109.078 94.158L111.546 155.517Z" fill="#663B8A"/>
<path d="M117.305 151.802L82.9636 199.091L48.6309 151.81C48.6309 148.671 51.4465 145.966 55.5009 144.742C57.0795 144.272 58.7176 144.036 60.3636 144.042C65.7358 144.042 70.2602 146.423 71.657 149.686C73.0583 146.423 77.5827 144.042 82.9549 144.042C88.3271 144.042 92.8515 146.423 94.2483 149.686C95.6496 146.423 100.174 144.042 105.546 144.042C110.624 144.042 114.96 146.184 116.602 149.168C117.052 149.972 117.294 150.878 117.305 151.802Z" fill="#7569DE"/>
<path d="M79.88 189.146L76.6383 190.387L48.6309 151.81C48.6309 148.671 51.4465 145.966 55.5009 144.742L79.88 189.146Z" fill="#9589FF"/>
<path d="M82.9635 200C82.823 200.001 82.6843 199.969 82.5589 199.905C82.4336 199.841 82.3253 199.747 82.2431 199.632L47.9191 152.356C47.7987 152.196 47.7324 152.002 47.7302 151.801C47.7302 148.361 50.6777 145.248 55.2328 143.873L55.3251 143.851C56.9642 143.367 58.6643 143.125 60.3722 143.133C65.2656 143.133 69.566 144.991 71.6657 147.891C73.7653 144.991 78.0701 143.133 82.9635 143.133C87.8569 143.133 92.1573 144.991 94.257 147.891C96.3566 144.991 100.661 143.133 105.555 143.133C110.795 143.133 115.552 145.376 117.389 148.72C117.916 149.668 118.192 150.737 118.192 151.824C118.194 152.015 118.134 152.202 118.021 152.356L83.6795 199.632C83.5978 199.746 83.4902 199.84 83.3656 199.904C83.2411 199.968 83.1032 200.001 82.9635 200ZM49.5224 151.518L82.9635 197.579L116.405 151.522C116.355 150.843 116.159 150.183 115.829 149.589C114.301 146.804 110.167 144.933 105.555 144.933C100.675 144.933 96.3654 147.03 95.074 150.037C95.0061 150.198 94.8923 150.336 94.7468 150.432C94.6014 150.529 94.4309 150.579 94.257 150.578C94.083 150.579 93.9125 150.529 93.7671 150.432C93.6216 150.336 93.5078 150.198 93.4399 150.037C92.1529 147.03 87.8437 144.933 82.9635 144.933C78.0833 144.933 73.7961 147.03 72.4783 150.037C72.4105 150.198 72.2966 150.336 72.1512 150.432C72.0057 150.529 71.8352 150.579 71.6613 150.578C71.4873 150.579 71.3168 150.529 71.1714 150.432C71.0259 150.336 70.9121 150.198 70.8442 150.037C69.5572 147.03 65.248 144.933 60.3678 144.933C58.817 144.928 57.2736 145.15 55.7863 145.594H55.6941C52.0657 146.729 49.6893 149.017 49.5224 151.518Z" fill="#5145B9"/>
<path d="M49.6587 25.4474C53.6121 16.0072 58.6987 2.35907 65.4722 1.21507C72.2456 0.071071 100.842 2.06198 106.425 4.96632C114.331 9.07673 116.739 31.0965 116.739 31.0965L49.6587 25.4474Z" fill="#EA5189"/>
<path d="M110.694 9.56004C104.105 6.7843 76.871 4.93084 70.2821 6.0438C64.475 7.02374 59.9023 17.169 56.2257 25.9972L49.6367 25.4518C53.5901 16.0072 58.6811 2.35907 65.4502 1.21507C72.2192 0.071071 100.824 2.06198 106.411 4.96632C108.085 5.83096 109.499 7.48488 110.694 9.56004Z" fill="#FF73A5"/>
<path d="M116.739 31.9965H116.664L49.584 26.343C49.4421 26.3311 49.3051 26.2845 49.185 26.2072C49.0649 26.13 48.9651 26.0244 48.8944 25.8996C48.8227 25.7774 48.7802 25.6401 48.7703 25.4985C48.7604 25.3568 48.7833 25.2148 48.8373 25.0837C49.1448 24.3477 49.461 23.585 49.7817 22.8046C53.7087 13.3023 58.5977 1.46771 65.3228 0.328145C72.0479 -0.811418 101.031 1.14402 106.833 4.16807C115.061 8.45141 117.52 30.0765 117.621 30.9988C117.637 31.1242 117.626 31.2516 117.589 31.3723C117.552 31.493 117.49 31.6044 117.406 31.6989C117.323 31.7933 117.221 31.8688 117.107 31.9201C116.992 31.9714 116.868 31.9975 116.743 31.9965H116.739ZM50.9545 24.6536L115.711 30.1075C115.087 25.6779 112.451 9.10766 106.016 5.76435C100.591 2.93539 72.0392 1.01543 65.6171 2.10178C59.8628 3.07729 54.987 14.8853 51.4289 23.5096C51.2679 23.8969 51.1097 24.2782 50.9545 24.6536Z" fill="#AD1D52"/>
<path d="M116.611 149.159C114.968 146.174 110.633 144.033 105.555 144.033C100.183 144.033 95.6583 146.414 94.2571 149.677C92.8602 146.414 88.3358 144.033 82.9636 144.033C77.5914 144.033 73.067 146.414 71.6658 149.677C70.2689 146.414 65.7445 144.033 60.3723 144.033C53.8756 144.033 48.622 147.514 48.622 151.801H48.4332C40.6958 113.471 40.6958 73.9586 48.4332 35.6279H117.125C109.562 73.0694 109.387 111.649 116.611 149.159Z" fill="#7569DE"/>
<path d="M56.8451 35.6191C49.5861 71.5805 49.139 108.604 55.5273 144.733C51.4641 145.948 48.6396 148.662 48.6396 151.801H48.4507C40.7134 113.471 40.7134 73.9586 48.4507 35.628L56.8451 35.6191Z" fill="#9589FF"/>
<path d="M71.6658 150.578C71.4596 150.582 71.2587 150.512 71.098 150.382C70.9374 150.251 70.8274 150.068 70.7872 149.864C63.3198 113.894 63.1002 73.9874 70.203 37.4948C70.2485 37.2596 70.3846 37.0522 70.5815 36.9183C70.7784 36.7845 71.0199 36.735 71.2529 36.7809C71.4859 36.8267 71.6913 36.9642 71.8239 37.1629C71.9565 37.3616 72.0055 37.6054 71.9601 37.8406C64.9055 74.1071 65.112 113.757 72.5399 149.496C72.5656 149.611 72.568 149.731 72.547 149.848C72.526 149.964 72.4821 150.076 72.4178 150.175C72.3535 150.274 72.2701 150.359 72.1727 150.425C72.0752 150.491 71.9656 150.537 71.8503 150.56C71.7896 150.572 71.7277 150.578 71.6658 150.578Z" fill="#5145B9"/>
<path d="M94.2571 150.578C94.0528 150.582 93.8533 150.515 93.6929 150.387C93.5326 150.259 93.4214 150.079 93.3785 149.877C85.5509 114.914 85.4191 74.5995 93.0183 36.3642C93.0414 36.2478 93.087 36.137 93.1524 36.0384C93.2179 35.9397 93.302 35.855 93.3999 35.7891C93.4978 35.7232 93.6076 35.6774 93.723 35.6544C93.8384 35.6314 93.9572 35.6315 94.0726 35.6548C94.1879 35.6781 94.2976 35.7241 94.3954 35.7902C94.4931 35.8562 94.5771 35.9411 94.6423 36.0399C94.7076 36.1387 94.7529 36.2496 94.7757 36.3661C94.7986 36.4826 94.7985 36.6025 94.7754 36.719C87.2288 74.7192 87.3518 114.759 95.1312 149.491C95.1584 149.606 95.1624 149.726 95.1432 149.843C95.124 149.959 95.0818 150.071 95.0192 150.171C94.9565 150.271 94.8747 150.357 94.7785 150.425C94.6824 150.492 94.5737 150.54 94.4591 150.564C94.3926 150.578 94.3247 150.582 94.2571 150.578Z" fill="#5145B9"/>
<path d="M48.6308 152.71H48.4419C48.2351 152.714 48.0336 152.644 47.8729 152.513C47.7122 152.381 47.6026 152.197 47.5633 151.992C39.7533 113.542 39.7533 73.8918 47.5633 35.4417C47.6026 35.2368 47.7122 35.0523 47.8729 34.9209C48.0336 34.7895 48.2351 34.7196 48.4419 34.7234H117.125C117.258 34.7202 117.39 34.7477 117.511 34.8036C117.632 34.8596 117.739 34.9426 117.824 35.0464C117.909 35.1502 117.969 35.2721 118 35.4028C118.031 35.5335 118.032 35.6696 118.004 35.8009C110.422 73.1238 110.246 111.594 117.485 148.986C117.565 149.207 117.554 149.452 117.455 149.666C117.357 149.879 117.178 150.045 116.958 150.125C116.739 150.206 116.496 150.195 116.284 150.095C116.073 149.995 115.909 149.815 115.829 149.593C114.296 146.804 110.167 144.933 105.555 144.933C100.675 144.933 96.3655 147.03 95.074 150.037C95.0062 150.198 94.8923 150.336 94.7469 150.432C94.6014 150.529 94.4309 150.579 94.257 150.578C94.0831 150.579 93.9126 150.529 93.7671 150.432C93.6217 150.336 93.5078 150.198 93.44 150.037C92.1529 147.03 87.8438 144.933 82.9635 144.933C78.0833 144.933 73.7961 147.03 72.4783 150.037C72.4105 150.198 72.2966 150.336 72.1512 150.432C72.0057 150.529 71.8353 150.579 71.6613 150.578C71.4874 150.579 71.3169 150.529 71.1714 150.432C71.026 150.336 70.9121 150.198 70.8443 150.037C69.5572 147.03 65.2481 144.933 60.3679 144.933C54.4115 144.933 49.562 147.979 49.5049 151.735C49.5172 151.859 49.5036 151.983 49.465 152.101C49.4264 152.22 49.3637 152.328 49.2808 152.42C49.198 152.512 49.0969 152.585 48.9842 152.635C48.8714 152.685 48.7495 152.711 48.6264 152.71H48.6308ZM49.1711 36.5369C41.7667 73.4659 41.6055 111.502 48.6966 148.493C50.603 145.359 55.1187 143.15 60.3723 143.15C65.2656 143.15 69.566 145.013 71.6657 147.908C73.7698 145.008 78.0702 143.15 82.9635 143.15C87.8569 143.15 92.1573 145.013 94.257 147.908C96.3567 145.008 100.661 143.15 105.555 143.15C109.289 143.15 112.776 144.29 115.14 146.157C108.527 109.893 108.825 72.6883 116.018 36.5369H49.1711Z" fill="#5145B9"/>
<path d="M51.4024 87.3652C60.6139 87.3652 68.0813 79.8273 68.0813 70.5289C68.0813 61.2305 60.6139 53.6926 51.4024 53.6926C42.191 53.6926 34.7236 61.2305 34.7236 70.5289C34.7236 79.8273 42.191 87.3652 51.4024 87.3652Z" fill="white"/>
<path d="M51.3938 88.2653C47.9186 88.2653 44.5216 87.2251 41.6321 85.2762C38.7427 83.3273 36.4906 80.5572 35.1607 77.3163C33.8309 74.0754 33.4829 70.5092 34.1609 67.0687C34.8388 63.6282 36.5123 60.4678 38.9695 57.9874C41.4268 55.5069 44.5576 53.8177 47.9659 53.1333C51.3743 52.4489 54.9071 52.8002 58.1177 54.1426C61.3283 55.485 64.0724 57.7583 66.0031 60.6751C67.9338 63.5918 68.9643 67.021 68.9643 70.5289C68.9643 72.8581 68.5098 75.1644 67.6268 77.3163C66.7438 79.4682 65.4496 81.4234 63.818 83.0704C62.1864 84.7174 60.2495 86.0238 58.1177 86.9152C55.986 87.8065 53.7012 88.2653 51.3938 88.2653ZM51.3938 54.5927C48.2725 54.598 45.2228 55.5371 42.6301 57.2914C40.0374 59.0457 38.018 61.5364 36.8272 64.4488C35.6363 67.3612 35.3275 70.5646 35.9396 73.6541C36.5517 76.7437 38.0574 79.5808 40.2663 81.8068C42.4752 84.0329 45.2882 85.548 48.3499 86.1607C51.4116 86.7735 54.5845 86.4564 57.4677 85.2494C60.3508 84.0425 62.8149 81.9999 64.5484 79.3798C66.282 76.7597 67.2072 73.6796 67.2072 70.5289C67.2002 66.2999 65.5311 62.2465 62.5663 59.2587C59.6014 56.2709 55.5832 54.5927 51.3938 54.5927Z" fill="black"/>
<path d="M65.0461 70.5287C65.0463 72.7295 64.3123 74.8662 62.9624 76.5944C61.6125 78.3226 59.7254 79.5416 57.6053 80.0547C55.4852 80.5679 53.2557 80.3454 51.2762 79.423C49.2967 78.5007 47.6826 76.9323 46.6941 74.9708C45.7056 73.0092 45.4003 70.7687 45.8275 68.6106C46.2547 66.4525 47.3894 64.5025 49.0487 63.0749C50.7081 61.6474 52.7953 60.8256 54.9739 60.7419C57.1525 60.6583 59.2956 61.3177 61.0575 62.6139C58.299 65.2034 56.8802 67.8505 57.7719 69.1276C58.6636 70.4046 61.5144 69.9346 64.8001 68.2407C64.9732 68.9906 65.0558 69.7588 65.0461 70.5287Z" fill="black"/>
<path d="M101.83 87.3652C111.041 87.3652 118.509 79.8273 118.509 70.5289C118.509 61.2305 111.041 53.6926 101.83 53.6926C92.6185 53.6926 85.1511 61.2305 85.1511 70.5289C85.1511 79.8273 92.6185 87.3652 101.83 87.3652Z" fill="white"/>
<path d="M101.83 88.2653C98.3547 88.2653 94.9576 87.2251 92.0681 85.2762C89.1787 83.3273 86.9266 80.5572 85.5968 77.3163C84.2669 74.0754 83.9189 70.5092 84.5969 67.0687C85.2749 63.6282 86.9483 60.4678 89.4056 57.9874C91.8629 55.5069 94.9936 53.8177 98.402 53.1333C101.81 52.4489 105.343 52.8002 108.554 54.1426C111.764 55.485 114.508 57.7583 116.439 60.6751C118.37 63.5918 119.4 67.021 119.4 70.5289C119.4 72.8581 118.946 75.1644 118.063 77.3163C117.18 79.4682 115.886 81.4234 114.254 83.0704C112.622 84.7174 110.685 86.0238 108.554 86.9152C106.422 87.8065 104.137 88.2653 101.83 88.2653ZM101.83 54.5927C98.7076 54.5936 95.6557 55.529 93.0601 57.2806C90.4645 59.0322 88.4418 61.5214 87.2475 64.4335C86.0533 67.3455 85.7413 70.5496 86.351 73.6406C86.9606 76.7316 88.4645 79.5707 90.6726 81.799C92.8806 84.0273 95.6936 85.5446 98.7559 86.1591C101.818 86.7737 104.992 86.4578 107.877 85.2515C110.761 84.0452 113.226 82.0027 114.961 79.3821C116.696 76.7615 117.621 73.6806 117.621 70.5289C117.614 66.3037 115.948 62.2537 112.988 59.2665C110.028 56.2793 106.015 54.5986 101.83 54.5927Z" fill="black"/>
<path d="M108.19 70.5288C108.19 72.7272 107.456 74.8613 106.107 76.5871C104.757 78.313 102.872 79.53 100.754 80.0421C98.6362 80.5543 96.4092 80.3316 94.4319 79.41C92.4547 78.4885 90.8424 76.9217 89.855 74.9623C88.8676 73.0028 88.5625 70.7648 88.989 68.609C89.4154 66.4531 90.5486 64.505 92.2058 63.0787C93.863 61.6523 95.9477 60.8308 98.124 60.7465C100.3 60.6621 102.441 61.32 104.202 62.6139C101.439 65.2034 100.024 67.8506 100.912 69.1276C101.799 70.4046 104.654 69.9346 107.94 68.2408C108.115 68.9904 108.199 69.7587 108.19 70.5288Z" fill="black"/>
<path d="M64.1939 44.4254C67.8179 42.9932 71.2661 43.1395 71.8898 44.7535C72.5136 46.3675 70.0845 48.8329 66.4605 50.2695C62.8366 51.7062 59.384 51.5554 58.7603 49.9414C58.1365 48.3274 60.5656 45.8576 64.1939 44.4254Z" fill="black"/>
<path d="M96.7082 49.755C96.2689 51.4311 92.8646 51.9721 89.1001 50.9877C85.3357 50.0034 82.6298 47.8262 83.0647 46.1501C83.4995 44.474 86.9082 43.9331 90.6727 44.9174C94.4372 45.9018 97.143 48.079 96.7082 49.755Z" fill="black"/>
<path d="M92.6845 185.704L82.968 199.091L73.2383 185.696C74.4408 184.279 75.9328 183.141 77.6119 182.361C79.291 181.582 81.1174 181.178 82.9658 181.178C84.8141 181.178 86.6405 181.582 88.3196 182.361C89.9987 183.141 91.4907 184.279 92.6932 185.696L92.6845 185.704Z" fill="#9397B4"/>
<path d="M82.9679 200C82.8275 200.001 82.6887 199.969 82.5634 199.905C82.438 199.841 82.3297 199.747 82.2476 199.632L72.5223 186.232C72.3992 186.067 72.3371 185.864 72.3467 185.657C72.3563 185.451 72.4371 185.254 72.575 185.102C73.8624 183.592 75.4574 182.381 77.251 181.55C79.0447 180.72 80.9947 180.29 82.9679 180.29C84.9412 180.29 86.8912 180.72 88.6849 181.55C90.4785 182.381 92.0735 183.592 93.3609 185.102C93.4988 185.254 93.5796 185.451 93.5892 185.657C93.5988 185.864 93.5367 186.067 93.4136 186.232L83.6883 199.632C83.6062 199.747 83.4979 199.841 83.3725 199.905C83.2472 199.969 83.1084 200.001 82.9679 200ZM74.3979 185.789L82.9679 197.592L91.538 185.789C90.4309 184.622 89.1012 183.693 87.6291 183.059C86.157 182.424 84.573 182.097 82.9723 182.097C81.3717 182.097 79.7876 182.424 78.3155 183.059C76.8434 183.693 75.5138 184.622 74.4067 185.789H74.3979Z" fill="#505578"/>
<path d="M118.522 43.0107L44.9234 38.284C44.3918 38.2464 43.8965 37.9984 43.5452 37.594C43.194 37.1896 43.0152 36.6615 43.0477 36.1246L43.7022 25.7532C43.719 25.4862 43.7878 25.2251 43.9046 24.9848C44.0215 24.7446 44.1841 24.53 44.3832 24.3534C44.5823 24.1767 44.814 24.0414 45.065 23.9552C45.3159 23.869 45.5813 23.8336 45.8458 23.851L119.431 28.5645C119.965 28.5987 120.464 28.8452 120.818 29.25C121.172 29.6548 121.352 30.1848 121.32 30.7239L120.665 41.0908C120.651 41.3594 120.584 41.6224 120.468 41.8647C120.352 42.1069 120.19 42.3236 119.99 42.5021C119.791 42.6807 119.559 42.8175 119.307 42.9048C119.055 42.9922 118.788 43.0281 118.522 43.0107Z" fill="#9397B4"/>
<path d="M121.188 32.8124L121.153 33.3046L52.8081 28.9326C51.7235 28.8633 50.6561 29.2318 49.8406 29.9569C49.0251 30.682 48.5283 31.7043 48.4594 32.7991L48.1036 38.4881L47.001 38.4171C46.4642 38.3833 45.9392 38.2428 45.4563 38.0036C44.9734 37.7645 44.542 37.4314 44.1869 37.0235C43.8319 36.6157 43.5601 36.141 43.3872 35.6269C43.2143 35.1127 43.1437 34.5691 43.1794 34.0273L43.5616 27.8418C43.6327 26.7486 44.1305 25.7285 44.9458 25.0053C45.761 24.2821 46.8272 23.9148 47.9103 23.9841L117.367 28.4182C118.45 28.49 119.462 28.9931 120.178 29.817C120.895 30.6409 121.258 31.7183 121.188 32.8124Z" fill="#B5BBDE"/>
<path d="M116.721 43.7734H116.396L46.9396 39.3393C45.624 39.2537 44.3954 38.6461 43.5222 37.6491C42.649 36.6522 42.202 35.3469 42.279 34.0184L42.6656 27.8106C42.7501 26.4783 43.3553 25.2343 44.348 24.352C44.8382 23.9137 45.4099 23.5782 46.0298 23.3651C46.6497 23.1519 47.3054 23.0654 47.9587 23.1105L117.415 27.5446C118.731 27.6302 119.959 28.2378 120.832 29.2348C121.706 30.2317 122.153 31.537 122.076 32.8655L121.685 39.0733C121.605 40.3485 121.048 41.5454 120.126 42.4209C119.204 43.2964 117.987 43.7847 116.721 43.7867V43.7734ZM116.51 41.9687C116.931 41.9964 117.353 41.9401 117.752 41.803C118.151 41.666 118.519 41.4509 118.835 41.17C119.152 40.8892 119.411 40.548 119.597 40.1662C119.782 39.7844 119.892 39.3693 119.919 38.9447L120.305 32.7369C120.359 31.8814 120.075 31.0392 119.514 30.3956C118.953 29.7519 118.161 29.3596 117.314 29.3049L47.8533 24.8708C47.0053 24.8174 46.171 25.1058 45.5335 25.6728C44.8961 26.2398 44.5076 27.039 44.4534 27.8949L44.0668 34.0805C44.0139 34.9357 44.299 35.7773 44.8598 36.4206C45.4205 37.064 46.2111 37.4566 47.0582 37.5124L116.51 41.9687Z" fill="#505578"/>
<path d="M92.2451 89.0989C92.2329 90.6575 92.0502 92.21 91.7004 93.7281C90.7736 97.8828 88.6256 101.865 85.195 103.98C81.9125 105.972 78.0451 106.748 74.2573 106.175C72.5686 105.931 70.9297 105.414 69.4035 104.645C64.4925 102.153 61.7427 96.9916 61.2507 91.4711C62.1688 91.7771 63.0956 92.0564 64.0313 92.2914C72.2506 94.3694 80.9084 93.7956 88.7881 90.6508C89.9478 90.203 91.0986 89.6797 92.2451 89.0989Z" fill="#851039"/>
<path d="M76.6383 107.248C75.7915 107.248 74.9459 107.186 74.1081 107.061C72.3305 106.814 70.6049 106.274 68.9995 105.465C64.1412 103.004 60.9126 97.8073 60.3592 91.5686C60.3423 91.4189 60.3634 91.2673 60.4206 91.1282C60.4778 90.9891 60.5692 90.8669 60.6861 90.7733C60.803 90.6797 60.9416 90.6177 61.0888 90.5931C61.2361 90.5686 61.3871 90.5823 61.5276 90.633C62.5072 90.9611 63.3945 91.2227 64.2423 91.4355C72.2802 93.4708 80.7481 92.9109 88.4544 89.8348C89.6273 89.3648 90.7562 88.846 91.8148 88.2962C91.9526 88.2175 92.109 88.178 92.2673 88.1816C92.4256 88.1853 92.5799 88.2321 92.7141 88.317C92.8482 88.402 92.9571 88.522 93.0292 88.6643C93.1013 88.8066 93.134 88.9659 93.1238 89.1254C93.1145 90.7513 92.9244 92.371 92.5571 93.9541C91.4853 98.7695 88.9684 102.716 85.6519 104.769C82.9288 106.412 79.8109 107.27 76.6383 107.248ZM62.3051 92.7658C63.109 97.7674 65.85 101.856 69.7989 103.851C71.235 104.569 72.7759 105.05 74.3629 105.274C77.9445 105.809 81.5991 105.078 84.7075 103.204C87.6154 101.403 89.8381 97.8827 90.8089 93.5196C91.0268 92.5459 91.1736 91.5574 91.2481 90.562C90.5497 90.8901 89.8293 91.2005 89.0958 91.4976C81.0411 94.7121 72.1908 95.2967 63.7898 93.1693C63.3183 93.0569 62.8234 92.9224 62.3051 92.7658Z" fill="black"/>
<path d="M91.6785 93.728C90.7516 97.8828 88.6036 101.865 85.173 103.98C81.8905 105.972 78.0231 106.748 74.2354 106.175C75.3789 103.427 77.0994 100.963 79.2781 98.9514C79.6687 98.5786 80.0793 98.2278 80.508 97.9005C83.7432 95.4296 87.6292 93.978 91.6785 93.728Z" fill="#DB1A47"/>
<path d="M76.6381 107.248C75.7913 107.248 74.9457 107.186 74.1079 107.061C73.9729 107.043 73.8439 106.994 73.7311 106.917C73.6183 106.84 73.5247 106.738 73.4578 106.618C73.3924 106.498 73.3545 106.365 73.3469 106.228C73.3393 106.092 73.3622 105.955 73.4139 105.829C74.6133 102.963 76.4112 100.391 78.685 98.2908C79.0946 97.9017 79.5242 97.5346 79.9721 97.1912C83.3483 94.606 87.4087 93.0906 91.6389 92.8369C91.7771 92.8266 91.9158 92.8494 92.0436 92.9036C92.1714 92.9577 92.2847 93.0416 92.3743 93.1485C92.4638 93.2553 92.527 93.382 92.5588 93.5182C92.5905 93.6544 92.5899 93.7962 92.557 93.9321C91.4808 98.7564 88.9638 102.698 85.6474 104.751C82.9273 106.4 79.8109 107.264 76.6381 107.248ZM75.5531 105.412C78.7564 105.641 81.9518 104.867 84.7029 103.195C87.3385 101.563 89.4075 98.5125 90.4968 94.7169C87.0647 95.1564 83.806 96.4939 81.0439 98.5968C80.6423 98.9062 80.2567 99.2362 79.8886 99.5856C78.098 101.24 76.6278 103.215 75.5531 105.412Z" fill="black"/>
<path d="M88.7837 90.6729C88.4648 92.1032 87.8312 93.4428 86.93 94.5926C86.3152 95.3945 85.5888 96.1024 84.7732 96.6944C83.1316 97.8518 81.2539 98.623 79.2781 98.9513C77.9028 99.1971 76.504 99.2819 75.1095 99.2041C72.3114 99.071 69.4605 98.3394 67.2027 96.65C65.7343 95.5567 64.6237 94.0449 64.0137 92.309C72.2369 94.3891 80.8991 93.817 88.7837 90.6729Z" fill="white"/>
<path d="M76.1242 100.131C75.7728 100.131 75.417 100.131 75.0612 100.104C71.7404 99.9446 68.8412 99.0001 66.6844 97.3728C65.0657 96.1722 63.8415 94.5085 63.1703 92.5973C63.1139 92.4438 63.1007 92.2775 63.1322 92.1168C63.1636 91.9561 63.2386 91.8074 63.3487 91.6871C63.4587 91.5668 63.5997 91.4796 63.7558 91.4352C63.912 91.3908 64.0773 91.391 64.2334 91.4356C72.2699 93.4707 80.7363 92.9109 88.4411 89.8349C88.5914 89.7697 88.7568 89.7482 88.9185 89.7728C89.0802 89.7974 89.232 89.8671 89.3566 89.974C89.4813 90.0809 89.5738 90.2208 89.624 90.378C89.6741 90.5352 89.6798 90.7033 89.6403 90.8636C89.2937 92.4263 88.6031 93.8902 87.6197 95.1469C86.9526 96.0182 86.164 96.7874 85.2784 97.4305C83.5296 98.665 81.5287 99.4878 79.4231 99.8382C78.3343 100.035 77.2303 100.133 76.1242 100.131ZM65.617 93.5994C66.1766 94.5031 66.8992 95.2928 67.7475 95.9273C69.6231 97.3418 72.184 98.1444 75.1534 98.304C76.4758 98.3812 77.8025 98.3023 79.1068 98.069C80.9522 97.7632 82.7066 97.0451 84.2418 95.9672C84.9878 95.4235 85.6521 94.7739 86.2141 94.0384C86.6623 93.4603 87.0412 92.8307 87.343 92.1628C80.3564 94.5836 72.8567 95.0795 65.617 93.5994Z" fill="black"/>
<path d="M116.444 134.265C110.259 137.094 102.357 134.752 98.2148 129.321C94.0726 123.889 93.7168 115.978 96.84 109.895C99.9631 103.811 106.24 99.6476 112.939 98.5347C113.653 99.9542 114.039 101.519 114.068 103.111C109.407 103.519 105.05 106.113 103.117 110.409C102.143 112.57 101.755 114.953 101.993 117.314C102.231 119.676 103.087 121.931 104.472 123.849C105.858 125.768 107.723 127.28 109.878 128.231C112.032 129.182 114.398 129.538 116.734 129.263C116.435 130.806 116.752 132.735 116.444 134.265Z" fill="#A06ACC"/>
<path d="M110.694 136.389C108.153 136.377 105.647 135.784 103.365 134.655C101.083 133.526 99.0831 131.89 97.5163 129.87C93.251 124.279 92.6844 116.085 96.0579 109.474C99.1987 103.368 105.612 98.8318 112.803 97.639C112.982 97.6076 113.167 97.6334 113.332 97.7128C113.496 97.7923 113.632 97.9214 113.721 98.0824C114.506 99.6345 114.933 101.346 114.968 103.088C114.976 103.318 114.895 103.541 114.742 103.712C114.59 103.882 114.378 103.986 114.151 104.002C109.552 104.405 105.634 107.004 103.934 110.777C103.026 112.793 102.666 115.017 102.889 117.22C103.112 119.423 103.912 121.527 105.205 123.316C106.498 125.105 108.239 126.515 110.249 127.402C112.26 128.288 114.467 128.62 116.646 128.363C116.786 128.347 116.927 128.365 117.059 128.414C117.191 128.463 117.31 128.543 117.406 128.647C117.502 128.751 117.572 128.877 117.609 129.015C117.647 129.152 117.651 129.297 117.621 129.436C117.506 130.203 117.464 130.98 117.494 131.755C117.525 132.653 117.469 133.551 117.327 134.438C117.3 134.578 117.241 134.71 117.153 134.822C117.065 134.934 116.951 135.022 116.822 135.081C114.895 135.953 112.806 136.399 110.694 136.389ZM112.451 99.5412C106.069 100.796 100.437 104.862 97.6437 110.312C94.6128 116.209 95.1443 123.805 98.9351 128.775C102.801 133.843 110.053 135.923 115.653 133.653C115.709 133.031 115.729 132.406 115.715 131.782C115.715 131.276 115.715 130.762 115.741 130.256C113.328 130.349 110.931 129.817 108.779 128.711C106.627 127.605 104.791 125.961 103.445 123.936C102.1 121.912 101.29 119.573 101.093 117.143C100.895 114.714 101.317 112.273 102.317 110.054C104.176 105.935 108.269 103.031 113.136 102.335C113.043 101.375 112.812 100.434 112.451 99.5412Z" fill="#663B8A"/>
<path d="M109.201 116.173C108.851 116.205 108.504 116.094 108.235 115.867C107.966 115.639 107.797 115.314 107.767 114.961C107.736 114.608 107.845 114.257 108.07 113.986C108.296 113.714 108.618 113.544 108.968 113.513C118.691 111.734 127.625 106.944 134.529 99.8068C141.433 92.6699 145.965 83.5406 147.496 73.6859C147.523 73.5112 147.584 73.3436 147.675 73.1927C147.766 73.0418 147.886 72.9105 148.028 72.8063C148.169 72.7022 148.33 72.6272 148.5 72.5856C148.67 72.544 148.847 72.5367 149.02 72.5641C149.193 72.5914 149.359 72.653 149.509 72.7451C149.658 72.8372 149.788 72.9582 149.891 73.1011C149.995 73.2439 150.069 73.4059 150.11 73.5778C150.151 73.7497 150.158 73.928 150.131 74.1027C148.517 84.5122 143.732 94.1559 136.44 101.695C129.149 109.234 119.713 114.294 109.442 116.173C109.362 116.18 109.281 116.18 109.201 116.173Z" fill="#505578"/>
<path d="M109.201 117.082C108.644 117.083 108.108 116.873 107.697 116.494C107.286 116.115 107.031 115.594 106.981 115.035C106.932 114.475 107.091 113.917 107.429 113.47C107.767 113.024 108.258 112.721 108.805 112.622C118.348 110.878 127.116 106.178 133.891 99.1742C140.666 92.1705 145.113 83.2108 146.613 73.5395C146.683 73.1011 146.879 72.6933 147.178 72.3674C147.477 72.0415 147.864 71.812 148.292 71.7077C148.72 71.6035 149.168 71.6291 149.581 71.7815C149.995 71.9339 150.354 72.2061 150.614 72.564C150.788 72.8017 150.913 73.0721 150.981 73.3591C151.05 73.6462 151.061 73.9442 151.014 74.2357C149.373 84.8318 144.503 94.6489 137.082 102.323C129.66 109.998 120.055 115.149 109.6 117.06C109.468 117.078 109.334 117.086 109.201 117.082ZM148.813 73.4375C148.707 73.4365 148.604 73.4746 148.523 73.5447C148.442 73.6149 148.389 73.7123 148.374 73.8189C146.819 83.8604 142.204 93.1636 135.17 100.436C128.136 107.709 119.034 112.589 109.126 114.4C109.01 114.421 108.906 114.488 108.839 114.586C108.771 114.684 108.745 114.805 108.766 114.923C108.787 115.041 108.853 115.145 108.95 115.213C109.048 115.281 109.168 115.308 109.284 115.287C119.373 113.442 128.642 108.472 135.805 101.067C142.968 93.6623 147.67 84.19 149.257 73.9652C149.267 73.9069 149.265 73.8471 149.252 73.7895C149.239 73.7318 149.214 73.6774 149.18 73.6295C149.146 73.5815 149.102 73.541 149.052 73.5103C149.002 73.4797 148.946 73.4594 148.888 73.4508L148.813 73.4375Z" fill="#252945"/>
<path d="M154.063 55.9451C150.685 55.1293 146.788 59.3505 145.356 65.372C145.238 65.8731 145.15 66.3697 145.071 66.8619C143.389 64.9109 141.522 63.9398 140.406 64.6138C138.943 65.5006 139.33 68.8705 141.285 72.1518C143.042 75.1448 146.059 77.2909 148.888 77.7565C152.314 78.3196 156.162 74.3555 157.594 68.3296C159.026 62.3036 157.436 56.7566 154.063 55.9451Z" fill="#505578"/>
<path d="M149.543 78.7142C149.272 78.7163 149.001 78.694 148.735 78.6477C145.594 78.1333 142.365 75.7655 140.503 72.6173C138.241 68.7863 138.003 65.0128 139.949 63.8378C141.157 63.115 142.831 63.5762 144.522 65.0394C145.149 62.2388 146.458 59.6402 148.33 57.4793C150.202 55.4529 152.31 54.5927 154.269 55.0716C156.228 55.5505 157.722 57.2886 158.477 59.9491C159.185 62.4366 159.171 65.4917 158.447 68.5512C157.023 74.5328 153.303 78.7142 149.543 78.7142ZM141.219 65.3011C141.095 65.2963 140.972 65.3254 140.863 65.3853C140.094 65.8287 140.169 68.5379 142.036 71.695C143.639 74.4087 146.38 76.4395 149.02 76.874C152.047 77.3707 155.429 73.5307 156.712 68.1256C157.37 65.3587 157.388 62.6273 156.769 60.4368C156.193 58.4193 155.161 57.1379 153.852 56.8231C152.534 56.5082 151.049 57.1778 149.635 58.712C148.093 60.3792 146.881 62.8224 146.226 65.5893C146.112 66.0681 146.024 66.5382 145.95 67.0082C145.927 67.1795 145.855 67.3403 145.743 67.4709C145.631 67.6015 145.483 67.6961 145.318 67.7432C145.154 67.7903 144.979 67.7878 144.816 67.736C144.652 67.6842 144.507 67.5853 144.399 67.4516C143.156 66.0105 141.922 65.3011 141.219 65.3011Z" fill="#252945"/>
<path d="M18.594 62.4587C17.4783 61.7891 15.6114 62.7602 13.929 64.7068C13.85 64.219 13.7621 63.7224 13.6435 63.2214C12.2115 57.1998 8.31527 52.9742 4.93734 53.7945C1.55941 54.6148 2.27094e-05 60.1574 1.41884 66.1789C2.83766 72.2004 6.7471 76.4261 10.125 75.6102C10.8279 75.4373 14.4122 75.3841 17.7287 70.0011C19.7317 66.7553 20.0568 63.3411 18.594 62.4587Z" fill="#505578"/>
<path d="M9.25958 76.6123C7.62113 76.6123 5.92558 75.7255 4.39255 74.076C2.6355 72.1827 1.28257 69.4513 0.55339 66.3917C-0.175786 63.3322 -0.184572 60.2727 0.522642 57.7852C1.27817 55.1247 2.77167 53.391 4.73078 52.9076C6.68989 52.4243 8.79836 53.289 10.6696 55.3198C12.5399 57.474 13.8488 60.0647 14.478 62.8578C16.1692 61.3989 17.8428 60.9334 19.0508 61.6606C19.3594 61.8596 19.6254 62.1191 19.8329 62.4237C20.0404 62.7284 20.1852 63.072 20.2587 63.4342C20.698 65.261 20.0215 67.9437 18.5017 70.4268C15.2775 75.6812 11.7195 76.2665 10.5422 76.4438L10.3226 76.4838C9.97436 76.5679 9.61765 76.611 9.25958 76.6123ZM5.7938 54.5926C5.5763 54.5907 5.35941 54.6161 5.14808 54.668C3.83029 54.9828 2.80681 56.2687 2.23577 58.2818C1.61201 60.4767 1.62958 63.2081 2.28848 65.9705C2.94737 68.7329 4.15535 71.1806 5.71034 72.8478C7.12476 74.382 8.62704 75.0648 9.92726 74.7367C10.0151 74.7131 10.1337 74.6909 10.2831 74.6702C11.3549 74.4973 14.2057 74.0361 16.9862 69.5267C18.4314 67.1854 18.8092 65.0172 18.5412 63.9086C18.4998 63.6422 18.3602 63.4015 18.1503 63.2347C17.5836 62.8888 16.1077 63.5717 14.6362 65.301C14.5277 65.4347 14.383 65.5336 14.2196 65.5854C14.0563 65.6372 13.8815 65.6397 13.7168 65.5926C13.5521 65.5455 13.4046 65.4508 13.2924 65.3202C13.1803 65.1896 13.1084 65.0288 13.0856 64.8575C13.0109 64.3875 12.923 63.9131 12.8088 63.4386C12.1543 60.6718 10.942 58.2286 9.40014 56.5613C8.18339 55.271 6.93588 54.5926 5.7938 54.5926Z" fill="#252945"/>
</g>
<defs>
<clipPath id="clip0_246_1258">
<rect width="159" height="200" fill="white"/>
</clipPath>
</defs>
</svg>
