<svg width="124" height="188" viewBox="0 0 124 188" fill="none" xmlns="http://www.w3.org/2000/svg">
<g clip-path="url(#clip0_244_550)">
<path d="M90.4396 98.0383C90.1651 98.0507 89.8942 97.973 89.6683 97.8172C89.4424 97.6613 89.2741 97.4358 89.1891 97.1753C89.104 96.9148 89.1071 96.6337 89.1977 96.3751C89.2883 96.1165 89.4615 95.8947 89.6907 95.7437C100.396 87.9925 108.567 75.3017 112.7 60.0036C116.712 45.1309 116.708 29.6826 116.172 16.5288C116.159 16.1924 116.28 15.8646 116.509 15.6173C116.739 15.3701 117.057 15.2237 117.394 15.2105C117.731 15.1972 118.06 15.3181 118.308 15.5465C118.556 15.775 118.703 16.0923 118.716 16.4286C119.26 29.7785 119.26 45.4605 115.156 60.6502C110.876 76.5032 102.367 89.6904 91.1926 97.7796C90.9764 97.9451 90.7121 98.0359 90.4396 98.0383Z" fill="#D6DEE5"/>
<path d="M90.4397 98.8727C89.9912 98.8743 89.5538 98.734 89.1903 98.4722C88.8268 98.2103 88.5559 97.8403 88.4164 97.4153C88.277 96.9902 88.2762 96.5321 88.4142 96.1066C88.5523 95.6811 88.822 95.3102 89.1846 95.0471C99.7355 87.4085 107.789 74.8804 111.868 59.77C115.85 45.01 115.846 29.6409 115.315 16.5497C115.292 15.9893 115.494 15.4429 115.875 15.0306C116.256 14.6183 116.786 14.3739 117.348 14.3511C117.9 14.3255 118.44 14.519 118.85 14.8893C119.273 15.2749 119.526 15.8119 119.553 16.3828C120.097 29.787 120.097 45.5565 115.963 60.8672C111.633 76.9121 102.994 90.262 91.6989 98.4722C91.3336 98.7379 90.8918 98.8784 90.4397 98.8727ZM117.465 16.0407H117.44C117.383 16.0406 117.327 16.0522 117.274 16.0747C117.222 16.0972 117.174 16.1302 117.135 16.1716C117.096 16.2131 117.066 16.2621 117.046 16.3156C117.027 16.3691 117.018 16.4261 117.022 16.4829C117.557 29.6993 117.562 45.227 113.52 60.208C109.337 75.6939 101.058 88.5516 90.1929 96.4155C90.1471 96.4478 90.1083 96.4889 90.0787 96.5365C90.0492 96.584 90.0296 96.637 90.021 96.6922C90.0124 96.7475 90.015 96.8039 90.0288 96.8582C90.0425 96.9124 90.067 96.9633 90.1008 97.0079C90.1275 97.0593 90.1659 97.1038 90.2129 97.1378C90.2599 97.1718 90.3143 97.1944 90.3716 97.2037C90.4289 97.213 90.4876 97.2089 90.543 97.1915C90.5984 97.1742 90.649 97.1441 90.6907 97.1038C101.71 89.1231 110.111 76.0986 114.336 60.4292C118.394 45.3312 118.394 29.7244 117.867 16.4454C117.86 16.3286 117.808 16.219 117.721 16.1408C117.652 16.0748 117.561 16.0375 117.465 16.0366V16.0407Z" fill="#99ADBF"/>
<path d="M33.5603 98.0384C33.2925 98.039 33.0316 97.9542 32.8156 97.7964C21.6414 89.7072 13.1279 76.52 8.84812 60.667C4.74407 45.4648 4.74407 29.7745 5.28793 16.4455C5.29452 16.2789 5.33395 16.1153 5.40395 15.964C5.47396 15.8126 5.57317 15.6765 5.69593 15.5634C5.81869 15.4502 5.96259 15.3623 6.11941 15.3047C6.27624 15.247 6.44291 15.2207 6.60993 15.2273C6.77694 15.2339 6.94102 15.2732 7.0928 15.343C7.24458 15.4128 7.38108 15.5117 7.49452 15.6342C7.60795 15.7566 7.6961 15.9001 7.75392 16.0565C7.81174 16.2128 7.83811 16.3791 7.83152 16.5456C7.29603 29.6994 7.29184 45.1478 11.3039 60.0204C15.433 75.3144 23.6034 88.0093 34.3133 95.7606C34.5425 95.9116 34.7157 96.1334 34.8063 96.392C34.8969 96.6506 34.9 96.9317 34.8149 97.1922C34.7299 97.4526 34.5616 97.6781 34.3357 97.834C34.1098 97.9899 33.8389 98.0676 33.5645 98.0551L33.5603 98.0384Z" fill="#D6DEE5"/>
<path d="M33.5602 98.8728C33.1076 98.8728 32.6673 98.7264 32.3052 98.4556C20.9762 90.2496 12.3497 76.8955 8.04067 60.8548C3.90733 45.5441 3.90733 29.7745 4.45119 16.3704C4.45742 16.0894 4.51974 15.8125 4.63449 15.5558C4.74925 15.2992 4.91415 15.0679 5.11956 14.8755C5.32496 14.6831 5.56676 14.5334 5.83082 14.4352C6.09489 14.3371 6.37592 14.2924 6.6575 14.3037C6.93909 14.3151 7.21558 14.3823 7.47082 14.5014C7.72607 14.6206 7.95495 14.7892 8.14409 14.9975C8.33323 15.2059 8.47885 15.4497 8.57243 15.7148C8.66601 15.9799 8.70568 16.2609 8.68912 16.5414C8.14526 29.6202 8.14107 45.0059 12.1322 59.7659C16.2111 74.8763 24.2644 87.4044 34.8153 95.043C35.1779 95.3061 35.4477 95.677 35.5857 96.1025C35.7237 96.528 35.723 96.9861 35.5835 97.4111C35.4441 97.8362 35.1731 98.2062 34.8096 98.4681C34.4461 98.7299 34.0087 98.8701 33.5602 98.8686V98.8728ZM6.56388 16.0366C6.45292 16.0366 6.34651 16.0806 6.26806 16.1588C6.1896 16.2371 6.14553 16.3432 6.14553 16.4538C5.60585 29.7328 5.60167 45.3397 9.67643 60.4334C13.906 76.1028 22.3023 89.1232 33.3218 97.1039C33.393 97.1572 33.4795 97.1864 33.5686 97.1873C33.6364 97.1884 33.7034 97.173 33.7639 97.1424C33.8244 97.1119 33.8765 97.0672 33.9158 97.0121C33.9495 96.9673 33.9737 96.9161 33.9871 96.8617C34.0005 96.8074 34.0028 96.7508 33.9938 96.6956C33.9848 96.6403 33.9648 96.5874 33.9348 96.54C33.9049 96.4926 33.8657 96.4517 33.8196 96.4197C22.9424 88.5558 14.6758 75.6982 10.4922 60.2123C6.44256 45.2229 6.44674 29.6952 6.98223 16.4788C6.98566 16.422 6.97738 16.365 6.95789 16.3115C6.93841 16.258 6.90813 16.209 6.86894 16.1675C6.82975 16.1261 6.78246 16.0931 6.72999 16.0706C6.67753 16.0481 6.621 16.0365 6.56388 16.0366Z" fill="#99ADBF"/>
<path d="M94.5019 142.652L61.795 187.153L29.0881 142.652C29.0881 138.614 34.1084 135.339 40.2791 135.339C45.3956 135.339 49.7046 137.583 51.0392 140.654C52.3695 137.583 56.6786 135.339 61.795 135.339C66.9115 135.339 71.2205 137.583 72.5551 140.654C73.8854 137.583 78.1945 135.339 83.3109 135.339C89.49 135.339 94.5019 138.614 94.5019 142.652Z" fill="#D6DEE5"/>
<path d="M94.5018 142.652L61.7949 187.153L62.3555 186.394L86.3732 135.618C86.3732 135.618 94.5018 137.467 94.5018 142.652Z" fill="#EBEFF2"/>
<path d="M61.7949 188C61.6618 188.001 61.5305 187.969 61.4119 187.909C61.2933 187.849 61.1908 187.761 61.113 187.654L28.4061 143.148C28.2998 143.005 28.2426 142.831 28.2429 142.652C28.2429 138.155 33.6439 134.496 40.279 134.496C44.9394 134.496 49.0393 136.244 51.039 138.968C53.0387 136.244 57.1344 134.496 61.7949 134.496C66.4553 134.496 70.5552 136.244 72.5549 138.968C74.5547 136.244 78.6503 134.496 83.3108 134.496C89.9501 134.496 95.351 138.155 95.351 142.652C95.3513 142.831 95.2941 143.005 95.1879 143.148L62.481 187.654C62.4027 187.762 62.2996 187.85 62.1802 187.91C62.0608 187.97 61.9287 188.001 61.7949 188ZM29.9456 142.385L61.7949 185.722L93.6441 142.385C93.4224 138.943 88.8749 136.186 83.3108 136.186C78.6629 136.186 74.5588 138.163 73.3331 140.987C73.2714 141.143 73.1642 141.277 73.0254 141.371C72.8867 141.465 72.7227 141.515 72.5549 141.515C72.3871 141.515 72.2232 141.465 72.0844 141.371C71.9457 141.277 71.8385 141.143 71.7768 140.987C70.5468 138.159 66.447 136.182 61.7949 136.182C57.1428 136.182 53.0429 138.159 51.8171 140.983C51.7555 141.139 51.6483 141.272 51.5095 141.367C51.3708 141.461 51.2068 141.511 51.039 141.511C50.8712 141.511 50.7073 141.461 50.5685 141.367C50.4297 141.272 50.3225 141.139 50.2609 140.983C49.0309 138.155 44.9269 136.177 40.279 136.177C34.7232 136.186 30.1715 138.943 29.9456 142.385Z" fill="#99ADBF"/>
<path d="M29.084 26.0072C32.3346 16.7165 36.4512 3.33741 42.9482 1.81051C49.4453 0.283617 77.316 0.45049 82.9052 2.89102C90.8204 6.34948 94.5061 27.3005 94.5061 27.3005L29.084 26.0072Z" fill="#D6DEE5"/>
<path d="M94.5019 27.3005L88.3019 27.1754C86.6536 20.734 83.2524 10.2877 77.8473 7.92649C72.258 5.48178 44.379 5.32743 37.8945 6.84181C37.5375 6.92921 37.1889 7.04787 36.8528 7.19641C38.635 4.38042 40.6431 2.34039 42.9524 1.80222C49.4494 0.304526 77.3118 0.454712 82.9051 2.89107C90.8204 6.3537 94.5019 27.3005 94.5019 27.3005Z" fill="#EBEFF2"/>
<path d="M94.506 28.1474L29.0672 26.8541C28.9322 26.8539 28.7993 26.8211 28.6797 26.7585C28.5602 26.696 28.4577 26.6055 28.3808 26.4948C28.3039 26.3842 28.2551 26.2566 28.2384 26.123C28.2217 25.9895 28.2376 25.8538 28.2849 25.7277C28.5414 25.0018 28.8008 24.2551 29.063 23.4875C32.2927 14.13 36.3089 2.50309 42.7557 0.98871C49.2025 -0.52567 77.433 -0.417202 83.2523 2.11928C91.4897 5.71541 95.1921 26.2826 95.3427 27.1503C95.3656 27.2731 95.3606 27.3995 95.328 27.52C95.2955 27.6406 95.2361 27.7524 95.1545 27.847C95.0754 27.9418 94.9762 28.0178 94.8641 28.0698C94.7519 28.1217 94.6297 28.1482 94.506 28.1474ZM30.2679 25.1812L93.4727 26.4328C92.636 22.2609 89.0131 6.48303 82.5662 3.66703C77.1276 1.28908 49.3155 1.1973 43.1406 2.63659C37.61 3.92569 33.5979 15.5484 30.6653 24.034C30.5398 24.422 30.4017 24.8058 30.2679 25.1812Z" fill="#99ADBF"/>
<path d="M94.5019 33.3496V142.652C94.5019 138.614 89.4817 135.339 83.3109 135.339C78.1945 135.339 73.8854 137.583 72.5551 140.654C71.2205 137.583 66.9115 135.339 61.795 135.339C56.6786 135.339 52.3695 137.583 51.0392 140.654C49.7046 137.583 45.3956 135.339 40.2791 135.339C34.0958 135.339 29.0881 138.614 29.0881 142.652V33.3496H94.5019Z" fill="#D6DEE5"/>
<path d="M94.5019 33.3496V142.652C94.5019 139.314 91.0672 136.49 86.3733 135.618V33.3496H94.5019Z" fill="#EBEFF2"/>
<path d="M51.0391 141.501C50.8172 141.501 50.6044 141.413 50.4475 141.256C50.2905 141.1 50.2024 140.888 50.2024 140.666V35.2939C50.2024 35.0693 50.2919 34.8539 50.4511 34.6951C50.6104 34.5362 50.8264 34.447 51.0516 34.447C51.2769 34.447 51.4929 34.5362 51.6522 34.6951C51.8114 34.8539 51.9009 35.0693 51.9009 35.2939V140.654C51.9027 140.767 51.8815 140.879 51.8386 140.983C51.7958 141.087 51.7321 141.182 51.6516 141.261C51.571 141.34 51.4752 141.402 51.37 141.443C51.2647 141.485 51.1521 141.504 51.0391 141.501Z" fill="#99ADBF"/>
<path d="M72.555 141.501C72.3331 141.501 72.1202 141.413 71.9633 141.256C71.8064 141.1 71.7183 140.888 71.7183 140.666V34.2092C71.7183 33.9846 71.8077 33.7692 71.967 33.6104C72.1263 33.4515 72.3423 33.3623 72.5675 33.3623C72.7928 33.3623 73.0088 33.4515 73.168 33.6104C73.3273 33.7692 73.4168 33.9846 73.4168 34.2092V140.654C73.4185 140.767 73.3973 140.879 73.3545 140.983C73.3116 141.087 73.248 141.182 73.1675 141.261C73.0869 141.34 72.9911 141.402 72.8858 141.443C72.7806 141.485 72.668 141.504 72.555 141.501Z" fill="#99ADBF"/>
<path d="M94.5017 143.511C94.2798 143.511 94.067 143.423 93.9101 143.267C93.7532 143.111 93.665 142.898 93.665 142.677C93.665 139.11 89.0213 136.211 83.3191 136.211C78.6712 136.211 74.5672 138.188 73.3414 141.012C73.2797 141.168 73.1725 141.302 73.0338 141.396C72.895 141.49 72.7311 141.54 72.5633 141.54C72.3955 141.54 72.2315 141.49 72.0928 141.396C71.954 141.302 71.8468 141.168 71.7851 141.012C70.5552 138.184 66.4553 136.206 61.8032 136.206C57.1511 136.206 53.0513 138.184 51.8255 141.008C51.7638 141.164 51.6566 141.297 51.5179 141.392C51.3791 141.486 51.2152 141.536 51.0473 141.536C50.8795 141.536 50.7156 141.486 50.5768 141.392C50.4381 141.297 50.3309 141.164 50.2692 141.008C49.0392 138.18 44.9352 136.202 40.2873 136.202C34.5851 136.202 29.9456 139.102 29.9456 142.669C29.9456 142.893 29.8561 143.109 29.6968 143.268C29.5376 143.426 29.3216 143.516 29.0963 143.516C28.8711 143.516 28.6551 143.426 28.4958 143.268C28.3365 143.109 28.2471 142.893 28.2471 142.669V33.3664C28.2471 33.1451 28.3352 32.9328 28.4921 32.7764C28.6491 32.6199 28.8619 32.532 29.0838 32.532H94.5017C94.7236 32.532 94.9365 32.6199 95.0934 32.7764C95.2503 32.9328 95.3384 33.1451 95.3384 33.3664V142.669C95.3395 142.779 95.3187 142.888 95.2772 142.991C95.2356 143.093 95.1741 143.186 95.0963 143.264C95.0185 143.342 94.9259 143.405 94.8239 143.447C94.7218 143.49 94.6123 143.511 94.5017 143.511ZM40.2789 134.496C44.9394 134.496 49.0392 136.244 51.039 138.968C53.0387 136.244 57.1344 134.496 61.7948 134.496C66.4553 134.496 70.5552 136.244 72.5549 138.968C74.5546 136.244 78.6503 134.496 83.3108 134.496C87.6993 134.496 91.5523 136.094 93.6525 138.48V34.2091H29.9372V138.505C32.0415 136.094 35.8904 134.496 40.2789 134.496Z" fill="#99ADBF"/>
<path d="M71.0616 174.546L61.7951 187.153L52.5327 174.546C53.6787 173.214 55.1 172.145 56.6991 171.412C58.2982 170.679 60.0373 170.3 61.7972 170.3C63.557 170.3 65.2961 170.679 66.8952 171.412C68.4943 172.145 69.9156 173.214 71.0616 174.546Z" fill="#D6DEE5"/>
<path d="M61.7949 188C61.6618 188.001 61.5305 187.969 61.4119 187.909C61.2933 187.849 61.1908 187.761 61.113 187.654L51.8465 175.046C51.7298 174.891 51.6713 174.699 51.6813 174.505C51.6912 174.31 51.7689 174.126 51.9008 173.983C53.1258 172.561 54.6443 171.42 56.3523 170.638C58.0603 169.856 59.9175 169.451 61.797 169.451C63.6764 169.451 65.5337 169.856 67.2417 170.638C68.9497 171.42 70.4682 172.561 71.6932 173.983C71.8251 174.126 71.9028 174.31 71.9127 174.505C71.9227 174.699 71.8642 174.891 71.7475 175.046L62.481 187.654C62.4027 187.762 62.2996 187.85 62.1802 187.91C62.0608 187.97 61.9287 188.001 61.7949 188ZM53.6328 174.613L61.7949 185.722L69.9612 174.613C68.9046 173.518 67.6376 172.648 66.2359 172.053C64.8341 171.459 63.3265 171.152 61.8033 171.152C60.28 171.152 58.7724 171.459 57.3707 172.053C55.969 172.648 54.7019 173.518 53.6454 174.613H53.6328Z" fill="#99ADBF"/>
<path d="M96.9157 38.1015H26.6741C26.1652 38.1004 25.6774 37.8983 25.3176 37.5394C24.9577 37.1805 24.755 36.6941 24.7539 36.1866V26.412C24.7539 25.9037 24.9561 25.4162 25.3161 25.0565C25.6761 24.6967 26.1645 24.494 26.6741 24.4929H96.9157C97.4254 24.494 97.9138 24.6967 98.2738 25.0565C98.6338 25.4162 98.836 25.9037 98.836 26.412V36.1866C98.836 36.4381 98.7863 36.6871 98.6898 36.9194C98.5933 37.1517 98.4518 37.3628 98.2735 37.5406C98.0952 37.7184 97.8835 37.8595 97.6506 37.9557C97.4176 38.0519 97.1679 38.1015 96.9157 38.1015Z" fill="#D6DEE5"/>
<path d="M98.8402 28.3686V34.2092C98.8379 35.1699 98.4808 36.096 97.8373 36.8109C97.1937 37.5258 96.3087 37.9793 95.3512 38.0849C95.3512 37.9472 95.3512 37.8137 95.3512 37.6677V31.8271C95.349 30.8013 94.9399 29.8181 94.2134 29.092C93.4868 28.3659 92.5017 27.9559 91.473 27.9515H25.1891C25.0427 27.9515 24.9088 27.9515 24.7708 27.9515C24.8748 26.9977 25.328 26.1158 26.0436 25.4745C26.7592 24.8333 27.6868 24.4779 28.6489 24.4763H94.937C95.9722 24.4763 96.965 24.8864 97.697 25.6164C98.429 26.3463 98.8402 27.3363 98.8402 28.3686Z" fill="#EBEFF2"/>
<path d="M94.937 38.9483H28.6531C27.3934 38.9472 26.1856 38.4474 25.2953 37.5588C24.4049 36.6701 23.9048 35.4653 23.9048 34.2091V28.3685C23.9103 27.1156 24.4127 25.9157 25.3024 25.0309C26.192 24.146 27.3966 23.6482 28.6531 23.646H94.937C96.1935 23.6482 97.3981 24.146 98.2878 25.0309C99.1774 25.9157 99.6798 27.1156 99.6854 28.3685V34.2091C99.6854 35.4653 99.1852 36.6701 98.2949 37.5588C97.4045 38.4474 96.1968 38.9472 94.937 38.9483ZM28.6531 25.3398C27.8467 25.3409 27.0736 25.6599 26.5022 26.2273C25.9309 26.7947 25.6077 27.5644 25.6033 28.3685V34.2091C25.6044 35.0157 25.9259 35.7891 26.4975 36.3599C27.0691 36.9306 27.8442 37.2523 28.6531 37.2546H94.937C95.7459 37.2523 96.521 36.9306 97.0926 36.3599C97.6642 35.7891 97.9857 35.0157 97.9868 34.2091V28.3685C97.9857 27.5623 97.6641 26.7893 97.0924 26.2192C96.5206 25.6491 95.7456 25.3284 94.937 25.3272L28.6531 25.3398Z" fill="#505578"/>
<path d="M94.937 38.9483H28.6531C27.3934 38.9472 26.1856 38.4474 25.2953 37.5588C24.4049 36.6701 23.9048 35.4653 23.9048 34.2091V28.3685C23.9103 27.1156 24.4127 25.9157 25.3024 25.0309C26.192 24.146 27.3966 23.6482 28.6531 23.646H94.937C96.1935 23.6482 97.3981 24.146 98.2878 25.0309C99.1774 25.9157 99.6798 27.1156 99.6854 28.3685V34.2091C99.6854 35.4653 99.1852 36.6701 98.2949 37.5588C97.4045 38.4474 96.1968 38.9472 94.937 38.9483ZM28.6531 25.3398C27.8467 25.3409 27.0736 25.6599 26.5022 26.2273C25.9309 26.7947 25.6077 27.5644 25.6033 28.3685V34.2091C25.6044 35.0157 25.9259 35.7891 26.4975 36.3599C27.0691 36.9306 27.8442 37.2523 28.6531 37.2546H94.937C95.7459 37.2523 96.521 36.9306 97.0926 36.3599C97.6642 35.7891 97.9857 35.0157 97.9868 34.2091V28.3685C97.9857 27.5623 97.6641 26.7893 97.0924 26.2192C96.5206 25.6491 95.7456 25.3284 94.937 25.3272L28.6531 25.3398Z" fill="#99ADBF"/>
<path d="M44.0045 80.7569C52.0765 77.3302 55.8344 68.0269 52.3981 59.9775C48.9617 51.9281 39.6324 48.1806 31.5604 51.6074C23.4885 55.0341 19.7305 64.3374 23.1669 72.3868C26.6032 80.4362 35.9325 84.1836 44.0045 80.7569Z" fill="white"/>
<path d="M50.7756 66.1864C50.7756 68.009 50.2336 69.7908 49.2181 71.3063C48.2027 72.8218 46.7594 74.003 45.0707 74.7005C43.3821 75.398 41.5239 75.5805 39.7312 75.2249C37.9386 74.8693 36.2919 73.9916 34.9995 72.7028C33.707 71.4139 32.8269 69.7719 32.4703 67.9842C32.1137 66.1966 32.2967 64.3436 32.9962 62.6597C33.6957 60.9758 34.8801 59.5365 36.3999 58.5239C37.9196 57.5112 39.7064 56.9707 41.5342 56.9707C43.4902 56.9646 45.3965 57.5847 46.9728 58.7396C44.3455 61.176 42.9942 63.6624 43.8435 64.8639C44.6927 66.0654 47.4078 65.6273 50.5371 64.0295C50.704 64.7362 50.7841 65.4604 50.7756 66.1864Z" fill="#99ADBF"/>
<path d="M53.1309 70.112C52.2575 73.489 50.2917 76.4845 47.5382 78.6346C44.7846 80.7847 41.3968 81.9693 37.8997 82.0049C34.4026 82.0406 30.9913 80.9253 28.1943 78.8318C25.3972 76.7382 23.3704 73.7834 22.428 70.4249C32.6224 69.2383 42.9143 69.1335 53.1309 70.112Z" fill="#EBEFF2"/>
<path d="M37.7815 49.499C34.4718 49.499 31.2364 50.4777 28.4845 52.3114C25.7326 54.145 23.5877 56.7512 22.3212 59.8004C21.0546 62.8496 20.7232 66.2049 21.3689 69.4419C22.0146 72.679 23.6084 75.6524 25.9487 77.9862C28.289 80.3199 31.2707 81.9092 34.5168 82.5531C37.763 83.197 41.1276 82.8666 44.1854 81.6035C47.2432 80.3405 49.8567 78.2016 51.6954 75.4574C53.5342 72.7132 54.5157 69.4869 54.5157 66.1864C54.5157 61.7606 52.7526 57.5161 49.6143 54.3866C46.4761 51.2571 42.2197 49.499 37.7815 49.499ZM37.7815 51.1678C41.7672 51.1744 45.5877 52.7562 48.406 55.5666C51.2243 58.377 52.8105 62.1868 52.8171 66.1614C52.8189 67.1789 52.7151 68.1939 52.5076 69.1901C42.7261 68.3029 32.88 68.4008 23.1182 69.4822C22.6231 67.2873 22.6289 65.0095 23.135 62.8172C23.6411 60.6248 24.6346 58.5738 26.0422 56.8157C27.4498 55.0576 29.2355 53.6373 31.2674 52.6598C33.2993 51.6822 35.5255 51.1723 37.7815 51.1678ZM37.7815 81.1591C34.6693 81.1565 31.6343 80.1924 29.0939 78.3994C26.5535 76.6065 24.6326 74.0728 23.5951 71.1467C33.0539 70.1244 42.5902 70.0252 52.0683 70.8505C51.0791 73.852 49.1659 76.4659 46.6009 78.3204C44.0359 80.1749 40.9498 81.1756 37.7815 81.18V81.1591Z" fill="#99ADBF"/>
<path d="M81.7085 92.5024C80.4953 95.043 77.2698 98.5349 72.5968 100.846C69.4617 102.388 66.0141 103.193 62.5186 103.199C52.7919 103.199 45.4038 96.7326 43.3748 92.6317L43.3246 92.5191C42.4167 90.6251 41.8227 88.4348 42.4418 86.4198C43.0024 84.5592 44.7009 82.8404 46.5082 83.1783C46.6615 83.2059 46.8115 83.2493 46.9559 83.3077C51.9468 85.2184 57.1721 85.9025 62.5144 85.9025C67.7606 85.9025 72.8771 85.2434 77.7802 83.3994L78.0688 83.291C80.0434 82.5359 81.9804 84.3882 82.5912 86.4032C83.202 88.4182 82.6163 90.6084 81.7085 92.5024Z" fill="#D6DEE5"/>
<path d="M62.5188 104.025C52.5536 104.025 44.881 97.5711 42.6177 92.9862C42.6012 92.9597 42.5872 92.9318 42.5758 92.9028C41.3501 90.3413 41.0405 88.0843 41.6304 86.1569C42.2997 83.9417 44.3664 81.8975 46.6506 82.3313C46.8569 82.3669 47.0589 82.4242 47.253 82.5024C51.7127 84.2087 56.6995 85.043 62.5062 85.043C68.1791 85.043 73.0738 84.2462 77.4707 82.6067L77.7678 82.494C78.221 82.3234 78.7051 82.2497 79.1887 82.2778C79.6723 82.3058 80.1446 82.4349 80.5749 82.6567C81.2524 83.0263 81.85 83.5257 82.3332 84.1264C82.8164 84.7271 83.1757 85.4172 83.3904 86.1569C83.9761 88.0968 83.6665 90.3538 82.4617 92.8694C81.2903 95.3141 78.1024 99.0646 72.9567 101.589C69.7112 103.189 66.1395 104.023 62.5188 104.025ZM46.0649 83.9709C44.8475 83.9709 43.6678 85.2808 43.2578 86.645C42.7892 88.1636 43.0695 90.0075 44.0945 92.1393L44.1321 92.2186C46.1528 96.3112 53.3861 102.335 62.5397 102.335C65.9064 102.333 69.2273 101.558 72.2455 100.07C76.6926 97.8881 79.8261 94.5131 80.964 92.1435C81.9806 90.02 82.2609 88.1761 81.8007 86.6534C81.5026 85.6087 80.8077 84.7212 79.8637 84.1795C79.6388 84.0611 79.3914 83.9913 79.1377 83.9748C78.8839 83.9582 78.6295 83.9953 78.3911 84.0835L78.0899 84.2003C73.488 85.9066 68.4176 86.7368 62.5397 86.7368C56.5238 86.7368 51.332 85.8691 46.6715 84.0835C46.5815 84.0463 46.4874 84.0197 46.3912 84.0042C46.284 83.9813 46.1746 83.9701 46.0649 83.9709Z" fill="#99ADBF"/>
<path d="M72.5968 100.829C69.4617 102.371 66.0141 103.176 62.5186 103.182C52.7919 103.182 45.4038 96.7159 43.3748 92.615C48.3871 90.0591 54.1825 89.4853 59.6009 91.0084C65.0194 92.5316 69.661 96.0393 72.5968 100.829Z" fill="#EBEFF2"/>
<path d="M62.5188 104.025C52.5536 104.025 44.881 97.571 42.6177 92.9862C42.567 92.8873 42.5367 92.7792 42.5284 92.6685C42.5202 92.5577 42.5342 92.4464 42.5696 92.3411C42.6051 92.2358 42.6613 92.1386 42.7349 92.0552C42.8085 91.9719 42.8981 91.904 42.9984 91.8556C48.4982 89.1077 54.8561 88.6078 60.7198 90.4622C65.9385 92.2226 70.388 95.7253 73.3165 100.379C73.3793 100.48 73.4204 100.593 73.4369 100.711C73.4535 100.828 73.4453 100.948 73.4127 101.063C73.3804 101.177 73.3242 101.283 73.2477 101.373C73.1713 101.464 73.0763 101.537 72.9692 101.589C69.7199 103.191 66.1438 104.025 62.5188 104.025ZM44.5547 92.9904C47.0271 97.012 53.93 102.335 62.5188 102.335C65.5591 102.335 68.5658 101.702 71.346 100.475C68.6368 96.5453 64.7235 93.5973 60.1927 92.0725C55.045 90.4442 49.4753 90.7711 44.5547 92.9904Z" fill="#99ADBF"/>
<path d="M77.7886 83.875C77.6171 89.2609 70.4758 93.416 61.8368 93.1448C53.3442 92.8737 46.5752 88.4432 46.5083 83.1616C46.6616 83.1892 46.8116 83.2326 46.9559 83.2909C51.9469 85.2017 57.1721 85.8858 62.5187 85.8858C67.7607 85.8858 72.8771 85.2267 77.7802 83.3827C77.792 83.5465 77.7948 83.7109 77.7886 83.875Z" fill="white"/>
<path d="M62.6233 94.0042C62.3513 94.0042 62.0836 94.0042 61.8117 94.0042C52.8296 93.7164 45.7343 88.9646 45.659 83.1866C45.6571 83.0636 45.6825 82.9417 45.7334 82.8296C45.7843 82.7175 45.8594 82.6181 45.9534 82.5383C46.0473 82.4586 46.1578 82.4006 46.2769 82.3684C46.396 82.3362 46.5207 82.3307 46.6422 82.3522C46.8556 82.3884 47.0646 82.4471 47.2655 82.5275C51.7252 84.2338 56.7119 85.0681 62.5187 85.0681C68.1916 85.0681 73.0863 84.2713 77.4832 82.6318C77.6077 82.583 77.7421 82.5647 77.8752 82.5784C78.0082 82.5921 78.136 82.6375 78.2479 82.7106C78.3598 82.7837 78.4524 82.8826 78.5181 82.9988C78.5838 83.115 78.6205 83.2452 78.6253 83.3785C78.6357 83.5633 78.6357 83.7486 78.6253 83.9334C78.4496 89.5779 71.3459 94.0042 62.6233 94.0042ZM47.5165 84.409C48.575 88.6476 54.6285 92.081 61.8661 92.3146C69.5805 92.5274 76.065 89.169 76.8598 84.6342C72.5926 86.0527 67.8862 86.7452 62.5187 86.7452C56.8709 86.7327 51.9553 85.9692 47.5165 84.3965V84.409Z" fill="#99ADBF"/>
<path d="M56.7914 37.7845C56.8709 39.4115 53.9299 40.8758 50.2275 41.051C46.525 41.2263 43.4585 40.0498 43.379 38.4228C43.2995 36.7958 46.2406 35.3314 49.943 35.152C53.6454 34.9727 56.7161 36.1533 56.7914 37.7845Z" fill="#99ADBF"/>
<path d="M66.6813 37.7845C66.6018 39.4115 69.5428 40.8758 73.2452 41.051C76.9477 41.2263 80.0184 40.0498 80.0937 38.4228C80.169 36.7958 77.2321 35.3314 73.5297 35.152C69.8273 34.9727 66.7566 36.1533 66.6813 37.7845Z" fill="#99ADBF"/>
<path d="M85.8168 82.0225C94.5898 82.0225 101.702 74.9305 101.702 66.182C101.702 57.4336 94.5898 50.3416 85.8168 50.3416C77.0438 50.3416 69.9319 57.4336 69.9319 66.182C69.9319 74.9305 77.0438 82.0225 85.8168 82.0225Z" fill="white"/>
<path d="M91.8662 66.1863C91.8664 68.2569 91.1673 70.2673 89.8817 71.8932C88.5961 73.5192 86.7988 74.6661 84.7796 75.1489C82.7604 75.6317 80.637 75.4223 78.7517 74.5545C76.8665 73.6868 75.3292 72.2111 74.3878 70.3656C73.4463 68.52 73.1556 66.4121 73.5624 64.3816C73.9693 62.3511 75.05 60.5165 76.6303 59.1734C78.2107 57.8303 80.1986 57.057 82.2735 56.9783C84.3484 56.8996 86.3894 57.5201 88.0675 58.7395C85.4361 61.1759 84.0848 63.6623 84.9341 64.8638C85.7833 66.0653 88.4984 65.6273 91.6277 64.0294C91.7946 64.7361 91.8747 65.4604 91.8662 66.1863Z" fill="#99ADBF"/>
<path d="M101.17 70.1121C100.298 73.4908 98.3328 76.4884 95.5786 78.64C92.8245 80.7916 89.4355 81.9771 85.9371 82.0128C82.4386 82.0484 79.026 80.9322 76.2284 78.8371C73.4307 76.7421 71.4043 73.7852 70.4631 70.425C80.659 69.2383 90.9523 69.1334 101.17 70.1121Z" fill="#EBEFF2"/>
<path d="M85.8169 49.499C82.5072 49.499 79.2718 50.4777 76.5199 52.3114C73.768 54.145 71.6231 56.7512 70.3566 59.8004C69.09 62.8496 68.7586 66.2049 69.4043 69.4419C70.05 72.679 71.6438 75.6524 73.9841 77.9862C76.3244 80.3199 79.3061 81.9092 82.5522 82.5531C85.7984 83.197 89.163 82.8666 92.2208 81.6035C95.2786 80.3405 97.8921 78.2016 99.7308 75.4574C101.57 72.7132 102.551 69.4869 102.551 66.1864C102.551 61.7606 100.788 57.5161 97.6497 54.3866C94.5115 51.2571 90.2551 49.499 85.8169 49.499ZM85.8169 51.1678C88.048 51.1716 90.2504 51.6698 92.2648 52.6262C94.2792 53.5825 96.0554 54.9733 97.465 56.6979C98.8746 58.4225 99.8823 60.4378 100.415 62.5983C100.948 64.7587 100.993 67.0102 100.547 69.1901C90.7657 68.3029 80.9195 68.4007 71.1578 69.4822C70.9054 68.3876 70.779 67.2678 70.7813 66.1447C70.7979 62.1767 72.3885 58.3765 75.2057 55.5742C78.0229 52.7718 81.8378 51.1952 85.8169 51.1886V51.1678ZM85.8169 81.1591C82.7021 81.1549 79.6653 80.1878 77.1246 78.3909C74.584 76.594 72.6645 74.0558 71.6305 71.1259C81.0893 70.1035 90.6256 70.0043 100.104 70.8297C99.1181 73.835 97.2064 76.4535 94.6411 78.312C92.0758 80.1705 88.9877 81.1741 85.8169 81.18V81.1591Z" fill="#99ADBF"/>
<path d="M14.4542 17.3214C13.7053 23.187 10.0782 27.555 6.3632 27.0794C2.64822 26.6038 0.238505 21.4682 0.991541 15.6026C1.74458 9.737 5.36752 5.36908 9.0825 5.8405C12.7975 6.31192 15.2072 11.4558 14.4542 17.3214Z" fill="#D6DEE5"/>
<path d="M6.92372 27.9514C6.7 27.9499 6.47652 27.936 6.25436 27.9096C2.00807 27.3798 -0.673577 21.923 0.150579 15.4942C0.531281 12.5155 1.63992 9.77046 3.2715 7.80552C4.99093 5.7196 7.08688 4.73922 9.1912 5.00204C11.2955 5.26487 13.0735 6.76256 14.2114 9.20309C15.3296 11.7924 15.7034 14.6409 15.2908 17.43C14.9143 20.442 13.8056 23.1537 12.1741 25.1187C10.6387 26.971 8.7854 27.9514 6.92372 27.9514ZM8.5302 6.67495C7.17055 6.67495 5.78162 7.45509 4.57676 8.90689C3.15017 10.6048 2.17541 13.0328 1.83236 15.7112C1.15044 21.0136 3.27568 25.8362 6.46772 26.2409C7.96961 26.437 9.53007 25.6527 10.8688 24.0382C12.3997 22.0604 13.3498 19.6976 13.6132 17.213C13.9855 14.7412 13.661 12.2149 12.6761 9.91647C11.7892 8.02246 10.4588 6.87103 8.97784 6.67495C8.82881 6.66459 8.67923 6.66459 8.5302 6.67495Z" fill="#99ADBF"/>
<path d="M109.546 17.3214C110.299 23.187 113.922 27.555 117.641 27.0794C121.36 26.6038 123.762 21.4682 122.996 15.6026C122.23 9.737 118.637 5.36908 114.918 5.8405C111.198 6.31192 108.793 11.4558 109.546 17.3214Z" fill="#D6DEE5"/>
<path d="M117.076 27.9514C115.206 27.9514 113.365 26.9585 111.826 25.1062C110.091 22.8795 109.011 20.2163 108.705 17.4133C108.292 14.6252 108.667 11.7775 109.788 9.19059C110.926 6.75006 112.717 5.25654 114.809 4.98954C116.9 4.72254 118.992 5.71961 120.728 7.79302C122.465 10.0173 123.547 12.6794 123.853 15.4817C124.69 21.9105 121.996 27.3673 117.746 27.9097C117.523 27.936 117.3 27.9499 117.076 27.9514ZM115.465 6.67497C115.326 6.66575 115.186 6.66575 115.047 6.67497C113.545 6.86687 112.232 8.01413 111.345 9.90815C110.395 11.9315 110.065 14.5264 110.408 17.2047C110.671 19.6901 111.622 22.0534 113.156 24.0298C114.491 25.6443 116.055 26.4245 117.553 26.2326C120.745 25.8154 122.87 21.0053 122.188 15.7028C121.925 13.2183 120.975 10.8555 119.444 8.8777C118.218 7.43424 116.829 6.67497 115.465 6.67497Z" fill="#99ADBF"/>
</g>
<defs>
<clipPath id="clip0_244_550">
<rect width="124" height="188" fill="white"/>
</clipPath>
</defs>
</svg>
