<svg width="128" height="51" viewBox="0 0 128 51" fill="none" xmlns="http://www.w3.org/2000/svg">
<g id="logos:google-pay" clip-path="url(#clip0_1086_27586)">
<path id="Vector" d="M90.7316 13.7635C94.2504 13.7635 96.9696 14.7232 99.0491 16.6427C101.128 18.562 102.088 21.1212 102.088 24.3202V39.6752H97.6094V36.1567H97.4494C95.5301 39.036 92.8109 40.4755 89.6119 40.4755C86.8926 40.4755 84.4934 39.6755 82.5741 38.0762C80.8146 36.4767 79.6949 34.2375 79.6949 31.8382C79.6949 29.279 80.6549 27.1995 82.5741 25.6C84.4934 24.0005 87.2126 23.3607 90.4116 23.3607C93.2906 23.3607 95.5301 23.8407 97.2894 24.9602V23.8407C97.2894 22.3477 96.7321 20.855 95.6174 19.8822L95.3699 19.682C94.0904 18.5622 92.4909 17.9225 90.7316 17.9225C88.0124 17.9225 85.9331 19.0422 84.4934 21.2815L80.3349 18.7217C82.8939 15.3627 86.2529 13.7635 90.7316 13.7635ZM68.1786 2.88697C71.0486 2.88697 73.7761 3.88572 75.9569 5.74822L76.3361 6.08572C78.5754 8.00522 79.6949 10.8845 79.6949 13.9235C79.6949 16.9625 78.5754 19.6817 76.3361 21.761C74.0966 23.8405 71.3776 24.96 68.1786 24.96L60.5011 24.8V39.6755H55.7024V2.88672L68.1786 2.88697ZM91.3711 27.1995C89.4519 27.1995 87.8524 27.6792 86.5729 28.639C85.2931 29.4387 84.6534 30.5582 84.6534 31.9977C84.6534 33.2775 85.2934 34.397 86.2529 35.037C87.3726 35.8367 88.6521 36.3165 89.9319 36.3165C91.7231 36.3165 93.5146 35.6197 94.9159 34.3565L95.2101 34.0772C96.8096 32.6377 97.6094 30.8782 97.6094 28.9587C96.1699 27.8392 94.0904 27.1992 91.3714 27.1992L91.3711 27.1995ZM68.4986 7.36547H60.5011V20.1617H68.4986C70.2579 20.1617 72.0174 19.522 73.1371 18.2425C75.6961 15.8432 75.6961 11.8445 73.2971 9.44497L73.1371 9.28497C71.8574 8.00547 70.2579 7.20572 68.4984 7.36572L68.4986 7.36547ZM128 14.5632L112.165 50.872H107.366L113.284 38.236L102.888 14.7232H108.006L115.524 32.7975H115.684L123.041 14.7232H128V14.5632Z" fill="#5F6368"/>
<path id="Vector_2" d="M41.4671 21.6017C41.4671 20.1622 41.3071 18.7227 41.1471 17.2832H21.1538V25.4407H32.5101C32.0303 27.9997 30.5908 30.399 28.3516 31.8387V37.117H35.2293C39.2281 33.4382 41.4673 27.9997 41.4673 21.602L41.4671 21.6017Z" fill="#4285F4"/>
<path id="Vector_3" d="M21.1535 42.2358C26.9115 42.2358 31.71 40.3163 35.229 37.1173L28.3513 31.8391C26.4318 33.1186 24.0325 33.9183 21.1535 33.9183C15.715 33.9183 10.9165 30.2396 9.31704 25.1211H2.27954V30.5593C5.95829 37.7571 13.156 42.2358 21.1535 42.2358Z" fill="#34A853"/>
<path id="Vector_4" d="M9.31694 25.1211C8.35744 22.5619 8.35744 19.6829 9.31694 16.9636V11.5254H2.27944C-0.759812 17.4436 -0.759812 24.4814 2.27944 30.5594L9.31694 25.1211Z" fill="#FBBC04"/>
<path id="Vector_5" d="M21.1535 8.32609C24.1925 8.32609 27.0715 9.44583 29.311 11.5251L35.389 5.44709C31.55 1.92809 26.4317 -0.151165 21.3132 0.00858512C13.3157 0.00858512 5.95821 4.48734 2.43921 11.6851L9.47696 17.1233C10.9165 12.0048 15.715 8.32609 21.1535 8.32609Z" fill="#EA4335"/>
</g>
<defs>
<clipPath id="clip0_1086_27586">
<rect width="128" height="51" fill="white"/>
</clipPath>
</defs>
</svg>
