<svg width="108" height="108" viewBox="0 0 108 108" fill="none" xmlns="http://www.w3.org/2000/svg">
<g filter="url(#filter0_d_1086_29087)">
<circle cx="54" cy="48" r="40" fill="white"/>
</g>
<path d="M45.5667 36.333C45.5663 37.2171 45.2146 38.0648 44.5892 38.6896C43.9638 39.3144 43.1157 39.6652 42.2317 39.6647C41.3476 39.6643 40.5 39.3127 39.8752 38.6872C39.2503 38.0618 38.8996 37.2138 38.9 36.3297C38.9005 35.4457 39.2521 34.598 39.8775 33.9732C40.5029 33.3484 41.351 32.9976 42.235 32.998C43.1191 32.9985 43.9668 33.3501 44.5916 33.9755C45.2164 34.601 45.5671 35.449 45.5667 36.333ZM45.6667 42.133H39V62.9997H45.6667V42.133ZM56.2 42.133H49.5667V62.9997H56.1334V52.0497C56.1334 45.9497 64.0834 45.383 64.0834 52.0497V62.9997H70.6667V49.783C70.6667 39.4997 58.9 39.883 56.1334 44.933L56.2 42.133Z" fill="#99ADBF"/>
<defs>
<filter id="filter0_d_1086_29087" x="0" y="0" width="108" height="108" filterUnits="userSpaceOnUse" color-interpolation-filters="sRGB">
<feFlood flood-opacity="0" result="BackgroundImageFix"/>
<feColorMatrix in="SourceAlpha" type="matrix" values="0 0 0 0 0 0 0 0 0 0 0 0 0 0 0 0 0 0 127 0" result="hardAlpha"/>
<feOffset dy="6"/>
<feGaussianBlur stdDeviation="7"/>
<feComposite in2="hardAlpha" operator="out"/>
<feColorMatrix type="matrix" values="0 0 0 0 0.080125 0 0 0 0 0.316227 0 0 0 0 0.534167 0 0 0 0.1 0"/>
<feBlend mode="normal" in2="BackgroundImageFix" result="effect1_dropShadow_1086_29087"/>
<feBlend mode="normal" in="SourceGraphic" in2="effect1_dropShadow_1086_29087" result="shape"/>
</filter>
</defs>
</svg>
