<svg width="82" height="51" viewBox="0 0 82 51" fill="none" xmlns="http://www.w3.org/2000/svg">
<g clip-path="url(#clip0_1086_27601)">
<path d="M29.707 5.38867H51.7251V44.9985H29.707V5.38867Z" fill="#FF5F00"/>
<path d="M31.1052 25.1936C31.1052 17.1458 34.8796 10.0074 40.681 5.38849C36.4175 2.02941 31.0354 0 25.164 0C11.2536 0 0 11.267 0 25.1936C0 39.1199 11.2536 50.3872 25.1636 50.3872C31.0351 50.3872 36.4172 48.3578 40.681 44.9984C34.8796 40.4496 31.1052 33.2414 31.1052 25.1936Z" fill="#EB001B"/>
<path d="M81.4321 25.1936C81.4321 39.1199 70.1786 50.3872 56.2685 50.3872C50.397 50.3872 45.0149 48.3578 40.7511 44.9984C46.6226 40.3797 50.3273 33.2414 50.3273 25.1936C50.3273 17.1458 46.5525 10.0074 40.7511 5.38849C45.0146 2.02941 50.397 0 56.2685 0C70.1786 0 81.4321 11.3371 81.4321 25.1936Z" fill="#F79E1B"/>
<path d="M4.767 28.441L5.43 20.29C5.469 19.952 5.651 19.77 5.989 19.77H6.808C7.12 19.77 7.315 19.913 7.419 20.212L9.07 24.333C9.278 24.879 9.538 25.685 9.538 25.685H9.564C9.564 25.685 9.811 24.879 10.019 24.333L11.67 20.212C11.774 19.913 11.969 19.77 12.294 19.77H13.1C13.438 19.77 13.633 19.952 13.659 20.29L14.322 28.441C14.348 28.792 14.166 29 13.802 29H13.217C12.879 29 12.684 28.818 12.658 28.48L12.307 23.839C12.268 23.228 12.294 22.409 12.294 22.409H12.268C12.268 22.409 11.982 23.306 11.774 23.839L10.435 26.985C10.331 27.271 10.136 27.414 9.824 27.414H9.278C8.953 27.414 8.758 27.271 8.654 26.985L7.328 23.839C7.12 23.306 6.821 22.396 6.821 22.396H6.795C6.795 22.396 6.821 23.228 6.782 23.839L6.431 28.48C6.405 28.818 6.223 29 5.872 29H5.287C4.923 29 4.741 28.792 4.767 28.441ZM15.395 27.167C15.395 25.23 17.787 24.905 19.269 24.905H19.542V24.749C19.542 23.878 18.983 23.579 18.307 23.579C17.748 23.579 17.241 23.787 16.929 23.956C16.604 24.099 16.357 24.047 16.201 23.735L16.071 23.488C15.915 23.189 15.967 22.929 16.279 22.76C16.708 22.539 17.462 22.214 18.45 22.214C20.166 22.214 21.193 23.176 21.193 24.853V28.454C21.193 28.818 21.011 29 20.647 29H20.205C19.854 29 19.672 28.818 19.672 28.454V28.194C19.672 28.012 19.698 27.908 19.698 27.908H19.672C19.672 27.908 19.048 29.156 17.592 29.156C16.383 29.156 15.395 28.376 15.395 27.167ZM17.033 27.024C17.033 27.466 17.371 27.895 18.034 27.895C18.957 27.895 19.555 26.959 19.555 26.153V25.906H19.282C18.45 25.906 17.033 26.036 17.033 27.024ZM22.5761 28.48C22.2771 28.311 22.2511 28.025 22.4461 27.739L22.6021 27.505C22.7971 27.232 23.0181 27.206 23.3431 27.375C23.6551 27.544 24.1491 27.83 24.8251 27.83C25.3971 27.83 25.7481 27.57 25.7481 27.154C25.7481 26.075 22.4591 26.478 22.4591 24.203C22.4591 22.903 23.6031 22.214 24.9941 22.214C25.8781 22.214 26.4891 22.5 26.8401 22.695C27.1391 22.851 27.1781 23.124 27.0351 23.423L26.9051 23.657C26.7491 23.969 26.5021 24.008 26.1771 23.865C25.8911 23.735 25.4621 23.54 24.9161 23.54C24.3441 23.54 24.0191 23.774 24.0191 24.19C24.0191 25.282 27.3081 24.853 27.3081 27.115C27.3081 28.285 26.3201 29.156 24.7861 29.156C23.7201 29.156 22.9791 28.753 22.5761 28.48ZM28.9105 26.634V23.774H28.5595C28.2085 23.774 28.0265 23.592 28.0265 23.228V23.007C28.0265 22.656 28.2085 22.461 28.5725 22.461H28.9495V21.109C28.9495 20.758 29.1445 20.563 29.4955 20.563H30.0155C30.3665 20.563 30.5615 20.758 30.5615 21.109V22.461H31.5235C31.8745 22.461 32.0695 22.656 32.0695 23.007V23.228C32.0695 23.592 31.8745 23.774 31.5365 23.774H30.5615V26.348C30.5615 27.336 31.1725 27.531 31.6275 27.583C32.0305 27.622 32.1735 27.752 32.1735 28.116V28.519C32.1735 28.909 31.9525 29.065 31.4975 29.065C30.3145 29.065 28.9105 28.428 28.9105 26.634ZM32.8281 25.685C32.8281 23.644 34.2061 22.214 36.1951 22.214C38.0801 22.214 39.1331 23.553 39.1331 25.373C39.1331 25.659 38.8861 25.932 38.5611 25.932H34.5181C34.6221 27.128 35.5061 27.752 36.5071 27.752C37.1181 27.752 37.6251 27.518 37.9371 27.323C38.2621 27.167 38.4961 27.206 38.6651 27.505L38.8211 27.765C38.9771 28.064 38.9251 28.324 38.6391 28.493C38.2101 28.766 37.4301 29.156 36.3901 29.156C34.1931 29.156 32.8281 27.57 32.8281 25.685ZM34.5571 24.931H37.4951C37.4691 24.008 36.9101 23.462 36.1561 23.462C35.3111 23.462 34.7131 24.047 34.5571 24.931ZM40.3278 28.454V22.916C40.3278 22.565 40.5098 22.37 40.8608 22.37H41.3678C41.7188 22.37 41.9138 22.565 41.9138 22.916V23.54C41.9138 23.787 41.8748 23.995 41.8748 23.995H41.9008C42.1608 23.202 42.8888 22.318 43.8248 22.318C44.1888 22.318 44.3188 22.5 44.3188 22.864V23.371C44.3188 23.722 44.1108 23.917 43.7598 23.917C42.5508 23.917 41.9658 25.113 41.9658 26.322V28.454C41.9658 28.818 41.7838 29 41.4328 29H40.8608C40.5098 29 40.3278 28.818 40.3278 28.454ZM48.1538 24.346C48.1538 21.668 50.1168 19.614 52.9118 19.614C54.4198 19.614 55.4338 20.186 55.9278 20.537C56.2008 20.745 56.2138 21.005 56.0318 21.291L55.7978 21.668C55.6158 21.967 55.3688 21.993 55.0568 21.798C54.6538 21.538 53.9258 21.148 52.9768 21.148C50.9618 21.148 49.8828 22.617 49.8828 24.32C49.8828 26.049 51.0008 27.622 52.9898 27.622C54.0298 27.622 54.8228 27.128 55.2518 26.816C55.5378 26.608 55.7978 26.608 56.0058 26.907L56.2658 27.258C56.4608 27.518 56.4478 27.791 56.1878 28.012C55.6678 28.428 54.5628 29.156 52.9248 29.156C50.0258 29.156 48.1538 27.063 48.1538 24.346ZM57.0483 27.167C57.0483 25.23 59.4403 24.905 60.9223 24.905H61.1953V24.749C61.1953 23.878 60.6363 23.579 59.9603 23.579C59.4013 23.579 58.8943 23.787 58.5823 23.956C58.2573 24.099 58.0103 24.047 57.8543 23.735L57.7243 23.488C57.5683 23.189 57.6203 22.929 57.9323 22.76C58.3613 22.539 59.1153 22.214 60.1033 22.214C61.8193 22.214 62.8463 23.176 62.8463 24.853V28.454C62.8463 28.818 62.6643 29 62.3003 29H61.8583C61.5073 29 61.3253 28.818 61.3253 28.454V28.194C61.3253 28.012 61.3513 27.908 61.3513 27.908H61.3253C61.3253 27.908 60.7013 29.156 59.2453 29.156C58.0363 29.156 57.0483 28.376 57.0483 27.167ZM58.6863 27.024C58.6863 27.466 59.0243 27.895 59.6873 27.895C60.6103 27.895 61.2083 26.959 61.2083 26.153V25.906H60.9353C60.1033 25.906 58.6863 26.036 58.6863 27.024ZM64.3854 28.454V22.916C64.3854 22.565 64.5674 22.37 64.9184 22.37H65.4254C65.7764 22.37 65.9714 22.565 65.9714 22.916V23.54C65.9714 23.787 65.9324 23.995 65.9324 23.995H65.9584C66.2184 23.202 66.9464 22.318 67.8824 22.318C68.2464 22.318 68.3764 22.5 68.3764 22.864V23.371C68.3764 23.722 68.1684 23.917 67.8174 23.917C66.6084 23.917 66.0234 25.113 66.0234 26.322V28.454C66.0234 28.818 65.8414 29 65.4904 29H64.9184C64.5674 29 64.3854 28.818 64.3854 28.454ZM68.6927 25.685C68.6927 23.579 69.9407 22.214 71.6957 22.214C73.1517 22.214 73.6327 23.163 73.6327 23.163H73.6587C73.6587 23.163 73.6327 22.994 73.6327 22.786V20.316C73.6327 19.965 73.8147 19.77 74.1657 19.77H74.7377C75.0887 19.77 75.2707 19.965 75.2707 20.316V28.454C75.2707 28.818 75.0887 29 74.7377 29H74.2567C73.9057 29 73.7237 28.831 73.7237 28.506V28.246C73.7237 28.116 73.7497 28.012 73.7497 28.012H73.7237C73.7237 28.012 73.1647 29.156 71.6437 29.156C69.8497 29.156 68.6927 27.739 68.6927 25.685ZM70.3567 25.685C70.3567 26.946 71.0327 27.765 72.0077 27.765C72.8657 27.765 73.6717 27.141 73.6717 25.672C73.6717 24.645 73.1387 23.631 72.0207 23.631C71.1237 23.631 70.3567 24.372 70.3567 25.685Z" fill="white"/>
</g>
<defs>
<clipPath id="clip0_1086_27601">
<rect width="82" height="51" fill="white"/>
</clipPath>
</defs>
</svg>
