<svg width="95" height="30" viewBox="0 0 95 30" fill="none" xmlns="http://www.w3.org/2000/svg">
<path d="M0.624 21.656V1.624C0.624 0.759998 1.072 0.279999 1.936 0.279999H9.36C13.616 0.279999 16.592 3.256 16.592 7.672C16.592 12.088 13.616 15.16 9.36 15.16H4.72V21.656C4.72 22.552 4.272 23 3.408 23H1.936C1.072 23 0.624 22.552 0.624 21.656ZM4.72 11.576H8.592C11.024 11.576 12.4 10.04 12.4 7.672C12.4 5.336 11.024 3.832 8.656 3.832H4.72V11.576ZM17.8305 18.488C17.8305 13.72 23.7185 12.92 27.3665 12.92H28.0385V12.536C28.0385 10.392 26.6625 9.656 24.9985 9.656C23.6225 9.656 22.3745 10.168 21.6065 10.584C20.8065 10.936 20.1985 10.808 19.8145 10.04L19.4945 9.432C19.1105 8.696 19.2385 8.056 20.0065 7.64C21.0625 7.096 22.9185 6.296 25.3505 6.296C29.5745 6.296 32.1025 8.664 32.1025 12.792V21.656C32.1025 22.552 31.6545 23 30.7585 23H29.6705C28.8065 23 28.3585 22.552 28.3585 21.656V21.016C28.3585 20.568 28.4225 20.312 28.4225 20.312H28.3585C28.3585 20.312 26.8225 23.384 23.2385 23.384C20.2625 23.384 17.8305 21.464 17.8305 18.488ZM21.8625 18.136C21.8625 19.224 22.6945 20.28 24.3265 20.28C26.5985 20.28 28.0705 17.976 28.0705 15.992V15.384H27.3985C25.3505 15.384 21.8625 15.704 21.8625 18.136ZM34.518 26.808C34.87 26.072 35.414 25.944 35.958 26.072C36.246 26.2 36.63 26.36 37.11 26.36C38.294 26.36 39.222 25.336 39.702 24.184L40.31 22.744L34.102 8.248C33.686 7.32 34.102 6.68 35.126 6.68H36.854C37.654 6.68 38.102 7.032 38.358 7.768L41.43 16.088C41.718 16.952 42.038 18.296 42.038 18.296H42.102C42.102 18.296 42.39 17.016 42.646 16.152L45.526 7.8C45.75 7.032 46.23 6.68 47.03 6.68H48.63C49.622 6.68 50.038 7.288 49.718 8.216L42.998 25.432C41.878 28.408 39.51 29.72 37.11 29.72C36.214 29.72 35.414 29.464 34.838 29.24C34.07 28.952 33.878 28.248 34.23 27.512L34.518 26.808Z" fill="#27346A"/>
<path d="M52.8115 21.656V1.624C52.8115 0.759998 53.2595 0.279999 54.1235 0.279999H61.5475C65.8035 0.279999 68.7795 3.256 68.7795 7.672C68.7795 12.088 65.8035 15.16 61.5475 15.16H56.9075V21.656C56.9075 22.552 56.4595 23 55.5955 23H54.1235C53.2595 23 52.8115 22.552 52.8115 21.656ZM56.9075 11.576H60.7795C63.2115 11.576 64.5875 10.04 64.5875 7.672C64.5875 5.336 63.2115 3.832 60.8435 3.832H56.9075V11.576ZM70.018 18.488C70.018 13.72 75.906 12.92 79.554 12.92H80.226V12.536C80.226 10.392 78.85 9.656 77.186 9.656C75.81 9.656 74.562 10.168 73.794 10.584C72.994 10.936 72.386 10.808 72.002 10.04L71.682 9.432C71.298 8.696 71.426 8.056 72.194 7.64C73.25 7.096 75.106 6.296 77.538 6.296C81.762 6.296 84.29 8.664 84.29 12.792V21.656C84.29 22.552 83.842 23 82.946 23H81.858C80.994 23 80.546 22.552 80.546 21.656V21.016C80.546 20.568 80.61 20.312 80.61 20.312H80.546C80.546 20.312 79.01 23.384 75.426 23.384C72.45 23.384 70.018 21.464 70.018 18.488ZM74.05 18.136C74.05 19.224 74.882 20.28 76.514 20.28C78.786 20.28 80.258 17.976 80.258 15.992V15.384H79.586C77.538 15.384 74.05 15.704 74.05 18.136ZM88.0465 17.912V1.624C88.0465 0.759998 88.4945 0.279999 89.3585 0.279999H90.7665C91.6305 0.279999 92.0785 0.759998 92.0785 1.624V17.592C92.0785 19.192 92.7505 19.48 93.3585 19.544C93.9345 19.608 94.3505 19.96 94.3505 20.696V21.784C94.3505 22.616 93.9665 23.16 93.0065 23.16C90.8305 23.16 88.0465 22.584 88.0465 17.912Z" fill="#2790C3"/>
</svg>
