<svg width="44" height="51" viewBox="0 0 44 51" fill="none" xmlns="http://www.w3.org/2000/svg">
<g id="logos:paypal" clip-path="url(#clip0_1086_27593)">
<path id="Vector" d="M36.674 3.9706C34.3209 1.28854 30.0673 0.138672 24.6257 0.138672H8.83258C8.29419 0.138692 7.77345 0.330773 7.36401 0.680382C6.95456 1.02999 6.68326 1.51419 6.59888 2.04594L0.0229241 43.7523C-0.107785 44.5747 0.52904 45.3194 1.3626 45.3194H11.1127L13.5614 29.7879L13.4854 30.2743C13.6599 29.1764 14.5988 28.3667 15.7107 28.3667H20.3439C29.4459 28.3667 36.5729 24.6697 38.6548 13.975C38.7166 13.6587 38.7701 13.3509 38.8164 13.0501C38.5536 12.911 38.5536 12.911 38.8164 13.0501C39.4363 9.09728 38.8121 6.40661 36.674 3.9706Z" fill="#27346A"/>
<path id="Vector_2" d="M17.2922 11.6262C17.5587 11.4992 17.8503 11.4335 18.1455 11.4337H30.527C31.9932 11.4337 33.3607 11.5291 34.6104 11.7302C34.9601 11.786 35.3079 11.8525 35.6535 11.9298C36.1433 12.0379 36.6274 12.1702 37.1041 12.3262C37.7185 12.5313 38.2907 12.7703 38.8165 13.0501C39.4363 9.09576 38.8121 6.40661 36.674 3.9706C34.3196 1.28854 30.0673 0.138672 24.6257 0.138672H8.83123C7.7192 0.138672 6.77316 0.948255 6.59889 2.04594L0.022925 43.7508C-0.107784 44.5745 0.529041 45.3183 1.36125 45.3183H11.1127L16.193 13.1021C16.2429 12.7855 16.3691 12.4857 16.5605 12.2286C16.752 11.9715 17.0031 11.7647 17.2922 11.6262Z" fill="#27346A"/>
<path id="Vector_3" d="M38.6549 13.9738C36.573 24.6669 29.4462 28.3654 20.344 28.3654H15.7094C14.5976 28.3654 13.6585 29.1751 13.4857 30.273L10.4394 49.5846C10.3256 50.3043 10.8822 50.9565 11.6103 50.9565H19.8295C20.3003 50.9564 20.7556 50.7883 21.1135 50.4824C21.4715 50.1766 21.7086 49.7531 21.7821 49.288L21.8622 48.8692L23.4113 39.0516L23.5111 38.509C23.5847 38.044 23.8217 37.6205 24.1796 37.3146C24.5375 37.0088 24.9928 36.8407 25.4636 36.8405H26.6937C34.6556 36.8405 40.8899 33.6059 42.7117 24.2509C43.4722 20.3415 43.0787 17.0775 41.0671 14.7849C40.4569 14.0904 39.6992 13.5169 38.8165 13.0488C38.7687 13.3511 38.7168 13.6575 38.6549 13.9738Z" fill="#2790C3"/>
<path id="Vector_4" d="M36.6376 12.1796C36.313 12.0848 35.9853 12.0009 35.6551 11.928C35.3093 11.8519 34.9615 11.7858 34.612 11.7297C33.3609 11.5272 31.9944 11.4316 30.5269 11.4316H18.1469C17.8514 11.431 17.5597 11.4973 17.2936 11.6257C17.0042 11.7638 16.7528 11.9704 16.5613 12.2276C16.3697 12.4848 16.2437 12.7848 16.1942 13.1016L13.5628 29.7861L13.4868 30.2724C13.6599 29.1746 14.5989 28.3648 15.7109 28.3648H20.3455C29.4475 28.3648 36.5743 24.6678 38.6562 13.9732C38.7181 13.6569 38.7702 13.3504 38.8179 13.0483C38.2907 12.77 37.7201 12.5295 37.1056 12.3257C36.9505 12.2743 36.7945 12.2256 36.6378 12.1796" fill="#1F264F"/>
</g>
<defs>
<clipPath id="clip0_1086_27593">
<rect width="43.2318" height="51" fill="white"/>
</clipPath>
</defs>
</svg>
