<svg width="124" height="188" viewBox="0 0 124 188" fill="none" xmlns="http://www.w3.org/2000/svg">
<g id="Creative thinking" clip-path="url(#clip0_1384_2325)">
<g id="Layer 2">
<g id="&#195;&#145;&#195;&#171;&#195;&#174;&#195;&#169; 1">
<path id="Vector" d="M90.4397 98.0387C90.1653 98.0512 89.8943 97.9735 89.6684 97.8176C89.4426 97.6618 89.2742 97.4363 89.1892 97.1758C89.1042 96.9153 89.1072 96.6342 89.1978 96.3756C89.2884 96.117 89.4616 95.8952 89.6908 95.7442C100.396 87.9929 108.567 75.3022 112.7 60.004C116.712 45.1314 116.708 29.6831 116.173 16.5293C116.159 16.1929 116.281 15.865 116.51 15.6178C116.739 15.3706 117.057 15.2242 117.394 15.2109C117.731 15.1977 118.06 15.3186 118.308 15.547C118.556 15.7755 118.703 16.0928 118.716 16.4291C119.26 29.779 119.26 45.461 115.156 60.6507C110.876 76.5037 102.367 89.6909 91.1927 97.7801C90.9765 97.9456 90.7122 98.0363 90.4397 98.0387Z" fill="#D6DEE5"/>
<path id="Vector_2" d="M90.4396 98.8725C89.9911 98.874 89.5537 98.7338 89.1902 98.4719C88.8267 98.2101 88.5557 97.84 88.4163 97.415C88.2769 96.99 88.2761 96.5318 88.4141 96.1063C88.5522 95.6808 88.8219 95.3099 89.1845 95.0469C99.7354 87.4082 107.789 74.8802 111.868 59.7698C115.85 45.0098 115.846 29.6407 115.315 16.5494C115.292 15.9891 115.494 15.4426 115.875 15.0304C116.256 14.6181 116.786 14.3737 117.348 14.3509C117.9 14.3253 118.44 14.5188 118.85 14.889C119.273 15.2746 119.526 15.8116 119.553 16.3826C120.097 29.7867 120.097 45.5563 115.963 60.8669C111.633 76.9119 102.994 90.2618 91.6988 98.472C91.3335 98.7377 90.8917 98.8782 90.4396 98.8725ZM117.465 16.0405H117.44C117.383 16.0404 117.326 16.0519 117.274 16.0745C117.222 16.097 117.174 16.13 117.135 16.1714C117.096 16.2128 117.066 16.2618 117.046 16.3153C117.027 16.3689 117.018 16.4258 117.022 16.4827C117.557 29.6991 117.561 45.2267 113.52 60.2078C109.337 75.6937 101.057 88.5513 90.1927 96.4152C90.147 96.4475 90.1081 96.4887 90.0786 96.5362C90.0491 96.5838 90.0295 96.6367 90.0209 96.692C90.0123 96.7473 90.0149 96.8037 90.0286 96.8579C90.0424 96.9121 90.0669 96.9631 90.1007 97.0076C90.1274 97.0591 90.1658 97.1036 90.2128 97.1376C90.2598 97.1716 90.3141 97.1942 90.3715 97.2035C90.4288 97.2128 90.4875 97.2086 90.5429 97.1913C90.5983 97.1739 90.6489 97.1439 90.6906 97.1036C101.71 89.1229 110.111 76.0984 114.336 60.4289C118.394 45.331 118.394 29.7241 117.867 16.4451C117.86 16.3283 117.808 16.2188 117.72 16.1406C117.652 16.0745 117.561 16.0372 117.465 16.0363V16.0405Z" fill="#99ADBF"/>
<path id="Vector_3" d="M33.5603 98.0387C33.2925 98.0393 33.0316 97.9545 32.8156 97.7967C21.6414 89.7075 13.1279 76.5203 8.84812 60.6673C4.74407 45.4651 4.74407 29.7748 5.28793 16.4457C5.29452 16.2792 5.33395 16.1156 5.40395 15.9642C5.47396 15.8129 5.57317 15.6767 5.69593 15.5636C5.81869 15.4505 5.96259 15.3626 6.11941 15.3049C6.27624 15.2473 6.44291 15.221 6.60993 15.2276C6.77694 15.2341 6.94102 15.2734 7.0928 15.3432C7.24458 15.4131 7.38108 15.512 7.49452 15.6344C7.60795 15.7568 7.6961 15.9003 7.75392 16.0567C7.81174 16.2131 7.83811 16.3793 7.83152 16.5459C7.29603 29.6997 7.29184 45.148 11.3039 60.0206C15.433 75.3146 23.6034 88.0095 34.3133 95.7608C34.5425 95.9118 34.7157 96.1336 34.8063 96.3922C34.8969 96.6508 34.9 96.9319 34.8149 97.1924C34.7299 97.4529 34.5616 97.6784 34.3357 97.8342C34.1098 97.9901 33.8389 98.0678 33.5645 98.0553L33.5603 98.0387Z" fill="#D6DEE5"/>
<path id="Vector_4" d="M33.5602 98.8725C33.1076 98.8725 32.6673 98.7261 32.3052 98.4553C20.9762 90.2493 12.3497 76.8952 8.04067 60.8545C3.90733 45.5438 3.90733 29.7743 4.45119 16.3701C4.45742 16.0892 4.51974 15.8123 4.63449 15.5556C4.74925 15.2989 4.91415 15.0676 5.11956 14.8752C5.32496 14.6828 5.56676 14.5332 5.83082 14.435C6.09489 14.3368 6.37592 14.2921 6.6575 14.3035C6.93909 14.3149 7.21558 14.3821 7.47082 14.5012C7.72607 14.6203 7.95495 14.789 8.14409 14.9973C8.33323 15.2056 8.47885 15.4495 8.57243 15.7145C8.66601 15.9796 8.70568 16.2606 8.68912 16.5412C8.14526 29.6199 8.14107 45.0057 12.1322 59.7657C16.2111 74.8761 24.2644 87.4041 34.8153 95.0428C35.1779 95.3058 35.4477 95.6767 35.5857 96.1022C35.7237 96.5277 35.723 96.9859 35.5835 97.4109C35.4441 97.8359 35.1731 98.206 34.8096 98.4678C34.4461 98.7297 34.0087 98.8699 33.5602 98.8684V98.8725ZM6.56388 16.0364C6.45292 16.0364 6.34651 16.0803 6.26806 16.1586C6.1896 16.2368 6.14553 16.3429 6.14553 16.4536C5.60585 29.7325 5.60167 45.3394 9.67643 60.4332C13.906 76.1026 22.3023 89.1229 33.3218 97.1037C33.393 97.157 33.4795 97.1862 33.5686 97.1871C33.6364 97.1881 33.7034 97.1727 33.7639 97.1422C33.8244 97.1117 33.8765 97.067 33.9158 97.0119C33.9495 96.967 33.9737 96.9159 33.9871 96.8615C34.0005 96.8071 34.0028 96.7506 33.9938 96.6953C33.9848 96.64 33.9648 96.5871 33.9348 96.5397C33.9049 96.4923 33.8657 96.4514 33.8196 96.4195C22.9424 88.5555 14.6758 75.6979 10.4922 60.212C6.44256 45.2226 6.44674 29.695 6.98223 16.4786C6.98566 16.4217 6.97738 16.3648 6.95789 16.3113C6.93841 16.2577 6.90813 16.2087 6.86894 16.1673C6.82975 16.1259 6.78246 16.0929 6.72999 16.0704C6.67753 16.0478 6.621 16.0363 6.56388 16.0364Z" fill="#99ADBF"/>
<path id="Vector_5" d="M94.5018 142.652L61.7949 187.153L29.088 142.652C29.088 138.614 34.1083 135.339 40.279 135.339C45.3954 135.339 49.7045 137.583 51.039 140.654C52.3694 137.583 56.6784 135.339 61.7949 135.339C66.9114 135.339 71.2204 137.583 72.555 140.654C73.8853 137.583 78.1944 135.339 83.3108 135.339C89.4899 135.339 94.5018 138.614 94.5018 142.652Z" fill="#D6DEE5"/>
<path id="Vector_6" d="M94.5018 142.652L61.7949 187.153L62.3555 186.394L86.3732 135.618C86.3732 135.618 94.5018 137.466 94.5018 142.652Z" fill="#EBEFF2"/>
<path id="Vector_7" d="M61.795 188C61.6619 188.001 61.5306 187.969 61.412 187.909C61.2934 187.849 61.1909 187.761 61.1131 187.654L28.4062 143.148C28.2999 143.005 28.2427 142.831 28.243 142.652C28.243 138.155 33.644 134.496 40.2791 134.496C44.9395 134.496 49.0394 136.244 51.0391 138.968C53.0389 136.244 57.1345 134.496 61.795 134.496C66.4555 134.496 70.5553 136.244 72.555 138.968C74.5548 136.244 78.6505 134.496 83.3109 134.496C89.9502 134.496 95.3511 138.155 95.3511 142.652C95.3514 142.831 95.2943 143.005 95.188 143.148L62.4811 187.654C62.4028 187.762 62.2997 187.85 62.1803 187.91C62.0609 187.97 61.9288 188.001 61.795 188ZM29.9457 142.385L61.795 185.722L93.6443 142.385C93.4225 138.943 88.875 136.186 83.3109 136.186C78.663 136.186 74.559 138.163 73.3332 140.987C73.2715 141.143 73.1643 141.277 73.0256 141.371C72.8868 141.465 72.7229 141.515 72.555 141.515C72.3872 141.515 72.2233 141.465 72.0845 141.371C71.9458 141.277 71.8386 141.143 71.7769 140.987C70.547 138.159 66.4471 136.182 61.795 136.182C57.1429 136.182 53.043 138.159 51.8173 140.983C51.7556 141.139 51.6484 141.272 51.5096 141.367C51.3709 141.461 51.2069 141.511 51.0391 141.511C50.8713 141.511 50.7074 141.461 50.5686 141.367C50.4299 141.272 50.3227 141.139 50.261 140.983C49.031 138.155 44.927 136.177 40.2791 136.177C34.7233 136.186 30.1717 138.943 29.9457 142.385Z" fill="#99ADBF"/>
<path id="Vector_8" d="M29.0839 26.0075C32.3345 16.7168 36.4511 3.33765 42.9481 1.81076C49.4451 0.283861 77.3158 0.450734 82.905 2.89126C90.8203 6.34972 94.506 27.3007 94.506 27.3007L29.0839 26.0075Z" fill="#D6DEE5"/>
<path id="Vector_9" d="M94.5018 27.301L88.3018 27.1759C86.6535 20.7345 83.2523 10.2882 77.8471 7.92697C72.2579 5.48227 44.3788 5.32791 37.8944 6.84229C37.5373 6.9297 37.1888 7.04836 36.8527 7.1969C38.6348 4.38091 40.6429 2.34087 42.9523 1.80271C49.4493 0.305014 77.3116 0.4552 82.905 2.89156C90.8203 6.35419 94.5018 27.301 94.5018 27.301Z" fill="#EBEFF2"/>
<path id="Vector_10" d="M94.506 28.1474L29.0672 26.8541C28.9322 26.8539 28.7993 26.8211 28.6797 26.7585C28.5602 26.696 28.4577 26.6055 28.3808 26.4948C28.3039 26.3842 28.2551 26.2566 28.2384 26.123C28.2217 25.9895 28.2376 25.8538 28.2849 25.7277C28.5414 25.0018 28.8008 24.2551 29.063 23.4875C32.2927 14.13 36.3089 2.50309 42.7557 0.98871C49.2025 -0.52567 77.433 -0.417202 83.2523 2.11928C91.4897 5.71541 95.1921 26.2826 95.3427 27.1503C95.3656 27.2731 95.3606 27.3995 95.328 27.52C95.2955 27.6406 95.2361 27.7524 95.1545 27.847C95.0754 27.9418 94.9762 28.0178 94.8641 28.0698C94.7519 28.1217 94.6297 28.1482 94.506 28.1474ZM30.2679 25.1812L93.4727 26.4328C92.636 22.2609 89.0131 6.48303 82.5662 3.66703C77.1276 1.28908 49.3155 1.1973 43.1406 2.63659C37.61 3.92569 33.5979 15.5484 30.6653 24.034C30.5398 24.422 30.4017 24.8058 30.2679 25.1812Z" fill="#99ADBF"/>
<path id="Vector_11" d="M94.5018 33.3496V142.652C94.5018 138.614 89.4815 135.339 83.3108 135.339C78.1944 135.339 73.8853 137.583 72.555 140.654C71.2204 137.583 66.9114 135.339 61.7949 135.339C56.6784 135.339 52.3694 137.583 51.039 140.654C49.7045 137.583 45.3954 135.339 40.279 135.339C34.0957 135.339 29.088 138.614 29.088 142.652V33.3496H94.5018Z" fill="#D6DEE5"/>
<path id="Vector_12" d="M94.5019 33.3496V142.652C94.5019 139.314 91.0672 136.49 86.3733 135.618V33.3496H94.5019Z" fill="#EBEFF2"/>
<path id="Vector_13" d="M51.0391 141.501C50.8172 141.501 50.6044 141.413 50.4475 141.257C50.2905 141.1 50.2024 140.888 50.2024 140.667V35.2941C50.2024 35.0695 50.2919 34.8541 50.4511 34.6953C50.6104 34.5365 50.8264 34.4473 51.0516 34.4473C51.2769 34.4473 51.4929 34.5365 51.6522 34.6953C51.8114 34.8541 51.9009 35.0695 51.9009 35.2941V140.654C51.9027 140.767 51.8815 140.879 51.8386 140.983C51.7958 141.088 51.7321 141.182 51.6516 141.261C51.571 141.34 51.4752 141.402 51.37 141.444C51.2647 141.485 51.1521 141.504 51.0391 141.501Z" fill="#99ADBF"/>
<path id="Vector_14" d="M72.555 141.501C72.3331 141.501 72.1202 141.413 71.9633 141.256C71.8064 141.1 71.7183 140.888 71.7183 140.666V34.2092C71.7183 33.9846 71.8077 33.7692 71.967 33.6104C72.1263 33.4515 72.3423 33.3623 72.5675 33.3623C72.7928 33.3623 73.0088 33.4515 73.168 33.6104C73.3273 33.7692 73.4168 33.9846 73.4168 34.2092V140.654C73.4185 140.767 73.3973 140.879 73.3545 140.983C73.3116 141.087 73.248 141.182 73.1675 141.261C73.0869 141.34 72.9911 141.402 72.8858 141.443C72.7806 141.485 72.668 141.504 72.555 141.501Z" fill="#99ADBF"/>
<path id="Vector_15" d="M94.5018 143.512C94.2799 143.512 94.0671 143.424 93.9102 143.267C93.7533 143.111 93.6651 142.899 93.6651 142.677C93.6651 139.11 89.0214 136.211 83.3193 136.211C78.6714 136.211 74.5673 138.188 73.3415 141.013C73.2798 141.168 73.1727 141.302 73.0339 141.396C72.8951 141.49 72.7312 141.54 72.5634 141.54C72.3956 141.54 72.2316 141.49 72.0929 141.396C71.9541 141.302 71.8469 141.168 71.7853 141.013C70.5553 138.184 66.4554 136.207 61.8033 136.207C57.1512 136.207 53.0514 138.184 51.8256 141.009C51.7639 141.164 51.6567 141.298 51.518 141.392C51.3792 141.486 51.2153 141.536 51.0475 141.536C50.8797 141.536 50.7157 141.486 50.577 141.392C50.4382 141.298 50.331 141.164 50.2693 141.009C49.0394 138.18 44.9353 136.203 40.2874 136.203C34.5853 136.203 29.9457 139.102 29.9457 142.669C29.9457 142.894 29.8562 143.109 29.697 143.268C29.5377 143.427 29.3217 143.516 29.0965 143.516C28.8712 143.516 28.6552 143.427 28.4959 143.268C28.3367 143.109 28.2472 142.894 28.2472 142.669V33.3666C28.2472 33.1453 28.3353 32.9331 28.4923 32.7766C28.6492 32.6201 28.862 32.5322 29.0839 32.5322H94.5018C94.7238 32.5322 94.9366 32.6201 95.0935 32.7766C95.2504 32.9331 95.3386 33.1453 95.3386 33.3666V142.669C95.3397 142.779 95.3188 142.889 95.2773 142.991C95.2357 143.093 95.1743 143.186 95.0965 143.264C95.0187 143.343 94.926 143.405 94.824 143.447C94.7219 143.49 94.6124 143.512 94.5018 143.512ZM40.279 134.496C44.9395 134.496 49.0394 136.244 51.0391 138.968C53.0388 136.244 57.1345 134.496 61.795 134.496C66.4554 134.496 70.5553 136.244 72.555 138.968C74.5547 136.244 78.6504 134.496 83.3109 134.496C87.6994 134.496 91.5525 136.094 93.6526 138.48V34.2093H29.9373V138.505C32.0417 136.094 35.8905 134.496 40.279 134.496Z" fill="#99ADBF"/>
<path id="Vector_16" d="M71.0615 174.546L61.7949 187.153L52.5326 174.546C53.6786 173.214 55.0999 172.145 56.699 171.412C58.2981 170.679 60.0371 170.3 61.797 170.3C63.5569 170.3 65.296 170.679 66.8951 171.412C68.4942 172.145 69.9154 173.214 71.0615 174.546Z" fill="#D6DEE5"/>
<path id="Vector_17" d="M61.7949 188C61.6618 188 61.5305 187.969 61.4119 187.909C61.2933 187.849 61.1908 187.761 61.113 187.653L51.8465 175.046C51.7298 174.89 51.6713 174.699 51.6813 174.504C51.6912 174.31 51.7689 174.126 51.9008 173.982C53.1258 172.561 54.6443 171.42 56.3523 170.638C58.0603 169.856 59.9175 169.451 61.797 169.451C63.6764 169.451 65.5337 169.856 67.2417 170.638C68.9497 171.42 70.4682 172.561 71.6932 173.982C71.8251 174.126 71.9028 174.31 71.9127 174.504C71.9227 174.699 71.8642 174.89 71.7475 175.046L62.481 187.653C62.4027 187.762 62.2996 187.85 62.1802 187.91C62.0608 187.97 61.9287 188.001 61.7949 188ZM53.6328 174.612L61.7949 185.722L69.9612 174.612C68.9046 173.518 67.6376 172.648 66.2359 172.053C64.8341 171.459 63.3265 171.152 61.8033 171.152C60.28 171.152 58.7724 171.459 57.3707 172.053C55.969 172.648 54.7019 173.518 53.6454 174.612H53.6328Z" fill="#99ADBF"/>
<path id="Vector_18" d="M96.9157 38.1017H26.6741C26.1652 38.1006 25.6774 37.8985 25.3176 37.5396C24.9577 37.1808 24.755 36.6944 24.7539 36.1868V26.4122C24.7539 25.904 24.9561 25.4165 25.3161 25.0567C25.6761 24.6969 26.1645 24.4943 26.6741 24.4932H96.9157C97.4254 24.4943 97.9138 24.6969 98.2738 25.0567C98.6338 25.4165 98.836 25.904 98.836 26.4122V36.1868C98.836 36.4383 98.7863 36.6873 98.6898 36.9196C98.5933 37.152 98.4518 37.3631 98.2735 37.5409C98.0952 37.7187 97.8835 37.8597 97.6506 37.956C97.4176 38.0522 97.1679 38.1017 96.9157 38.1017Z" fill="#D6DEE5"/>
<path id="Vector_19" d="M98.8401 28.3689V34.2095C98.8377 35.1701 98.4807 36.0963 97.8371 36.8111C97.1936 37.526 96.3086 37.9795 95.3511 38.0851C95.3511 37.9474 95.3511 37.814 95.3511 37.6679V31.8274C95.3489 30.8016 94.9398 29.8183 94.2132 29.0922C93.4867 28.3661 92.5016 27.9561 91.4729 27.9517H25.189C25.0426 27.9517 24.9087 27.9517 24.7706 27.9517C24.8747 26.998 25.3279 26.116 26.0435 25.4748C26.7591 24.8336 27.6867 24.4781 28.6488 24.4766H94.9369C95.9721 24.4766 96.9649 24.8866 97.6969 25.6166C98.4289 26.3466 98.8401 27.3366 98.8401 28.3689Z" fill="#EBEFF2"/>
<path id="Vector_20" d="M94.9369 38.9488H28.653C27.3933 38.9477 26.1855 38.4479 25.2952 37.5593C24.4048 36.6706 23.9047 35.4658 23.9047 34.2096V28.369C23.9102 27.116 24.4126 25.9162 25.3023 25.0313C26.1919 24.1465 27.3965 23.6487 28.653 23.6465H94.9369C96.1934 23.6487 97.398 24.1465 98.2876 25.0313C99.1773 25.9162 99.6797 27.116 99.6852 28.369V34.2096C99.6852 35.4658 99.1851 36.6706 98.2947 37.5593C97.4044 38.4479 96.1966 38.9477 94.9369 38.9488ZM28.653 25.3403C27.8466 25.3413 27.0734 25.6604 26.5021 26.2278C25.9307 26.7952 25.6076 27.5649 25.6032 28.369V34.2096C25.6043 35.0162 25.9258 35.7896 26.4974 36.3604C27.069 36.9311 27.8441 37.2528 28.653 37.255H94.9369C95.7458 37.2528 96.5209 36.9311 97.0925 36.3604C97.6641 35.7896 97.9856 35.0162 97.9867 34.2096V28.369C97.9856 27.5628 97.6639 26.7898 97.0922 26.2197C96.5205 25.6496 95.7454 25.3288 94.9369 25.3277L28.653 25.3403Z" fill="#505578"/>
<path id="Vector_21" d="M94.9369 38.9488H28.653C27.3933 38.9477 26.1855 38.4479 25.2952 37.5593C24.4048 36.6706 23.9047 35.4658 23.9047 34.2096V28.369C23.9102 27.116 24.4126 25.9162 25.3023 25.0313C26.1919 24.1465 27.3965 23.6487 28.653 23.6465H94.9369C96.1934 23.6487 97.398 24.1465 98.2876 25.0313C99.1773 25.9162 99.6797 27.116 99.6852 28.369V34.2096C99.6852 35.4658 99.1851 36.6706 98.2947 37.5593C97.4044 38.4479 96.1966 38.9477 94.9369 38.9488ZM28.653 25.3403C27.8466 25.3413 27.0734 25.6604 26.5021 26.2278C25.9307 26.7952 25.6076 27.5649 25.6032 28.369V34.2096C25.6043 35.0162 25.9258 35.7896 26.4974 36.3604C27.069 36.9311 27.8441 37.2528 28.653 37.255H94.9369C95.7458 37.2528 96.5209 36.9311 97.0925 36.3604C97.6641 35.7896 97.9856 35.0162 97.9867 34.2096V28.369C97.9856 27.5628 97.6639 26.7898 97.0922 26.2197C96.5205 25.6496 95.7454 25.3288 94.9369 25.3277L28.653 25.3403Z" fill="#99ADBF"/>
<path id="Vector_22" d="M44.0045 80.7564C52.0765 77.3297 55.8344 68.0264 52.3981 59.977C48.9617 51.9276 39.6324 48.1802 31.5604 51.6069C23.4885 55.0336 19.7305 64.3369 23.1669 72.3863C26.6032 80.4357 35.9325 84.1831 44.0045 80.7564Z" fill="white"/>
<path id="Vector_23" d="M50.7755 66.1864C50.7755 68.009 50.2335 69.7908 49.218 71.3063C48.2025 72.8218 46.7592 74.003 45.0706 74.7005C43.3819 75.398 41.5238 75.5805 39.7311 75.2249C37.9385 74.8693 36.2918 73.9916 34.9994 72.7028C33.7069 71.4139 32.8268 69.7719 32.4702 67.9842C32.1136 66.1966 32.2966 64.3436 32.9961 62.6597C33.6955 60.9758 34.88 59.5365 36.3998 58.5239C37.9195 57.5112 39.7063 56.9707 41.534 56.9707C43.49 56.9646 45.3964 57.5847 46.9726 58.7396C44.3454 61.176 42.9941 63.6624 43.8434 64.8639C44.6926 66.0654 47.4077 65.6273 50.537 64.0295C50.7039 64.7362 50.784 65.4604 50.7755 66.1864Z" fill="#99ADBF"/>
<path id="Vector_24" d="M53.1308 70.1123C52.2574 73.4892 50.2916 76.4848 47.538 78.6349C44.7845 80.7849 41.3967 81.9695 37.8996 82.0052C34.4025 82.0408 30.9912 80.9255 28.1941 78.832C25.3971 76.7385 23.3703 73.7836 22.4279 70.4251C32.6223 69.2386 42.9142 69.1337 53.1308 70.1123Z" fill="#EBEFF2"/>
<path id="Vector_25" d="M37.7815 49.499C34.4718 49.499 31.2364 50.4777 28.4845 52.3114C25.7326 54.145 23.5877 56.7512 22.3212 59.8004C21.0546 62.8496 20.7232 66.2049 21.3689 69.4419C22.0146 72.679 23.6084 75.6524 25.9487 77.9862C28.289 80.3199 31.2707 81.9092 34.5168 82.5531C37.763 83.197 41.1276 82.8666 44.1854 81.6035C47.2432 80.3405 49.8567 78.2016 51.6954 75.4574C53.5342 72.7132 54.5157 69.4869 54.5157 66.1864C54.5157 61.7606 52.7526 57.5161 49.6143 54.3866C46.4761 51.2571 42.2197 49.499 37.7815 49.499ZM37.7815 51.1678C41.7672 51.1744 45.5877 52.7562 48.406 55.5666C51.2243 58.377 52.8105 62.1868 52.8171 66.1614C52.8189 67.1789 52.7151 68.1939 52.5076 69.1901C42.7261 68.3029 32.88 68.4008 23.1182 69.4822C22.6231 67.2873 22.6289 65.0095 23.135 62.8172C23.6411 60.6248 24.6346 58.5738 26.0422 56.8157C27.4498 55.0576 29.2355 53.6373 31.2674 52.6598C33.2993 51.6822 35.5255 51.1723 37.7815 51.1678ZM37.7815 81.1591C34.6693 81.1565 31.6343 80.1924 29.0939 78.3994C26.5535 76.6065 24.6326 74.0728 23.5951 71.1467C33.0539 70.1244 42.5902 70.0252 52.0683 70.8505C51.0791 73.852 49.1659 76.4659 46.6009 78.3204C44.0359 80.1749 40.9498 81.1756 37.7815 81.18V81.1591Z" fill="#99ADBF"/>
<path id="Vector_26" d="M81.7086 92.5019C80.4954 95.0426 77.2699 98.5344 72.5969 100.846C69.4618 102.387 66.0142 103.192 62.5187 103.199C52.792 103.199 45.4039 96.7322 43.3749 92.6312L43.3247 92.5186C42.4169 90.6246 41.8228 88.4344 42.442 86.4194C43.0025 84.5587 44.7011 82.8399 46.5083 83.1778C46.6616 83.2054 46.8116 83.2488 46.956 83.3072C51.9469 85.2179 57.1722 85.9021 62.5146 85.9021C67.7607 85.9021 72.8772 85.2429 77.7803 83.3989L78.0689 83.2905C80.0436 82.5354 81.9805 84.3877 82.5913 86.4027C83.2021 88.4177 82.6164 90.6079 81.7086 92.5019Z" fill="#D6DEE5"/>
<path id="Vector_27" d="M62.5186 104.025C52.5535 104.025 44.8809 97.5716 42.6176 92.9867C42.6011 92.9602 42.5871 92.9323 42.5757 92.9033C41.35 90.3418 41.0404 88.0848 41.6302 86.1574C42.2996 83.9422 44.3663 81.8979 46.6505 82.3318C46.8568 82.3674 47.0588 82.4247 47.2529 82.5029C51.7126 84.2091 56.6993 85.0435 62.5061 85.0435C68.179 85.0435 73.0737 84.2467 77.4706 82.6072L77.7676 82.4945C78.2208 82.3239 78.705 82.2502 79.1886 82.2783C79.6722 82.3063 80.1445 82.4354 80.5748 82.6572C81.2523 83.0267 81.8499 83.5262 82.3331 84.1269C82.8163 84.7276 83.1756 85.4177 83.3903 86.1574C83.976 88.0973 83.6664 90.3543 82.4616 92.8699C81.2902 95.3146 78.1023 99.0651 72.9566 101.589C69.7111 103.19 66.1394 104.023 62.5186 104.025ZM46.0648 83.9714C44.8474 83.9714 43.6676 85.2813 43.2576 86.6455C42.7891 88.1641 43.0694 90.008 44.0944 92.1398L44.132 92.2191C46.1526 96.3117 53.386 102.336 62.5396 102.336C65.9063 102.333 69.2272 101.558 72.2454 100.07C76.6925 97.8886 79.8259 94.5136 80.9639 92.144C81.9805 90.0205 82.2607 88.1766 81.8006 86.6539C81.5024 85.6092 80.8076 84.7217 79.8636 84.1799C79.6387 84.0615 79.3913 83.9918 79.1376 83.9753C78.8838 83.9587 78.6294 83.9958 78.391 84.084L78.0898 84.2008C73.4879 85.9071 68.4174 86.7373 62.5396 86.7373C56.5236 86.7373 51.3319 85.8695 46.6714 84.084C46.5814 84.0468 46.4873 84.0202 46.3911 84.0047C46.2839 83.9818 46.1745 83.9706 46.0648 83.9714Z" fill="#99ADBF"/>
<path id="Vector_28" d="M72.5969 100.829C69.4618 102.371 66.0142 103.176 62.5187 103.182C52.792 103.182 45.4039 96.7157 43.3749 92.6148C48.3872 90.0589 54.1826 89.4851 59.601 91.0082C65.0195 92.5313 69.6611 96.039 72.5969 100.829Z" fill="#EBEFF2"/>
<path id="Vector_29" d="M62.5186 104.025C52.5535 104.025 44.8809 97.5713 42.6176 92.9864C42.5669 92.8875 42.5365 92.7795 42.5283 92.6687C42.52 92.5579 42.5341 92.4466 42.5695 92.3413C42.605 92.236 42.6612 92.1388 42.7348 92.0555C42.8084 91.9721 42.898 91.9042 42.9983 91.8559C48.4981 89.1079 54.856 88.608 60.7197 90.4625C65.9384 92.2229 70.3878 95.7256 73.3163 100.379C73.3792 100.48 73.4203 100.593 73.4368 100.711C73.4534 100.829 73.4451 100.949 73.4126 101.063C73.3803 101.177 73.3241 101.283 73.2476 101.374C73.1711 101.464 73.0762 101.538 72.9691 101.589C69.7198 103.191 66.1436 104.025 62.5186 104.025ZM44.5545 92.9906C47.027 97.0123 53.9298 102.336 62.5186 102.336C65.5589 102.336 68.5657 101.702 71.3459 100.475C68.6367 96.5455 64.7234 93.5976 60.1926 92.0728C55.0449 90.4444 49.4752 90.7713 44.5545 92.9906Z" fill="#99ADBF"/>
<path id="Vector_30" d="M77.7886 83.8745C77.6171 89.2604 70.4758 93.4155 61.8368 93.1444C53.3442 92.8732 46.5752 88.4427 46.5083 83.1611C46.6616 83.1887 46.8116 83.2321 46.9559 83.2905C51.9469 85.2012 57.1721 85.8853 62.5187 85.8853C67.7607 85.8853 72.8771 85.2262 77.7802 83.3822C77.792 83.5461 77.7948 83.7104 77.7886 83.8745Z" fill="white"/>
<path id="Vector_31" d="M62.6233 94.0037C62.3513 94.0037 62.0836 94.0037 61.8117 94.0037C52.8296 93.7159 45.7343 88.9641 45.659 83.1861C45.6571 83.0631 45.6825 82.9412 45.7334 82.8291C45.7843 82.717 45.8594 82.6176 45.9534 82.5378C46.0473 82.4581 46.1578 82.4001 46.2769 82.3679C46.396 82.3357 46.5207 82.3302 46.6422 82.3518C46.8556 82.3879 47.0646 82.4466 47.2655 82.527C51.7252 84.2333 56.7119 85.0676 62.5187 85.0676C68.1916 85.0676 73.0863 84.2708 77.4832 82.6313C77.6077 82.5825 77.7421 82.5642 77.8752 82.5779C78.0082 82.5916 78.136 82.637 78.2479 82.7101C78.3598 82.7833 78.4524 82.8821 78.5181 82.9983C78.5838 83.1145 78.6205 83.2447 78.6253 83.378C78.6357 83.5628 78.6357 83.7481 78.6253 83.9329C78.4496 89.5774 71.3459 94.0037 62.6233 94.0037ZM47.5165 84.4085C48.575 88.6471 54.6285 92.0805 61.8661 92.3141C69.5805 92.5269 76.065 89.1686 76.8598 84.6338C72.5926 86.0522 67.8862 86.7447 62.5187 86.7447C56.8709 86.7322 51.9553 85.9688 47.5165 84.396V84.4085Z" fill="#99ADBF"/>
<path id="Vector_32" d="M56.7914 37.7842C56.8709 39.4113 53.9299 40.8756 50.2275 41.0508C46.525 41.226 43.4585 40.0495 43.379 38.4225C43.2995 36.7955 46.2406 35.3312 49.943 35.1518C53.6454 34.9724 56.7161 36.153 56.7914 37.7842Z" fill="#99ADBF"/>
<path id="Vector_33" d="M66.6813 37.7842C66.6018 39.4113 69.5428 40.8756 73.2452 41.0508C76.9477 41.226 80.0184 40.0495 80.0937 38.4225C80.169 36.7955 77.2321 35.3312 73.5297 35.1518C69.8273 34.9724 66.7566 36.153 66.6813 37.7842Z" fill="#99ADBF"/>
<path id="Vector_34" d="M85.8168 82.0228C94.5898 82.0228 101.702 74.9308 101.702 66.1823C101.702 57.4338 94.5898 50.3418 85.8168 50.3418C77.0438 50.3418 69.9319 57.4338 69.9319 66.1823C69.9319 74.9308 77.0438 82.0228 85.8168 82.0228Z" fill="white"/>
<path id="Vector_35" d="M91.8662 66.1863C91.8664 68.2569 91.1673 70.2673 89.8817 71.8932C88.5961 73.5192 86.7988 74.6661 84.7796 75.1489C82.7604 75.6317 80.637 75.4223 78.7517 74.5545C76.8665 73.6868 75.3292 72.2111 74.3878 70.3656C73.4463 68.52 73.1556 66.4121 73.5624 64.3816C73.9693 62.3511 75.05 60.5165 76.6303 59.1734C78.2107 57.8303 80.1986 57.057 82.2735 56.9783C84.3484 56.8996 86.3894 57.5201 88.0675 58.7395C85.4361 61.1759 84.0848 63.6623 84.9341 64.8638C85.7833 66.0653 88.4984 65.6273 91.6277 64.0294C91.7946 64.7361 91.8747 65.4604 91.8662 66.1863Z" fill="#99ADBF"/>
<path id="Vector_36" d="M101.17 70.1123C100.298 73.4911 98.3329 76.4886 95.5788 78.6402C92.8246 80.7918 89.4357 81.9774 85.9372 82.013C82.4387 82.0487 79.0261 80.9324 76.2285 78.8374C73.4308 76.7423 71.4044 73.7855 70.4633 70.4252C80.6591 69.2386 90.9524 69.1337 101.17 70.1123Z" fill="#EBEFF2"/>
<path id="Vector_37" d="M85.8168 49.499C82.5071 49.499 79.2717 50.4777 76.5198 52.3114C73.7679 54.145 71.623 56.7512 70.3565 59.8004C69.0899 62.8496 68.7585 66.2049 69.4042 69.4419C70.0499 72.679 71.6437 75.6524 73.984 77.9862C76.3243 80.3199 79.306 81.9092 82.5521 82.5531C85.7982 83.197 89.1629 82.8666 92.2207 81.6035C95.2784 80.3405 97.892 78.2016 99.7307 75.4574C101.569 72.7132 102.551 69.4869 102.551 66.1864C102.551 61.7606 100.788 57.5161 97.6496 54.3866C94.5114 51.2571 90.255 49.499 85.8168 49.499ZM85.8168 51.1678C88.0479 51.1716 90.2502 51.6698 92.2647 52.6262C94.2791 53.5825 96.0553 54.9733 97.4649 56.6979C98.8744 58.4225 99.8821 60.4378 100.415 62.5983C100.948 64.7587 100.993 67.0102 100.547 69.1901C90.7656 68.3029 80.9194 68.4007 71.1577 69.4822C70.9052 68.3876 70.7789 67.2678 70.7812 66.1447C70.7977 62.1767 72.3884 58.3765 75.2056 55.5742C78.0228 52.7718 81.8376 51.1952 85.8168 51.1886V51.1678ZM85.8168 81.1591C82.702 81.1549 79.6652 80.1878 77.1245 78.3909C74.5838 76.594 72.6644 74.0558 71.6304 71.1259C81.0892 70.1035 90.6255 70.0043 100.104 70.8297C99.118 73.835 97.2063 76.4535 94.641 78.312C92.0757 80.1705 88.9876 81.1741 85.8168 81.18V81.1591Z" fill="#99ADBF"/>
<path id="Vector_38" d="M14.454 17.3214C13.7052 23.187 10.0781 27.555 6.36308 27.0794C2.6481 26.6038 0.238383 21.4682 0.991419 15.6026C1.74446 9.737 5.3674 5.36908 9.08238 5.8405C12.7974 6.31192 15.2071 11.4558 14.454 17.3214Z" fill="#D6DEE5"/>
<path id="Vector_39" d="M6.92372 27.9511C6.7 27.9497 6.47652 27.9358 6.25436 27.9094C2.00807 27.3796 -0.673577 21.9228 0.150579 15.494C0.531281 12.5153 1.63992 9.77022 3.2715 7.80528C4.99093 5.71935 7.08688 4.73897 9.1912 5.0018C11.2955 5.26462 13.0735 6.76232 14.2114 9.20285C15.3296 11.7922 15.7034 14.6407 15.2908 17.4297C14.9143 20.4418 13.8056 23.1535 12.1741 25.1184C10.6387 26.9707 8.7854 27.9511 6.92372 27.9511ZM8.5302 6.67471C7.17055 6.67471 5.78162 7.45484 4.57676 8.90664C3.15017 10.6046 2.17541 13.0326 1.83236 15.7109C1.15044 21.0133 3.27568 25.836 6.46772 26.2407C7.96961 26.4367 9.53007 25.6524 10.8688 24.0379C12.3997 22.0602 13.3498 19.6973 13.6132 17.2128C13.9855 14.741 13.661 12.2147 12.6761 9.91623C11.7892 8.02221 10.4588 6.87078 8.97784 6.67471C8.82881 6.66434 8.67923 6.66434 8.5302 6.67471Z" fill="#99ADBF"/>
<path id="Vector_40" d="M109.546 17.3214C110.299 23.187 113.922 27.555 117.641 27.0794C121.36 26.6038 123.761 21.4682 122.996 15.6026C122.23 9.737 118.637 5.36908 114.917 5.8405C111.198 6.31192 108.793 11.4558 109.546 17.3214Z" fill="#D6DEE5"/>
<path id="Vector_41" d="M117.076 27.9516C115.206 27.9516 113.365 26.9587 111.826 25.1064C110.091 22.8797 109.011 20.2165 108.705 17.4135C108.292 14.6255 108.667 11.7778 109.788 9.19083C110.926 6.7503 112.717 5.25678 114.809 4.98979C116.9 4.72279 118.992 5.71986 120.728 7.79327C122.465 10.0176 123.547 12.6797 123.853 15.482C124.69 21.9108 121.996 27.3676 117.746 27.9099C117.523 27.9363 117.3 27.9502 117.076 27.9516ZM115.465 6.67521C115.326 6.66599 115.186 6.66599 115.047 6.67521C113.545 6.86712 112.232 8.01437 111.345 9.90839C110.395 11.9317 110.065 14.5266 110.408 17.2049C110.671 19.6904 111.622 22.0537 113.156 24.0301C114.491 25.6446 116.055 26.4247 117.553 26.2328C120.745 25.8156 122.87 21.0055 122.188 15.7031C121.925 13.2185 120.975 10.8557 119.444 8.87795C118.218 7.43449 116.829 6.67521 115.465 6.67521Z" fill="#99ADBF"/>
</g>
</g>
</g>
<defs>
<clipPath id="clip0_1384_2325">
<rect width="124" height="188" fill="white"/>
</clipPath>
</defs>
</svg>
