<svg width="100" height="100" viewBox="0 0 100 100" fill="none" xmlns="http://www.w3.org/2000/svg">
<path d="M50 66.9493L34.2856 83.2201L34.2856 83.2201C32.0352 85.5503 30.9099 86.7154 29.957 87.1185C27.7855 88.0372 25.3768 87.251 24.2345 85.2507C23.7333 84.3728 23.577 82.7895 23.2646 79.6228C23.0882 77.8348 23.0001 76.9408 22.7323 76.1921C22.133 74.5158 20.8736 73.2118 19.2546 72.5912C18.5315 72.3141 17.6681 72.2227 15.9414 72.0401L15.9412 72.0401C12.8828 71.7166 11.3536 71.5549 10.5058 71.0359C8.57386 69.8532 7.81452 67.3591 8.70183 65.1108C9.09121 64.1241 10.2165 62.959 12.4669 60.6289L22.7323 50L27.8915 44.8408L50 66.9493L72.1085 44.8408L77.2677 50L87.5331 60.6289C89.7836 62.959 90.9089 64.1241 91.2983 65.1108C92.1856 67.3591 91.4262 69.8532 89.4943 71.0359C88.6465 71.5549 87.1173 71.7166 84.0588 72.0401C82.332 72.2227 81.4686 72.3141 80.7454 72.5912C79.1265 73.2118 77.8671 74.5158 77.2677 76.1921C77 76.9408 76.9118 77.8348 76.7355 79.6227V79.6228C76.423 82.7895 76.2668 84.3728 75.7656 85.2507C74.6233 87.251 72.2146 88.0372 70.0431 87.1185C69.0902 86.7154 67.9649 85.5503 65.7144 83.2201L50 66.9493Z" fill="#D6DEE5"/>
<path fill-rule="evenodd" clip-rule="evenodd" d="M50 66.6663C66.1083 66.6663 79.1667 53.608 79.1667 37.4997C79.1667 21.3914 66.1083 8.33301 50 8.33301C33.8917 8.33301 20.8334 21.3914 20.8334 37.4997C20.8334 53.608 33.8917 66.6663 50 66.6663ZM50 24.9997C48.8165 24.9997 48.0248 26.4198 46.4415 29.2601L46.0319 29.995C45.5819 30.8021 45.357 31.2057 45.0062 31.4719C44.6555 31.7382 44.2186 31.837 43.3449 32.0347L42.5495 32.2147C39.4749 32.9104 37.9376 33.2582 37.5718 34.4343C37.2061 35.6105 38.2541 36.836 40.3502 39.2871L40.8924 39.9212C41.4881 40.6177 41.7859 40.966 41.9199 41.3968C42.0538 41.8277 42.0088 42.2923 41.9188 43.2216L41.8368 44.0677C41.5199 47.3379 41.3614 48.973 42.319 49.6999C43.2765 50.4268 44.7159 49.7641 47.5946 48.4386L48.3394 48.0957C49.1574 47.7191 49.5665 47.5307 50 47.5307C50.4336 47.5307 50.8426 47.7191 51.6607 48.0957L52.4054 48.4386C55.2842 49.7641 56.7236 50.4268 57.6811 49.6999C58.6386 48.973 58.4802 47.3379 58.1633 44.0677L58.0813 43.2216C57.9913 42.2924 57.9462 41.8276 58.0802 41.3968C58.2142 40.966 58.512 40.6177 59.1076 39.9212L59.6499 39.2871C61.746 36.836 62.794 35.6105 62.4283 34.4343C62.0625 33.2582 60.5252 32.9104 57.4506 32.2147L56.6552 32.0347C55.7815 31.837 55.3446 31.7382 54.9939 31.4719C54.6431 31.2057 54.4181 30.8021 53.9682 29.995L53.5586 29.2601C51.9753 26.4198 51.1836 24.9997 50 24.9997Z" fill="#99ADBF"/>
</svg>
