<svg width="68" height="84" viewBox="0 0 68 84" fill="none" xmlns="http://www.w3.org/2000/svg">
<path fill-rule="evenodd" clip-rule="evenodd" d="M10.1291 0.797635C6.75545 1.24202 4.96891 2.05484 3.69643 3.30152C2.42396 4.5482 1.59432 6.29853 1.14074 9.60382C0.673828 13.0063 0.666504 17.5158 0.666504 23.9817V59.684C2.28598 58.5752 4.11123 57.7315 6.07894 57.2149C8.27968 56.6372 10.8459 56.638 14.6066 56.6392L67.3332 56.6393V23.9817C67.3332 17.5158 67.3258 13.0063 66.8589 9.60382C66.4053 6.29853 65.5757 4.5482 64.3032 3.30152C63.0308 2.05484 61.2442 1.24202 57.8705 0.797635C54.3977 0.340184 49.7948 0.333008 43.1952 0.333008H24.8044C18.2048 0.333008 13.602 0.340184 10.1291 0.797635ZM12.1608 19.4772C12.1608 17.6113 13.7046 16.0988 15.609 16.0988H52.3906C54.2951 16.0988 55.8389 17.6113 55.8389 19.4772C55.8389 21.343 54.2951 22.8555 52.3906 22.8555H15.609C13.7046 22.8555 12.1608 21.343 12.1608 19.4772ZM15.609 31.8645C13.7046 31.8645 12.1608 33.3771 12.1608 35.2429C12.1608 37.1087 13.7046 38.6213 15.609 38.6213H38.5975C40.502 38.6213 42.0458 37.1087 42.0458 35.2429C42.0458 33.3771 40.502 31.8645 38.5975 31.8645H15.609Z" fill="#D6DEE5"/>
<path d="M20.2067 63.3961H15.139C10.6413 63.3961 9.06888 63.4251 7.8639 63.7414C4.55669 64.6096 1.92019 67.0181 0.789523 70.1488C0.859411 71.7423 0.968979 73.1439 1.14074 74.3955C1.59432 77.7008 2.42396 79.4512 3.69643 80.6978C4.96891 81.9445 6.75545 82.7573 10.1291 83.2017C13.602 83.6592 18.2048 83.6663 24.8044 83.6663H43.1952C49.7948 83.6663 54.3977 83.6592 57.8705 83.2017C61.2442 82.7573 63.0308 81.9445 64.3032 80.6978C65.5757 79.4512 66.4053 77.7008 66.8589 74.3955C67.2399 71.6196 67.3149 68.1069 67.3296 63.3961H38.5975V75.9236C38.5975 77.1649 38.5975 77.7856 38.1614 78.0365C37.7253 78.2874 37.1289 78.0098 35.936 77.4547L30.2246 74.7967C29.821 74.6088 29.6192 74.5149 29.4021 74.5149C29.1851 74.5149 28.9833 74.6088 28.5797 74.7967L22.8683 77.4547C21.6754 78.0098 21.079 78.2874 20.6428 78.0365C20.2067 77.7856 20.2067 77.1649 20.2067 75.9236V63.3961Z" fill="#D6DEE5"/>
</svg>
