<svg width="84" height="76" viewBox="0 0 84 76" fill="none" xmlns="http://www.w3.org/2000/svg">
<path d="M51.2385 2.58187C45.3176 -0.193956 38.6823 -0.193959 32.7615 2.58187L4.88185 15.6525C0.398507 17.7544 -0.770392 23.6813 1.37516 27.7778L1.37516 48.4167C1.37516 50.1426 2.77427 51.5417 4.50016 51.5417C6.22605 51.5417 7.62516 50.1426 7.62516 48.4167V32.4668L32.7619 44.2515C38.6827 47.0273 45.318 47.0273 51.2388 44.2515L79.1185 31.1809C85.1829 28.3377 85.183 18.4958 79.1185 15.6527L51.2385 2.58187Z" fill="#D6DEE5"/>
<path d="M12.8335 41.8114V57.2726C12.8335 61.4727 14.9314 65.405 18.6057 67.4399C24.7239 70.8281 34.5168 75.5 42.0002 75.5C49.4835 75.5 59.2764 70.8281 65.3946 67.4399C69.0689 65.405 71.1668 61.4727 71.1668 57.2726V41.8115L53.8919 49.9104C46.2901 53.4743 37.7106 53.4743 30.1088 49.9104L12.8335 41.8114Z" fill="#D6DEE5"/>
</svg>
