<!DOCTYPE svg PUBLIC "-//W3C//DTD SVG 1.1//EN" "http://www.w3.org/Graphics/SVG/1.1/DTD/svg11.dtd">
<!-- Uploaded to: SVG Repo, www.svgrepo.com, Transformed by: SVG Repo Mixer Tools -->
<svg fill="#000000" width="64px" height="64px" viewBox="0 0 16 16" id="user-16px" xmlns="http://www.w3.org/2000/svg">
<g id="SVGRepo_bgCarrier" stroke-width="0"/>
<g id="SVGRepo_tracerCarrier" stroke-linecap="round" stroke-linejoin="round"/>
<g id="SVGRepo_iconCarrier"> <path id="Path_18" data-name="Path 18" d="M29.991,8a4,4,0,1,1,4-4A4,4,0,0,1,29.991,8Zm0-7a3,3,0,1,0,3,3A3,3,0,0,0,29.991,1ZM36.5,16h-13A1.5,1.5,0,0,1,22,14.5,4.505,4.505,0,0,1,26.5,10h7A4.505,4.505,0,0,1,38,14.5,1.5,1.5,0,0,1,36.5,16Zm-10-5A3.5,3.5,0,0,0,23,14.5a.5.5,0,0,0,.5.5h13a.5.5,0,0,0,.5-.5A3.5,3.5,0,0,0,33.5,11Z" transform="translate(-22)"/> </g>
</svg>