<svg width="100" height="100" viewBox="0 0 100 100" fill="none" xmlns="http://www.w3.org/2000/svg">
<path d="M54.1665 64.1663C54.1665 55.5239 54.1665 51.2027 56.9124 48.5179C59.6583 45.833 64.0777 45.833 72.9165 45.833C81.7553 45.833 86.1748 45.833 88.9206 48.5179C91.6665 51.2027 91.6665 55.5239 91.6665 64.1663V73.333C91.6665 81.9754 91.6665 86.2966 88.9206 88.9815C86.1748 91.6663 81.7553 91.6663 72.9165 91.6663C64.0777 91.6663 59.6583 91.6663 56.9124 88.9815C54.1665 86.2966 54.1665 81.9754 54.1665 73.333V64.1663Z" fill="url(#paint0_linear_1877_5257)"/>
<path d="M8.3335 35.833C8.3335 44.4754 8.3335 48.7966 11.0794 51.4815C13.8252 54.1663 18.2447 54.1663 27.0835 54.1663C35.9223 54.1663 40.3417 54.1663 43.0876 51.4815C45.8335 48.7966 45.8335 44.4754 45.8335 35.833V26.6663C45.8335 18.0239 45.8335 13.7027 43.0876 11.0179C40.3417 8.33301 35.9223 8.33301 27.0835 8.33301C18.2447 8.33301 13.8252 8.33301 11.0794 11.0179C8.3335 13.7027 8.3335 18.0239 8.3335 26.6663V35.833Z" fill="url(#paint1_linear_1877_5257)"/>
<path d="M54.1665 22.9163C54.1665 18.3864 54.1665 16.1214 54.8801 14.3347C55.8316 11.9525 57.6567 10.0598 59.9538 9.07307C61.6767 8.33301 63.8608 8.33301 68.229 8.33301H77.604C81.9722 8.33301 84.1563 8.33301 85.8792 9.07307C88.1763 10.0598 90.0014 11.9525 90.9529 14.3347C91.6665 16.1214 91.6665 18.3864 91.6665 22.9163C91.6665 27.4463 91.6665 29.7113 90.9529 31.498C90.0014 33.8802 88.1763 35.7729 85.8792 36.7596C84.1563 37.4997 81.9722 37.4997 77.604 37.4997H68.229C63.8608 37.4997 61.6767 37.4997 59.9538 36.7596C57.6567 35.7729 55.8316 33.8802 54.8801 31.498C54.1665 29.7113 54.1665 27.4463 54.1665 22.9163Z" fill="url(#paint2_linear_1877_5257)"/>
<path d="M8.3335 77.0833C8.3335 81.6133 8.3335 83.8783 9.04713 85.665C9.99863 88.0472 11.8237 89.9399 14.1208 90.9266C15.8437 91.6667 18.0278 91.6667 22.396 91.6667H31.771C36.1392 91.6667 38.3233 91.6667 40.0462 90.9266C42.3433 89.9399 44.1684 88.0472 45.1199 85.665C45.8335 83.8783 45.8335 81.6133 45.8335 77.0833C45.8335 72.5533 45.8335 70.2884 45.1199 68.5017C44.1684 66.1195 42.3433 64.2268 40.0462 63.2401C38.3233 62.5 36.1392 62.5 31.771 62.5H22.396C18.0278 62.5 15.8437 62.5 14.1208 63.2401C11.8237 64.2268 9.99863 66.1195 9.04713 68.5017C8.3335 70.2884 8.3335 72.5533 8.3335 77.0833Z" fill="url(#paint3_linear_1877_5257)"/>
<defs>
<linearGradient id="paint0_linear_1877_5257" x1="72.9165" y1="45.833" x2="72.9165" y2="91.6663" gradientUnits="userSpaceOnUse">
<stop offset="0.16381" stop-color="#82C0EE"/>
<stop offset="0.615151" stop-color="#349AE6"/>
</linearGradient>
<linearGradient id="paint1_linear_1877_5257" x1="27.0835" y1="8.33301" x2="27.0835" y2="54.1663" gradientUnits="userSpaceOnUse">
<stop offset="0.16381" stop-color="#82C0EE"/>
<stop offset="0.615151" stop-color="#349AE6"/>
</linearGradient>
<linearGradient id="paint2_linear_1877_5257" x1="72.9165" y1="8.33301" x2="72.9165" y2="37.4997" gradientUnits="userSpaceOnUse">
<stop offset="0.16381" stop-color="#82C0EE"/>
<stop offset="0.615151" stop-color="#349AE6"/>
</linearGradient>
<linearGradient id="paint3_linear_1877_5257" x1="27.0835" y1="62.5" x2="27.0835" y2="91.6667" gradientUnits="userSpaceOnUse">
<stop offset="0.16381" stop-color="#82C0EE"/>
<stop offset="0.615151" stop-color="#349AE6"/>
</linearGradient>
</defs>
</svg>
