<svg width="133" height="200" viewBox="0 0 133 200" fill="none" xmlns="http://www.w3.org/2000/svg">
<g clip-path="url(#clip0_244_962)">
<path d="M57.1052 142.88H10.0587C8.88685 142.88 7.7265 142.648 6.64393 142.197C5.56136 141.746 4.57778 141.085 3.74938 140.252C2.92097 139.419 2.26399 138.431 1.81595 137.342C1.36791 136.254 1.13761 135.088 1.13818 133.91C1.13818 131.532 2.07802 129.252 3.75094 127.57C5.42385 125.889 7.69281 124.944 10.0587 124.944H57.1052V142.88Z" fill="#A06ACC"/>
<path d="M57.1053 143.776H10.0587C7.45536 143.776 4.95861 142.736 3.11774 140.886C1.27687 139.036 0.242676 136.526 0.242676 133.91C0.242676 131.293 1.27687 128.784 3.11774 126.934C4.95861 125.083 7.45536 124.044 10.0587 124.044H57.1053C57.3393 124.044 57.5637 124.137 57.7292 124.304C57.8947 124.47 57.9876 124.696 57.9876 124.931V142.867C57.9906 142.985 57.9699 143.103 57.9269 143.213C57.8839 143.323 57.8194 143.423 57.7371 143.508C57.6549 143.593 57.5566 143.66 57.4481 143.706C57.3396 143.752 57.223 143.776 57.1053 143.776ZM10.0587 125.844C7.9624 125.894 5.96846 126.765 4.5032 128.273C3.03794 129.781 2.21762 131.804 2.21762 133.912C2.21762 136.02 3.03794 138.044 4.5032 139.551C5.96846 141.059 7.9624 141.93 10.0587 141.98H56.2097V125.844H10.0587Z" fill="#663B8A"/>
<path d="M57.1052 139.674H10.4425C8.92143 139.674 7.46265 139.067 6.38709 137.986C5.31152 136.905 4.70728 135.439 4.70728 133.91C4.70728 132.381 5.31152 130.915 6.38709 129.834C7.46265 128.753 8.92143 128.146 10.4425 128.146H57.1052V139.674Z" fill="#FFDB9C"/>
<path d="M57.1052 140.561H10.4425C8.68744 140.561 7.00423 139.86 5.76319 138.613C4.52216 137.366 3.82495 135.674 3.82495 133.91C3.82495 132.146 4.52216 130.454 5.76319 129.207C7.00423 127.96 8.68744 127.259 10.4425 127.259H57.1052C57.3393 127.259 57.5637 127.352 57.7292 127.519C57.8946 127.685 57.9876 127.91 57.9876 128.146V139.674C57.9876 139.909 57.8946 140.135 57.7292 140.301C57.5637 140.468 57.3393 140.561 57.1052 140.561ZM10.4425 129.059C9.79614 129.039 9.15241 129.15 8.5495 129.385C7.94659 129.621 7.39678 129.975 6.93265 130.427C6.46852 130.88 6.09953 131.422 5.84754 132.02C5.59556 132.619 5.46573 133.262 5.46573 133.912C5.46573 134.562 5.59556 135.205 5.84754 135.804C6.09953 136.403 6.46852 136.944 6.93265 137.397C7.39678 137.849 7.94659 138.204 8.5495 138.439C9.15241 138.674 9.79614 138.785 10.4425 138.765H56.2097V129.059H10.4425Z" fill="#663B8A"/>
<path d="M56.8582 106.977H9.81607C8.64201 106.979 7.47916 106.748 6.3942 106.297C5.30923 105.846 4.3235 105.184 3.49352 104.35C2.66354 103.515 2.00565 102.524 1.55756 101.433C1.10948 100.342 0.880018 99.1736 0.882342 97.9936C0.882342 95.6157 1.82218 93.3352 3.49509 91.6538C5.16801 89.9724 7.43697 89.0278 9.80283 89.0278H56.8582V106.977Z" fill="#00BAB7"/>
<path d="M56.8582 107.877H9.81607C7.21268 107.877 4.71593 106.838 2.87506 104.988C1.03419 103.137 0 100.628 0 98.0114C0 95.3948 1.03419 92.8854 2.87506 91.0352C4.71593 89.1849 7.21268 88.1455 9.81607 88.1455H56.8582C57.0922 88.1455 57.3166 88.2389 57.4821 88.4053C57.6476 88.5716 57.7405 88.7971 57.7405 89.0323V106.964C57.7441 107.083 57.7239 107.201 57.6811 107.311C57.6384 107.422 57.5739 107.523 57.4917 107.608C57.4094 107.693 57.3109 107.761 57.2021 107.807C57.0933 107.854 56.9763 107.877 56.8582 107.877ZM9.81607 89.9458C7.71973 89.9952 5.72579 90.8668 4.26052 92.3745C2.79526 93.8821 1.97494 95.906 1.97494 98.0136C1.97494 100.121 2.79526 102.145 4.26052 103.653C5.72579 105.16 7.71973 106.032 9.81607 106.081H55.967V89.9458H9.81607Z" fill="#00627D"/>
<path d="M56.8582 103.758H10.1954C8.67436 103.758 7.21558 103.151 6.14002 102.07C5.06445 100.989 4.46021 99.5224 4.46021 97.9936C4.46021 96.4648 5.06445 94.9986 6.14002 93.9176C7.21558 92.8366 8.67436 92.2292 10.1954 92.2292H56.8582V103.758Z" fill="#FFDB9C"/>
<path d="M56.8582 104.645H10.1955C8.44037 104.645 6.75716 103.944 5.51612 102.697C4.27509 101.449 3.57788 99.7577 3.57788 97.9937C3.57788 96.2297 4.27509 94.5379 5.51612 93.2906C6.75716 92.0433 8.44037 91.3425 10.1955 91.3425H56.8582C57.0922 91.3425 57.3166 91.436 57.4821 91.6023C57.6476 91.7686 57.7405 91.9941 57.7405 92.2293V103.758C57.7405 103.993 57.6476 104.219 57.4821 104.385C57.3166 104.551 57.0922 104.645 56.8582 104.645ZM10.1955 93.1561C8.99389 93.2716 7.87829 93.8331 7.06643 94.7308C6.25458 95.6286 5.80475 96.7982 5.80475 98.0114C5.80475 99.2246 6.25458 100.394 7.06643 101.292C7.87829 102.19 8.99389 102.751 10.1955 102.867H55.9626V93.1561H10.1955Z" fill="#00627D"/>
<path d="M56.8582 124.926H9.81605C8.64348 124.928 7.48207 124.698 6.39826 124.248C5.31445 123.798 4.3295 123.138 3.49975 122.305C2.67001 121.472 2.01174 120.483 1.56262 119.395C1.1135 118.306 0.882323 117.139 0.882324 115.961C0.882323 114.782 1.1135 113.615 1.56262 112.527C2.01174 111.438 2.67001 110.449 3.49975 109.616C4.3295 108.783 5.31445 108.123 6.39826 107.674C7.48207 107.224 8.64348 106.993 9.81605 106.995H56.8582V124.926Z" fill="#E63271"/>
<path d="M56.8582 125.826H9.81607C7.21268 125.826 4.71593 124.787 2.87506 122.937C1.03419 121.087 0 118.577 0 115.961C0 113.344 1.03419 110.835 2.87506 108.984C4.71593 107.134 7.21268 106.095 9.81607 106.095H56.8582C57.0922 106.095 57.3166 106.188 57.4821 106.354C57.6476 106.521 57.7405 106.746 57.7405 106.982V124.917C57.7435 125.036 57.7228 125.153 57.6798 125.264C57.6368 125.374 57.5723 125.474 57.49 125.559C57.4078 125.644 57.3095 125.711 57.201 125.757C57.0925 125.803 56.9759 125.826 56.8582 125.826ZM9.81607 107.895C7.71973 107.944 5.72579 108.816 4.26052 110.324C2.79526 111.831 1.97494 113.855 1.97494 115.963C1.97494 118.07 2.79526 120.094 4.26052 121.602C5.72579 123.11 7.71973 123.981 9.81607 124.031H55.967V107.895H9.81607Z" fill="#A80D43"/>
<path d="M56.8582 121.716H10.1954C8.67436 121.716 7.21558 121.109 6.14002 120.028C5.06445 118.947 4.46021 117.481 4.46021 115.952C4.46021 114.423 5.06445 112.957 6.14002 111.876C7.21558 110.795 8.67436 110.187 10.1954 110.188H56.8582V121.716Z" fill="#FFDB9C"/>
<path d="M56.8582 122.612H10.1955C8.44037 122.612 6.75716 121.911 5.51612 120.664C4.27509 119.416 3.57788 117.725 3.57788 115.961C3.57788 114.197 4.27509 112.505 5.51612 111.258C6.75716 110.01 8.44037 109.31 10.1955 109.31H56.8582C57.0922 109.31 57.3166 109.403 57.4821 109.569C57.6476 109.736 57.7405 109.961 57.7405 110.196V121.716C57.7417 121.833 57.7197 121.95 57.6759 122.058C57.6321 122.167 57.5673 122.266 57.4852 122.349C57.4032 122.432 57.3055 122.498 57.1979 122.544C57.0902 122.589 56.9748 122.612 56.8582 122.612ZM10.1955 111.11C8.94009 111.148 7.74885 111.676 6.87429 112.582C5.99973 113.488 5.5106 114.701 5.5106 115.963C5.5106 117.225 5.99973 118.438 6.87429 119.344C7.74885 120.25 8.94009 120.778 10.1955 120.816H55.9626V111.11H10.1955Z" fill="#A80D43"/>
<path d="M18.9571 116.298H13.1689V125.862H18.9571V116.298Z" fill="#FCD242"/>
<path d="M18.9704 126.762H13.169C12.935 126.762 12.7105 126.669 12.5451 126.502C12.3796 126.336 12.2866 126.111 12.2866 125.875V116.298C12.2866 116.063 12.3796 115.837 12.5451 115.671C12.7105 115.504 12.935 115.411 13.169 115.411H18.9704C19.2044 115.411 19.4288 115.504 19.5943 115.671C19.7598 115.837 19.8527 116.063 19.8527 116.298V125.862C19.8545 125.98 19.8329 126.096 19.7894 126.206C19.7458 126.315 19.6811 126.414 19.599 126.498C19.5169 126.582 19.419 126.648 19.3111 126.693C19.2032 126.739 19.0874 126.762 18.9704 126.762ZM14.0778 124.962H18.0748V117.193H14.0645L14.0778 124.962Z" fill="#F77036"/>
<path d="M30.6659 116.298H24.8777V125.862H30.6659V116.298Z" fill="#00BAB7"/>
<path d="M30.6659 126.762H24.8777C24.6437 126.762 24.4193 126.669 24.2538 126.502C24.0883 126.336 23.9954 126.111 23.9954 125.875V116.298C23.9954 116.063 24.0883 115.837 24.2538 115.671C24.4193 115.504 24.6437 115.411 24.8777 115.411H30.6659C30.8999 115.411 31.1243 115.504 31.2898 115.671C31.4553 115.837 31.5482 116.063 31.5482 116.298V125.862C31.55 125.98 31.5284 126.096 31.4849 126.206C31.4413 126.315 31.3766 126.414 31.2945 126.498C31.2124 126.582 31.1145 126.648 31.0066 126.693C30.8987 126.739 30.7829 126.762 30.6659 126.762ZM25.7733 124.962H29.7703V117.193H25.7733V124.962Z" fill="#00627D"/>
<path d="M24.7452 134.881H18.957V144.445H24.7452V134.881Z" fill="#E63271"/>
<path d="M24.741 145.345H18.9705C18.7365 145.345 18.512 145.252 18.3466 145.086C18.1811 144.919 18.0881 144.694 18.0881 144.459V134.881C18.0881 134.646 18.1811 134.42 18.3466 134.254C18.512 134.088 18.7365 133.994 18.9705 133.994H24.741C24.975 133.994 25.1994 134.088 25.3649 134.254C25.5304 134.42 25.6233 134.646 25.6233 134.881V144.445C25.6251 144.563 25.6036 144.68 25.56 144.789C25.5165 144.898 25.4517 144.997 25.3696 145.081C25.2875 145.165 25.1897 145.231 25.0817 145.277C24.9738 145.322 24.858 145.345 24.741 145.345ZM19.8528 143.55H23.8542V135.781H19.8528V143.55Z" fill="#A80D43"/>
<path d="M24.7452 98.9824H18.957V108.547H24.7452V98.9824Z" fill="#A06ACC"/>
<path d="M24.741 109.447H18.9705C18.7365 109.447 18.512 109.354 18.3466 109.187C18.1811 109.021 18.0881 108.795 18.0881 108.56V98.9825C18.0881 98.7473 18.1811 98.5218 18.3466 98.3554C18.512 98.1891 18.7365 98.0957 18.9705 98.0957H24.741C24.975 98.0957 25.1994 98.1891 25.3649 98.3554C25.5304 98.5218 25.6233 98.7473 25.6233 98.9825V108.547C25.6251 108.664 25.6036 108.781 25.56 108.89C25.5165 108.999 25.4517 109.099 25.3696 109.183C25.2875 109.266 25.1897 109.333 25.0817 109.378C24.9738 109.424 24.858 109.447 24.741 109.447ZM19.8528 107.647H23.8542V99.8826H19.8528V107.647Z" fill="#663B8A"/>
<path d="M34.91 134.881H29.1218V144.445H34.91V134.881Z" fill="#FCD242"/>
<path d="M34.9098 145.345H29.1172C28.8832 145.345 28.6588 145.252 28.4933 145.086C28.3278 144.919 28.2349 144.694 28.2349 144.459V134.881C28.2349 134.646 28.3278 134.42 28.4933 134.254C28.6588 134.088 28.8832 133.994 29.1172 133.994H34.9098C35.1438 133.994 35.3682 134.088 35.5337 134.254C35.6992 134.42 35.7921 134.646 35.7921 134.881V144.445C35.7939 144.563 35.7724 144.68 35.7288 144.789C35.6853 144.898 35.6205 144.997 35.5384 145.081C35.4563 145.165 35.3585 145.231 35.2505 145.277C35.1426 145.322 35.0268 145.345 34.9098 145.345ZM29.9995 143.55H34.0142V135.781H29.9995V143.55Z" fill="#F77036"/>
<path d="M128.196 151.802L93.7049 199.091L59.2229 151.81C59.2229 148.671 62.0508 145.966 66.1228 144.742C67.7151 144.267 69.3677 144.028 71.0287 144.033C76.4242 144.033 80.9682 146.414 82.3756 149.678C83.7785 146.414 88.327 144.033 93.7181 144.033C99.1092 144.033 103.662 146.414 105.065 149.678C106.468 146.414 111.012 144.033 116.408 144.033C121.507 144.033 125.866 146.175 127.512 149.159C127.96 149.967 128.195 150.877 128.196 151.802Z" fill="#FFDB9C"/>
<path d="M90.6123 189.146L87.3564 190.387L59.2229 151.81C59.2229 148.671 62.0508 145.966 66.1228 144.742L90.6123 189.146Z" fill="#FFECC9"/>
<path d="M93.705 200C93.5646 200.001 93.4262 199.968 93.3011 199.904C93.176 199.84 93.068 199.747 92.9859 199.632L58.5127 152.351C58.3918 152.194 58.3252 152.001 58.323 151.801C58.323 148.361 61.2788 145.248 65.8582 143.873L65.9509 143.851C67.5999 143.366 69.3104 143.124 71.0287 143.133C75.9434 143.133 80.2669 144.995 82.3757 147.891C84.4845 144.991 88.8035 143.133 93.7182 143.133C98.6328 143.133 102.956 144.995 105.065 147.891C107.174 144.991 111.493 143.133 116.408 143.133C121.675 143.133 126.453 145.381 128.293 148.72C128.823 149.668 129.103 150.736 129.105 151.824C129.104 152.015 129.044 152.201 128.933 152.356L94.4108 199.632C94.33 199.745 94.2241 199.837 94.1015 199.901C93.9789 199.965 93.8431 199.999 93.705 200ZM60.123 151.518L93.705 197.579L127.296 151.522C127.246 150.842 127.047 150.182 126.713 149.589C125.178 146.804 121.031 144.933 116.394 144.933C111.493 144.933 107.165 147.03 105.872 150.037C105.807 150.202 105.694 150.344 105.548 150.444C105.402 150.544 105.229 150.598 105.052 150.598C104.875 150.598 104.702 150.544 104.556 150.444C104.409 150.344 104.296 150.202 104.231 150.037C102.939 147.03 98.6108 144.933 93.705 144.933C88.7991 144.933 84.4757 147.03 83.183 150.037C83.118 150.202 83.0049 150.344 82.8586 150.444C82.7123 150.544 82.5394 150.598 82.3624 150.598C82.1855 150.598 82.0126 150.544 81.8663 150.444C81.7199 150.344 81.6069 150.202 81.5419 150.037C80.2448 147.03 75.9213 144.933 71.0155 144.933C69.4491 144.926 67.89 145.148 66.3876 145.594H66.295C62.673 146.729 60.2906 149.017 60.123 151.518Z" fill="#FC9B2D"/>
<path d="M60.2551 25.4474C64.2257 16.0072 69.3389 2.35907 76.1373 1.21507C82.9358 0.071071 111.665 2.06198 117.268 4.96632C125.209 9.07673 127.626 31.0965 127.626 31.0965L60.2551 25.4474Z" fill="#EA5189"/>
<path d="M121.578 9.56004C114.96 6.7843 87.5681 4.93084 80.9505 6.0438C75.1138 7.02374 70.5256 17.169 66.833 25.9972L60.2551 25.4518C64.2257 16.0072 69.3344 2.35907 76.1373 1.21507C82.9402 0.071071 111.665 2.06198 117.272 4.96632C118.935 5.83096 120.36 7.48488 121.578 9.56004Z" fill="#FF73A5"/>
<path d="M127.627 31.9965H127.552L60.1847 26.343C60.0421 26.3311 59.9045 26.2845 59.7839 26.2072C59.6632 26.13 59.5631 26.0244 59.492 25.8996C59.4173 25.7786 59.3727 25.6413 59.3619 25.4992C59.3512 25.3572 59.3746 25.2147 59.4303 25.0837L60.3832 22.8046C64.3273 13.3023 69.2375 1.46771 75.9918 0.328145C82.7462 -0.811418 111.85 1.14402 117.678 4.16807C125.946 8.45141 128.416 30.0809 128.518 30.9988C128.533 31.1242 128.522 31.2516 128.485 31.3723C128.448 31.493 128.385 31.6044 128.302 31.6989C128.218 31.7933 128.116 31.8688 128.001 31.9201C127.886 31.9714 127.761 31.9975 127.635 31.9965H127.627ZM61.5567 24.6536L126.616 30.1076C126.007 25.6735 123.325 9.10766 116.875 5.76435C111.418 2.9354 82.7682 1.01543 76.2874 2.10178C70.5081 3.07729 65.6111 14.8853 62.0332 23.5096L61.5567 24.6536Z" fill="#AD1D52"/>
<path d="M127.499 149.159C125.853 146.175 121.494 144.033 116.394 144.033C111.003 144.033 106.455 146.414 105.052 149.682C103.649 146.414 99.1003 144.033 93.7048 144.033C88.3092 144.033 83.7652 146.414 82.3623 149.682C80.9593 146.414 76.4108 144.033 71.0153 144.033C64.4948 144.033 59.214 147.514 59.214 151.802H59.0287C51.2577 113.471 51.2577 73.9588 59.0287 35.6282H128.019C120.421 73.0693 120.244 111.649 127.499 149.159Z" fill="#FFC022"/>
<path d="M67.4729 35.6191C60.1846 71.5807 59.7355 108.604 66.1494 144.733C62.0685 145.948 59.2318 148.662 59.2318 151.801H59.0465C51.2755 113.471 51.2755 73.9586 59.0465 35.628L67.4729 35.6191Z" fill="#FFE280"/>
<path d="M82.3622 150.578C82.1552 150.582 81.9533 150.512 81.792 150.382C81.6307 150.251 81.5202 150.068 81.4799 149.864C73.98 113.894 73.7594 73.9874 80.8887 37.4948C80.9113 37.3783 80.9565 37.2674 81.0217 37.1685C81.0869 37.0696 81.1709 36.9846 81.2688 36.9183C81.3667 36.852 81.4766 36.8058 81.5923 36.7822C81.708 36.7586 81.8272 36.7582 81.9431 36.7809C82.059 36.8036 82.1693 36.849 82.2677 36.9145C82.3661 36.9801 82.4507 37.0645 82.5166 37.1629C82.5826 37.2613 82.6286 37.3718 82.6521 37.4881C82.6755 37.6044 82.676 37.7242 82.6534 37.8406C75.5682 74.1027 75.7755 113.757 83.2357 149.496C83.2615 149.611 83.2641 149.73 83.2433 149.847C83.2225 149.963 83.1788 150.074 83.1147 150.173C83.0505 150.273 82.9673 150.358 82.8699 150.424C82.7725 150.491 82.6629 150.537 82.5475 150.56C82.4865 150.572 82.4244 150.578 82.3622 150.578Z" fill="#FC9B2D"/>
<path d="M105.052 150.578C104.847 150.582 104.646 150.515 104.485 150.387C104.324 150.259 104.212 150.079 104.169 149.877C96.3033 114.914 96.1753 74.595 103.803 36.3642C103.85 36.129 103.988 35.9221 104.186 35.7891C104.385 35.6561 104.628 35.6077 104.862 35.6548C105.096 35.7018 105.302 35.8404 105.434 36.0399C105.567 36.2395 105.615 36.4838 105.568 36.719C97.9841 74.7192 98.1121 114.759 105.925 149.491C105.953 149.606 105.957 149.726 105.937 149.843C105.918 149.959 105.876 150.071 105.813 150.171C105.75 150.271 105.668 150.357 105.571 150.425C105.474 150.492 105.365 150.54 105.25 150.564C105.185 150.578 105.118 150.582 105.052 150.578Z" fill="#FC9B2D"/>
<path d="M59.2228 152.71H59.0376C58.8299 152.714 58.6275 152.644 58.4661 152.513C58.3047 152.382 58.1946 152.197 58.1552 151.992C50.3112 113.542 50.3112 73.892 58.1552 35.4419C58.1946 35.2369 58.3047 35.0525 58.4661 34.9211C58.6275 34.7897 58.8299 34.7197 59.0376 34.7235H128.019C128.152 34.7224 128.283 34.7513 128.403 34.8081C128.523 34.865 128.628 34.9482 128.712 35.0517C128.796 35.1552 128.856 35.2761 128.888 35.4056C128.92 35.5351 128.923 35.6701 128.897 35.801C121.286 73.1245 121.111 111.594 128.381 148.986C128.461 149.207 128.451 149.451 128.352 149.664C128.253 149.878 128.074 150.043 127.854 150.123C127.634 150.204 127.391 150.193 127.179 150.094C126.966 149.994 126.802 149.814 126.722 149.593C125.182 146.804 121.035 144.933 116.399 144.933C111.497 144.933 107.169 147.03 105.877 150.037C105.812 150.202 105.699 150.344 105.552 150.444C105.406 150.544 105.233 150.598 105.056 150.598C104.879 150.598 104.706 150.544 104.56 150.444C104.414 150.344 104.301 150.202 104.236 150.037C102.943 147.03 98.6151 144.933 93.7092 144.933C88.8034 144.933 84.4799 147.03 83.1873 150.037C83.1222 150.202 83.0092 150.344 82.8629 150.444C82.7165 150.544 82.5437 150.598 82.3667 150.598C82.1897 150.598 82.0169 150.544 81.8705 150.444C81.7242 150.344 81.6112 150.202 81.5461 150.037C80.2491 147.03 75.9256 144.933 71.0198 144.933C65.0419 144.933 60.1669 147.979 60.114 151.739C60.1313 151.89 60.1085 152.043 60.0478 152.183C59.9774 152.343 59.8615 152.478 59.7147 152.572C59.5679 152.666 59.3968 152.714 59.2228 152.71ZM59.7699 36.5371C52.3333 73.4661 52.1714 111.502 59.2934 148.494C61.2037 145.341 65.7345 143.133 71.0286 143.133C75.9432 143.133 80.2623 144.995 82.3711 147.891C84.4799 144.995 88.799 143.133 93.7136 143.133C98.6283 143.133 102.952 144.995 105.061 147.891C107.169 144.995 111.488 143.133 116.403 143.133C120.157 143.133 123.66 144.272 126.029 146.139C119.392 109.874 119.696 72.6699 126.925 36.5193L59.7699 36.5371Z" fill="#F77036"/>
<path d="M67.9357 71.9612C68.8658 62.7099 63.3253 54.5709 55.5606 53.7824C47.796 52.9938 40.7475 59.8542 39.8174 69.1055C38.8873 78.3568 44.4278 86.4957 52.1924 87.2843C59.9571 88.0729 67.0056 81.2125 67.9357 71.9612Z" fill="white"/>
<path d="M53.4082 88.2388C52.967 88.2388 52.5258 88.2166 52.1111 88.1767C48.0876 87.7643 44.5009 85.5163 42.0127 81.8714C39.5092 78.0842 38.4155 73.5306 38.9245 69.0125C39.8995 59.2841 47.3994 52.0521 55.6493 52.8857C63.8992 53.7193 69.8065 62.3215 68.8271 72.0499C67.9095 81.264 61.1287 88.2388 53.4082 88.2388ZM54.3567 54.615C47.545 54.615 41.5627 60.8981 40.7112 69.1899C40.2429 73.2862 41.2271 77.4172 43.4906 80.856C45.6965 84.0663 48.7847 86.0306 52.2876 86.3853C59.5493 87.1214 66.1757 80.621 67.0536 71.8681C67.9315 63.1152 62.7389 55.4265 55.4773 54.6727C55.105 54.6337 54.731 54.6144 54.3567 54.615Z" fill="black"/>
<path d="M68.0153 70.5288C68.0145 72.7272 67.2773 74.8613 65.9224 76.5871C64.5675 78.313 62.6739 79.53 60.5468 80.0421C58.4197 80.5543 56.1829 80.3316 54.1971 79.41C52.2113 78.4885 50.592 76.9217 49.6003 74.9623C48.6086 73.0028 48.3022 70.7648 48.7305 68.609C49.1588 66.4531 50.2969 64.5051 51.9613 63.0787C53.6257 61.6523 55.7195 60.8308 57.9052 60.7465C60.0909 60.6621 62.2412 61.32 64.0095 62.6139C61.2345 65.2034 59.8095 67.8506 60.7051 69.1276C61.6007 70.4046 64.4639 69.9346 67.7639 68.2408C67.9392 68.9904 68.0237 69.7587 68.0153 70.5288Z" fill="black"/>
<path d="M118.379 73.6743C120.103 64.5388 114.132 55.7282 105.042 53.9955C95.953 52.2627 87.187 58.2638 85.463 67.3993C83.7389 76.5349 89.7097 85.3454 98.7992 87.0782C107.889 88.8109 116.655 82.8098 118.379 73.6743Z" fill="white"/>
<path d="M101.911 88.2653C98.4203 88.2653 95.0085 87.2251 92.1065 85.2762C89.2045 83.3273 86.9426 80.5572 85.607 77.3163C84.2713 74.0754 83.9219 70.5092 84.6028 67.0687C85.2837 63.6282 86.9644 60.4678 89.4323 57.9874C91.9003 55.5069 95.0447 53.8177 98.4678 53.1333C101.891 52.4489 105.439 52.8002 108.664 54.1426C111.888 55.485 114.644 57.7583 116.583 60.6751C118.522 63.5918 119.557 67.021 119.557 70.5289C119.557 72.8581 119.101 75.1644 118.214 77.3163C117.327 79.4682 116.027 81.4234 114.389 83.0704C112.75 84.7174 110.805 86.0238 108.664 86.9152C106.523 87.8065 104.228 88.2653 101.911 88.2653ZM101.911 54.5927C98.7757 54.598 95.7128 55.5371 93.1088 57.2914C90.5048 59.0457 88.4767 61.5364 87.2807 64.4488C86.0846 67.3612 85.7744 70.5646 86.3892 73.6541C87.004 76.7437 88.5162 79.5808 90.7347 81.8068C92.9532 84.0329 95.7785 85.548 98.8534 86.1607C101.928 86.7735 105.115 86.4563 108.011 85.2494C110.907 84.0425 113.381 81.9999 115.122 79.3798C116.863 76.7597 117.793 73.6796 117.793 70.5289C117.786 66.2999 116.109 62.2465 113.132 59.2587C110.154 56.2709 106.118 54.5927 101.911 54.5927Z" fill="black"/>
<path d="M110.412 70.5288C110.411 72.7272 109.674 74.8613 108.319 76.5871C106.964 78.313 105.071 79.53 102.944 80.0421C100.816 80.5543 98.5797 80.3316 96.5938 79.41C94.608 78.4885 92.9887 76.9217 91.997 74.9623C91.0053 73.0028 90.6989 70.7648 91.1272 68.609C91.5556 66.4531 92.6937 64.5051 94.3581 63.0787C96.0225 61.6523 98.1163 60.8308 100.302 60.7465C102.488 60.6621 104.638 61.32 106.406 62.6139C103.631 65.2034 102.211 67.8506 103.102 69.1276C103.993 70.4046 106.861 69.9346 110.161 68.2408C110.336 68.9904 110.42 69.7587 110.412 70.5288Z" fill="black"/>
<path d="M64.1109 44.4254C67.7506 42.9932 71.2138 43.1395 71.8403 44.7535C72.4667 46.3675 70.027 48.8329 66.3874 50.2695C62.7477 51.7062 59.2845 51.5554 58.6536 49.9414C58.0228 48.3274 60.4669 45.8576 64.1109 44.4254Z" fill="black"/>
<path d="M96.7667 49.755C96.3255 51.4311 92.9064 51.9721 89.1256 50.9877C85.3448 50.0034 82.6271 47.8262 83.0639 46.1501C83.5007 44.474 86.9242 43.9331 90.705 44.9174C94.4858 45.9018 97.2034 48.079 96.7667 49.755Z" fill="black"/>
<path d="M103.481 185.705L93.7092 199.091L83.9417 185.696C85.1494 184.279 86.6479 183.141 88.3343 182.362C90.0207 181.582 91.855 181.178 93.7114 181.178C95.5677 181.178 97.4021 181.582 99.0885 182.362C100.775 183.141 102.273 184.279 103.481 185.696V185.705Z" fill="#9397B4"/>
<path d="M93.7094 200C93.569 200.001 93.4306 199.968 93.3055 199.904C93.1804 199.84 93.0724 199.746 92.9903 199.632L83.2183 186.232C83.0953 186.067 83.0336 185.863 83.0441 185.657C83.0546 185.45 83.1365 185.254 83.2757 185.102C84.5683 183.592 86.1698 182.381 87.9709 181.55C89.7719 180.72 91.7301 180.29 93.7116 180.29C95.6931 180.29 97.6512 180.72 99.4523 181.55C101.253 182.381 102.855 183.592 104.148 185.102C104.287 185.254 104.369 185.45 104.379 185.657C104.39 185.863 104.328 186.067 104.205 186.232L94.4329 199.632C94.3504 199.747 94.2416 199.841 94.1157 199.905C93.9898 199.969 93.8505 200.001 93.7094 200ZM85.1021 185.789L93.7094 197.592L102.321 185.789C101.209 184.622 99.8737 183.693 98.3952 183.059C96.9168 182.424 95.3258 182.097 93.7182 182.097C92.1106 182.097 90.5197 182.424 89.0412 183.059C87.5627 183.693 86.2273 184.622 85.1154 185.789H85.1021Z" fill="#505578"/>
<path d="M129.422 43.011L55.5038 38.2842C55.2381 38.2678 54.9782 38.199 54.739 38.0815C54.4998 37.9641 54.286 37.8004 54.1098 37.5999C53.9336 37.3993 53.7985 37.1658 53.7122 36.9127C53.6259 36.6596 53.5901 36.3918 53.6068 36.1248L54.2641 25.7535C54.2993 25.2145 54.5457 24.7116 54.9493 24.355C55.3529 23.9983 55.8807 23.8172 56.4171 23.8512L130.335 28.5647C130.871 28.5989 131.372 28.8456 131.727 29.2505C132.081 29.6555 132.262 30.1855 132.228 30.7241L131.575 41.091C131.56 41.3594 131.492 41.6222 131.375 41.8641C131.259 42.1061 131.096 42.3225 130.896 42.5009C130.696 42.6794 130.463 42.8163 130.21 42.9038C129.957 42.9913 129.689 43.0278 129.422 43.011Z" fill="#9397B4"/>
<path d="M132.1 32.8124L132.06 33.3046L63.4227 28.9326C62.3334 28.8633 61.2614 29.2318 60.4423 29.9569C59.6233 30.682 59.1243 31.7043 59.0551 32.7991L58.6978 38.4881L57.5772 38.4171C57.0382 38.3827 56.5113 38.2418 56.0265 38.0025C55.5418 37.7631 55.1088 37.4301 54.7523 37.0223C54.3958 36.6146 54.1228 36.1402 53.9489 35.6263C53.775 35.1123 53.7037 34.569 53.739 34.0273L54.1228 27.8418C54.1943 26.7486 54.6942 25.7285 55.513 25.0053C56.3318 24.2821 57.4026 23.9148 58.4904 23.9841L128.248 28.4182C128.789 28.4521 129.317 28.5927 129.803 28.8319C130.289 29.0712 130.723 29.4044 131.081 29.8126C131.439 30.2207 131.713 30.6957 131.888 31.2105C132.062 31.7252 132.135 32.2696 132.1 32.8124Z" fill="#B5BBDE"/>
<path d="M127.609 43.7736H127.287L57.5244 39.3395C56.203 39.2539 54.9691 38.6463 54.0921 37.6493C53.2151 36.6524 52.7662 35.3471 52.8435 34.0186L53.2362 27.8109C53.2766 27.1528 53.4457 26.5093 53.7336 25.9169C54.0216 25.3246 54.4229 24.795 54.9145 24.3586C55.4061 23.9221 55.9785 23.5873 56.5988 23.3731C57.2192 23.159 57.8755 23.0699 58.5302 23.1107L128.293 27.5448C129.613 27.6315 130.846 28.2396 131.722 29.2365C132.598 30.2333 133.046 31.538 132.969 32.8657L132.581 39.0735C132.5 40.3491 131.94 41.546 131.013 42.4214C130.086 43.2968 128.863 43.785 127.591 43.7869L127.609 43.7736ZM127.397 41.9689C128.249 42.0224 129.087 41.7339 129.727 41.167C130.367 40.6 130.757 39.8008 130.812 38.9449L131.204 32.7372C131.256 31.8815 130.969 31.0399 130.405 30.3967C129.841 29.7535 129.047 29.361 128.196 29.3052L58.4376 24.8711C57.5846 24.8177 56.7454 25.1063 56.1038 25.6736C55.7862 25.9526 55.5271 26.2922 55.3415 26.6729C55.1559 27.0535 55.0476 27.4675 55.0229 27.8907L54.6303 34.0762C54.5771 34.9322 54.8641 35.7744 55.4282 36.4179C55.9923 37.0614 56.7875 37.4535 57.6391 37.5082L127.397 41.9689Z" fill="#505578"/>
<path d="M59.6465 89.0722C63.4229 98.7829 67.217 103.394 72.8155 104.645C73.3969 104.777 73.9864 104.87 74.5801 104.924C75.5372 105.023 76.5006 105.044 77.461 104.986C79.4416 104.854 81.3766 104.329 83.1544 103.442C84.9323 102.554 86.5178 101.322 87.8197 99.816C88.3726 99.1845 88.8728 98.5082 89.3153 97.7941C89.5006 97.5059 89.6726 97.2088 89.8447 96.9073C91.2564 94.4242 92.2579 91.5864 93.4402 89.05C88.777 93.5285 82.8521 97.3374 76.4022 97.1068C70.1464 96.8762 64.667 92.8944 59.6465 89.0722Z" fill="#851039"/>
<path d="M76.3756 105.917C75.7464 105.919 75.1175 105.887 74.4918 105.82C73.8646 105.76 73.2414 105.662 72.6257 105.527C66.7581 104.197 62.7567 99.5455 58.8126 89.4003C58.727 89.2164 58.7068 89.0084 58.7554 88.8113C58.804 88.6142 58.9184 88.4398 59.0796 88.3173C59.2407 88.1948 59.4388 88.1316 59.6407 88.1383C59.8427 88.1449 60.0362 88.221 60.189 88.3539C65.664 92.5263 70.6713 95.9982 76.4462 96.2022C81.7403 96.3929 87.2373 93.7679 92.8313 88.3938C92.9749 88.2252 93.1762 88.1169 93.3954 88.0902C93.6146 88.0635 93.8357 88.1203 94.0152 88.2495C94.1947 88.3787 94.3195 88.5709 94.365 88.788C94.4104 89.0052 94.3732 89.2315 94.2607 89.4225C93.8549 90.3093 93.4754 91.1961 93.0872 92.1095C92.3701 93.9038 91.5481 95.6539 90.6255 97.3506C90.4534 97.6655 90.2725 97.9803 90.0696 98.2862C89.6065 99.0388 89.0811 99.7507 88.499 100.415C87.1173 102.01 85.4354 103.314 83.5501 104.253C81.6649 105.192 79.6134 105.747 77.5139 105.886C77.1212 105.908 76.7639 105.917 76.3756 105.917ZM61.7155 91.7282C65.0066 99.1775 68.386 102.729 73.0095 103.758C73.5547 103.881 74.1073 103.969 74.6639 104.02C75.5798 104.115 76.5019 104.135 77.4212 104.082C79.6786 103.915 81.865 103.215 83.8017 102.037C85.7384 100.86 87.3707 99.2387 88.5652 97.3063C88.7505 97.0225 88.9093 96.7432 89.0681 96.455C89.8035 95.1218 90.4633 93.748 91.0446 92.3401C86.1035 96.2732 81.1756 98.1709 76.38 97.9936C71.0507 97.8118 66.4713 95.1824 61.7155 91.7371V91.7282Z" fill="black"/>
<path d="M72.8154 104.645C73.3969 104.777 73.9864 104.87 74.5801 104.924C75.5371 105.023 76.5006 105.044 77.461 104.986C79.4416 104.854 81.3766 104.329 83.1544 103.442C84.9322 102.554 86.5178 101.322 87.8197 99.816C88.3726 99.1844 88.8728 98.5082 89.3152 97.7941C89.5005 97.5058 89.6726 97.2088 89.8446 96.9072C86.5315 96.1978 82.4683 96.5392 79.4462 98.0512C76.6012 99.4937 74.281 101.801 72.8154 104.645Z" fill="#DB1A47"/>
<path d="M76.3757 105.917C75.7464 105.919 75.1176 105.887 74.4919 105.82C73.8646 105.76 73.2414 105.662 72.6257 105.527C72.491 105.498 72.3649 105.437 72.2577 105.35C72.1504 105.263 72.0649 105.152 72.0081 105.026C71.9467 104.903 71.9148 104.767 71.9148 104.629C71.9148 104.491 71.9467 104.356 72.0081 104.232C73.5663 101.213 76.0337 98.7659 79.058 97.2398C82.1462 95.6968 86.3506 95.2312 90.0387 96.0249C90.1755 96.0533 90.3036 96.1139 90.4125 96.2018C90.5215 96.2897 90.608 96.4023 90.6652 96.5304C90.7247 96.6583 90.753 96.7987 90.7476 96.9399C90.7422 97.081 90.7034 97.2188 90.6343 97.3418C90.4535 97.6655 90.2726 97.9803 90.074 98.2863C88.7256 100.459 86.8846 102.281 84.7016 103.602C82.5186 104.923 80.0556 105.705 77.5139 105.886C77.1212 105.908 76.7639 105.917 76.3757 105.917ZM74.2316 103.984L74.6727 104.028C75.5886 104.126 76.5108 104.147 77.4301 104.091C79.2927 103.962 81.1119 103.466 82.7828 102.629C84.4538 101.792 85.9436 100.631 87.1667 99.213C87.6224 98.6957 88.0383 98.1442 88.4108 97.5635C85.4594 97.1955 82.2344 97.6655 79.8609 98.8405C77.5533 100.008 75.6068 101.786 74.2316 103.984Z" fill="black"/>
<path d="M50.4392 145.376C48.7186 145.376 47.001 145.31 45.2863 145.177C45.1095 145.166 44.9368 145.119 44.7783 145.04C44.6198 144.96 44.4788 144.85 44.3636 144.714C44.2484 144.579 44.1614 144.422 44.1077 144.253C44.054 144.083 44.0347 143.904 44.051 143.727C44.0626 143.55 44.1095 143.377 44.1888 143.218C44.268 143.059 44.3782 142.918 44.5126 142.802C44.6471 142.687 44.8032 142.6 44.9717 142.546C45.1402 142.493 45.3176 142.473 45.4937 142.49C71.4698 144.512 98.3681 130.42 114.025 106.574C114.222 106.275 114.528 106.067 114.878 105.995C115.227 105.924 115.59 105.995 115.887 106.192C116.184 106.39 116.391 106.698 116.462 107.049C116.533 107.4 116.463 107.765 116.266 108.064C101.108 131.143 75.7183 145.376 50.4392 145.376Z" fill="#505578"/>
<path d="M50.4391 146.276C48.7053 146.276 46.945 146.21 45.2157 146.077C44.625 146.031 44.0768 145.75 43.6914 145.298C43.3059 144.846 43.1148 144.259 43.1598 143.665C43.1821 143.365 43.2633 143.073 43.3989 142.805C43.5345 142.537 43.7216 142.299 43.9495 142.104C44.1725 141.913 44.4318 141.77 44.7117 141.683C44.9916 141.596 45.2861 141.567 45.5774 141.599C71.2183 143.594 97.7989 129.662 113.28 106.126C113.607 105.628 114.117 105.282 114.698 105.162C115.279 105.043 115.884 105.161 116.379 105.489C116.874 105.818 117.219 106.331 117.337 106.915C117.456 107.499 117.339 108.107 117.012 108.604C101.73 131.835 76.2212 146.276 50.4391 146.276ZM45.3701 143.381C45.2715 143.379 45.1757 143.414 45.101 143.479C45.0533 143.516 45.0139 143.563 44.9852 143.617C44.9565 143.671 44.9391 143.73 44.9341 143.791C44.9292 143.851 44.9367 143.913 44.9563 143.97C44.9759 144.028 45.0071 144.081 45.048 144.126C45.086 144.171 45.1324 144.208 45.1847 144.234C45.2369 144.261 45.294 144.277 45.3524 144.281C47.0377 144.414 48.7539 144.481 50.4435 144.481C75.6256 144.481 100.565 130.345 115.521 107.589C115.554 107.54 115.578 107.484 115.589 107.426C115.601 107.368 115.601 107.307 115.589 107.249C115.577 107.191 115.553 107.135 115.52 107.086C115.486 107.037 115.443 106.996 115.393 106.964C115.344 106.93 115.289 106.907 115.231 106.895C115.173 106.883 115.113 106.883 115.055 106.895C114.997 106.907 114.942 106.931 114.893 106.965C114.844 106.999 114.802 107.042 114.771 107.092C99.9474 129.653 75.1315 143.581 50.448 143.581C48.7715 143.581 47.0995 143.518 45.423 143.385L45.3701 143.381Z" fill="#252945"/>
<path d="M47.1613 149.677C52.5168 149.677 56.8583 147.436 56.8583 144.671C56.8583 141.907 52.5168 139.665 47.1613 139.665C41.8058 139.665 37.4644 141.907 37.4644 144.671C37.4644 147.436 41.8058 149.677 47.1613 149.677Z" fill="#505578"/>
<path d="M47.1614 150.578C41.2232 150.578 36.5732 147.984 36.5732 144.671C36.5732 141.359 41.2232 138.787 47.1614 138.787C53.0995 138.787 57.7495 141.381 57.7495 144.694C57.7495 148.006 53.1039 150.578 47.1614 150.578ZM47.1614 140.561C41.9776 140.561 38.3379 142.729 38.3379 144.671C38.3379 146.614 41.9555 148.782 47.1614 148.782C52.3672 148.782 55.9627 146.614 55.9627 144.671C55.9627 142.729 52.3495 140.561 47.1614 140.561Z" fill="#252945"/>
</g>
<defs>
<clipPath id="clip0_244_962">
<rect width="133" height="200" fill="white"/>
</clipPath>
</defs>
</svg>
