<svg width="117" height="188" viewBox="0 0 117 188" fill="none" xmlns="http://www.w3.org/2000/svg">
<g clip-path="url(#clip0_244_705)">
<path d="M83.907 142.634L71.6062 187.155L18.1155 156.081C17.5491 153.308 19.4118 150.409 22.6338 148.439C24.243 147.479 26.0055 146.802 27.8445 146.436C32.988 145.394 37.7875 146.762 39.7635 149.577C40.4683 146.21 44.3406 142.224 49.4799 141.17C54.6192 140.115 59.4229 142.341 61.3989 145.156C62.1037 141.789 65.976 138.652 71.1237 137.597C77.3496 136.326 83.0679 138.58 83.907 142.634Z" fill="#D6DEE5"/>
<path d="M62.7414 179.25L59.8676 180.333L18.1155 156.073C17.5491 153.3 19.4118 150.401 22.6338 148.431L62.7414 179.25Z" fill="#EBEFF2"/>
<path d="M71.6106 188C71.4635 187.998 71.3192 187.959 71.1911 187.887L17.6877 156.813C17.5814 156.755 17.4888 156.675 17.4164 156.579C17.344 156.482 17.2934 156.371 17.2682 156.253C16.6431 153.216 18.5268 149.945 22.1768 147.715C23.8787 146.699 25.7436 145.984 27.6895 145.599C32.3841 144.645 36.8689 145.57 39.4364 147.904C40.8377 144.7 44.5422 141.312 49.3291 140.329C54.116 139.346 58.605 141.04 61.0761 143.462C62.5235 140.316 66.2783 137.714 70.9603 136.769C77.6267 135.41 83.8023 137.974 84.7295 142.483C84.7615 142.613 84.7615 142.75 84.7295 142.88L72.4287 187.389C72.3944 187.514 72.3314 187.629 72.2448 187.726C72.1581 187.823 72.0502 187.898 71.9294 187.946C71.8283 187.986 71.7196 188.005 71.6106 188ZM18.8792 155.55L71.0652 185.867L83.0262 142.633C82.1451 139.162 76.9555 137.279 71.3127 138.43C66.6265 139.388 62.922 142.223 62.2508 145.331C62.2217 145.497 62.1431 145.65 62.0254 145.77C61.9077 145.891 61.7563 145.973 61.591 146.007C61.4257 146.04 61.2541 146.023 61.0986 145.958C60.9431 145.893 60.811 145.782 60.7195 145.641C58.9658 143.131 54.4978 141.015 49.6689 142.002C44.8401 142.989 41.2488 146.712 40.6111 149.744C40.5818 149.909 40.5035 150.061 40.3864 150.181C40.2693 150.301 40.1188 150.384 39.9543 150.417C39.7898 150.451 39.6189 150.435 39.4638 150.371C39.3086 150.307 39.1763 150.198 39.084 150.058C37.2632 147.46 32.7155 146.314 28.0293 147.264C26.2888 147.612 24.6204 148.252 23.0955 149.159C20.2133 150.911 18.6443 153.329 18.8792 155.55Z" fill="#99ADBF"/>
<path d="M76.2715 170.265L71.6105 187.155L56.5408 178.401C57.6651 174.055 60.4299 170.512 64.4448 168.943C68.3171 167.425 72.5796 168.044 76.2715 170.265Z" fill="#D6DEE5"/>
<path d="M71.6104 188C71.4633 187.998 71.319 187.959 71.1909 187.887L56.1254 179.133C55.9632 179.042 55.836 178.899 55.7638 178.728C55.6916 178.557 55.6786 178.367 55.7268 178.187C56.9603 173.419 60.0313 169.759 64.1469 168.149C68.0989 166.597 72.6844 167.103 76.733 169.533C76.8931 169.628 77.0171 169.773 77.0855 169.946C77.1538 170.118 77.1626 170.309 77.1105 170.487L72.4285 187.389C72.393 187.514 72.3297 187.63 72.2432 187.727C72.1568 187.824 72.0495 187.9 71.9293 187.95C71.8273 187.987 71.719 188.004 71.6104 188ZM57.535 177.995L71.0818 185.867L75.2772 170.671C71.7992 168.763 68.0821 168.425 64.7552 169.73C61.3318 171.077 58.7349 174.063 57.535 177.995Z" fill="#99ADBF"/>
<path d="M45.8342 15.0582C51.7707 10.5701 61.0424 1.47669 69.0052 0.899464C81.7674 -0.0291173 110.422 12.4482 115.792 23.4238C118.204 28.3637 108.404 45.0782 108.404 45.0782L45.8342 15.0582Z" fill="#D6DEE5"/>
<path d="M116.14 26.0254C107.829 15.8654 82.9253 5.52967 71.2496 6.38714C64.7007 6.86398 57.2707 13.0796 51.5315 17.7894L45.8384 15.0581C51.7748 10.5699 61.0423 1.47654 69.0051 0.899311C81.7674 -0.0250872 110.422 12.4438 115.792 23.4237C116.131 24.2464 116.251 25.1427 116.14 26.0254Z" fill="#EBEFF2"/>
<path d="M108.395 45.9273C108.268 45.9278 108.141 45.8992 108.026 45.8436L45.4651 15.8111C45.3316 15.7503 45.2165 15.6556 45.1312 15.5366C45.0459 15.4175 44.9934 15.2782 44.9789 15.1326C44.9645 14.987 44.9886 14.8401 45.0489 14.7067C45.1092 14.5733 45.2035 14.458 45.3225 14.3723C46.5097 13.473 47.8397 12.3729 49.2787 11.2101C55.0892 6.45423 62.322 0.531386 68.9423 0.0503641C82.2961 -0.911679 111.043 11.7622 116.547 23.0557C119.085 28.255 110.157 43.7606 109.13 45.5132C109.055 45.6407 108.947 45.7462 108.818 45.8189C108.69 45.8916 108.544 45.929 108.395 45.9273ZM47.4453 14.8784L108.056 43.9739C110.908 38.9546 116.748 27.3389 115.016 23.7961C109.851 13.2136 81.6626 0.83673 69.0682 1.7444C62.9849 2.16268 55.9828 7.91821 50.3569 12.5235C49.3374 13.3558 48.3599 14.1548 47.4453 14.8784Z" fill="#99ADBF"/>
<path d="M83.907 142.634C83.068 138.568 77.3539 136.313 71.1448 137.577C65.9971 138.631 62.1248 141.759 61.4199 145.135C59.4439 142.32 54.6486 140.095 49.5009 141.149C44.3532 142.203 40.4893 146.168 39.7845 149.556C37.8085 146.737 33.009 145.373 27.8655 146.415C21.6438 147.67 17.289 152.016 18.1197 156.069C6.01191 108.038 23.0954 48.4704 39.6083 25.373L51.5525 19.9604L86.7431 29.2797C86.7431 29.2797 101.947 37.7122 104.561 48.4704C91.0937 74.8722 80.8654 119.038 83.907 142.634Z" fill="#D6DEE5"/>
<path d="M96.6232 36.5452C94.9451 35.441 93.8585 34.8303 93.8585 34.8303L58.6679 25.5152L47.4369 29.2797C32.4133 50.2899 16.1941 103.177 22.655 148.431C19.4161 150.393 17.5534 153.3 18.124 156.081C6.01199 108.038 23.0955 48.4704 39.6084 25.373L51.5567 19.9604L86.7432 29.2797C90.2889 31.3404 93.6014 33.7764 96.6232 36.5452Z" fill="#EBEFF2"/>
<path d="M39.7803 150.418C39.5949 150.42 39.4142 150.36 39.2662 150.249C39.1182 150.138 39.0113 149.981 38.9622 149.803C31.4651 123.915 38.5301 65.2224 58.5629 31.1619C58.6741 30.9677 58.8582 30.8256 59.0746 30.7668C59.2909 30.7079 59.5219 30.7372 59.7166 30.8481C59.9113 30.9591 60.0538 31.1426 60.1129 31.3583C60.1719 31.574 60.1425 31.8043 60.0312 31.9984C40.204 65.7118 33.181 123.74 40.5984 149.309C40.6316 149.417 40.6427 149.529 40.6312 149.641C40.6196 149.753 40.5857 149.861 40.5312 149.96C40.4768 150.058 40.4031 150.144 40.3144 150.214C40.2258 150.283 40.124 150.334 40.0152 150.363C39.9396 150.391 39.8606 150.41 39.7803 150.418Z" fill="#99ADBF"/>
<path d="M61.4159 145.98C61.2018 145.98 60.9956 145.899 60.8397 145.753C60.6837 145.607 60.5896 145.406 60.5768 145.193C58.4204 117.018 68.4389 63.9008 84.1169 40.2052C84.241 40.0177 84.4347 39.8871 84.6554 39.842C84.8761 39.7969 85.1057 39.841 85.2937 39.9647C85.4818 40.0884 85.6128 40.2815 85.6581 40.5015C85.7033 40.7216 85.659 40.9505 85.535 41.138C70.0373 64.5616 60.1363 117.156 62.2717 145.072C62.2814 145.183 62.2687 145.295 62.2343 145.402C62.1999 145.508 62.1446 145.606 62.0714 145.691C61.9983 145.775 61.909 145.845 61.8086 145.894C61.7083 145.944 61.599 145.973 61.4872 145.98H61.4159Z" fill="#99ADBF"/>
<path d="M18.1155 156.93C17.9233 156.936 17.735 156.875 17.5823 156.758C17.4295 156.642 17.3215 156.477 17.2764 156.29C5.15605 108.125 22.3738 48.0186 38.9161 24.8794C39.0037 24.7587 39.1206 24.6623 39.2559 24.5991L51.2042 19.1866C51.3831 19.105 51.5851 19.0888 51.7748 19.1406L86.9612 28.4431C87.0308 28.459 87.0973 28.4858 87.1584 28.5226C87.7919 28.8739 102.719 37.2855 105.387 48.2738C105.435 48.4707 105.411 48.6782 105.32 48.8593C91.4377 76.0475 81.8261 119.841 84.7629 142.554C84.8001 142.776 84.7475 143.003 84.6165 143.187C84.4855 143.37 84.2869 143.493 84.0643 143.531C83.8418 143.568 83.6136 143.515 83.4299 143.385C83.2462 143.254 83.122 143.056 83.0847 142.834C82.3505 139.241 77.0728 137.267 71.3377 138.438C66.6515 139.396 62.947 142.232 62.2758 145.34C62.2467 145.505 62.1681 145.658 62.0504 145.779C61.9327 145.899 61.7814 145.982 61.616 146.015C61.4507 146.049 61.2791 146.032 61.1236 145.966C60.9681 145.901 60.836 145.791 60.7445 145.649C58.9908 143.14 54.5228 141.023 49.6939 142.01C44.8651 142.997 41.2487 146.712 40.611 149.744C40.5816 149.909 40.5034 150.061 40.3863 150.181C40.2692 150.301 40.1186 150.384 39.9541 150.417C39.7896 150.451 39.6188 150.435 39.4636 150.371C39.3085 150.307 39.1762 150.198 39.0839 150.058C37.2631 147.46 32.7153 146.314 28.0291 147.264C22.2857 148.439 18.212 152.321 18.9504 155.918C18.9738 156.025 18.9758 156.136 18.9563 156.245C18.9367 156.353 18.8959 156.456 18.8363 156.548C18.7767 156.641 18.6994 156.721 18.6088 156.783C18.5183 156.846 18.4162 156.89 18.3085 156.914C18.2448 156.925 18.1802 156.931 18.1155 156.93ZM40.1705 26.0505C24.3036 48.4285 7.89142 105.105 18.019 151.919C19.5839 148.991 23.1793 146.519 27.6683 145.599C32.3629 144.645 36.8477 145.57 39.4153 147.904C40.8165 144.7 44.521 141.312 49.3079 140.329C54.0948 139.346 58.5839 141.04 61.0549 143.462C62.5023 140.316 66.2572 137.714 70.9392 136.769C75.6212 135.824 80.1354 136.811 82.6862 139.082C81.0919 115.399 90.4266 74.4455 103.663 48.3783C101.066 38.6617 87.6493 30.7562 86.4242 30.0493L51.6322 20.8472L40.1705 26.0505Z" fill="#99ADBF"/>
<path d="M45.1336 89.9512C53.9314 89.9512 61.0634 82.8405 61.0634 74.0691C61.0634 65.2977 53.9314 58.187 45.1336 58.187C36.3359 58.187 29.2039 65.2977 29.2039 74.0691C29.2039 82.8405 36.3359 89.9512 45.1336 89.9512Z" fill="white"/>
<path d="M45.1085 90.8044C41.5239 90.7999 38.0348 89.6511 35.1525 87.5263C32.2702 85.4015 30.146 82.4123 29.0912 78.9967C28.0363 75.581 28.1062 71.9182 29.2906 68.545C30.4751 65.1718 32.7118 62.2654 35.6731 60.2514C38.6344 58.2375 42.1648 57.2219 45.747 57.3534C49.3292 57.4849 52.7751 58.7566 55.5799 60.9822C58.3846 63.2078 60.4009 66.2703 61.3333 69.7212C62.2657 73.1722 62.0653 76.8301 60.7614 80.1592C59.5419 83.3062 57.392 86.0094 54.5966 87.9105C51.8012 89.8116 48.4923 90.8208 45.1085 90.8044ZM45.1085 59.0152C41.3392 59.0071 37.7026 60.4022 34.911 62.9273C32.1193 65.4523 30.3736 68.9255 30.0159 72.6666C29.6581 76.4077 30.7139 80.1472 32.9767 83.1527C35.2394 86.1583 38.546 88.2135 42.2489 88.9158C45.9519 89.618 49.7844 88.9168 52.9959 86.9494C56.2074 84.9821 58.5667 81.8902 59.6115 78.2795C60.6564 74.6687 60.3117 70.7991 58.6449 67.4285C56.9781 64.0578 54.1093 61.4289 50.6002 60.0567C48.8555 59.3766 46.9986 59.0277 45.1253 59.0277L45.1085 59.0152Z" fill="black"/>
<path d="M35.9667 70.5054C35.3025 72.2072 35.1592 74.0672 35.555 75.8502C35.9508 77.6332 36.8679 79.2592 38.1903 80.5226C39.5127 81.7861 41.1812 82.6304 42.9847 82.9487C44.7883 83.2671 46.6461 83.0452 48.3232 82.3111C50.0003 81.577 51.4215 80.3638 52.4072 78.8246C53.3928 77.2854 53.8987 75.4895 53.8609 73.6637C53.823 71.838 53.2432 70.0644 52.1946 68.5671C51.146 67.0699 49.6757 65.9162 47.9696 65.2518C46.145 64.5348 44.1377 64.4204 42.243 64.9255C43.8078 68.1588 44.156 70.9697 42.9226 71.7853C41.6892 72.601 39.3188 71.1997 36.9946 68.5729C36.5752 69.1735 36.2301 69.8223 35.9667 70.5054Z" fill="black"/>
<path d="M103.513 83.1071C104.494 74.3903 99.1885 66.6418 91.6636 65.8003C84.1388 64.9588 77.2437 71.3429 76.263 80.0597C75.2823 88.7764 80.5874 96.525 88.1123 97.3665C95.6371 98.208 102.532 91.8239 103.513 83.1071Z" fill="white"/>
<path d="M89.4282 98.2958C88.953 98.2962 88.4781 98.2696 88.006 98.2163C80.0348 97.3254 74.3753 89.1438 75.4199 79.9751C76.4645 70.8064 83.7812 64.0805 91.7566 64.9631C99.732 65.8456 105.387 74.0397 104.343 83.2084C103.378 91.8166 96.8372 98.2958 89.4282 98.2958ZM90.3218 66.5818C83.7686 66.5818 77.9707 72.4085 77.098 80.1634C76.1709 88.4035 81.1507 95.7443 88.1947 96.5306C95.2387 97.317 101.729 91.2561 102.656 83.0202C103.583 74.7843 98.5908 67.4267 91.5552 66.6362C91.1457 66.591 90.7339 66.5686 90.3218 66.5693V66.5818Z" fill="#99ADBF"/>
<path d="M76.775 77.7206C76.109 79.4222 75.9639 81.2825 76.3582 83.0662C76.7525 84.85 77.6685 86.4771 78.9903 87.7419C80.3121 89.0066 81.9804 89.8522 83.7842 90.1717C85.588 90.4912 87.4464 90.2702 89.1242 89.5367C90.8021 88.8032 92.2241 87.5902 93.2105 86.051C94.1969 84.5118 94.7034 82.7155 94.6658 80.8893C94.6283 79.0631 94.0485 77.289 92.9998 75.7914C91.951 74.2937 90.4803 73.1398 88.7738 72.4754C86.9492 71.7581 84.9418 71.6437 83.0471 72.1491C84.612 75.3824 84.9644 78.1933 83.7309 79.0089C82.4975 79.8246 80.1229 78.4233 77.8029 75.7965C77.3834 76.394 77.0382 77.0401 76.775 77.7206Z" fill="#99ADBF"/>
<path d="M63.7065 108.753C62.7926 108.754 61.8808 108.667 60.9837 108.493C58.1324 107.883 55.5108 106.485 53.4181 104.46C51.3254 102.435 49.8459 99.8641 49.1486 97.0409C49.1233 96.9324 49.1196 96.82 49.1379 96.7101C49.1561 96.6002 49.1958 96.4949 49.2549 96.4004C49.3139 96.3058 49.391 96.2237 49.4818 96.1589C49.5727 96.094 49.6754 96.0476 49.7842 96.0224C49.893 95.9971 50.0058 95.9934 50.116 96.0116C50.2262 96.0298 50.3318 96.0694 50.4267 96.1283C50.5215 96.1871 50.6038 96.264 50.6689 96.3546C50.7339 96.4451 50.7805 96.5476 50.8058 96.656C51.3833 99.1805 52.6828 101.484 54.5469 103.287C56.4109 105.09 58.7595 106.315 61.3079 106.814C63.8563 107.313 66.4952 107.064 68.9046 106.098C71.3141 105.132 73.3908 103.489 74.8829 101.37C75.0131 101.186 75.2111 101.062 75.4334 101.024C75.6557 100.986 75.884 101.037 76.0681 101.167C76.2523 101.297 76.3772 101.494 76.4153 101.716C76.4535 101.938 76.4018 102.165 76.2716 102.349C73.4691 106.327 68.5689 108.753 63.7065 108.753Z" fill="#99ADBF"/>
<path d="M54.8919 98.9274C54.677 98.9288 54.4698 98.8479 54.3129 98.7015C53.2403 97.7166 51.844 97.1559 50.3861 97.1246C48.9254 97.0953 47.5055 97.6064 46.4005 98.5593C46.3159 98.6321 46.2178 98.6875 46.1117 98.7225C46.0057 98.7575 45.8937 98.7713 45.7823 98.7631C45.6709 98.755 45.5622 98.725 45.4624 98.675C45.3626 98.6249 45.2736 98.5558 45.2006 98.4715C45.1276 98.3871 45.072 98.2893 45.0369 98.1836C45.0018 98.0778 44.988 97.9662 44.9962 97.8551C45.0044 97.744 45.0344 97.6356 45.0846 97.5361C45.1348 97.4366 45.2042 97.348 45.2887 97.2752C46.7112 96.0518 48.5359 95.3938 50.4142 95.427C52.2925 95.4602 54.0927 96.1822 55.4709 97.455C55.6037 97.568 55.6978 97.7194 55.7403 97.8882C55.7827 98.057 55.7712 98.2348 55.7075 98.3969C55.6438 98.5589 55.531 98.6971 55.3848 98.7922C55.2386 98.8873 55.0663 98.9345 54.8919 98.9274Z" fill="black"/>
<path d="M47.9067 50.2354C48.3808 51.7998 51.6531 52.1972 55.2108 51.1222C58.7685 50.0472 61.2689 47.9056 60.7948 46.3413C60.3207 44.7769 57.0484 44.3795 53.4907 45.4545C49.933 46.5295 47.4284 48.6711 47.9067 50.2354Z" fill="black"/>
<path d="M74.1444 48.6125C73.0872 49.8673 74.5304 52.7953 77.3664 55.2087C80.2025 57.6222 83.3658 58.5341 84.4272 57.3001C85.4886 56.0662 84.0412 53.1173 81.2052 50.7039C78.3691 48.2904 75.2058 47.366 74.1444 48.6125Z" fill="#99ADBF"/>
<path d="M37.9176 28.6104C52.3664 28.1712 87.5612 37.1852 102.786 52.9878C103.019 53.2318 103.298 53.4261 103.608 53.5589C103.919 53.6917 104.253 53.7601 104.59 53.7601C104.928 53.7601 105.262 53.6917 105.572 53.5589C105.882 53.4261 106.162 53.2318 106.394 52.9878L112.557 46.471C112.944 46.0618 113.179 45.5334 113.224 44.973C113.269 44.4125 113.121 43.8536 112.805 43.3883C97.7014 21.0772 60.1362 10.2689 42.822 14.3471C42.2213 14.494 41.7001 14.8654 41.3662 15.3844C39.193 18.7307 37.1708 22.2777 35.6857 24.9547C35.4732 25.3347 35.3656 25.7642 35.374 26.1992C35.3823 26.6342 35.5063 27.0593 35.7332 27.4309C35.9601 27.8026 36.2819 28.1076 36.6656 28.3148C37.0494 28.522 37.4814 28.624 37.9176 28.6104Z" fill="#D6DEE5"/>
<path d="M113.052 45.7474C96.8456 25.3312 61.6718 15.5853 45.1043 19.4962C44.5033 19.6374 43.9819 20.0084 43.6528 20.5293C41.8571 23.2691 40.1622 26.1719 38.8029 28.5979C38.4967 28.5979 38.2072 28.5979 37.9177 28.5979C37.4839 28.6079 37.0551 28.5037 36.6744 28.296C36.2938 28.0882 35.9747 27.7842 35.7493 27.4145C35.524 27.0448 35.4002 26.6224 35.3905 26.1899C35.3808 25.7574 35.4856 25.3299 35.6942 24.9505C37.1667 22.2777 39.2015 18.714 41.3789 15.3803C41.7097 14.8591 42.2324 14.4882 42.8347 14.3471C60.1489 10.2647 97.7267 21.0731 112.822 43.3799C113.053 43.7247 113.196 44.1215 113.236 44.5347C113.276 44.9479 113.213 45.3645 113.052 45.7474Z" fill="#EBEFF2"/>
<path d="M104.624 54.6148C104.168 54.614 103.717 54.5212 103.298 54.3423C102.88 54.1633 102.501 53.9017 102.186 53.5733C87.0369 37.8669 51.9931 29.037 37.9471 29.4595C37.3652 29.4827 36.7878 29.3494 36.2755 29.0734C35.7632 28.7974 35.3348 28.3889 35.0355 27.8909C34.7218 27.3919 34.5485 26.818 34.5337 26.2293C34.519 25.6406 34.6633 25.0587 34.9516 24.5447C36.3151 22.0601 38.4127 18.3793 40.6657 14.9243C41.1176 14.2225 41.8241 13.7219 42.6375 13.5272C59.9433 9.44899 98.1797 20.2197 113.539 42.9197C113.966 43.5437 114.165 44.2945 114.104 45.0472C114.043 45.7999 113.725 46.509 113.203 47.0565L107.024 53.5817C106.718 53.9072 106.349 54.1668 105.939 54.3445C105.53 54.5222 105.088 54.6142 104.641 54.6148H104.624ZM38.9162 27.7487C53.8349 27.7487 88.2955 36.7208 103.411 52.3979C103.568 52.5634 103.758 52.6951 103.968 52.785C104.178 52.8749 104.404 52.9211 104.632 52.9208C104.849 52.9201 105.063 52.8752 105.261 52.7888C105.46 52.7025 105.638 52.5766 105.786 52.4189L111.953 45.9021C112.208 45.6327 112.362 45.2847 112.391 44.9157C112.42 44.5468 112.322 44.179 112.113 43.8734C97.1435 21.7506 59.8804 11.2183 43.0276 15.1836C42.6421 15.2809 42.3087 15.5219 42.0963 15.857C39.8559 19.2744 37.7918 22.9176 36.4451 25.3729C36.3061 25.6233 36.2367 25.9061 36.2441 26.1921C36.2515 26.4782 36.3353 26.7571 36.4871 27C36.6317 27.2406 36.8383 27.4381 37.0855 27.572C37.3327 27.7059 37.6114 27.7713 37.8925 27.7613C38.224 27.7529 38.5638 27.7487 38.9162 27.7487Z" fill="#99ADBF"/>
<path d="M75.4617 150.581C74.7792 150.584 74.1082 150.405 73.5181 150.063C72.9281 149.722 72.4403 149.229 72.1054 148.636L49.719 108.933C49.2502 108.052 49.1452 107.024 49.4264 106.067C49.7076 105.111 50.3528 104.302 51.2241 103.813C52.0955 103.325 53.1239 103.195 54.0899 103.452C55.0558 103.709 55.8826 104.332 56.3938 105.189L78.7802 144.892C79.1085 145.472 79.2786 146.128 79.2736 146.794C79.2686 147.461 79.0887 148.114 78.7518 148.689C78.4149 149.265 77.9327 149.742 77.3533 150.074C76.7739 150.406 76.1174 150.58 75.4491 150.581H75.4617Z" fill="#D6DEE5"/>
<path d="M75.4619 151.417C74.6309 151.417 73.815 151.196 73.0977 150.778C72.3804 150.36 71.7875 149.759 71.3798 149.037L48.9934 109.334C48.6923 108.8 48.4997 108.212 48.4264 107.604C48.3532 106.996 48.4008 106.38 48.5666 105.79C48.7323 105.2 49.013 104.649 49.3925 104.167C49.7721 103.685 50.243 103.283 50.7785 102.983C51.3141 102.682 51.9036 102.49 52.5136 102.417C53.1236 102.344 53.742 102.392 54.3336 102.557C54.9251 102.722 55.4783 103.002 55.9614 103.381C56.4445 103.759 56.8481 104.228 57.1492 104.762L79.5356 144.465C80.1435 145.544 80.2971 146.819 79.9628 148.01C79.6285 149.202 78.8335 150.212 77.7526 150.819C77.0521 151.209 76.2639 151.414 75.4619 151.417ZM53.0671 104.097C52.548 104.098 52.0382 104.235 51.5882 104.493C51.1382 104.751 50.7637 105.121 50.5017 105.568C50.2397 106.015 50.0993 106.522 50.0945 107.04C50.0897 107.557 50.2207 108.067 50.4744 108.519L72.8608 148.222C73.2502 148.908 73.8973 149.413 74.6597 149.624C75.4221 149.835 76.2373 149.735 76.9261 149.347C77.6148 148.959 78.1207 148.313 78.3323 147.553C78.544 146.793 78.4441 145.98 78.0546 145.294L55.6682 105.595C55.4066 105.138 55.0279 104.758 54.5708 104.495C54.1138 104.232 53.5949 104.095 53.0671 104.097Z" fill="#99ADBF"/>
<path d="M38.4001 42.0122C32.269 42.0122 26.2756 43.8249 21.1777 47.2209C16.0799 50.617 12.1066 55.444 9.76034 61.0914C7.41407 66.7389 6.80017 72.9532 7.99629 78.9485C9.19242 84.9438 12.1448 90.4509 16.4802 94.7732C20.8155 99.0956 26.3391 102.039 32.3524 103.232C38.3657 104.424 44.5987 103.812 50.2631 101.473C55.9275 99.1337 60.769 95.1723 64.1752 90.0897C67.5815 85.0072 69.3996 79.0317 69.3996 72.9189C69.3874 64.7257 66.1174 56.8715 60.3066 51.078C54.4957 45.2845 46.6179 42.0244 38.4001 42.0122Z" fill="#EBEFF2"/>
<path d="M38.4001 110.355C30.9737 110.355 23.7141 108.159 17.5393 104.046C11.3645 99.9321 6.55185 94.0854 3.7099 87.2449C0.867954 80.4043 0.12437 72.8772 1.57318 65.6153C3.022 58.3534 6.59814 51.683 11.8494 46.4474C17.1006 41.2119 23.7911 37.6465 31.0748 36.202C38.3585 34.7575 45.9082 35.4989 52.7693 38.3323C59.6303 41.1658 65.4946 45.964 69.6205 52.1204C73.7463 58.2767 75.9485 65.5146 75.9485 72.9187C75.9374 82.844 71.9779 92.3595 64.9386 99.3778C57.8993 106.396 48.3552 110.344 38.4001 110.355ZM38.4001 42.012C32.269 42.012 26.2756 43.8247 21.1777 47.2207C16.0799 50.6168 12.1066 55.4438 9.76034 61.0912C7.41406 66.7387 6.80017 72.953 7.99629 78.9483C9.19241 84.9436 12.1448 90.4507 16.4802 94.7731C20.8155 99.0954 26.3391 102.039 32.3524 103.232C38.3657 104.424 44.5987 103.812 50.2631 101.473C55.9275 99.1335 60.769 95.1721 64.1752 90.0896C67.5815 85.007 69.3996 79.0315 69.3996 72.9187C69.3874 64.7255 66.1174 56.8713 60.3066 51.0778C54.4957 45.2843 46.6179 42.0242 38.4001 42.012Z" fill="#D6DEE5"/>
<path d="M38.4001 111.204C30.8053 111.204 23.381 108.958 17.0661 104.752C10.7513 100.545 5.82946 94.5655 2.92305 87.5698C0.0166382 80.5741 -0.743811 72.8762 0.737864 65.4496C2.21954 58.0231 5.87679 51.2013 11.2471 45.847C16.6175 40.4927 23.4597 36.8464 30.9086 35.3692C38.3575 33.892 46.0785 34.6501 53.0951 37.5478C60.1118 40.4456 66.1091 45.3527 70.3286 51.6486C74.548 57.9446 76.8001 65.3466 76.8001 72.9187C76.789 83.0692 72.7398 92.8007 65.5408 99.9782C58.3418 107.156 48.581 111.193 38.4001 111.204ZM38.4001 36.3318C31.141 36.331 24.0446 38.4764 18.0086 42.4967C11.9725 46.5171 7.26776 52.2318 4.48944 58.9181C1.71111 65.6045 0.983953 72.9621 2.39993 80.0604C3.81591 87.1588 7.31143 93.6791 12.4444 98.7967C17.5774 103.914 24.1172 107.399 31.2369 108.811C38.3566 110.223 45.7363 109.498 52.4427 106.728C59.1491 103.958 64.8809 99.2672 68.9134 93.2492C72.9458 87.2312 75.0977 80.1561 75.0968 72.9187C75.0857 63.2183 71.216 53.9182 64.3366 47.0586C57.4571 40.1989 48.1296 36.3398 38.4001 36.3276V36.3318ZM38.4001 104.674C32.1014 104.674 25.9441 102.812 20.7069 99.3234C15.4697 95.8345 11.3878 90.8755 8.97736 85.0737C6.56694 79.2719 5.93627 72.8877 7.16509 66.7285C8.39391 60.5692 11.427 54.9116 15.8809 50.4711C20.3348 46.0306 26.0094 43.0065 32.1871 41.7814C38.3648 40.5562 44.7681 41.185 50.5874 43.5882C56.4066 45.9914 61.3805 50.0611 64.8798 55.2826C68.3792 60.5042 70.247 66.643 70.247 72.9229C70.2359 81.3402 66.8769 89.4094 60.9067 95.361C54.9366 101.312 46.8426 104.66 38.4001 104.67V104.674ZM38.4001 42.8653C32.4374 42.8653 26.6086 44.6282 21.6509 47.9309C16.6931 51.2337 12.829 55.928 10.5471 61.4203C8.26533 66.9127 7.6683 72.9562 8.83156 78.7868C9.99482 84.6174 12.8661 89.9732 17.0824 94.1768C21.2986 98.3804 26.6704 101.243 32.5185 102.403C38.3666 103.563 44.4284 102.967 49.9371 100.692C55.4459 98.4175 60.1544 94.5649 63.4671 89.622C66.7797 84.679 68.5479 78.8677 68.5479 72.9229C68.539 64.9535 65.36 57.3129 59.7082 51.6773C54.0565 46.0416 46.3934 42.8711 38.4001 42.8611V42.8653Z" fill="#99ADBF"/>
<path d="M38.4002 97.5179C52.0266 97.5179 63.073 86.5045 63.073 72.9189C63.073 59.3332 52.0266 48.3198 38.4002 48.3198C24.7737 48.3198 13.7273 59.3332 13.7273 72.9189C13.7273 86.5045 24.7737 97.5179 38.4002 97.5179Z" fill="white"/>
<path d="M38.3706 98.367C34.2178 98.3638 30.1285 97.3504 26.4576 95.4145C22.7867 93.4786 19.6451 90.6788 17.3054 87.2581C14.9658 83.8374 13.4987 79.8991 13.0316 75.785C12.5645 71.6709 13.1114 67.5054 14.6249 63.6498C16.3167 59.337 19.1568 55.5662 22.8392 52.7437C26.5216 49.9212 30.9067 48.154 35.522 47.6326C40.1373 47.1111 44.8078 47.8551 49.0303 49.7845C53.2528 51.7139 56.8672 54.7554 59.4841 58.5814C62.101 62.4074 63.6211 66.8728 63.8807 71.4965C64.1404 76.1202 63.1296 80.7268 60.9574 84.8201C58.7851 88.9134 55.5338 92.3382 51.5536 94.7253C47.5735 97.1125 43.0154 98.3716 38.3706 98.367ZM38.4294 49.1647C33.6283 49.1608 28.9377 50.6011 24.9707 53.2973C21.0038 55.9935 17.9449 59.8202 16.194 64.2772C14.3437 69.0023 14.0594 74.1939 15.3826 79.0918C16.7059 83.9897 19.5673 88.3366 23.5477 91.4958C27.5282 94.655 32.4186 96.4606 37.5028 96.6483C42.587 96.8359 47.5979 95.3957 51.8018 92.5385C56.0056 89.6814 59.1815 85.5574 60.8643 80.7704C62.5472 75.9835 62.6486 70.7851 61.1538 65.9365C59.659 61.0879 56.6464 56.8439 52.5572 53.8259C48.468 50.8078 43.5171 49.1744 38.4294 49.1647Z" fill="#99ADBF"/>
<path d="M24.2073 67.3934C23.0313 70.3893 22.9017 73.6928 23.8393 76.7712C24.7768 79.8496 26.7269 82.5235 29.3752 84.3616C32.0234 86.1998 35.2154 87.0952 38.4365 86.9034C41.6576 86.7116 44.7201 85.4438 47.13 83.3045C49.54 81.1651 51.1571 78.2788 51.7205 75.1111C52.2839 71.9433 51.7609 68.6787 50.2356 65.8436C48.7104 63.0085 46.2719 60.7682 43.3134 59.4839C40.3548 58.1995 37.0486 57.946 33.9279 58.7643C36.3486 63.7837 36.894 68.1296 34.9851 69.3886C33.0763 70.6476 29.3969 68.4851 25.7973 64.4153C25.1502 65.3412 24.6164 66.3411 24.2073 67.3934Z" fill="#99ADBF"/>
<path d="M75.6673 140.124C75.3335 140.154 75.0012 140.051 74.7436 139.838C74.4859 139.624 74.324 139.317 74.2934 138.984C74.2628 138.651 74.366 138.32 74.5804 138.063C74.7948 137.806 75.1028 137.645 75.4366 137.614C80.1713 136.745 84.8007 135.379 89.2477 133.54C92.604 132.143 94.3996 130.57 94.7017 128.722C94.9534 127.249 94.2444 125.639 93.5563 124.25C91.205 119.474 88.2559 115.015 84.7796 110.978C84.5571 110.722 84.4458 110.388 84.4702 110.05C84.4946 109.712 84.6527 109.397 84.9097 109.175C85.1667 108.953 85.5016 108.843 85.8407 108.867C86.1798 108.891 86.4954 109.049 86.7179 109.305C90.3354 113.502 93.403 118.14 95.847 123.108C96.7742 124.991 97.5797 127.019 97.2147 129.136C96.5812 132.833 92.9144 134.753 90.2084 135.874C85.6014 137.788 80.8048 139.213 75.8981 140.124C75.8213 140.13 75.7441 140.13 75.6673 140.124Z" fill="#D6DEE5"/>
<path d="M75.6673 140.96C75.135 140.963 74.6212 140.766 74.2272 140.409C73.8333 140.052 73.5878 139.561 73.5394 139.033C73.4909 138.504 73.6429 137.977 73.9654 137.555C74.2879 137.133 74.7574 136.846 75.2813 136.752C79.964 135.898 84.5428 134.552 88.9414 132.737C91.9704 131.482 93.6402 130.077 93.9003 128.554C94.1101 127.333 93.4598 125.869 92.8305 124.597C90.5113 119.886 87.6032 115.487 84.1755 111.505C83.9821 111.296 83.833 111.049 83.7371 110.781C83.6412 110.513 83.6004 110.228 83.6172 109.944C83.634 109.66 83.708 109.382 83.8348 109.127C83.9616 108.872 84.1386 108.645 84.3553 108.46C84.5719 108.274 84.8238 108.134 85.0959 108.048C85.3681 107.962 85.6548 107.931 85.9391 107.957C86.2234 107.984 86.4994 108.067 86.7507 108.203C87.0019 108.338 87.2234 108.522 87.4017 108.744C91.0587 112.998 94.16 117.696 96.6315 122.727C97.6216 124.735 98.4816 126.91 98.0747 129.274C97.3699 133.385 93.4598 135.452 90.5566 136.648C85.8886 138.58 81.0284 140.015 76.0575 140.927C75.9288 140.95 75.7981 140.962 75.6673 140.96ZM85.7655 109.694C85.6635 109.694 85.5651 109.731 85.4886 109.798C85.4461 109.834 85.4113 109.878 85.3861 109.928C85.3609 109.978 85.3458 110.032 85.3418 110.087C85.3348 110.199 85.3708 110.31 85.4425 110.397C88.967 114.485 91.9557 119.004 94.3366 123.844C95.0834 125.358 95.8511 127.115 95.5575 128.839C95.1841 130.993 93.229 132.779 89.5749 134.276C85.0745 136.155 80.3874 137.555 75.5918 138.451C75.5367 138.46 75.4841 138.481 75.437 138.511C75.3899 138.541 75.3492 138.581 75.3172 138.626C75.2527 138.719 75.2277 138.833 75.2478 138.944C75.2678 139.055 75.3312 139.154 75.424 139.218C75.5169 139.282 75.6315 139.307 75.7428 139.287C80.5965 138.397 85.3415 136.995 89.8979 135.104C92.4151 134.063 95.8302 132.294 96.3965 129.01C96.7154 127.132 95.977 125.246 95.1002 123.501C92.6874 118.597 89.6593 114.017 86.0885 109.874C86.0508 109.823 86.0021 109.782 85.9462 109.753C85.8902 109.724 85.8285 109.708 85.7655 109.706V109.694Z" fill="#99ADBF"/>
<path d="M34.8213 135.602C34.1761 135.604 33.5324 135.541 32.8999 135.414C23.561 133.519 21.0732 120.44 20.4229 112.827C20.394 112.491 20.5001 112.157 20.7181 111.899C20.936 111.641 21.2479 111.48 21.585 111.451C21.9221 111.422 22.257 111.528 22.5158 111.745C22.7747 111.962 22.9363 112.273 22.9653 112.609C23.4435 118.181 25.4112 131.315 33.4075 132.938C35.9205 133.431 38.5972 132.457 41.1144 131.34C47.5998 128.419 53.6133 124.552 58.9572 119.866C59.0831 119.757 59.2295 119.673 59.3879 119.619C59.5464 119.566 59.7139 119.544 59.8808 119.555C60.0477 119.566 60.2109 119.61 60.3608 119.684C60.5108 119.758 60.6447 119.86 60.7549 119.986C60.8651 120.111 60.9494 120.257 61.003 120.415C61.0567 120.573 61.0785 120.74 61.0674 120.907C61.0563 121.073 61.0125 121.236 60.9383 121.385C60.8642 121.535 60.7612 121.668 60.6353 121.778C55.1011 126.631 48.8726 130.635 42.1548 133.657C39.9355 134.644 37.3973 135.602 34.8213 135.602Z" fill="#D6DEE5"/>
<path d="M34.8215 136.451C34.1172 136.452 33.4145 136.384 32.7238 136.246C22.8396 134.239 20.2384 120.745 19.5672 112.881C19.5195 112.321 19.6969 111.765 20.0604 111.335C20.4238 110.905 20.9436 110.637 21.5054 110.589C22.0654 110.547 22.6196 110.725 23.0493 111.086C23.4791 111.446 23.7501 111.96 23.8045 112.517C24.2618 117.901 26.1329 130.574 33.5671 132.084C35.8493 132.549 38.3708 131.62 40.7495 130.549C47.1549 127.664 53.0935 123.844 58.37 119.214C58.579 119.026 58.8233 118.881 59.089 118.787C59.3546 118.694 59.6362 118.654 59.9174 118.67C60.1986 118.686 60.4738 118.758 60.7271 118.88C60.9804 119.003 61.2066 119.175 61.3927 119.386C61.5789 119.597 61.7211 119.842 61.8113 120.108C61.9015 120.374 61.9378 120.655 61.9181 120.936C61.8984 121.216 61.8231 121.489 61.6965 121.74C61.57 121.991 61.3947 122.214 61.1809 122.397C55.5839 127.306 49.2846 131.356 42.4906 134.414C40.2754 135.422 37.6114 136.451 34.8215 136.451ZM21.69 112.279H21.6565C21.6013 112.284 21.5477 112.3 21.4987 112.326C21.4498 112.352 21.4064 112.387 21.3712 112.429C21.3345 112.472 21.3067 112.521 21.2894 112.574C21.2721 112.627 21.2657 112.683 21.2705 112.739C21.904 120.13 24.2744 132.816 33.072 134.582C33.6477 134.699 34.234 134.756 34.8215 134.753C37.3009 134.753 39.7468 133.804 41.8151 132.871C48.4548 129.883 54.6111 125.926 60.0817 121.13C60.1249 121.093 60.1602 121.049 60.1855 120.998C60.2109 120.948 60.2258 120.893 60.2293 120.837C60.2329 120.78 60.2249 120.724 60.2061 120.671C60.1872 120.618 60.1577 120.569 60.1195 120.527C60.083 120.485 60.0383 120.45 59.9882 120.425C59.938 120.4 59.8834 120.386 59.8275 120.382C59.7715 120.379 59.7155 120.387 59.6626 120.405C59.6097 120.423 59.5611 120.452 59.5195 120.49C54.1172 125.231 48.0373 129.144 41.4795 132.101C38.8406 133.289 36.0256 134.314 33.2566 133.753C24.6939 132.013 22.6298 118.428 22.1347 112.668C22.1311 112.612 22.1162 112.558 22.0911 112.508C22.0659 112.458 22.031 112.413 21.9884 112.377C21.9458 112.341 21.8963 112.314 21.8429 112.297C21.7895 112.28 21.7332 112.274 21.6774 112.279H21.69Z" fill="#99ADBF"/>
<path d="M57.4764 114.191C61.2187 111.773 65.8671 112.308 67.8641 115.378C69.8611 118.449 68.4473 122.907 64.705 125.317C60.9628 127.726 56.3143 127.203 54.3173 124.129C52.3203 121.055 53.7006 116.617 57.4764 114.191Z" fill="#D6DEE5"/>
<path d="M59.7334 127.688C57.2162 127.688 54.892 126.626 53.5747 124.606C51.3301 121.142 52.8572 116.161 56.9897 113.492C61.1221 110.823 66.3034 111.472 68.5521 114.935C70.8008 118.394 69.2695 123.38 65.1412 126.045C63.5348 127.1 61.6571 127.671 59.7334 127.688ZM62.4101 113.538C60.8091 113.558 59.2477 114.037 57.9126 114.918C54.5564 117.072 53.2642 121.004 55.0053 123.681C56.7463 126.358 60.8788 126.777 64.2141 124.622C67.5494 122.468 68.8625 118.532 67.1256 115.838C66.1355 114.333 64.3651 113.538 62.4101 113.538Z" fill="#99ADBF"/>
<path d="M72.1864 144.876C76.6403 144.688 80.1365 141.834 79.9952 138.502C79.8539 135.169 76.1288 132.619 71.6748 132.807C67.2208 132.995 63.7246 135.848 63.8659 139.181C64.0072 142.514 67.7324 145.064 72.1864 144.876Z" fill="#D6DEE5"/>
<path d="M71.7405 145.741C67.0417 145.741 63.1778 142.893 63.0226 139.225C62.8632 135.431 66.7313 132.172 71.6482 131.967C73.8715 131.839 76.0775 132.425 77.9413 133.641C79.7369 134.874 80.7731 136.589 80.8528 138.476C80.9325 140.362 80.0473 142.157 78.3608 143.533C76.6071 144.903 74.4583 145.674 72.2314 145.733C72.051 145.741 71.8874 145.741 71.7405 145.741ZM72.1601 133.653H71.7405C67.7633 133.82 64.6084 136.284 64.7469 139.145C64.8853 142.006 68.1954 144.185 72.1768 144.031C74.0249 143.981 75.809 143.345 77.27 142.215C78.5286 141.182 79.1957 139.877 79.1369 138.539C79.0824 137.2 78.2979 135.954 76.9637 135.033C75.5295 134.101 73.847 133.62 72.1349 133.653H72.1601Z" fill="#99ADBF"/>
</g>
<defs>
<clipPath id="clip0_244_705">
<rect width="117" height="188" fill="white"/>
</clipPath>
</defs>
</svg>
