<svg width="84" height="73" viewBox="0 0 84 73" fill="none" xmlns="http://www.w3.org/2000/svg">
<path fill-rule="evenodd" clip-rule="evenodd" d="M51.3759 6.66491L51.3758 19.4052C51.3751 19.8686 51.3741 20.5293 51.4628 21.0964C51.5712 21.7898 51.9278 23.1285 53.3139 23.9423C54.6488 24.7261 55.9544 24.435 56.575 24.2421C57.116 24.0739 57.7093 23.7913 58.1516 23.5806L62.8342 21.3562L67.5168 23.5806C67.9592 23.7913 68.5524 24.0739 69.0935 24.2421C69.7141 24.435 71.0197 24.7261 72.3546 23.9423C73.7407 23.1285 74.0973 21.7898 74.2057 21.0964C74.2943 20.5293 74.2934 19.8687 74.2927 19.4053L74.2926 0.630597C74.7625 0.608501 75.2241 0.589817 75.6751 0.574108C80.1409 0.418549 83.6668 4.0866 83.6668 8.55514V55.2651C83.6668 59.8942 79.8916 63.6396 75.2716 63.9286C71.2323 64.1812 66.4865 64.6752 62.8335 65.6392C58.3274 66.8282 52.9463 69.4021 48.7818 71.622C47.6191 72.2418 46.3879 72.6908 45.1259 72.969V9.55794C46.4624 9.2306 47.7602 8.71439 48.9745 8.01163C49.7424 7.56724 50.5475 7.11398 51.3759 6.66491ZM74.1993 41.4089C74.6179 43.0833 73.5999 44.7799 71.9255 45.1985L55.2588 49.3652C53.5845 49.7838 51.8878 48.7658 51.4692 47.0914C51.0506 45.4171 52.0686 43.7204 53.743 43.3018L70.4097 39.1351C72.084 38.7165 73.7807 39.7346 74.1993 41.4089Z" fill="url(#paint0_linear_1877_7348)"/>
<path fill-rule="evenodd" clip-rule="evenodd" d="M38.8759 9.72503C37.4832 9.46051 36.1225 8.9912 34.8429 8.31457C30.734 6.14187 25.5385 3.68479 21.1668 2.53118C17.473 1.55646 12.6617 1.06223 8.59351 0.812198C4.02641 0.531504 0.333496 4.24863 0.333496 8.82434V55.2651C0.333496 59.8942 4.10869 63.6396 8.72874 63.9286C12.768 64.1812 17.5139 64.6752 21.1668 65.6392C25.6729 66.8282 31.0541 69.4021 35.2186 71.622C36.3817 72.242 37.6134 72.6911 38.8759 72.9694V9.72503ZM9.80254 24.7422C10.2211 23.0679 11.9178 22.0499 13.5922 22.4685L30.2588 26.6351C31.9332 27.0537 32.9512 28.7504 32.5326 30.4248C32.114 32.0991 30.4173 33.1171 28.743 32.6985L12.0763 28.5319C10.402 28.1133 9.38395 26.4166 9.80254 24.7422ZM13.5922 39.1351C11.9178 38.7165 10.2211 39.7346 9.80254 41.4089C9.38395 43.0833 10.402 44.7799 12.0763 45.1985L28.743 49.3652C30.4173 49.7838 32.114 48.7658 32.5326 47.0914C32.9512 45.4171 31.9332 43.7204 30.2588 43.3018L13.5922 39.1351Z" fill="url(#paint1_linear_1877_7348)"/>
<path d="M68.0426 1.12936C65.459 1.4348 62.9194 1.88178 60.7502 2.53118C59.7438 2.83246 58.6934 3.21437 57.6259 3.65182V4.45859V16.911L60.7481 15.4279L60.7848 15.4094C60.9889 15.305 61.8494 14.865 62.8342 14.865C63.0323 14.865 63.2254 14.8828 63.409 14.9121C64.1386 15.0284 64.7206 15.326 64.8837 15.4094L64.9204 15.4279L68.0426 16.911V3.19454V1.12936Z" fill="url(#paint2_linear_1877_7348)"/>
<defs>
<linearGradient id="paint0_linear_1877_7348" x1="64.9668" y1="26.202" x2="29.1219" y2="67.4599" gradientUnits="userSpaceOnUse">
<stop stop-color="#1299DB"/>
<stop offset="1" stop-color="#056696"/>
</linearGradient>
<linearGradient id="paint1_linear_1877_7348" x1="64.9668" y1="26.202" x2="29.1219" y2="67.4599" gradientUnits="userSpaceOnUse">
<stop stop-color="#1299DB"/>
<stop offset="1" stop-color="#056696"/>
</linearGradient>
<linearGradient id="paint2_linear_1877_7348" x1="64.9668" y1="26.202" x2="29.1219" y2="67.4599" gradientUnits="userSpaceOnUse">
<stop stop-color="#1299DB"/>
<stop offset="1" stop-color="#056696"/>
</linearGradient>
</defs>
</svg>
