<svg width="151" height="188" viewBox="0 0 151 188" fill="none" xmlns="http://www.w3.org/2000/svg">
<g clip-path="url(#clip0_244_500)">
<path d="M43.3473 114.763C43.1889 114.762 43.032 114.733 42.8843 114.676C24.7044 107.59 11.2634 89.7633 9.43209 70.3485C9.41648 70.1826 9.43371 70.0153 9.48281 69.8561C9.53191 69.6969 9.61191 69.549 9.71824 69.4207C9.82457 69.2923 9.95516 69.1862 10.1025 69.1083C10.2499 69.0305 10.4112 68.9824 10.5772 68.9668C10.7432 68.9512 10.9106 68.9684 11.07 69.0174C11.2293 69.0665 11.3774 69.1464 11.5058 69.2527C11.6342 69.3589 11.7404 69.4894 11.8184 69.6366C11.8963 69.7839 11.9445 69.945 11.9601 70.1109C13.6997 88.5962 26.5023 105.539 43.8104 112.312C44.1158 112.394 44.3792 112.587 44.5476 112.854C44.716 113.122 44.7771 113.442 44.7185 113.753C44.6598 114.063 44.4859 114.34 44.2316 114.527C43.9772 114.715 43.6613 114.799 43.3473 114.763Z" fill="#D6DEE5"/>
<path d="M43.3473 115.609C43.0832 115.609 42.8215 115.559 42.5755 115.463C24.1078 108.253 10.4541 90.155 8.58938 70.4485C8.5383 69.8904 8.71072 69.3349 9.06885 68.9036C9.42698 68.4724 9.94162 68.2005 10.5 68.1477C10.7751 68.1185 11.0533 68.1452 11.3178 68.2261C11.5823 68.3071 11.8277 68.4406 12.0393 68.6187C12.2528 68.7911 12.4301 69.0039 12.5611 69.245C12.6921 69.486 12.7742 69.7505 12.8027 70.0233C14.5131 88.196 27.0988 104.872 44.119 111.516C44.378 111.616 44.6143 111.767 44.8141 111.96C45.014 112.152 45.1734 112.383 45.2829 112.637C45.3961 112.891 45.4573 113.165 45.463 113.443C45.4688 113.72 45.4189 113.997 45.3163 114.255C45.1666 114.655 44.8975 115 44.5453 115.242C44.1931 115.484 43.7749 115.612 43.3473 115.609ZM10.7044 69.8066H10.6627C10.6061 69.8111 10.551 69.8271 10.5007 69.8536C10.4505 69.8801 10.4063 69.9166 10.3707 69.9608C10.3349 70.0033 10.308 70.0524 10.2916 70.1054C10.2751 70.1583 10.2694 70.214 10.2747 70.2692C12.0727 89.3756 25.2925 106.902 43.1929 113.888C43.271 113.922 43.3575 113.931 43.4409 113.914C43.5243 113.898 43.6007 113.856 43.6597 113.795C43.7187 113.734 43.7576 113.656 43.7711 113.572C43.7846 113.488 43.7721 113.402 43.7352 113.325C43.7133 113.274 43.6814 113.228 43.6412 113.189C43.6011 113.15 43.5536 113.12 43.5016 113.1C25.9016 106.231 12.8861 88.9838 11.1174 70.1692C11.1123 70.1134 11.0961 70.0591 11.0695 70.0097C11.043 69.9603 11.0068 69.9167 10.963 69.8816C10.8875 69.8287 10.7965 69.8023 10.7044 69.8066Z" fill="#99ADBF"/>
<path d="M134.247 141.38C132.42 144.206 127.689 145.686 122.566 146.436C114.361 147.645 105.125 146.986 105.125 146.986L102.726 88.071L105.121 86.4412C105.171 86.4412 105.262 86.4037 105.388 86.3787C105.721 86.2954 106.051 86.2287 106.372 86.162C106.597 86.1078 106.827 86.0661 107.056 86.0328L107.173 86.0078C107.807 85.8994 108.424 85.8119 108.992 85.7535C118.758 84.7323 122.404 90.4551 124.527 95.8402C126.905 101.884 139.002 134.045 134.247 141.38Z" fill="#EBEFF2"/>
<path d="M111.194 148.008C107.632 148.008 105.108 147.833 105.058 147.828C104.85 147.816 104.654 147.726 104.509 147.576C104.363 147.427 104.28 147.228 104.274 147.02L101.879 88.1044C101.872 87.9609 101.902 87.8179 101.966 87.6894C102.031 87.5609 102.127 87.4511 102.246 87.3708L104.641 85.7411C104.744 85.6714 104.86 85.6246 104.983 85.6036L105.221 85.5536C105.496 85.4785 105.813 85.4119 106.126 85.3493C106.439 85.2868 106.685 85.2326 106.931 85.1993L107.031 85.1743C107.699 85.0617 108.316 84.9742 108.908 84.9159C119.308 83.828 123.138 90.0134 125.311 95.5277C127.814 101.888 140.037 134.007 134.956 141.843C133.233 144.507 129.116 146.332 122.687 147.262C118.879 147.781 115.038 148.03 111.194 148.008ZM105.934 146.186C108.291 146.311 115.758 146.603 122.441 145.603C128.281 144.744 132.111 143.127 133.538 140.922C137.384 134.987 128.811 109.041 123.739 96.1488C121.653 90.8845 118.29 85.6286 109.084 86.5956C108.525 86.6539 107.949 86.7331 107.319 86.8415L107.181 86.8707C106.973 86.8999 106.764 86.9374 106.556 86.9874H106.472C106.184 87.0457 105.892 87.1083 105.6 87.1833L105.458 87.2125L103.59 88.4879L105.934 146.186Z" fill="#99ADBF"/>
<path d="M122.562 146.436C114.357 147.645 105.121 146.987 105.121 146.987L102.726 88.0711L105.121 86.4414C105.171 86.4414 105.262 86.4039 105.388 86.3789C105.763 86.2955 106.405 86.1705 107.056 86.0329L107.173 86.0079C107.807 85.8995 108.424 85.812 108.992 85.7537C110.627 98.933 114.231 144.477 122.149 146.328C122.291 146.361 122.429 146.395 122.562 146.436Z" fill="#D6DEE5"/>
<path d="M111.19 148.008C107.632 148.008 105.108 147.833 105.058 147.828C104.85 147.816 104.654 147.726 104.509 147.576C104.363 147.427 104.28 147.228 104.274 147.02L101.879 88.1044C101.872 87.9608 101.902 87.8179 101.966 87.6893C102.031 87.5608 102.127 87.4511 102.246 87.3708L104.641 85.7411C104.744 85.6714 104.86 85.6245 104.983 85.6035L105.221 85.5535C105.45 85.4993 105.817 85.4243 106.226 85.3409L106.885 85.2076L107.031 85.1742C107.699 85.0575 108.316 84.9741 108.908 84.9116C109.018 84.8989 109.129 84.9079 109.234 84.9381C109.34 84.9684 109.439 85.0192 109.525 85.0878C109.611 85.1564 109.683 85.2413 109.736 85.3377C109.789 85.4341 109.823 85.54 109.835 85.6494C110.068 87.5458 110.343 90.1217 110.669 93.1018C112.308 108.349 116.146 144.056 122.349 145.503C122.516 145.544 122.671 145.582 122.825 145.632C123.019 145.678 123.189 145.791 123.306 145.952C123.424 146.113 123.479 146.31 123.464 146.508C123.448 146.706 123.362 146.893 123.221 147.033C123.08 147.173 122.894 147.259 122.696 147.274C118.883 147.789 115.038 148.035 111.19 148.008ZM105.934 146.186C110.618 146.43 115.313 146.336 119.984 145.907C114.461 140.072 111.42 115.947 108.984 93.2811C108.708 90.7261 108.466 88.4711 108.253 86.6955C107.953 86.7372 107.644 86.7872 107.319 86.8414L107.056 86.0328L107.227 86.8664L106.564 87.004C106.168 87.0832 105.817 87.154 105.575 87.2082L105.458 87.2332L103.59 88.5087L105.934 146.186Z" fill="#99ADBF"/>
<path d="M111.403 142.693L78.7892 187.146L46.1838 142.702C46.1838 139.751 48.8578 137.208 52.7082 136.058C54.2074 135.616 55.7631 135.394 57.3262 135.399C62.4281 135.399 66.7249 137.638 68.0515 140.705C69.3822 137.638 73.679 135.399 78.7809 135.399C83.8827 135.399 88.1795 137.638 89.5061 140.705C90.8368 137.638 95.1336 135.399 100.235 135.399C105.058 135.399 109.175 137.412 110.735 140.218C111.163 140.974 111.392 141.825 111.403 142.693Z" fill="#D6DEE5"/>
<path d="M75.8607 177.797L72.7821 178.964L46.1838 142.702C46.1838 139.751 48.8578 137.208 52.7082 136.058L75.8607 177.797Z" fill="#EBEFF2"/>
<path d="M78.7894 188C78.656 188.001 78.5242 187.971 78.4052 187.91C78.2861 187.85 78.1833 187.762 78.1052 187.654L45.5082 143.214C45.3939 143.065 45.331 142.882 45.3289 142.693C45.3289 139.459 48.128 136.533 52.454 135.241L52.5416 135.22C54.0983 134.765 55.7128 134.537 57.3348 134.545C61.9819 134.545 66.066 136.291 68.06 139.017C70.054 136.291 74.1422 134.545 78.7894 134.545C83.4366 134.545 87.5206 136.291 89.5146 139.017C91.5086 136.291 95.5968 134.545 100.244 134.545C105.221 134.545 109.739 136.654 111.482 139.797C111.983 140.688 112.246 141.692 112.246 142.714C112.247 142.894 112.19 143.07 112.083 143.214L79.4694 187.654C79.3917 187.762 79.2895 187.849 79.1713 187.909C79.053 187.97 78.9221 188.001 78.7894 188ZM47.0309 142.427L78.7894 185.724L110.548 142.431C110.501 141.792 110.314 141.172 110.001 140.614C108.55 137.996 104.624 136.237 100.244 136.237C95.6093 136.237 91.517 138.209 90.2905 141.035C90.2261 141.187 90.118 141.316 89.9799 141.406C89.8417 141.497 89.6798 141.545 89.5146 141.543C89.3494 141.545 89.1875 141.497 89.0494 141.406C88.9112 141.316 88.8031 141.187 88.7387 141.035C87.5164 138.209 83.4241 136.237 78.7894 136.237C74.1547 136.237 70.0832 138.209 68.8317 141.035C68.7673 141.187 68.6592 141.316 68.5211 141.406C68.3829 141.497 68.221 141.545 68.0558 141.543C67.8906 141.545 67.7287 141.497 67.5906 141.406C67.4524 141.316 67.3443 141.187 67.2799 141.035C66.0576 138.209 61.9653 136.237 57.3306 136.237C55.8578 136.232 54.3921 136.441 52.9796 136.858H52.892C49.4462 137.925 47.1894 140.076 47.0309 142.427Z" fill="#99ADBF"/>
<path d="M47.1602 23.9206C50.9146 15.0468 55.7453 2.21752 62.178 1.14216C68.6106 0.0668018 95.7678 1.93826 101.07 4.66833C108.579 8.53212 110.865 29.2307 110.865 29.2307L47.1602 23.9206Z" fill="#D6DEE5"/>
<path d="M105.125 8.98643C98.8672 6.37723 73.0032 4.63499 66.7458 5.68117C61.2309 6.60231 56.8882 16.1388 53.3966 24.4374L47.1392 23.9247C50.8936 15.0468 55.7285 2.21752 62.157 1.14216C68.5854 0.0668019 95.751 1.93826 101.057 4.66833C102.647 5.4811 103.99 7.03578 105.125 8.98643Z" fill="#EBEFF2"/>
<path d="M110.865 30.0767H110.794L47.0891 24.7624C46.9543 24.7512 46.8243 24.7074 46.7102 24.6348C46.5961 24.5621 46.5013 24.4629 46.4342 24.3456C46.3661 24.2308 46.3258 24.1017 46.3163 23.9685C46.3069 23.8354 46.3287 23.7019 46.3799 23.5787C46.672 22.8868 46.9723 22.1699 47.2768 21.4363C51.0063 12.5041 55.6493 1.37962 62.036 0.308427C68.4228 -0.762763 95.9471 1.07535 101.458 3.91796C109.271 7.9443 111.607 28.2719 111.703 29.1388C111.718 29.2567 111.708 29.3764 111.672 29.4899C111.637 29.6034 111.578 29.7081 111.499 29.7969C111.42 29.8857 111.323 29.9566 111.214 30.0049C111.106 30.0531 110.988 30.0776 110.869 30.0767H110.865ZM48.3907 23.1744L109.889 28.3011C109.296 24.1372 106.793 8.56117 100.682 5.41846C95.5299 2.75924 68.4144 0.954475 62.3155 1.97565C56.8507 2.89262 52.2202 13.9921 48.8412 22.099C48.6882 22.463 48.5381 22.8215 48.3907 23.1744Z" fill="#99ADBF"/>
<path d="M110.744 140.209C109.184 137.404 105.066 135.391 100.244 135.391C95.142 135.391 90.8452 137.629 89.5145 140.697C88.1879 137.629 83.8911 135.391 78.7892 135.391C73.6874 135.391 69.3906 137.629 68.0598 140.697C66.7333 137.629 62.4365 135.391 57.3346 135.391C51.1648 135.391 46.1755 138.663 46.1755 142.693H45.9962C38.6481 106.663 38.6481 69.5213 45.9962 33.4905H111.232C104.049 68.6854 103.883 104.95 110.744 140.209Z" fill="#D6DEE5"/>
<path d="M53.985 33.4819C47.0912 67.2856 46.6666 102.088 52.7335 136.049C48.8747 137.191 46.1924 139.742 46.1924 142.693H46.013C38.6649 106.662 38.6649 69.5211 46.013 33.4903L53.985 33.4819Z" fill="#EBEFF2"/>
<path d="M68.0598 141.543C67.864 141.547 67.6731 141.482 67.5206 141.359C67.3681 141.236 67.2636 141.064 67.2255 140.872C60.1337 107.061 59.9251 69.5482 66.6706 35.2451C66.7138 35.024 66.8431 34.8291 67.03 34.7033C67.217 34.5774 67.4464 34.5309 67.6677 34.5741C67.8889 34.6172 68.084 34.7463 68.2099 34.9332C68.3359 35.12 68.3824 35.3491 68.3393 35.5702C61.6397 69.6607 61.8357 106.931 68.8899 140.526C68.9143 140.635 68.9166 140.747 68.8967 140.857C68.8767 140.967 68.835 141.071 68.7739 141.164C68.7129 141.258 68.6337 141.338 68.5412 141.4C68.4486 141.462 68.3445 141.505 68.235 141.526C68.1773 141.538 68.1186 141.544 68.0598 141.543Z" fill="#99ADBF"/>
<path d="M89.5144 141.543C89.3204 141.547 89.131 141.484 88.9787 141.364C88.8264 141.243 88.7208 141.074 88.6801 140.884C81.2463 108.019 81.1212 70.1233 88.3381 34.1822C88.36 34.0727 88.4032 33.9686 88.4654 33.8759C88.5276 33.7831 88.6074 33.7035 88.7004 33.6416C88.7934 33.5796 88.8976 33.5366 89.0073 33.5149C89.1169 33.4933 89.2297 33.4934 89.3392 33.5153C89.4488 33.5372 89.553 33.5804 89.6458 33.6425C89.7387 33.7047 89.8183 33.7844 89.8803 33.8773C89.9423 33.9702 89.9854 34.0744 90.007 34.1839C90.0287 34.2934 90.0286 34.4061 90.0067 34.5156C82.8399 70.2358 82.9567 107.873 90.3446 140.522C90.3704 140.63 90.3743 140.742 90.356 140.852C90.3377 140.961 90.2977 141.066 90.2382 141.16C90.1787 141.254 90.101 141.336 90.0097 141.399C89.9184 141.463 89.8152 141.507 89.7063 141.53C89.6432 141.543 89.5787 141.547 89.5144 141.543Z" fill="#99ADBF"/>
<path d="M46.1839 143.548H46.0046C45.8082 143.551 45.6169 143.486 45.4643 143.362C45.3116 143.239 45.2075 143.065 45.1702 142.873C37.7531 106.729 37.7531 69.4585 45.1702 33.3153C45.2075 33.1227 45.3116 32.9493 45.4643 32.8258C45.6169 32.7023 45.8082 32.6366 46.0046 32.6401H111.232C111.358 32.6372 111.484 32.663 111.599 32.7156C111.714 32.7682 111.815 32.8462 111.896 32.9438C111.976 33.0413 112.033 33.1559 112.063 33.2787C112.092 33.4016 112.094 33.5296 112.066 33.653C104.866 68.7365 104.699 104.898 111.574 140.047C111.65 140.255 111.64 140.485 111.546 140.686C111.452 140.887 111.282 141.042 111.073 141.118C110.865 141.194 110.635 141.183 110.434 141.09C110.233 140.996 110.077 140.826 110.001 140.618C108.545 137.996 104.624 136.237 100.244 136.237C95.6093 136.237 91.5169 138.209 90.2904 141.034C90.226 141.186 90.1179 141.316 89.9798 141.406C89.8416 141.497 89.6797 141.545 89.5145 141.543C89.3493 141.545 89.1874 141.497 89.0493 141.406C88.9112 141.316 88.803 141.186 88.7386 141.034C87.5163 138.209 83.424 136.237 78.7893 136.237C74.1546 136.237 70.0831 138.209 68.8316 141.034C68.7672 141.186 68.6591 141.316 68.521 141.406C68.3828 141.497 68.2209 141.545 68.0557 141.543C67.8905 141.545 67.7286 141.497 67.5905 141.406C67.4524 141.316 67.3442 141.186 67.2798 141.034C66.0575 138.209 61.9652 136.237 57.3305 136.237C51.6738 136.237 47.0683 139.101 47.0141 142.631C47.0258 142.747 47.0129 142.865 46.9762 142.976C46.9396 143.086 46.88 143.189 46.8013 143.275C46.7226 143.361 46.6266 143.43 46.5196 143.477C46.4125 143.524 46.2967 143.548 46.1798 143.548H46.1839ZM46.6971 34.3449C39.6652 69.0581 39.5121 104.812 46.2465 139.584C48.057 136.637 52.3454 134.562 57.3347 134.562C61.9819 134.562 66.0659 136.312 68.0599 139.034C70.0581 136.308 74.1421 134.562 78.7893 134.562C83.4365 134.562 87.5205 136.312 89.5145 139.034C91.5086 136.308 95.5967 134.562 100.244 134.562C103.79 134.562 107.102 135.633 109.346 137.387C103.066 103.299 103.35 68.3271 110.181 34.3449H46.6971Z" fill="#99ADBF"/>
<path d="M48.8162 82.1231C57.5642 82.1231 64.6558 75.0376 64.6558 66.297C64.6558 57.5565 57.5642 50.4709 48.8162 50.4709C40.0682 50.4709 32.9766 57.5565 32.9766 66.297C32.9766 75.0376 40.0682 82.1231 48.8162 82.1231Z" fill="white"/>
<path d="M48.8078 82.9694C45.5075 82.9694 42.2814 81.9916 39.5373 80.1597C36.7932 78.3277 34.6545 75.7238 33.3915 72.6774C32.1286 69.6309 31.7981 66.2787 32.442 63.0446C33.0858 59.8105 34.6751 56.8398 37.0087 54.5082C39.3423 52.1765 42.3156 50.5887 45.5524 49.9454C48.7893 49.3021 52.1444 49.6322 55.1934 50.8941C58.2425 52.156 60.8486 54.2929 62.6821 57.0346C64.5156 59.7764 65.4943 62.9998 65.4943 66.2972C65.4943 68.4866 65.0627 70.6546 64.2241 72.6774C63.3855 74.7002 62.1564 76.5381 60.6069 78.0862C59.0574 79.6344 57.2179 80.8625 55.1934 81.7003C53.169 82.5382 50.9991 82.9694 48.8078 82.9694ZM48.8078 51.3172C45.8436 51.3222 42.9474 52.2049 40.4851 53.854C38.0228 55.503 36.1051 57.8443 34.9741 60.5819C33.8432 63.3196 33.5499 66.3308 34.1312 69.235C34.7125 72.1391 36.1424 74.806 38.2402 76.8985C40.338 78.991 43.0095 80.4152 45.9171 80.9912C48.8247 81.5671 51.838 81.269 54.5761 80.1345C57.3142 79 59.6543 77.0799 61.3006 74.617C62.9469 72.1541 63.8256 69.2589 63.8256 66.2972C63.819 62.322 62.2338 58.5118 59.4182 55.7032C56.6025 52.8947 52.7865 51.3172 48.8078 51.3172Z" fill="#99ADBF"/>
<path d="M61.7732 66.2971C61.7735 68.3658 61.0764 70.3743 59.7944 71.9988C58.5124 73.6233 56.7203 74.7691 54.7068 75.2515C52.6934 75.7339 50.5761 75.5247 48.6962 74.6577C46.8163 73.7907 45.2834 72.3164 44.3446 70.4726C43.4059 68.6287 43.116 66.5227 43.5216 64.494C43.9273 62.4654 45.005 60.6324 46.5808 59.2905C48.1567 57.9486 50.1389 57.1761 52.2079 57.0975C54.2769 57.0188 56.3121 57.6387 57.9854 58.8571C55.3656 61.2912 54.0182 63.7795 54.865 64.9799C55.7119 66.1803 58.4193 65.7385 61.5396 64.1463C61.7041 64.8512 61.7825 65.5734 61.7732 66.2971Z" fill="#99ADBF"/>
<path d="M96.7063 82.1231C105.454 82.1231 112.546 75.0376 112.546 66.297C112.546 57.5565 105.454 50.4709 96.7063 50.4709C87.9583 50.4709 80.8667 57.5565 80.8667 66.297C80.8667 75.0376 87.9583 82.1231 96.7063 82.1231Z" fill="white"/>
<path d="M96.7065 82.9694C93.4062 82.9694 90.1801 81.9916 87.436 80.1597C84.6919 78.3277 82.5532 75.7238 81.2902 72.6774C80.0272 69.6309 79.6968 66.2787 80.3407 63.0446C80.9845 59.8105 82.5737 56.8398 84.9074 54.5082C87.241 52.1765 90.2143 50.5887 93.4511 49.9454C96.688 49.3021 100.043 49.6322 103.092 50.8941C106.141 52.156 108.747 54.2929 110.581 57.0346C112.414 59.7764 113.393 62.9998 113.393 66.2972C113.393 68.4866 112.961 70.6546 112.123 72.6774C111.284 74.7002 110.055 76.5381 108.506 78.0862C106.956 79.6344 105.117 80.8625 103.092 81.7003C101.068 82.5382 98.8978 82.9694 96.7065 82.9694ZM96.7065 51.3172C93.7414 51.3181 90.8431 52.1973 88.3781 53.8438C85.9131 55.4904 83.9921 57.8302 82.8579 60.5675C81.7238 63.3048 81.4275 66.3167 82.0065 69.2222C82.5854 72.1278 84.0137 74.7966 86.1106 76.8911C88.2076 78.9857 90.879 80.412 93.7872 80.9897C96.6954 81.5673 99.7098 81.2704 102.449 80.1365C105.188 79.0026 107.53 77.0826 109.177 74.6192C110.824 72.1559 111.703 69.2598 111.703 66.2972C111.697 62.3256 110.115 58.5186 107.303 55.7106C104.492 52.9026 100.682 51.3227 96.7065 51.3172Z" fill="#99ADBF"/>
<path d="M102.747 66.2971C102.746 68.3636 102.049 70.3697 100.768 71.992C99.4866 73.6143 97.6961 74.7583 95.6847 75.2397C93.6734 75.7211 91.5584 75.5118 89.6806 74.6455C87.8028 73.7792 86.2717 72.3065 85.3339 70.4646C84.3962 68.6227 84.1065 66.519 84.5115 64.4925C84.9165 62.466 85.9927 60.6348 87.5665 59.294C89.1403 57.9533 91.1202 57.181 93.1869 57.1017C95.2536 57.0225 97.2869 57.6408 98.959 58.8571C96.335 61.2913 94.9917 63.7796 95.8344 64.98C96.6771 66.1804 99.3886 65.7386 102.509 64.1464C102.675 64.8511 102.755 65.5732 102.747 66.2971Z" fill="#99ADBF"/>
<path d="M60.964 41.7598C64.4056 40.4135 67.6803 40.5511 68.2726 42.0683C68.865 43.5854 66.5581 45.9029 63.1165 47.2533C59.6749 48.6038 56.3961 48.462 55.8037 46.9449C55.2113 45.4277 57.5182 43.1061 60.964 41.7598Z" fill="#99ADBF"/>
<path d="M91.8424 46.7698C91.4252 48.3454 88.1922 48.8539 84.6172 47.9286C81.0421 47.0032 78.4724 44.9567 78.8854 43.3812C79.2984 41.8057 82.5355 41.2972 86.1106 42.2225C89.6857 43.1478 92.2554 45.1943 91.8424 46.7698Z" fill="#99ADBF"/>
<path d="M88.021 174.562L78.7934 187.146L69.5532 174.554C70.6952 173.222 72.1122 172.153 73.7068 171.42C75.3014 170.687 77.036 170.307 78.7913 170.307C80.5466 170.307 82.2811 170.687 83.8757 171.42C85.4704 172.153 86.8873 173.222 88.0293 174.554L88.021 174.562Z" fill="#D6DEE5"/>
<path d="M78.7934 188C78.6599 188.001 78.5282 187.971 78.4092 187.91C78.2901 187.85 78.1873 187.762 78.1092 187.654L68.8733 175.058C68.7563 174.903 68.6973 174.712 68.7065 174.518C68.7156 174.324 68.7923 174.139 68.9233 173.995C70.146 172.576 71.6607 171.438 73.3641 170.657C75.0675 169.877 76.9194 169.473 78.7934 169.473C80.6673 169.473 82.5193 169.877 84.2226 170.657C85.926 171.438 87.4408 172.576 88.6634 173.995C88.7944 174.139 88.8711 174.324 88.8802 174.518C88.8894 174.712 88.8304 174.903 88.7135 175.058L79.4775 187.654C79.3995 187.762 79.2966 187.85 79.1776 187.91C79.0585 187.971 78.9268 188.001 78.7934 188ZM70.6545 174.641L78.7934 185.737L86.9322 174.641C85.8808 173.545 84.618 172.672 83.22 172.075C81.822 171.479 80.3176 171.172 78.7975 171.172C77.2774 171.172 75.7731 171.479 74.375 172.075C72.977 172.672 71.7143 173.545 70.6629 174.641H70.6545Z" fill="#99ADBF"/>
<path d="M112.558 40.4302L42.663 35.9871C42.1583 35.9518 41.6879 35.7187 41.3543 35.3385C41.0206 34.9583 40.8508 34.4619 40.8818 33.9573L41.5033 24.2082C41.5193 23.9571 41.5846 23.7117 41.6955 23.4859C41.8065 23.2601 41.961 23.0584 42.1501 22.8923C42.3391 22.7262 42.5592 22.599 42.7975 22.518C43.0359 22.437 43.2879 22.4037 43.5391 22.4201L113.422 26.8507C113.929 26.8829 114.403 27.1146 114.739 27.4952C115.075 27.8757 115.247 28.3739 115.216 28.8806L114.594 38.6255C114.58 38.878 114.517 39.1252 114.407 39.3529C114.297 39.5806 114.142 39.7843 113.953 39.9521C113.764 40.12 113.543 40.2486 113.304 40.3307C113.064 40.4128 112.811 40.4466 112.558 40.4302Z" fill="#D6DEE5"/>
<path d="M115.091 30.8437L115.057 31.3064L50.1511 27.1967C49.121 27.1316 48.1073 27.478 47.3329 28.1595C46.5584 28.8411 46.0866 29.8021 46.0212 30.8312L45.6833 36.1788L44.6362 36.1122C44.1263 36.0804 43.6278 35.9483 43.1692 35.7235C42.7106 35.4987 42.3009 35.1856 41.9637 34.8022C41.6265 34.4188 41.3684 33.9726 41.2042 33.4893C41.04 33.006 40.9729 32.4951 41.0069 31.9858L41.3698 26.1714C41.4373 25.1437 41.9101 24.1848 42.6843 23.505C43.4585 22.8252 44.471 22.48 45.4997 22.5451L111.461 26.7132C112.491 26.7807 113.451 27.2536 114.131 28.0281C114.812 28.8026 115.157 29.8153 115.091 30.8437Z" fill="#EBEFF2"/>
<path d="M110.848 41.1472H110.54L44.578 36.9791C43.3286 36.8987 42.1618 36.3275 41.3325 35.3904C40.5032 34.4532 40.0788 33.2263 40.1519 31.9775L40.519 26.1422C40.5993 24.8898 41.174 23.7204 42.1167 22.8911C42.5823 22.4791 43.1252 22.1637 43.7139 21.9634C44.3026 21.763 44.9253 21.6816 45.5458 21.7241L111.507 25.8921C112.757 25.9726 113.924 26.5437 114.753 27.4809C115.582 28.418 116.007 29.645 115.933 30.8938L115.562 36.729C115.487 37.9278 114.958 39.0529 114.082 39.8758C113.207 40.6988 112.05 41.1578 110.848 41.1597V41.1472ZM110.648 39.4508C111.047 39.4768 111.448 39.4239 111.827 39.2951C112.206 39.1662 112.556 38.964 112.856 38.7C113.157 38.436 113.403 38.1154 113.579 37.7564C113.756 37.3975 113.86 37.0073 113.885 36.6082L114.252 30.7729C114.304 29.9687 114.033 29.177 113.501 28.572C112.968 27.967 112.216 27.5982 111.411 27.5468L45.4457 23.3788C44.6404 23.3285 43.848 23.5997 43.2427 24.1326C42.6373 24.6656 42.2683 25.4169 42.2168 26.2214L41.8497 32.0358C41.7994 32.8398 42.0702 33.6308 42.6028 34.2356C43.1353 34.8403 43.8861 35.2094 44.6906 35.2619L110.648 39.4508Z" fill="#99ADBF"/>
<path d="M87.6039 83.7529C87.5923 85.218 87.4188 86.6773 87.0866 88.1044C86.2064 92.0098 84.1665 95.7528 80.9084 97.7409C77.7911 99.6137 74.1183 100.343 70.5211 99.8041C68.9173 99.5747 67.3609 99.0892 65.9115 98.3661C61.2476 96.0237 58.6362 91.1721 58.1689 85.9828C59.0408 86.2704 59.921 86.533 60.8096 86.7539C68.6154 88.7072 76.8376 88.1679 84.3208 85.2117C85.4221 84.7908 86.5151 84.2989 87.6039 83.7529Z" fill="#D6DEE5"/>
<path d="M72.7823 100.813C71.9781 100.813 71.175 100.754 70.3794 100.638C68.6912 100.405 67.0525 99.898 65.5278 99.1372C60.914 96.824 57.8479 91.939 57.3223 86.0746C57.3062 85.9339 57.3263 85.7914 57.3806 85.6606C57.4349 85.5298 57.5217 85.415 57.6327 85.327C57.7438 85.239 57.8754 85.1807 58.0152 85.1577C58.155 85.1346 58.2985 85.1475 58.4319 85.1951C59.3622 85.5035 60.2049 85.7495 61.01 85.9495C68.6435 87.8626 76.6853 87.3364 84.0039 84.4449C85.1177 84.003 86.1899 83.5154 87.1952 82.9985C87.3261 82.9246 87.4746 82.8874 87.6249 82.8908C87.7753 82.8943 87.9219 82.9383 88.0492 83.0181C88.1766 83.098 88.28 83.2108 88.3485 83.3445C88.417 83.4783 88.448 83.628 88.4384 83.778C88.4295 85.3063 88.249 86.8289 87.9002 88.317C86.8823 92.8435 84.492 96.553 81.3424 98.4828C78.7563 100.028 75.7953 100.834 72.7823 100.813ZM59.1703 87.1999C59.9337 91.9015 62.5368 95.7444 66.2871 97.6201C67.6508 98.295 69.1142 98.7467 70.6214 98.958C74.0228 99.4608 77.4935 98.7731 80.4455 97.0115C83.2071 95.3193 85.318 92.0099 86.2399 87.9085C86.4469 86.9933 86.5863 86.0641 86.6571 85.1284C85.9938 85.4368 85.3096 85.7286 84.613 86.0079C76.9636 89.0295 68.5586 89.579 60.5803 87.5792C60.1325 87.4736 59.6625 87.3472 59.1703 87.1999Z" fill="#99ADBF"/>
<path d="M87.0657 88.1042C86.1855 92.0097 84.1456 95.7526 80.8876 97.7408C77.7703 99.6136 74.0974 100.343 70.5002 99.804C71.5863 97.2213 73.2202 94.9047 75.2893 93.0142C75.6602 92.6638 76.0501 92.334 76.4573 92.0264C79.5297 89.7037 83.2202 88.3393 87.0657 88.1042Z" fill="#EBEFF2"/>
<path d="M72.7822 100.813C71.9781 100.813 71.175 100.755 70.3794 100.638C70.2512 100.621 70.1287 100.574 70.0215 100.502C69.9144 100.43 69.8255 100.334 69.762 100.221C69.6998 100.108 69.6638 99.9832 69.6566 99.8548C69.6494 99.7264 69.6712 99.598 69.7203 99.4791C70.8593 96.7849 72.5668 94.368 74.7262 92.3934C75.1151 92.0276 75.5231 91.6825 75.9485 91.3597C79.1548 88.9296 83.0109 87.5051 87.0283 87.2667C87.1596 87.257 87.2913 87.2785 87.4127 87.3294C87.534 87.3803 87.6416 87.4591 87.7267 87.5596C87.8117 87.66 87.8717 87.779 87.9019 87.9071C87.9321 88.0351 87.9315 88.1684 87.9002 88.2962C86.8781 92.831 84.4878 96.5364 81.3382 98.4662C78.755 100.016 75.7955 100.828 72.7822 100.813ZM71.7518 99.0873C74.794 99.3029 77.8286 98.5751 80.4413 97.0032C82.9443 95.4694 84.9091 92.6018 85.9437 89.0339C82.6842 89.447 79.5895 90.7043 76.9664 92.681C76.5849 92.9718 76.2187 93.282 75.8692 93.6104C74.1687 95.1651 72.7725 97.0223 71.7518 99.0873Z" fill="#99ADBF"/>
<path d="M84.3167 85.2327C84.0138 86.5772 83.4122 87.8365 82.5563 88.9172C81.9724 89.671 81.2825 90.3364 80.508 90.8929C78.949 91.9808 77.1657 92.7058 75.2893 93.0144C73.9832 93.2454 72.6549 93.3251 71.3305 93.252C68.6732 93.127 65.9658 92.4392 63.8216 90.8512C62.4271 89.8235 61.3723 88.4024 60.793 86.7707C68.6025 88.726 76.8288 88.1881 84.3167 85.2327Z" fill="white"/>
<path d="M72.2941 94.123C71.9604 94.123 71.6225 94.123 71.2846 94.098C68.1309 93.948 65.3776 93.0602 63.3293 91.5305C61.792 90.4019 60.6294 88.838 59.992 87.0415C59.9384 86.8972 59.9259 86.7408 59.9558 86.5898C59.9857 86.4388 60.0568 86.299 60.1614 86.1859C60.2659 86.0728 60.3998 85.9909 60.5481 85.9492C60.6964 85.9074 60.8533 85.9075 61.0016 85.9495C68.6337 87.8625 76.6742 87.3363 83.9913 84.4448C84.1341 84.3836 84.2911 84.3634 84.4447 84.3865C84.5983 84.4096 84.7424 84.4751 84.8608 84.5756C84.9791 84.6761 85.0671 84.8076 85.1147 84.9554C85.1623 85.1031 85.1677 85.2612 85.1302 85.4118C84.801 86.8808 84.1451 88.2569 83.2113 89.4381C82.5777 90.2572 81.8288 90.9802 80.9878 91.5847C79.3269 92.7451 77.4267 93.5185 75.427 93.8479C74.393 94.033 73.3446 94.125 72.2941 94.123ZM62.3156 87.9835C62.847 88.833 63.5333 89.5753 64.3389 90.1717C66.1201 91.5013 68.5522 92.2557 71.3722 92.4058C72.628 92.4783 73.888 92.4042 75.1267 92.1849C76.8792 91.8974 78.5453 91.2225 80.0033 90.2092C80.7118 89.6982 81.3427 89.0875 81.8763 88.3961C82.302 87.8527 82.6619 87.2609 82.9484 86.633C76.3134 88.9086 69.191 89.3748 62.3156 87.9835Z" fill="#99ADBF"/>
<path d="M110.585 126.209C104.712 128.868 97.207 126.667 93.2732 121.561C89.3393 116.455 89.0014 109.02 91.9675 103.301C94.9335 97.5825 100.895 93.6687 107.256 92.6226C107.935 93.957 108.301 95.4276 108.329 96.924C103.902 97.3074 99.7642 99.7458 97.9287 103.785C97.0036 105.816 96.6353 108.056 96.8614 110.276C97.0876 112.495 97.9001 114.615 99.2157 116.418C100.531 118.222 102.303 119.643 104.349 120.537C106.395 121.431 108.642 121.766 110.861 121.507C110.577 122.958 110.877 124.771 110.585 126.209Z" fill="#EBEFF2"/>
<path d="M105.125 128.205C102.711 128.194 100.331 127.637 98.164 126.576C95.9966 125.514 94.0977 123.977 92.6098 122.078C88.5592 116.822 88.021 109.12 91.2248 102.905C94.2075 97.1657 100.298 92.9017 107.127 91.7805C107.298 91.751 107.473 91.7753 107.63 91.85C107.786 91.9246 107.915 92.0461 107.999 92.1973C108.745 93.6563 109.15 95.2652 109.184 96.9031C109.191 97.1187 109.114 97.3286 108.969 97.4887C108.824 97.6489 108.623 97.7467 108.408 97.7617C104.04 98.141 100.319 100.583 98.7045 104.13C97.8427 106.026 97.5003 108.116 97.7123 110.187C97.9244 112.258 98.6833 114.235 99.9115 115.917C101.14 117.598 102.793 118.924 104.702 119.757C106.611 120.591 108.708 120.903 110.777 120.661C110.91 120.646 111.044 120.663 111.17 120.709C111.295 120.755 111.408 120.83 111.499 120.928C111.59 121.026 111.656 121.145 111.692 121.274C111.727 121.403 111.731 121.539 111.703 121.67C111.594 122.391 111.553 123.121 111.582 123.85C111.612 124.693 111.559 125.538 111.424 126.371C111.398 126.503 111.342 126.627 111.258 126.732C111.175 126.837 111.067 126.921 110.944 126.976C109.114 127.795 107.13 128.215 105.125 128.205ZM106.793 93.5686C100.732 94.7482 95.3839 98.5703 92.7308 103.693C89.8524 109.236 90.3571 116.376 93.9572 121.049C97.6283 125.813 104.516 127.768 109.834 125.633C109.887 125.049 109.906 124.461 109.893 123.875C109.893 123.399 109.893 122.916 109.918 122.441C107.626 122.528 105.35 122.028 103.306 120.988C101.262 119.948 99.5181 118.403 98.2404 116.5C96.9627 114.597 96.1936 112.399 96.0061 110.115C95.8186 107.831 96.2191 105.537 97.1694 103.451C98.934 99.579 102.822 96.8489 107.444 96.1945C107.356 95.2924 107.136 94.4078 106.793 93.5686Z" fill="#99ADBF"/>
<path d="M103.706 109.203C103.374 109.232 103.044 109.129 102.789 108.915C102.534 108.701 102.374 108.395 102.344 108.063C102.315 107.732 102.419 107.402 102.633 107.147C102.847 106.891 103.153 106.732 103.485 106.702C112.719 105.03 121.204 100.527 127.76 93.8184C134.317 87.1098 138.621 78.5283 140.074 69.2648C140.1 69.1006 140.158 68.9431 140.245 68.8012C140.331 68.6594 140.445 68.536 140.58 68.438C140.714 68.3401 140.866 68.2696 141.028 68.2305C141.19 68.1915 141.358 68.1846 141.522 68.2103C141.686 68.236 141.844 68.2939 141.986 68.3805C142.128 68.4671 142.251 68.5808 142.349 68.7151C142.447 68.8494 142.518 69.0017 142.557 69.1632C142.596 69.3248 142.603 69.4924 142.577 69.6566C141.044 79.4415 136.5 88.5067 129.575 95.5934C122.651 102.68 113.689 107.437 103.936 109.203C103.859 109.209 103.783 109.209 103.706 109.203Z" fill="#D6DEE5"/>
<path d="M103.706 110.058C103.178 110.058 102.668 109.86 102.278 109.504C101.888 109.148 101.646 108.659 101.599 108.133C101.551 107.607 101.703 107.082 102.024 106.662C102.344 106.243 102.811 105.958 103.331 105.864C112.393 104.225 120.72 99.8074 127.154 93.2239C133.589 86.6404 137.811 78.2183 139.236 69.1272C139.302 68.7151 139.489 68.3318 139.773 68.0254C140.057 67.7191 140.425 67.5033 140.831 67.4054C141.237 67.3074 141.663 67.3315 142.055 67.4747C142.448 67.6179 142.789 67.8738 143.036 68.2103C143.201 68.4337 143.32 68.6878 143.385 68.9577C143.45 69.2275 143.461 69.5076 143.416 69.7816C141.857 79.742 137.233 88.9701 130.184 96.1841C123.136 103.398 114.014 108.24 104.086 110.037C103.96 110.054 103.833 110.061 103.706 110.058ZM141.326 69.0314C141.225 69.0304 141.127 69.0662 141.05 69.1321C140.973 69.1981 140.923 69.2897 140.909 69.3898C139.432 78.8289 135.049 87.5739 128.369 94.41C121.689 101.246 113.044 105.834 103.635 107.536C103.525 107.556 103.427 107.619 103.362 107.711C103.298 107.803 103.273 107.917 103.293 108.028C103.313 108.138 103.376 108.236 103.469 108.3C103.561 108.365 103.675 108.389 103.786 108.369C113.367 106.635 122.169 101.964 128.972 95.0031C135.775 88.0426 140.24 79.1387 141.747 69.5274C141.757 69.4726 141.755 69.4164 141.743 69.3622C141.73 69.308 141.707 69.2569 141.674 69.2118C141.641 69.1667 141.6 69.1287 141.552 69.0998C141.505 69.071 141.452 69.052 141.397 69.0439L141.326 69.0314Z" fill="#99ADBF"/>
<path d="M146.311 52.5885C143.103 51.8216 139.403 55.7896 138.043 61.4498C137.93 61.9208 137.847 62.3876 137.772 62.8502C136.174 61.0163 134.401 60.1035 133.342 60.737C131.952 61.5707 132.32 64.7384 134.176 67.8227C135.845 70.6362 138.711 72.6535 141.397 73.0912C144.651 73.6205 148.305 69.8943 149.665 64.2299C151.025 58.5655 149.515 53.3513 146.311 52.5885Z" fill="#D6DEE5"/>
<path d="M142.019 73.9912C141.761 73.9932 141.504 73.9723 141.251 73.9287C138.268 73.4452 135.202 71.2195 133.433 68.2602C131.285 64.659 131.06 61.112 132.908 60.0074C134.055 59.328 135.644 59.7615 137.25 61.137C137.845 58.5043 139.089 56.0617 140.867 54.0304C142.644 52.1256 144.647 51.317 146.507 51.7672C148.368 52.2173 149.786 53.8512 150.504 56.352C151.175 58.6903 151.163 61.5621 150.474 64.4381C149.123 70.0608 145.589 73.9912 142.019 73.9912ZM134.113 61.3829C133.996 61.3784 133.879 61.4058 133.775 61.4621C133.045 61.8789 133.116 64.4256 134.889 67.3932C136.412 69.9441 139.015 71.853 141.522 72.2615C144.396 72.7283 147.609 69.1188 148.827 64.0379C149.452 61.4371 149.469 58.8696 148.881 56.8105C148.334 54.9141 147.354 53.7095 146.111 53.4136C144.859 53.1176 143.449 53.747 142.106 55.1892C140.642 56.7564 139.491 59.0529 138.869 61.6538C138.761 62.104 138.677 62.5458 138.606 62.9876C138.585 63.1486 138.516 63.2998 138.41 63.4225C138.303 63.5453 138.163 63.6343 138.007 63.6785C137.85 63.7228 137.684 63.7205 137.529 63.6717C137.374 63.623 137.237 63.5301 137.134 63.4044C135.953 62.0498 134.781 61.3829 134.113 61.3829Z" fill="#99ADBF"/>
<path d="M17.6583 58.7113C16.5987 58.0819 14.8258 58.9947 13.2281 60.8245C13.153 60.366 13.0696 59.8992 12.9569 59.4282C11.597 53.768 7.89676 49.7958 4.68878 50.5669C1.48081 51.338 -0.000111997 56.5481 1.34732 62.2083C2.69475 67.8685 6.40749 71.8407 9.61546 71.0737C10.2829 70.9112 13.687 70.8612 16.8365 65.8011C18.7388 62.7501 19.0475 59.5407 17.6583 58.7113Z" fill="#D6DEE5"/>
<path d="M8.79365 72.0157C7.23764 72.0157 5.6274 71.1821 4.1715 69.6316C2.50286 67.8518 1.218 65.2843 0.52551 62.4083C-0.166979 59.5324 -0.175322 56.6564 0.496308 54.3181C1.21383 51.8173 2.63218 50.1876 4.49272 49.7333C6.35326 49.279 8.35563 50.0917 10.1327 52.0007C11.9089 54.0256 13.152 56.4609 13.7495 59.0864C15.3556 57.7151 16.945 57.2775 18.0922 57.961C18.3853 58.1481 18.6379 58.392 18.835 58.6784C19.032 58.9648 19.1696 59.2878 19.2394 59.6282C19.6565 61.3455 19.0141 63.8672 17.5707 66.2013C14.5088 71.1404 11.1298 71.6906 10.0118 71.8573L9.80318 71.8948C9.47246 71.9739 9.1337 72.0144 8.79365 72.0157ZM5.50225 51.3171C5.29569 51.3154 5.08972 51.3392 4.88902 51.388C3.63754 51.6839 2.66555 52.8927 2.12324 54.785C1.53087 56.8481 1.54756 59.4157 2.1733 62.0124C2.79904 64.6091 3.94623 66.9098 5.42299 68.477C6.76625 69.9192 8.19294 70.561 9.42774 70.2526C9.51117 70.2304 9.6238 70.2095 9.76564 70.1901C10.7835 70.0275 13.4909 69.5941 16.1315 65.3551C17.504 63.1544 17.8627 61.1162 17.6083 60.0742C17.569 59.8238 17.4363 59.5975 17.237 59.4407C16.6989 59.1156 15.2972 59.7575 13.8997 61.383C13.7967 61.5087 13.6593 61.6016 13.5041 61.6503C13.349 61.699 13.183 61.7014 13.0266 61.6571C12.8702 61.6129 12.7301 61.5239 12.6236 61.4011C12.5171 61.2784 12.4488 61.1272 12.4271 60.9662C12.3562 60.5244 12.2728 60.0784 12.1643 59.6324C11.5427 57.0315 10.3914 54.7349 8.92714 53.1678C7.77161 51.9549 6.58687 51.3171 5.50225 51.3171Z" fill="#99ADBF"/>
</g>
<defs>
<clipPath id="clip0_244_500">
<rect width="151" height="188" fill="white"/>
</clipPath>
</defs>
</svg>
