<svg width="132" height="200" viewBox="0 0 132 200" fill="none" xmlns="http://www.w3.org/2000/svg">
<g clip-path="url(#clip0_246_1114)">
<path d="M96.2744 104.296C95.9823 104.309 95.6939 104.227 95.4535 104.061C95.213 103.895 95.0338 103.655 94.9433 103.378C94.8528 103.101 94.856 102.802 94.9525 102.527C95.0489 102.252 95.2333 102.016 95.4773 101.855C106.874 93.6089 115.571 80.1081 119.971 63.8335C124.242 48.0115 124.238 31.5771 123.668 17.5837C123.653 17.2258 123.782 16.8771 124.026 16.6141C124.27 16.351 124.609 16.1954 124.968 16.1812C125.327 16.1671 125.677 16.2957 125.941 16.5387C126.205 16.7818 126.361 17.1193 126.375 17.4772C126.954 31.6792 126.954 48.3621 122.585 64.5214C118.03 81.3863 108.971 95.4152 97.0761 104.021C96.8459 104.197 96.5645 104.293 96.2744 104.296Z" fill="#505578"/>
<path d="M96.2745 105.184C95.7971 105.185 95.3315 105.036 94.9445 104.758C94.5576 104.479 94.2691 104.085 94.1207 103.633C93.9723 103.181 93.9715 102.694 94.1184 102.241C94.2653 101.788 94.5524 101.394 94.9385 101.114C106.17 92.9876 114.743 79.6599 119.085 63.585C123.325 47.8829 123.32 31.5328 122.755 17.6059C122.731 17.0098 122.945 16.4285 123.351 15.9899C123.757 15.5513 124.321 15.2913 124.919 15.267C125.507 15.2398 126.082 15.4457 126.518 15.8396C126.968 16.2497 127.237 16.821 127.266 17.4284C127.845 31.6881 127.845 48.4643 123.445 64.7522C118.836 81.8213 109.639 96.0233 97.615 104.758C97.2261 105.04 96.7558 105.19 96.2745 105.184ZM125.044 17.0645H125.017C124.956 17.0644 124.896 17.0767 124.84 17.1006C124.784 17.1246 124.734 17.1597 124.692 17.2037C124.651 17.2478 124.618 17.2999 124.598 17.3569C124.577 17.4139 124.568 17.4744 124.572 17.5349C125.142 31.5949 125.146 48.1137 120.844 64.051C116.391 80.5253 107.577 94.2037 96.0118 102.57C95.963 102.604 95.9217 102.648 95.8903 102.698C95.8589 102.749 95.8379 102.805 95.8288 102.864C95.8197 102.923 95.8225 102.983 95.8371 103.04C95.8517 103.098 95.8778 103.152 95.9138 103.2C95.9422 103.254 95.9831 103.302 96.0331 103.338C96.0832 103.374 96.141 103.398 96.202 103.408C96.263 103.418 96.3255 103.414 96.3845 103.395C96.4435 103.377 96.4973 103.345 96.5417 103.302C108.272 94.8117 117.215 80.9558 121.713 64.2862C126.032 48.2246 126.032 31.6216 125.471 17.495C125.464 17.3707 125.408 17.2542 125.315 17.171C125.242 17.1007 125.145 17.061 125.044 17.06V17.0645Z" fill="#252945"/>
<path d="M35.7255 104.296C35.4404 104.297 35.1627 104.206 34.9328 104.039C23.0376 95.433 13.9749 81.4041 9.41899 64.5392C5.05016 48.3666 5.05016 31.6748 5.62911 17.495C5.63613 17.3178 5.6781 17.1437 5.75262 16.9827C5.82714 16.8217 5.93275 16.6769 6.06343 16.5566C6.19411 16.4362 6.34729 16.3427 6.51424 16.2814C6.68118 16.22 6.85861 16.1921 7.0364 16.199C7.21419 16.206 7.38885 16.2479 7.55042 16.3221C7.71199 16.3964 7.85731 16.5016 7.97806 16.6319C8.09881 16.7621 8.19264 16.9148 8.2542 17.0811C8.31575 17.2475 8.34382 17.4243 8.3368 17.6015C7.76676 31.5949 7.76231 48.0293 12.0332 63.8513C16.4287 80.1215 25.1263 93.6267 36.5271 101.873C36.7711 102.033 36.9554 102.269 37.0519 102.544C37.1484 102.82 37.1516 103.119 37.0611 103.396C36.9706 103.673 36.7914 103.913 36.5509 104.079C36.3104 104.244 36.022 104.327 35.7299 104.314L35.7255 104.296Z" fill="#505578"/>
<path d="M35.7254 105.183C35.2436 105.183 34.7748 105.028 34.3894 104.74C22.3295 96.0099 13.1465 81.8034 8.55944 64.7388C4.15944 48.4509 4.15944 31.6747 4.73838 17.415C4.74501 17.1161 4.81135 16.8215 4.93351 16.5485C5.05567 16.2754 5.23121 16.0294 5.44987 15.8247C5.66853 15.62 5.92592 15.4608 6.20702 15.3563C6.48812 15.2519 6.78729 15.2044 7.08704 15.2164C7.38679 15.2285 7.68112 15.3 7.95283 15.4268C8.22454 15.5535 8.46818 15.7329 8.66953 15.9545C8.87088 16.1762 9.02589 16.4355 9.1255 16.7176C9.22512 16.9996 9.26735 17.2985 9.24972 17.597C8.67077 31.5105 8.66632 47.8783 12.9149 63.5804C17.257 79.6554 25.8299 92.9831 37.0615 101.109C37.4475 101.389 37.7346 101.784 37.8816 102.236C38.0285 102.689 38.0277 103.176 37.8792 103.629C37.7308 104.081 37.4424 104.474 37.0554 104.753C36.6684 105.032 36.2028 105.181 35.7254 105.179V105.183ZM6.98737 17.0599C6.86926 17.0599 6.75598 17.1067 6.67246 17.1899C6.58895 17.2732 6.54203 17.3861 6.54203 17.5038C5.96753 31.6303 5.96308 48.2334 10.3007 64.2905C14.8032 80.9602 23.7412 94.8116 35.4716 103.302C35.5474 103.358 35.6395 103.39 35.7343 103.39C35.8065 103.392 35.8778 103.375 35.9422 103.343C36.0066 103.31 36.0621 103.263 36.104 103.204C36.1398 103.156 36.1656 103.102 36.1798 103.044C36.1941 102.986 36.1965 102.926 36.1869 102.867C36.1774 102.809 36.156 102.752 36.1242 102.702C36.0923 102.651 36.0506 102.608 36.0015 102.574C24.4226 94.208 15.6226 80.5297 11.1692 64.0553C6.85822 48.1091 6.86267 31.5904 7.43272 17.5304C7.43636 17.4699 7.42754 17.4093 7.4068 17.3524C7.38606 17.2954 7.35384 17.2433 7.31211 17.1992C7.27039 17.1551 7.22005 17.12 7.1642 17.0961C7.10835 17.0721 7.04817 17.0598 6.98737 17.0599Z" fill="#252945"/>
<path d="M100.599 151.757L65.7816 199.099L30.9646 151.757C30.9646 147.461 36.3087 143.977 42.8776 143.977C48.3241 143.977 52.9112 146.365 54.3318 149.631C55.748 146.365 60.3351 143.977 65.7816 143.977C71.2282 143.977 75.8152 146.365 77.2359 149.631C78.6521 146.365 83.2391 143.977 88.6857 143.977C95.2634 143.977 100.599 147.461 100.599 151.757Z" fill="#056696"/>
<path d="M100.599 151.757L65.7817 199.099L66.3785 198.291L91.9457 144.275C91.9457 144.275 100.599 146.241 100.599 151.757Z" fill="#1A91CC"/>
<path d="M65.7818 200C65.6401 200 65.5003 199.967 65.3741 199.903C65.2478 199.839 65.1388 199.746 65.0559 199.631L30.2389 152.285C30.1257 152.133 30.0649 151.947 30.0652 151.757C30.0652 146.973 35.8146 143.081 42.8777 143.081C47.8389 143.081 52.2032 144.94 54.332 147.838C56.4607 144.94 60.8207 143.081 65.7818 143.081C70.7429 143.081 75.1073 144.94 77.236 147.838C79.3648 144.94 83.7247 143.081 88.6858 143.081C95.7534 143.081 101.503 146.973 101.503 151.757C101.503 151.947 101.442 152.133 101.329 152.285L66.5121 199.631C66.4288 199.747 66.319 199.84 66.1919 199.904C66.0649 199.968 65.9242 200.001 65.7818 200ZM31.8777 151.473L65.7818 197.577L99.6858 151.473C99.4498 147.812 94.6089 144.878 88.6858 144.878C83.7381 144.878 79.3692 146.982 78.0644 149.987C77.9987 150.152 77.8846 150.294 77.7369 150.394C77.5892 150.494 77.4147 150.548 77.236 150.548C77.0574 150.548 76.8829 150.494 76.7352 150.394C76.5875 150.294 76.4734 150.152 76.4077 149.987C75.0984 146.977 70.734 144.874 65.7818 144.874C60.8296 144.874 56.4652 146.977 55.1603 149.982C55.0947 150.148 54.9806 150.29 54.8329 150.39C54.6851 150.49 54.5106 150.543 54.332 150.543C54.1533 150.543 53.9788 150.49 53.8311 150.39C53.6834 150.29 53.5693 150.148 53.5036 149.982C52.1943 146.973 47.8255 144.869 42.8777 144.869C36.9636 144.878 32.1182 147.812 31.8777 151.473Z" fill="#054564"/>
<path d="M30.9602 27.6673C34.4205 17.7835 38.8027 3.55045 45.7189 1.92609C52.6351 0.301736 82.3039 0.479261 88.2537 3.07557C96.6796 6.75478 100.603 29.0431 100.603 29.0431L30.9602 27.6673Z" fill="#EA5189"/>
<path d="M100.599 29.0431L93.9987 28.9099C92.244 22.0575 88.6233 10.9444 82.8695 8.43239C76.9197 5.83164 47.242 5.66743 40.3391 7.27848C39.9591 7.37146 39.588 7.49769 39.2302 7.65572C41.1274 4.65998 43.265 2.48973 45.7233 1.91721C52.6395 0.323922 82.2995 0.483695 88.2537 3.07556C96.6796 6.75921 100.599 29.0431 100.599 29.0431Z" fill="#FF73A5"/>
<path d="M100.603 29.9439L30.9424 28.5681C30.7987 28.5678 30.6572 28.5329 30.5299 28.4664C30.4027 28.3998 30.2935 28.3035 30.2117 28.1858C30.1299 28.0681 30.0779 27.9324 30.0601 27.7903C30.0423 27.6482 30.0593 27.5039 30.1096 27.3698C30.3827 26.5975 30.6588 25.8031 30.9379 24.9865C34.376 15.0318 38.6513 2.66268 45.514 1.05164C52.3768 -0.559405 82.4286 -0.444013 88.6233 2.25437C97.3921 6.08004 101.333 27.96 101.494 28.8832C101.518 29.0138 101.513 29.1482 101.478 29.2764C101.443 29.4047 101.38 29.5236 101.293 29.6243C101.209 29.7251 101.104 29.806 100.984 29.8613C100.865 29.9165 100.735 29.9447 100.603 29.9439ZM32.2205 26.7884L99.5031 28.1198C98.6124 23.6817 94.7557 6.89666 87.893 3.90092C82.1035 1.37118 52.497 1.27354 45.9237 2.8047C40.0363 4.17608 35.7654 16.5407 32.6436 25.5679C32.51 25.9806 32.363 26.3889 32.2205 26.7884Z" fill="#AD1D52"/>
<path d="M100.599 35.4783V151.757C100.599 147.461 95.2545 143.977 88.6857 143.977C83.2391 143.977 78.6521 146.365 77.2359 149.631C75.8152 146.365 71.2282 143.977 65.7816 143.977C60.3351 143.977 55.748 146.365 54.3318 149.631C52.9112 146.365 48.3241 143.977 42.8776 143.977C36.2954 143.977 30.9646 147.461 30.9646 151.757V35.4783H100.599Z" fill="#056696"/>
<path d="M100.599 35.4783V151.757C100.599 148.207 96.9426 145.202 91.9458 144.275V35.4783H100.599Z" fill="#1A91CC"/>
<path d="M54.3319 150.532C54.0956 150.532 53.8691 150.439 53.702 150.272C53.535 150.106 53.4412 149.88 53.4412 149.645V37.5464C53.4412 37.3075 53.5364 37.0783 53.706 36.9094C53.8755 36.7404 54.1054 36.6455 54.3452 36.6455C54.585 36.6455 54.8149 36.7404 54.9845 36.9094C55.154 37.0783 55.2493 37.3075 55.2493 37.5464V149.631C55.2511 149.751 55.2286 149.871 55.1829 149.982C55.1373 150.093 55.0696 150.193 54.9839 150.277C54.8981 150.362 54.7961 150.428 54.6841 150.471C54.572 150.515 54.4522 150.536 54.3319 150.532Z" fill="#054564"/>
<path d="M77.2359 150.533C76.9997 150.533 76.7731 150.439 76.6061 150.273C76.4391 150.106 76.3452 149.88 76.3452 149.645V36.3926C76.3452 36.1537 76.4405 35.9245 76.61 35.7556C76.7795 35.5866 77.0095 35.4917 77.2493 35.4917C77.489 35.4917 77.719 35.5866 77.8885 35.7556C78.0581 35.9245 78.1533 36.1537 78.1533 36.3926V149.632C78.1552 149.752 78.1326 149.871 78.087 149.982C78.0414 150.093 77.9737 150.193 77.8879 150.278C77.8022 150.362 77.7002 150.428 77.5881 150.472C77.4761 150.515 77.3562 150.536 77.2359 150.533Z" fill="#054564"/>
<path d="M100.599 152.672C100.363 152.672 100.136 152.578 99.9689 152.412C99.8019 152.245 99.708 152.019 99.708 151.784C99.708 147.989 94.7647 144.905 88.6947 144.905C83.7469 144.905 79.3781 147.009 78.0732 150.013C78.0076 150.179 77.8935 150.321 77.7458 150.421C77.598 150.521 77.4235 150.575 77.2449 150.575C77.0662 150.575 76.8917 150.521 76.744 150.421C76.5963 150.321 76.4822 150.179 76.4165 150.013C75.1072 147.004 70.7429 144.9 65.7906 144.9C60.8384 144.9 56.474 147.004 55.1692 150.009C55.1035 150.174 54.9894 150.316 54.8417 150.416C54.694 150.517 54.5195 150.57 54.3408 150.57C54.1622 150.57 53.9877 150.517 53.84 150.416C53.6923 150.316 53.5782 150.174 53.5125 150.009C52.2032 147 47.8344 144.896 42.8866 144.896C36.8165 144.896 31.8777 147.98 31.8777 151.775C31.8777 152.014 31.7824 152.243 31.6129 152.412C31.4433 152.581 31.2134 152.676 30.9736 152.676C30.7339 152.676 30.5039 152.581 30.3344 152.412C30.1648 152.243 30.0696 152.014 30.0696 151.775V35.496C30.0696 35.2606 30.1634 35.0348 30.3305 34.8684C30.4975 34.7019 30.724 34.6084 30.9603 34.6084H100.599C100.835 34.6084 101.062 34.7019 101.229 34.8684C101.396 35.0348 101.489 35.2606 101.489 35.496V151.775C101.491 151.892 101.468 152.009 101.424 152.117C101.38 152.226 101.315 152.325 101.232 152.408C101.149 152.492 101.05 152.558 100.942 152.603C100.833 152.648 100.716 152.672 100.599 152.672ZM42.8777 143.081C47.8388 143.081 52.2032 144.94 54.3319 147.838C56.4607 144.94 60.8206 143.081 65.7817 143.081C70.7429 143.081 75.1072 144.94 77.236 147.838C79.3647 144.94 83.7246 143.081 88.6858 143.081C93.3574 143.081 97.4591 144.781 99.6947 147.319V36.3925H31.8688V147.346C34.1089 144.781 38.206 143.081 42.8777 143.081Z" fill="#054564"/>
<path d="M75.6462 185.687L65.7818 199.099L55.9219 185.687C57.1418 184.27 58.6548 183.133 60.3571 182.353C62.0593 181.573 63.9106 181.17 65.784 181.17C67.6575 181.17 69.5087 181.573 71.211 182.353C72.9132 183.133 74.4262 184.27 75.6462 185.687Z" fill="#9397B4"/>
<path d="M65.7817 200C65.64 200 65.5003 199.967 65.374 199.903C65.2478 199.839 65.1387 199.746 65.0558 199.631L55.1914 186.219C55.0672 186.054 55.005 185.85 55.0156 185.643C55.0261 185.437 55.1088 185.24 55.2493 185.088C56.5533 183.576 58.1697 182.362 59.9879 181.53C61.8061 180.698 63.7832 180.267 65.7839 180.267C67.7846 180.267 69.7617 180.698 71.5799 181.53C73.3981 182.362 75.0145 183.576 76.3185 185.088C76.459 185.24 76.5417 185.437 76.5523 185.643C76.5629 185.85 76.5007 186.054 76.3764 186.219L66.5121 199.631C66.4288 199.747 66.3189 199.84 66.1919 199.904C66.0648 199.968 65.9241 200.001 65.7817 200ZM57.093 185.758L65.7817 197.577L74.4748 185.758C73.3501 184.594 72.0013 183.668 70.5092 183.035C69.017 182.403 67.4121 182.077 65.7906 182.077C64.1691 182.077 62.5642 182.403 61.072 183.035C59.5799 183.668 58.2311 184.594 57.1064 185.758H57.093Z" fill="#505578"/>
<path d="M103.168 40.5333H28.395C27.8532 40.5322 27.3339 40.3172 26.9508 39.9354C26.5677 39.5536 26.352 39.0361 26.3508 38.4962V28.0977C26.3508 27.557 26.5661 27.0384 26.9493 26.6557C27.3325 26.2729 27.8524 26.0573 28.395 26.0562H103.168C103.711 26.0573 104.231 26.2729 104.614 26.6557C104.997 27.0384 105.212 27.557 105.212 28.0977V38.4962C105.212 38.7638 105.16 39.0286 105.057 39.2758C104.954 39.523 104.803 39.7475 104.614 39.9367C104.424 40.1258 104.199 40.2759 103.951 40.3783C103.702 40.4806 103.437 40.5333 103.168 40.5333Z" fill="#9397B4"/>
<path d="M105.217 30.1791V36.3925C105.214 37.4145 104.834 38.3997 104.149 39.1602C103.464 39.9207 102.522 40.4032 101.503 40.5155C101.503 40.3691 101.503 40.227 101.503 40.0717V33.8583C101.5 32.7671 101.065 31.7211 100.291 30.9486C99.518 30.1762 98.4693 29.74 97.3743 29.7353H26.814C26.6581 29.7353 26.5156 29.7353 26.3687 29.7353C26.4794 28.7207 26.9619 27.7824 27.7236 27.1003C28.4854 26.4181 29.4729 26.04 30.497 26.0383H101.062C102.164 26.0383 103.221 26.4746 104 27.2511C104.779 28.0277 105.217 29.0809 105.217 30.1791Z" fill="#B5BBDE"/>
<path d="M101.062 41.4343H30.5014C29.1604 41.4332 27.8748 40.9015 26.927 39.9561C25.9792 39.0107 25.4468 37.729 25.4468 36.3926V30.1792C25.4527 28.8463 25.9875 27.5698 26.9346 26.6285C27.8816 25.6872 29.1639 25.1576 30.5014 25.1553H101.062C102.399 25.1576 103.682 25.6872 104.629 26.6285C105.576 27.5698 106.111 28.8463 106.116 30.1792V36.3926C106.116 37.729 105.584 39.0107 104.636 39.9561C103.688 40.9015 102.403 41.4332 101.062 41.4343ZM30.5014 26.9572C29.6431 26.9583 28.82 27.2977 28.2118 27.9014C27.6036 28.505 27.2596 29.3238 27.2549 30.1792V36.3926C27.256 37.2508 27.5983 38.0735 28.2068 38.6807C28.8153 39.2879 29.6403 39.6301 30.5014 39.6325H101.062C101.923 39.6301 102.748 39.2879 103.356 38.6807C103.965 38.0735 104.307 37.2508 104.308 36.3926V30.1792C104.307 29.3215 103.965 28.4993 103.356 27.8928C102.748 27.2863 101.922 26.945 101.062 26.9438L30.5014 26.9572Z" fill="#505578"/>
<path d="M101.062 41.4343H30.5014C29.1604 41.4332 27.8748 40.9015 26.927 39.9561C25.9792 39.0107 25.4468 37.729 25.4468 36.3926V30.1792C25.4527 28.8463 25.9875 27.5698 26.9346 26.6285C27.8816 25.6872 29.1639 25.1576 30.5014 25.1553H101.062C102.399 25.1576 103.682 25.6872 104.629 26.6285C105.576 27.5698 106.111 28.8463 106.116 30.1792V36.3926C106.116 37.729 105.584 39.0107 104.636 39.9561C103.688 40.9015 102.403 41.4332 101.062 41.4343ZM30.5014 26.9572C29.6431 26.9583 28.82 27.2977 28.2118 27.9014C27.6036 28.505 27.2596 29.3238 27.2549 30.1792V36.3926C27.256 37.2508 27.5983 38.0735 28.2068 38.6807C28.8153 39.2879 29.6403 39.6301 30.5014 39.6325H101.062C101.923 39.6301 102.748 39.2879 103.356 38.6807C103.965 38.0735 104.307 37.2508 104.308 36.3926V30.1792C104.307 29.3215 103.965 28.4993 103.356 27.8928C102.748 27.2863 101.922 26.945 101.062 26.9438L30.5014 26.9572Z" fill="#505578"/>
<path d="M46.8435 85.9114C55.4363 82.2659 59.4367 72.3689 55.7786 63.8057C52.1206 55.2424 42.1894 51.2558 33.5966 54.9013C25.0039 58.5467 21.0035 68.4438 24.6615 77.007C28.3196 85.5702 38.2508 89.5569 46.8435 85.9114Z" fill="white"/>
<path d="M54.0513 70.4108C54.0513 72.3498 53.4743 74.2453 52.3933 75.8575C51.3124 77.4698 49.7759 78.7264 47.9783 79.4684C46.1807 80.2104 44.2027 80.4046 42.2944 80.0263C40.3861 79.648 38.6332 78.7143 37.2574 77.3432C35.8815 75.9721 34.9446 74.2252 34.565 72.3235C34.1854 70.4217 34.3802 68.4505 35.1248 66.659C35.8694 64.8676 37.1303 63.3365 38.7481 62.2592C40.3659 61.182 42.2679 60.607 44.2136 60.607C46.2958 60.6005 48.3251 61.2601 50.0031 62.4888C47.2063 65.0806 45.7679 67.7257 46.6719 69.0039C47.576 70.2821 50.4663 69.8161 53.7974 68.1163C53.9751 68.8681 54.0603 69.6385 54.0513 70.4108Z" fill="black"/>
<path d="M56.5586 74.5872C55.6288 78.1797 53.5362 81.3665 50.6049 83.6538C47.6737 85.9411 44.0674 87.2013 40.3447 87.2392C36.622 87.2772 32.9906 86.0906 30.0131 83.8635C27.0355 81.6364 24.878 78.4929 23.8748 74.92C34.7269 73.6577 45.6828 73.5462 56.5586 74.5872Z" fill="#056696"/>
<path d="M40.219 52.6582C36.6958 52.6582 33.2517 53.6994 30.3222 55.65C27.3928 57.6007 25.1096 60.3733 23.7613 63.6171C22.413 66.861 22.0602 70.4304 22.7476 73.8741C23.4349 77.3177 25.1315 80.4809 27.6228 82.9637C30.1141 85.4464 33.2882 87.1372 36.7438 87.8222C40.1993 88.5071 43.781 88.1556 47.0361 86.8119C50.2911 85.4683 53.0732 83.1929 55.0307 80.2735C56.9881 77.3541 58.0328 73.9218 58.0328 70.4107C58.0328 65.7025 56.156 61.187 52.8153 57.8578C49.4746 54.5286 44.9436 52.6582 40.219 52.6582ZM40.219 54.4335C44.4618 54.4405 48.5288 56.1233 51.529 59.1131C54.5291 62.1029 56.2176 66.1559 56.2247 70.3841C56.2265 71.4666 56.1161 72.5463 55.8952 73.6062C45.4827 72.6624 35.0013 72.7665 24.6097 73.9169C24.0827 71.5819 24.0888 69.1587 24.6276 66.8264C25.1663 64.4941 26.224 62.3122 27.7224 60.4419C29.2208 58.5716 31.1217 57.0607 33.2847 56.0207C35.4477 54.9807 37.8175 54.4383 40.219 54.4335ZM40.219 86.3392C36.906 86.3363 33.6752 85.3107 30.9709 83.4033C28.2667 81.4959 26.2218 78.8005 25.1174 75.6877C35.1864 74.6 45.338 74.4945 55.4275 75.3726C54.3745 78.5656 52.3379 81.3464 49.6074 83.3193C46.8769 85.2922 43.5917 86.3567 40.219 86.3614V86.3392Z" fill="black"/>
<path d="M86.9802 98.4065C85.6887 101.109 82.2551 104.824 77.2806 107.283C73.9432 108.923 70.2733 109.779 66.5522 109.786C56.198 109.786 48.3332 102.907 46.1733 98.5441L46.1199 98.4243C45.1535 96.4094 44.5211 94.0794 45.1802 91.9357C45.7769 89.9563 47.585 88.1278 49.5089 88.4873C49.6721 88.5167 49.8318 88.5628 49.9854 88.6249C55.2984 90.6576 60.8607 91.3854 66.5478 91.3854C72.1324 91.3854 77.579 90.6842 82.7984 88.7225L83.1057 88.6071C85.2077 87.8038 87.2696 89.7744 87.9199 91.918C88.5701 94.0616 87.9466 96.3916 86.9802 98.4065Z" fill="#851039"/>
<path d="M66.5521 110.665C55.944 110.665 47.7764 103.799 45.3671 98.9213C45.3496 98.8931 45.3347 98.8634 45.3225 98.8326C44.0177 96.1076 43.6881 93.7065 44.316 91.6561C45.0286 89.2995 47.2286 87.1248 49.6602 87.5863C49.8798 87.6242 50.0948 87.6852 50.3015 87.7683C55.0488 89.5835 60.3573 90.4711 66.5387 90.4711C72.5776 90.4711 77.7881 89.6234 82.4687 87.8793L82.7849 87.7594C83.2673 87.5779 83.7827 87.4996 84.2975 87.5294C84.8123 87.5592 85.315 87.6965 85.7731 87.9325C86.4944 88.3256 87.1305 88.857 87.6448 89.496C88.1592 90.1351 88.5417 90.8692 88.7703 91.6561C89.3938 93.7198 89.0642 96.1209 87.7816 98.7971C86.5347 101.398 83.1411 105.388 77.6634 108.073C74.2085 109.776 70.4064 110.663 66.5521 110.665ZM49.0367 89.3305C47.7407 89.3305 46.4849 90.7241 46.0484 92.1754C45.5496 93.7909 45.848 95.7525 46.9391 98.0204L46.9792 98.1047C49.1302 102.459 56.8302 108.867 66.5743 108.867C70.1583 108.864 73.6935 108.04 76.9063 106.457C81.6403 104.136 84.976 100.546 86.1873 98.0248C87.2695 95.7658 87.5679 93.8042 87.078 92.1842C86.7606 91.0729 86.0209 90.1288 85.016 89.5524C84.7767 89.4265 84.5133 89.3523 84.2432 89.3347C83.973 89.3171 83.7022 89.3565 83.4484 89.4504L83.1278 89.5746C78.229 91.3898 72.8314 92.273 66.5743 92.273C60.1703 92.273 54.6436 91.3499 49.6824 89.4504C49.5866 89.4108 49.4865 89.3825 49.3841 89.366C49.2699 89.3417 49.1534 89.3298 49.0367 89.3305Z" fill="black"/>
<path d="M77.2804 107.265C73.943 108.905 70.2731 109.761 66.552 109.768C56.1978 109.768 48.333 102.889 46.1731 98.5265C51.5088 95.8075 57.6781 95.197 63.4461 96.8174C69.2141 98.4377 74.1552 102.169 77.2804 107.265Z" fill="#DB1A47"/>
<path d="M66.5523 110.665C55.9442 110.665 47.7766 103.799 45.3672 98.9215C45.3133 98.8162 45.281 98.7013 45.2722 98.5835C45.2634 98.4656 45.2784 98.3472 45.3161 98.2352C45.3539 98.1232 45.4137 98.0198 45.492 97.9311C45.5704 97.8424 45.6658 97.7702 45.7725 97.7188C51.6272 94.7954 58.3952 94.2636 64.6373 96.2364C70.1927 98.1092 74.9292 101.835 78.0466 106.786C78.1135 106.893 78.1572 107.014 78.1748 107.139C78.1925 107.264 78.1837 107.392 78.149 107.514C78.1147 107.635 78.0548 107.748 77.9734 107.844C77.892 107.94 77.791 108.018 77.677 108.073C74.218 109.778 70.4111 110.665 66.5523 110.665ZM47.4292 98.9259C50.0612 103.204 57.4093 108.867 66.5523 108.867C69.7887 108.867 72.9894 108.193 75.949 106.888C73.065 102.708 68.8993 99.5717 64.0762 97.9495C58.5963 96.2173 52.6673 96.565 47.4292 98.9259Z" fill="black"/>
<path d="M82.8072 89.2287C82.6246 94.9583 75.0226 99.3787 65.8262 99.0902C56.7857 98.8017 49.58 94.0884 49.5088 88.4697C49.672 88.4991 49.8317 88.5452 49.9853 88.6073C55.2983 90.64 60.8606 91.3678 66.5521 91.3678C72.1323 91.3678 77.5788 90.6666 82.7983 88.7049C82.8108 88.8792 82.8137 89.0541 82.8072 89.2287Z" fill="white"/>
<path d="M66.6635 100.004C66.3741 100.004 66.0891 100.004 65.7996 100.004C56.238 99.6982 48.685 94.6431 48.6048 88.4963C48.6028 88.3654 48.6299 88.2357 48.684 88.1165C48.7382 87.9973 48.8181 87.8915 48.9182 87.8066C49.0182 87.7218 49.1358 87.6601 49.2625 87.6259C49.3893 87.5916 49.5221 87.5858 49.6514 87.6087C49.8786 87.6471 50.1011 87.7096 50.315 87.7951C55.0623 89.6103 60.3708 90.4979 66.5522 90.4979C72.5911 90.4979 77.8016 89.6502 82.4822 87.906C82.6147 87.8542 82.7578 87.8347 82.8994 87.8493C83.0411 87.8639 83.1771 87.9121 83.2962 87.9899C83.4153 88.0677 83.5139 88.1729 83.5838 88.2965C83.6537 88.4201 83.6929 88.5587 83.698 88.7005C83.709 88.8971 83.709 89.0941 83.698 89.2907C83.5109 95.2955 75.949 100.004 66.6635 100.004ZM50.5822 89.7967C51.7089 94.3058 58.153 97.9584 65.8575 98.2069C74.0696 98.4333 80.9725 94.8606 81.8186 90.0363C77.2761 91.5453 72.266 92.282 66.5522 92.282C60.5401 92.2687 55.3073 91.4565 50.5822 89.7834V89.7967Z" fill="black"/>
<path d="M60.4554 40.1961C60.54 41.927 57.4093 43.4847 53.468 43.6712C49.5267 43.8576 46.2623 42.606 46.1777 40.8751C46.0931 39.1443 49.2239 37.5865 53.1651 37.3956C57.1064 37.2048 60.3753 38.4608 60.4554 40.1961Z" fill="black"/>
<path d="M70.9834 40.1961C70.8987 41.927 74.0295 43.4847 77.9708 43.6712C81.9121 43.8576 85.1809 42.606 85.2611 40.8751C85.3413 39.1443 82.2149 37.5865 78.2736 37.3956C74.3324 37.2048 71.0635 38.4608 70.9834 40.1961Z" fill="black"/>
<path d="M91.3533 87.2581C100.692 87.2581 108.263 79.7134 108.263 70.4065C108.263 61.0996 100.692 53.5549 91.3533 53.5549C82.0143 53.5549 74.4436 61.0996 74.4436 70.4065C74.4436 79.7134 82.0143 87.2581 91.3533 87.2581Z" fill="white"/>
<path d="M97.793 70.4109C97.7932 72.6137 97.0491 74.7524 95.6805 76.4821C94.3119 78.2119 92.3987 79.432 90.2492 79.9456C88.0998 80.4592 85.8394 80.2365 83.8325 79.3133C81.8256 78.3902 80.1891 76.8204 79.1869 74.857C78.1848 72.8936 77.8753 70.6511 78.3084 68.4911C78.7415 66.331 79.8919 64.3792 81.5742 62.9504C83.2565 61.5216 85.3726 60.699 87.5814 60.6152C89.7902 60.5315 91.9629 61.1915 93.7493 62.4889C90.9481 65.0807 89.5096 67.7259 90.4136 69.004C91.3177 70.2822 94.208 69.8162 97.5392 68.1164C97.7168 68.8682 97.802 69.6387 97.793 70.4109Z" fill="black"/>
<path d="M107.698 74.5872C106.769 78.1817 104.677 81.3705 101.745 83.6595C98.8133 85.9484 95.2057 87.2096 91.4815 87.2476C87.7573 87.2855 84.1246 86.098 81.1464 83.8693C78.1683 81.6405 76.0111 78.4949 75.0093 74.9201C85.8629 73.6577 96.8203 73.5462 107.698 74.5872Z" fill="#056696"/>
<path d="M91.3533 52.6582C87.8301 52.6582 84.386 53.6994 81.4565 55.65C78.5271 57.6007 76.2438 60.3733 74.8956 63.6171C73.5473 66.861 73.1945 70.4304 73.8818 73.8741C74.5692 77.3177 76.2658 80.4809 78.7571 82.9637C81.2484 85.4464 84.4225 87.1372 87.878 87.8222C91.3336 88.5071 94.9153 88.1556 98.1704 86.8119C101.425 85.4683 104.208 83.1929 106.165 80.2735C108.122 77.3541 109.167 73.9218 109.167 70.4107C109.167 65.7025 107.29 61.187 103.95 57.8578C100.609 54.5286 96.0778 52.6582 91.3533 52.6582ZM91.3533 54.4335C93.7284 54.4376 96.0728 54.9675 98.2172 55.9849C100.362 57.0024 102.252 58.4819 103.753 60.3166C105.253 62.1512 106.326 64.2952 106.894 66.5936C107.461 68.8919 107.509 71.2871 107.034 73.6062C96.6214 72.6623 86.14 72.7664 75.7485 73.9169C75.4797 72.7524 75.3453 71.5612 75.3477 70.3664C75.3653 66.1451 77.0585 62.1023 80.0575 59.1211C83.0565 56.1399 87.1175 54.4626 91.3533 54.4556V54.4335ZM91.3533 86.3392C88.0376 86.3347 84.8048 85.3058 82.1002 83.3943C79.3957 81.4827 77.3523 78.7825 76.2517 75.6655C86.3207 74.5779 96.4722 74.4723 106.562 75.3504C105.513 78.5475 103.478 81.3332 100.747 83.3103C98.016 85.2874 94.7287 86.3551 91.3533 86.3614V86.3392Z" fill="black"/>
<path d="M15.3865 18.4271C14.5894 24.6671 10.7282 29.3138 6.77358 28.8079C2.81893 28.3019 0.253743 22.8386 1.05536 16.5986C1.85698 10.3585 5.71366 5.71182 9.66832 6.21333C13.623 6.71484 16.1882 12.1871 15.3865 18.4271Z" fill="#505578"/>
<path d="M7.37029 29.7353C7.13213 29.7338 6.89424 29.7189 6.65774 29.6909C2.1375 29.1273 -0.71716 23.3222 0.160168 16.483C0.565431 13.3142 1.74559 10.3939 3.48244 8.30354C5.3128 6.08448 7.54397 5.04152 9.78406 5.32112C12.0241 5.60072 13.9169 7.19401 15.1282 9.79032C16.3185 12.5449 16.7164 15.5752 16.2772 18.5423C15.8764 21.7466 14.6962 24.6314 12.9594 26.7218C11.3249 28.6923 9.35207 29.7353 7.37029 29.7353ZM9.08041 7.10081C7.63304 7.10081 6.1545 7.93074 4.87191 9.47521C3.35329 11.2815 2.31563 13.8645 1.95045 16.7138C1.22454 22.3547 3.48689 27.4851 6.88487 27.9156C8.48365 28.1242 10.1448 27.2899 11.5699 25.5723C13.1995 23.4683 14.2109 20.9547 14.4913 18.3115C14.8877 15.682 14.5423 12.9944 13.4938 10.5492C12.5496 8.53433 11.1334 7.3094 9.55693 7.10081C9.39828 7.08978 9.23906 7.08978 9.08041 7.10081Z" fill="#252945"/>
<path d="M116.613 18.4271C117.415 24.6671 121.272 29.3138 125.231 28.8079C129.19 28.3019 131.746 22.8386 130.931 16.5986C130.116 10.3585 126.291 5.71182 122.332 6.21333C118.373 6.71484 115.812 12.1871 116.613 18.4271Z" fill="#505578"/>
<path d="M124.629 29.7354C122.639 29.7354 120.679 28.6791 119.04 26.7086C117.194 24.3398 116.044 21.5066 115.718 18.5247C115.278 15.5587 115.678 12.5292 116.872 9.77713C118.083 7.18082 119.989 5.59197 122.216 5.30793C124.442 5.02389 126.669 6.0846 128.517 8.29035C130.366 10.6566 131.518 13.4886 131.844 16.4698C132.735 23.309 129.867 29.1141 125.342 29.691C125.105 29.7191 124.868 29.7339 124.629 29.7354ZM122.915 7.10094C122.767 7.09113 122.618 7.09113 122.47 7.10094C120.871 7.30509 119.472 8.52558 118.528 10.5405C117.517 12.693 117.165 15.4535 117.531 18.3028C117.811 20.9468 118.824 23.461 120.457 25.5636C121.877 27.2811 123.543 28.1111 125.137 27.9069C128.535 27.4631 130.797 22.3459 130.072 16.7051C129.791 14.0619 128.78 11.5483 127.15 9.44427C125.845 7.90868 124.367 7.10094 122.915 7.10094Z" fill="#252945"/>
</g>
<defs>
<clipPath id="clip0_246_1114">
<rect width="132" height="200" fill="white"/>
</clipPath>
</defs>
</svg>
