<svg width="100" height="100" viewBox="0 0 100 100" fill="none" xmlns="http://www.w3.org/2000/svg">
<path fill-rule="evenodd" clip-rule="evenodd" d="M81.25 59.4726V50H18.75V78.125C18.75 78.9538 19.0792 79.7487 19.6653 80.3347C20.2513 80.9208 21.0462 81.25 21.875 81.25H71.8653C70.6766 79.1011 70 76.6296 70 74C70 67.0106 74.7804 61.1377 81.25 59.4726Z" fill="#EBEFF2"/>
<path fill-rule="evenodd" clip-rule="evenodd" d="M70.6719 28.1246H84.375C86.0326 28.1246 87.6223 28.7831 88.7944 29.9552C89.9665 31.1273 90.625 32.717 90.625 34.3746V46.8746C90.625 48.5322 89.9665 50.1219 88.7944 51.294C87.6223 52.4661 86.0326 53.1246 84.375 53.1246V59.0123C82.1291 59.1043 80.0105 59.6902 78.125 60.6643V53.1246H53.125V78.1246H70.5743C71.2528 80.5018 72.503 82.6379 74.1668 84.3746H21.875C20.2174 84.3746 18.6277 83.7161 17.4556 82.544C16.2835 81.3719 15.625 79.7822 15.625 78.1246V53.1246C13.9674 53.1246 12.3777 52.4661 11.2056 51.294C10.0335 50.1219 9.375 48.5322 9.375 46.8746V34.3746C9.375 32.717 10.0335 31.1273 11.2056 29.9552C12.3777 28.7831 13.9674 28.1246 15.625 28.1246H29.3281C29.2384 28.0441 29.1473 27.9676 29.0572 27.892C28.9944 27.8393 28.9321 27.7869 28.8711 27.734C27.6847 26.68 26.7286 25.3925 26.0625 23.9521C25.3964 22.5118 25.0347 20.9494 25 19.3629C24.9487 17.6272 25.2527 15.8994 25.8933 14.2855C26.5338 12.6716 27.4975 11.2056 28.7252 9.97758C29.9528 8.74958 31.4185 7.78544 33.0322 7.14436C34.646 6.50328 36.3737 6.1988 38.1094 6.24959C39.6966 6.28378 41.2597 6.64524 42.7008 7.31134C44.1419 7.97744 45.4299 8.93385 46.4844 10.1207C47.9434 11.8117 49.1296 13.7201 50 15.7769C50.8704 13.7201 52.0566 11.8117 53.5156 10.1207C54.5701 8.93385 55.8581 7.97744 57.2992 7.31134C58.7403 6.64524 60.3034 6.28378 61.8906 6.24959C63.6263 6.1988 65.354 6.50328 66.9678 7.14436C68.5815 7.78544 70.0472 8.74958 71.2748 9.97758C72.5024 11.2056 73.4661 12.6716 74.1068 14.2855C74.7473 15.8994 75.0513 17.6272 75 19.3629C74.9653 20.9494 74.6036 22.5118 73.9375 23.9521C73.2714 25.3925 72.3153 26.68 71.1289 27.734C71.0223 27.8321 70.9117 27.9242 70.8014 28.0161C70.7581 28.0522 70.7148 28.0882 70.6719 28.1246ZM59.9726 12.9742C59.3003 13.2767 58.6979 13.7149 58.2031 14.2613C55.0781 17.773 53.7891 23.7848 53.3203 27.9215C57.1328 27.5152 63.2852 26.359 66.9922 23.0777C67.5386 22.5829 67.9768 21.9805 68.2793 21.3083C68.5818 20.6361 68.7421 19.9086 68.75 19.1715C68.7734 18.3078 68.6242 17.4482 68.3111 16.643C67.9981 15.8377 67.5274 15.1031 66.9268 14.4821C66.3261 13.8611 65.6076 13.3662 64.8132 13.0264C64.0189 12.6867 63.1647 12.5089 62.3008 12.5035H62.1094C61.3723 12.5114 60.6448 12.6717 59.9726 12.9742ZM37.7305 12.4996C36.0184 12.5077 34.3787 13.1914 33.168 14.4019H33.1523C32.5332 15.0249 32.047 15.7672 31.7234 16.5837C31.3997 17.4002 31.2453 18.2739 31.2695 19.1519C31.2775 19.889 31.4377 20.6165 31.7402 21.2888C32.0427 21.961 32.4809 22.5634 33.0273 23.0582C36.7305 26.3355 42.8711 27.5074 46.668 27.898C46.2617 24.1012 45.1055 17.9605 41.8281 14.2574C41.3333 13.711 40.7309 13.2728 40.0587 12.9703C39.3865 12.6678 38.659 12.5075 37.9219 12.4996H37.7305ZM46.875 34.3746H15.625V46.8746H46.875V34.3746ZM46.875 53.1246H21.875V78.1246H46.875V53.1246ZM53.125 34.3746V46.8746H84.375V34.3746H53.125Z" fill="#99ADBF"/>
<path d="M82.0094 60.8967C82.972 60.6779 83.9731 60.5625 85 60.5625C92.4213 60.5625 98.4375 66.5787 98.4375 74C98.4375 81.4213 92.4213 87.4375 85 87.4375C83.9731 87.4375 82.972 87.3221 82.0094 87.1033C81.5045 86.9885 81.1883 86.4862 81.3031 85.9813C81.4179 85.4764 81.9202 85.1602 82.4251 85.2749C83.2523 85.463 84.1139 85.5625 85 85.5625C91.3858 85.5625 96.5625 80.3858 96.5625 74C96.5625 67.6142 91.3858 62.4375 85 62.4375C84.1139 62.4375 83.2523 62.537 82.4251 62.7251C81.9202 62.8398 81.4179 62.5236 81.3031 62.0187C81.1883 61.5138 81.5045 61.0115 82.0094 60.8967Z" fill="#99ADBF"/>
<path d="M79.1421 62.9147C79.418 63.3528 79.2865 63.9316 78.8483 64.2075C77.3794 65.1325 76.1328 66.379 75.2078 67.848C74.9319 68.2862 74.3531 68.4177 73.915 68.1418C73.4768 67.866 73.3453 67.2871 73.6212 66.849C74.6956 65.1426 76.1429 63.6953 77.8493 62.6208C78.2874 62.345 78.8663 62.4765 79.1421 62.9147Z" fill="#D6DEE5"/>
<path d="M73.915 79.8575C74.3531 79.5816 74.9319 79.7132 75.2078 80.1513C76.1328 81.6203 77.3794 82.8669 78.8483 83.7918C79.2865 84.0677 79.418 84.6466 79.1421 85.0847C78.8663 85.5229 78.2874 85.6544 77.8493 85.3785C76.1429 84.3041 74.6956 82.8567 73.6212 81.1504C73.3453 80.7122 73.4768 80.1334 73.915 79.8575Z" fill="#D6DEE5"/>
<path d="M73.7251 71.4248C73.8398 70.92 73.5236 70.4176 73.0187 70.3028C72.5138 70.188 72.0115 70.5043 71.8967 71.0092C71.6779 71.9718 71.5625 72.9729 71.5625 73.9998C71.5625 75.0267 71.6779 76.0278 71.8967 76.9904C72.0115 77.4953 72.5138 77.8115 73.0187 77.6967C73.5236 77.5819 73.8398 77.0796 73.7251 76.5747C73.537 75.7476 73.4375 74.8859 73.4375 73.9998C73.4375 73.1137 73.537 72.252 73.7251 71.4248Z" fill="#D6DEE5"/>
<path d="M89.2671 72.6763C90.2443 73.2532 90.2443 74.7468 89.2671 75.3237L83.3669 78.8073C82.4171 79.368 81.25 78.6382 81.25 77.4836L81.25 70.5164C81.25 69.3618 82.4171 68.632 83.3669 69.1927L89.2671 72.6763Z" fill="#99ADBF"/>
</svg>
