<svg width="103" height="34" viewBox="0 0 103 34" fill="none" xmlns="http://www.w3.org/2000/svg">
<g clip-path="url(#clip0_1086_29103)">
<path d="M99.7917 20.7793L102.649 22.6956C101.722 24.0698 99.5036 26.4275 95.6687 26.4275C90.9066 26.4275 87.3601 22.7209 87.3601 18.0057C87.3601 12.988 90.9442 9.58398 95.2678 9.58398C99.6163 9.58398 101.747 13.0635 102.436 14.942L102.812 15.9003L91.6085 20.565C92.4606 22.2544 93.7892 23.1117 95.6687 23.1117C97.5487 23.1117 98.8518 22.1788 99.7917 20.7793ZM91.0069 17.7412L98.4885 14.6144C98.0749 13.5681 96.847 12.8243 95.3804 12.8243C93.5133 12.8243 90.9192 14.4885 91.0069 17.7412Z" fill="#FF302F"/>
<path d="M81.9589 0.998249H85.5679V25.6584H81.9589V0.998047V0.998249Z" fill="#20B15A"/>
<path d="M76.2693 10.2384H79.7532V25.216C79.7532 31.4313 76.1063 33.9906 71.7952 33.9906C67.7349 33.9906 65.2913 31.2423 64.3764 29.0108L67.572 27.6743C68.1484 29.0485 69.5395 30.675 71.7952 30.675C74.5647 30.675 76.2693 28.9477 76.2693 25.7203V24.5101H76.1439C75.3167 25.5185 73.7377 26.4262 71.7326 26.4262C67.5469 26.4262 63.7119 22.7575 63.7119 18.0298C63.7119 13.2767 67.5469 9.57031 71.7326 9.57031C73.7252 9.57031 75.3167 10.4654 76.1439 11.4488H76.2693V10.2386V10.2384ZM76.5197 18.0298C76.5197 15.0544 74.5523 12.8859 72.0459 12.8859C69.5143 12.8859 67.3839 15.0544 67.3839 18.0298C67.3839 20.9672 69.5143 23.0979 72.0459 23.0979C74.5525 23.1106 76.5199 20.9672 76.5199 18.0298H76.5197Z" fill="#3686F7"/>
<path d="M43.8989 17.9674C43.8989 22.8213 40.1394 26.3891 35.5276 26.3891C30.9159 26.3891 27.1562 22.8088 27.1562 17.9674C27.1562 13.0884 30.9159 9.5332 35.5276 9.5332C40.1394 9.5332 43.8989 13.0884 43.8989 17.9674ZM40.2396 17.9674C40.2396 14.9418 38.0589 12.8614 35.5276 12.8614C32.9962 12.8614 30.8155 14.9418 30.8155 17.9674C30.8155 20.9679 32.9962 23.0735 35.5276 23.0735C38.0591 23.0735 40.2396 20.9679 40.2396 17.9674Z" fill="#FF302F"/>
<path d="M62.1832 18.0057C62.1832 22.8596 58.4235 26.4273 53.8119 26.4273C49.2 26.4273 45.4405 22.8594 45.4405 18.0057C45.4405 13.1267 49.2 9.58398 53.8119 9.58398C58.4235 9.58398 62.1832 13.1141 62.1832 18.0057ZM58.5112 18.0057C58.5112 14.9801 56.3307 12.8996 53.7992 12.8996C51.2678 12.8996 49.0871 14.9801 49.0871 18.0057C49.0871 21.0062 51.2678 23.1117 53.7992 23.1117C56.3432 23.1117 58.5112 20.9936 58.5112 18.0057Z" fill="#FFBA40"/>
<path d="M13.396 22.7336C8.14503 22.7336 4.03469 18.4722 4.03469 13.1897C4.03469 7.90734 8.14503 3.64601 13.396 3.64601C16.2283 3.64601 18.296 4.76801 19.8249 6.20532L22.3439 3.67131C20.2135 1.61633 17.3688 0.0527344 13.396 0.0527344C6.20272 0.0529368 0.149658 5.95335 0.149658 13.1897C0.149658 20.4264 6.20272 26.3266 13.396 26.3266C17.2811 26.3266 20.2135 25.0407 22.5069 22.6453C24.8628 20.275 25.5897 16.9467 25.5897 14.2487C25.5897 13.404 25.4895 12.5342 25.3766 11.8912H13.396V15.396H21.9303C21.6797 17.5899 20.9905 19.0901 19.9753 20.1111C18.7472 21.3594 16.8049 22.7336 13.396 22.7336Z" fill="#3686F7"/>
</g>
<defs>
<clipPath id="clip0_1086_29103">
<rect width="103" height="34" fill="white"/>
</clipPath>
</defs>
</svg>
