<svg width="100" height="100" viewBox="0 0 100 100" fill="none" xmlns="http://www.w3.org/2000/svg">
<g id="mdi:google-translate">
<path id="Vector" d="M55.0002 53.6667C56.3752 56.25 58.0835 58.5833 59.9585 60.75L57.7085 62.9583L55.0002 53.6667ZM58.2085 50.5H54.1668L52.7918 46.1667H69.4168C69.4168 46.1667 68.0002 51.625 62.9168 57.5833C60.7502 55 59.2085 52.4583 58.2085 50.5ZM87.5002 83.3333C87.5002 84.4384 87.0612 85.4982 86.2798 86.2796C85.4984 87.061 84.4386 87.5 83.3335 87.5H54.1668L62.5002 79.1667L59.1252 67.625L62.9585 63.7917L74.1252 75L77.0835 71.9583L65.8752 60.7917C69.6252 56.5 72.5418 51.4167 73.8752 46.1667H79.1668V41.8333H64.0002V37.5H59.6668V41.8333H51.5002L46.5835 25H83.3335C84.4386 25 85.4984 25.439 86.2798 26.2204C87.0612 27.0018 87.5002 28.0616 87.5002 29.1667V83.3333Z" fill="#D6DEE5"/>
<path id="Vector_2" d="M83.3334 20.833H45.3334L41.6667 8.33301H16.6667C14.4566 8.33301 12.337 9.21098 10.7742 10.7738C9.21135 12.3366 8.33337 14.4562 8.33337 16.6663V70.833C8.33337 73.0432 9.21135 75.1628 10.7742 76.7256C12.337 78.2884 14.4566 79.1663 16.6667 79.1663H45.8334L50 91.6664H83.3334C85.5435 91.6664 87.6631 90.7884 89.2259 89.2256C90.7887 87.6628 91.6667 85.5432 91.6667 83.333V29.1663C91.6667 26.9562 90.7887 24.8366 89.2259 23.2738C87.6631 21.711 85.5435 20.833 83.3334 20.833ZM29.875 60.7913C25.3553 60.7913 21.0207 58.9959 17.8248 55.8C14.6288 52.604 12.8334 48.2694 12.8334 43.7497C12.8334 39.2299 14.6288 34.8953 17.8248 31.6994C21.0207 28.5035 25.3553 26.708 29.875 26.708C34.2084 26.708 38.1667 28.2497 41.2917 31.2497L41.6667 31.4163L36.4584 36.333L36.2084 36.1247C35 34.9997 32.9584 33.6663 29.875 33.6663C24.4167 33.6663 19.9584 38.208 19.9584 43.7497C19.9584 49.2913 24.4167 53.833 29.875 53.833C35.5834 53.833 38.0417 50.208 38.7084 47.7497H29.5V41.2913H45.9584L46 41.6663C46.1667 42.458 46.2084 43.2497 46.2084 44.1247C46.2084 53.9163 39.5834 60.7913 29.875 60.7913ZM55 53.6663C56.375 56.2497 58.0834 58.583 59.9584 60.7497L57.7084 62.958L55 53.6663ZM58.2084 50.4997H54.1667L52.7917 46.1663H69.4167C69.4167 46.1663 68 51.6247 62.9167 57.583C60.75 54.9997 59.2084 52.458 58.2084 50.4997ZM87.5 83.333C87.5 84.4381 87.0611 85.4979 86.2797 86.2793C85.4983 87.0607 84.4384 87.4997 83.3334 87.4997H54.1667L62.5 79.1663L59.125 67.6247L62.9584 63.7913L74.125 74.9997L77.0834 71.958L65.875 60.7913C69.625 56.4997 72.5417 51.4163 73.875 46.1663H79.1667V41.833H64V37.4997H59.6667V41.833H51.5L46.5834 24.9997H83.3334C84.4384 24.9997 85.4983 25.4387 86.2797 26.2201C87.0611 27.0015 87.5 28.0613 87.5 29.1663V83.333Z" fill="#99ADBF"/>
</g>
</svg>
