<svg width="100" height="100" viewBox="0 0 100 100" fill="none" xmlns="http://www.w3.org/2000/svg">
<g id="Bold Duotone / Hands / Hand Stars">
<path id="Vector" d="M26.083 89.1183H25C21.0716 89.1183 19.1074 89.1183 17.887 87.8979C16.6666 86.6775 16.6666 84.7133 16.6666 80.7849V76.1519C16.6666 73.9914 16.6666 72.9112 17.2215 71.9465C17.7764 70.9818 18.6136 70.4949 20.2879 69.5211C31.3107 63.1102 46.9647 59.5013 57.4127 65.7329C58.1147 66.1516 58.746 66.657 59.2856 67.263C61.611 69.875 61.4415 73.8171 58.7614 76.1562C58.1955 76.6502 57.5923 77.0248 56.9848 77.155C57.484 77.0971 57.9625 77.0308 58.419 76.958C62.2165 76.3523 65.4043 74.323 68.3226 72.1185L75.8525 66.4302C78.5071 64.425 82.4471 64.4246 85.1022 66.4293C87.4924 68.2341 88.2233 71.2059 86.7122 73.6281C84.9499 76.4528 82.467 80.0666 80.083 82.2746C77.6955 84.4859 74.1411 86.46 71.2395 87.8605C68.0251 89.412 64.4741 90.306 60.8622 90.8906C53.5368 92.0764 45.9023 91.8954 38.6513 90.4016C34.5522 89.5571 30.2949 89.1183 26.083 89.1183Z" fill="#99ADBF"/>
<g id="Vector_2">
<path d="M45.2553 14.0136C47.3664 10.2265 48.4219 8.33301 50 8.33301C51.5781 8.33301 52.6337 10.2265 54.7448 14.0136L55.2909 14.9934C55.8908 16.0696 56.1908 16.6077 56.6585 16.9627C57.1262 17.3177 57.7086 17.4495 58.8736 17.7131L59.9341 17.9531C64.0336 18.8806 66.0834 19.3444 66.571 20.9126C67.0587 22.4807 65.6613 24.1148 62.8666 27.3829L62.1435 28.2284C61.3493 29.1571 60.9522 29.6214 60.7736 30.1959C60.595 30.7703 60.655 31.3899 60.7751 32.6289L60.8844 33.757C61.3069 38.1173 61.5182 40.2975 60.2415 41.2667C58.9648 42.2359 57.0456 41.3523 53.2073 39.585L52.2142 39.1277C51.1235 38.6255 50.5781 38.3744 50 38.3744C49.422 38.3744 48.8766 38.6255 47.7859 39.1277L46.7928 39.585C42.9545 41.3522 41.0353 42.2359 39.7586 41.2667C38.4819 40.2975 38.6932 38.1173 39.1157 33.757L39.225 32.6289C39.3451 31.3899 39.4051 30.7703 39.2265 30.1959C39.0478 29.6214 38.6508 29.1571 37.8566 28.2284L37.1335 27.3829C34.3388 24.1148 32.9414 22.4807 33.4291 20.9126C33.9167 19.3444 35.9665 18.8806 40.0659 17.9531L41.1265 17.7131C42.2915 17.4495 42.8739 17.3177 43.3416 16.9627C43.8093 16.6077 44.1092 16.0696 44.7092 14.9934L45.2553 14.0136Z" fill="#D6DEE5"/>
<path d="M80.961 32.0067C82.0166 30.1131 82.5443 29.1663 83.3334 29.1663C84.1224 29.1663 84.6502 30.1131 85.7057 32.0067L85.9788 32.4965C86.2788 33.0346 86.4287 33.3037 86.6626 33.4812C86.8964 33.6587 87.1877 33.7246 87.7701 33.8564L88.3004 33.9764C90.3502 34.4401 91.375 34.672 91.6189 35.4561C91.8627 36.2402 91.164 37.0572 89.7666 38.6913L89.4051 39.114C89.008 39.5784 88.8095 39.8105 88.7202 40.0978C88.6308 40.385 88.6609 40.6948 88.7209 41.3143L88.7755 41.8783C88.9868 44.0585 89.0924 45.1486 88.4541 45.6332C87.8157 46.1178 86.8561 45.676 84.937 44.7923L84.4405 44.5637C83.8951 44.3126 83.6224 44.187 83.3334 44.187C83.0443 44.187 82.7717 44.3126 82.2263 44.5637L81.7298 44.7923C79.8106 45.676 78.851 46.1178 78.2127 45.6332C77.5743 45.1486 77.6799 44.0585 77.8912 41.8783L77.9459 41.3143C78.0059 40.6948 78.0359 40.385 77.9466 40.0978C77.8573 39.8105 77.6587 39.5784 77.2616 39.114L76.9001 38.6913C75.5028 37.0572 74.8041 36.2402 75.0479 35.4561C75.2917 34.672 76.3166 34.4401 78.3663 33.9764L78.8966 33.8564C79.4791 33.7246 79.7703 33.6587 80.0042 33.4812C80.238 33.3037 80.388 33.0346 80.6879 32.4965L80.961 32.0067Z" fill="#D6DEE5"/>
<path d="M14.2943 32.0067C15.3499 30.1131 15.8777 29.1663 16.6667 29.1663C17.4558 29.1663 17.9835 30.1131 19.0391 32.0067L19.3122 32.4965C19.6121 33.0346 19.7621 33.3037 19.9959 33.4812C20.2298 33.6587 20.521 33.7246 21.1035 33.8564L21.6338 33.9764C23.6835 34.4401 24.7084 34.672 24.9522 35.4561C25.196 36.2402 24.4973 37.0572 23.1 38.6913L22.7384 39.114C22.3414 39.5784 22.1428 39.8105 22.0535 40.0978C21.9642 40.385 21.9942 40.6948 22.0542 41.3143L22.1089 41.8783C22.3201 44.0585 22.4258 45.1486 21.7874 45.6332C21.1491 46.1178 20.1895 45.676 18.2703 44.7923L17.7738 44.5637C17.2284 44.3126 16.9558 44.187 16.6667 44.187C16.3777 44.187 16.105 44.3126 15.5596 44.5637L15.0631 44.7923C13.1439 45.676 12.1844 46.1178 11.546 45.6332C10.9076 45.1486 11.0133 44.0585 11.2245 41.8783L11.2792 41.3143C11.3392 40.6948 11.3692 40.385 11.2799 40.0978C11.1906 39.8105 10.9921 39.5784 10.595 39.114L10.2335 38.6913C8.83608 37.0572 8.13739 36.2402 8.38122 35.4561C8.62506 34.672 9.64992 34.4401 11.6997 33.9764L12.2299 33.8564C12.8124 33.7246 13.1037 33.6587 13.3375 33.4812C13.5713 33.3037 13.7213 33.0346 14.0213 32.4965L14.2943 32.0067Z" fill="#D6DEE5"/>
</g>
</g>
</svg>
