<svg width="94" height="100" viewBox="0 0 94 100" fill="none" xmlns="http://www.w3.org/2000/svg">
<g clip-path="url(#clip0_1337_11637)" filter="url(#filter0_d_1337_11637)">
<path d="M20.2914 49.0688C20.2914 49.0688 22.1499 34.7808 26.982 27.1668C31.814 19.5528 40.2702 10.5288 51.2353 13.7248C62.2004 16.9208 68.3334 26.8848 70.8423 35.4388C73.3513 43.9928 73.9088 48.5048 73.9088 48.5048C73.9088 48.5048 79.7631 56.0248 81.3428 63.3568C82.9225 70.6888 81.7145 83.5668 72.2362 88.2668C62.7579 93.0608 54.9522 94.0008 43.4296 93.7188C31.9999 93.4368 18.5258 89.2068 13.8796 79.9008C9.2334 70.5948 15.6452 54.9908 20.2914 49.0688Z" fill="#F2B723"/>
<path d="M59.9701 92.8722C55.4168 93.8122 50.3988 94.1882 43.4295 94.0002C37.2965 93.8122 31.0705 92.5902 25.9597 90.4282C20.0125 87.8902 15.738 84.3182 13.6007 79.9942C10.9989 74.7302 12.021 67.8682 13.322 63.1682C14.8088 57.9042 17.4106 52.3582 20.0125 48.9742C20.1055 48.4102 20.5701 45.0262 21.5922 40.8902C22.6144 36.7542 24.2871 30.9262 26.796 26.9782C28.8404 23.5942 31.2564 20.6802 33.7654 18.4242C36.9248 15.6042 40.1771 13.8182 43.5224 13.0662C46.1243 12.5022 48.7262 12.6902 51.3281 13.4422C56.4389 14.9462 60.8064 17.9542 64.4304 22.3722C68.1474 26.9782 70.0988 31.9602 71.121 35.3442C73.4441 43.2402 74.0946 47.7522 74.1875 48.4102C74.745 49.1622 80.1347 56.3062 81.6215 63.2622C83.2012 70.4062 82.0861 83.5662 72.329 88.4542C68.1474 90.6162 64.1517 92.0262 59.9701 92.8722ZM43.6154 13.6302C35.7168 15.2282 29.9555 22.8422 27.1677 27.2602C24.7517 31.2082 23.079 36.9422 22.0569 41.0782C21.0347 45.4962 20.4772 49.0682 20.4772 49.1622V49.2562V49.3502C15.738 55.3662 9.51207 70.7822 14.0654 79.8062C16.2026 84.0362 20.3842 87.5142 26.1455 89.9582C31.1635 92.0262 37.2965 93.3422 43.4295 93.4362C50.3988 93.6242 55.3238 93.2482 59.8771 92.3082C64.0587 91.4622 67.8686 90.0522 72.1432 87.9842C81.6215 83.1902 82.7366 70.3122 81.1568 63.3562C79.5771 56.2122 73.8158 48.6922 73.7229 48.5982V48.5042V48.4102C73.7229 48.4102 73.0724 43.8042 70.6564 35.3442C69.7271 32.0542 67.7757 27.1662 64.0587 22.5602C60.5276 18.2362 56.1602 15.2282 51.2352 13.8182C48.6333 13.2542 46.1243 13.1602 43.6154 13.6302Z" fill="#DD9C27"/>
<path d="M45.9385 12.3146C45.9385 12.3146 48.9121 7.99065 54.4875 5.26465L55.7885 7.80265C55.7885 7.80265 49.2838 10.7166 46.5889 14.1946" fill="#F2B723"/>
<path d="M45.9385 12.3144C46.0314 12.1264 46.2172 11.9384 46.3102 11.7504C46.4031 11.5624 46.5889 11.3744 46.7748 11.1864C46.9606 10.9984 47.0536 10.8104 47.2394 10.6224C47.4253 10.4344 47.5182 10.2464 47.704 10.0584C47.8899 9.87042 47.9828 9.68242 48.1687 9.58842C48.3545 9.40042 48.5404 9.21242 48.6333 9.11842L49.1908 8.64842C49.3767 8.46042 49.5625 8.36642 49.7484 8.17842C49.8413 8.08442 49.9342 7.99042 50.0272 7.99042L50.3059 7.80242C50.4918 7.52042 50.6776 7.42642 50.8635 7.23842L51.421 6.86242L51.6069 6.76842L51.7927 6.67442L52.0715 6.48642L52.3503 6.29842C52.4432 6.20442 52.5361 6.20442 52.629 6.11042L53.2795 5.73442C53.4654 5.64042 53.6512 5.54642 53.93 5.35842L54.5805 5.07642L54.7663 4.98242L54.8592 5.17042L55.5097 6.48642L56.1602 7.80242L56.2531 7.99042L56.0672 8.08442C55.8814 8.17842 55.6026 8.27242 55.4168 8.36642C55.2309 8.46042 54.9521 8.55442 54.7663 8.64842L54.1158 8.93042C53.93 9.02442 53.7441 9.11842 53.4654 9.21242C53.0937 9.40042 52.629 9.68242 52.2573 9.87042C51.8856 10.0584 51.421 10.3404 51.0493 10.6224C50.8635 10.7164 50.6776 10.9044 50.4918 10.9984C50.3059 11.0924 50.1201 11.2804 49.9342 11.3744C49.7484 11.4684 49.5625 11.6564 49.3767 11.7504C49.1908 11.8444 49.005 12.0324 48.8191 12.1264C48.6333 12.3144 48.4474 12.4084 48.2616 12.5964L47.9828 12.7844C47.8899 12.8784 47.797 12.9724 47.704 12.9724C47.6111 13.0664 47.5182 13.1604 47.4253 13.2544C47.3323 13.3484 47.2394 13.4424 47.1465 13.5364C47.0536 13.6304 46.9606 13.7244 46.8677 13.8184L46.5889 14.1004L46.7748 13.8184C46.8677 13.7244 46.9606 13.6304 46.9606 13.5364C47.0536 13.4424 47.1465 13.3484 47.2394 13.2544C47.3323 13.1604 47.4253 13.0664 47.5182 12.9724C47.6111 12.8784 47.704 12.7844 47.797 12.6904L48.0757 12.4084C48.2616 12.2204 48.4474 12.1264 48.6333 11.9384C48.8191 11.7504 49.005 11.6564 49.1908 11.4684C49.3767 11.2804 49.5625 11.1864 49.7484 10.9984C49.9342 10.8104 50.1201 10.7164 50.3059 10.6224C50.4918 10.5284 50.6776 10.3404 50.8635 10.2464C51.2352 9.96442 51.6069 9.68242 52.0715 9.49442C52.2573 9.40042 52.4432 9.21242 52.722 9.11842C52.9078 9.02442 53.0937 8.83642 53.3724 8.74242C53.6512 8.64842 54.0229 8.46042 54.4875 8.27242C54.6734 8.17842 54.9521 8.08442 55.138 7.99042C55.3238 7.89642 55.6026 7.80242 55.7885 7.70842L55.6955 7.99042L54.9521 6.58042L54.3017 5.26442L54.5805 5.35842L53.93 5.64042C53.7441 5.73442 53.5583 5.82842 53.2795 5.92242L52.722 6.29842C52.722 6.48642 52.629 6.58042 52.5361 6.58042L52.2573 6.76842L51.9786 6.95642L51.7927 7.05042L51.6069 7.14442L51.0493 7.52042C50.8635 7.61442 50.6776 7.80242 50.4918 7.89642L50.213 8.08442C50.1201 8.17842 50.0272 8.27242 49.9342 8.27242C49.7484 8.46042 49.5625 8.55442 49.3767 8.74242L48.8191 9.21242C48.6333 9.40042 48.4474 9.49442 48.2616 9.68242C48.0757 9.87042 47.8899 9.96442 47.797 10.1524C47.6111 10.3404 47.4253 10.4344 47.3323 10.6224C47.1465 10.8104 47.0536 10.9984 46.8677 11.0924C46.6819 11.2804 46.5889 11.4684 46.4031 11.6564C46.2172 11.9384 46.1243 12.1264 45.9385 12.3144Z" fill="#D1860B"/>
<path d="M43.9871 14.0995C43.9871 14.0995 44.9163 4.98154 47.3323 0.563541C47.3323 0.563541 50.1201 -0.376459 52.4432 0.939541C52.4432 0.939541 46.5889 8.08354 45.288 14.6635" fill="#F2B723"/>
<path d="M43.9871 14.1C43.9871 13.536 44.08 12.972 44.1729 12.314C44.2658 11.75 44.2658 11.186 44.3588 10.528C44.3588 10.246 44.4517 9.964 44.4517 9.682C44.4517 9.4 44.5446 9.118 44.6375 8.836C44.7305 8.554 44.7305 8.272 44.8234 7.99C44.9163 7.708 44.9163 7.426 45.0092 7.144C45.1022 6.862 45.1022 6.58 45.1951 6.298C45.288 6.016 45.288 5.734 45.3809 5.452C45.4739 5.17 45.5668 4.888 45.5668 4.606C45.6597 4.324 45.7526 4.042 45.8456 3.76C45.9385 3.478 46.0314 3.196 46.1243 2.914C46.2173 2.632 46.3102 2.35 46.4031 2.068C46.496 1.974 46.496 1.786 46.5889 1.692C46.6819 1.598 46.6819 1.41 46.7748 1.316C46.8677 1.222 46.8677 1.034 46.9606 0.94L47.1465 0.47V0.376H47.2394C47.3323 0.376 47.4253 0.282 47.6111 0.282C47.704 0.282 47.797 0.188 47.9828 0.188C48.0757 0.188 48.1687 0.188 48.3545 0.094C48.4474 0.094 48.5404 0.094 48.7262 0C48.8191 0 48.9121 0 49.0979 0C49.1908 0 49.2838 0 49.4696 0C49.5625 0 49.6555 0 49.8413 0C49.9342 0 50.0272 0 50.213 0C50.3059 0 50.3989 0 50.5847 0H50.9564C51.0493 0 51.1422 0 51.3281 0.094C51.421 0.094 51.5139 0.094 51.6998 0.188L52.0715 0.282L52.3503 0.376L52.5361 0.47L52.722 0.564L53.0007 0.752L53.2795 0.846L53.0937 1.128C52.9078 1.41 52.722 1.598 52.5361 1.88C52.3503 2.162 52.1644 2.35 51.9786 2.632C51.7927 2.914 51.6069 3.196 51.421 3.384C51.2352 3.666 51.0493 3.948 50.8635 4.136C50.6776 4.418 50.4918 4.7 50.3059 4.982L50.0272 5.358L49.7484 5.734C49.5625 6.016 49.3767 6.298 49.2838 6.58C49.0979 6.862 48.9121 7.144 48.8191 7.426C48.6333 7.708 48.5404 7.99 48.3545 8.272C48.1687 8.554 48.0757 8.836 47.8899 9.118C47.704 9.4 47.6111 9.682 47.4253 9.964C47.2394 10.246 47.1465 10.528 47.0536 10.81C46.9606 11.092 46.7748 11.374 46.6819 11.75C46.5889 12.032 46.496 12.314 46.3102 12.69C46.2172 12.972 46.1243 13.348 46.0314 13.63C45.9385 13.912 45.8456 14.288 45.7526 14.57C45.8456 14.288 45.8456 13.912 45.9385 13.63C46.0314 13.348 46.1243 12.972 46.2172 12.69C46.3102 12.408 46.4031 12.032 46.496 11.75C46.5889 11.468 46.6819 11.092 46.8677 10.81C46.9606 10.528 47.1465 10.246 47.2394 9.87C47.3323 9.588 47.5182 9.306 47.6111 8.93C47.797 8.648 47.8899 8.366 48.0757 8.084C48.2616 7.802 48.3545 7.52 48.5404 7.238C48.7262 6.956 48.8191 6.674 49.005 6.392C49.1908 6.11 49.2838 5.828 49.4696 5.546C49.6555 5.264 49.8413 4.982 49.9342 4.7C50.1201 4.418 50.3059 4.136 50.4918 3.854C50.8635 3.29 51.2352 2.726 51.6069 2.256C51.7927 1.974 51.9786 1.692 52.1644 1.504C52.3503 1.222 52.5361 0.94 52.722 0.752L52.8149 1.128L52.5361 1.034L51.8856 0.94H51.7927L51.5139 0.846L51.2352 0.752C51.1423 0.752 51.0493 0.658 50.9564 0.658C50.8635 0.658 50.7705 0.658 50.6776 0.564H50.3989C50.3059 0.564 50.213 0.564 50.1201 0.564C50.0272 0.564 49.9342 0.564 49.8413 0.564C49.7484 0.564 49.6555 0.564 49.5625 0.564C49.4696 0.564 49.3767 0.564 49.2838 0.564C49.1908 0.564 49.0979 0.564 49.005 0.564C48.9121 0.564 48.8191 0.564 48.7262 0.564C48.6333 0.564 48.5404 0.564 48.4474 0.658C48.3545 0.658 48.2616 0.658 48.1687 0.752C48.0757 0.752 47.9828 0.846 47.8899 0.846L48.0757 0.752L47.8899 1.128C47.797 1.222 47.797 1.41 47.704 1.504C47.1465 1.598 47.0536 1.692 46.9606 1.88C46.8677 1.974 46.8677 2.162 46.7748 2.256C46.6819 2.538 46.5889 2.82 46.496 3.102C46.4031 3.384 46.3102 3.666 46.2172 3.948C46.2172 4.042 46.1243 4.23 46.1243 4.324C46.1243 4.418 46.0314 4.606 46.0314 4.7C45.9385 4.982 45.8456 5.264 45.7526 5.546C45.6597 5.828 45.5668 6.11 45.5668 6.392C45.4739 6.674 45.3809 6.956 45.3809 7.238C45.288 7.52 45.288 7.802 45.1951 8.084C45.1022 8.366 45.1022 8.648 45.0092 8.93C44.9163 9.494 44.7305 10.058 44.6375 10.622C44.5446 11.186 44.4517 11.75 44.3588 12.314L44.1729 13.16C44.08 13.536 44.08 13.818 43.9871 14.1Z" fill="#D1860B"/>
<path d="M44.3586 14.2882C44.3586 14.2882 45.3808 5.45216 48.2615 0.752156C48.2615 0.752156 48.9119 0.564156 49.4695 0.658156C49.4695 0.658156 45.3808 7.99016 44.6374 14.4762L44.3586 14.2882Z" fill="#F7D234"/>
<path d="M46.0315 12.8781C46.0315 12.8781 49.0051 8.55412 54.5805 5.82812L54.9522 6.58013C54.9522 6.58013 49.3768 9.21212 46.0315 12.8781Z" fill="#F7D234"/>
<path d="M48.5403 12.3135C48.5403 12.3135 52.8148 9.86951 55.6955 10.5275L56.5318 13.5355C56.5318 13.5355 51.8856 12.7835 48.0757 14.0055" fill="#F2B723"/>
<path d="M48.5403 12.3138C48.8191 12.1258 49.0979 12.0318 49.3766 11.8438C49.6554 11.6558 49.9342 11.5618 50.2129 11.4678C50.3988 11.3738 50.4917 11.3738 50.6776 11.2798C50.8634 11.1858 50.9563 11.1858 51.1422 11.0918C51.328 10.9978 51.421 10.9978 51.6068 10.9038C51.7927 10.8098 51.8856 10.8098 52.0714 10.7158C52.2573 10.6218 52.3502 10.6218 52.5361 10.6218C52.7219 10.6218 52.8148 10.5278 53.0007 10.5278C53.1865 10.5278 53.2795 10.4338 53.4653 10.4338C53.6512 10.4338 53.7441 10.3398 53.9299 10.3398C54.1158 10.3398 54.2087 10.3398 54.3945 10.3398H54.6733C54.7662 10.3398 54.8592 10.3398 54.9521 10.3398C55.045 10.3398 55.1379 10.3398 55.2309 10.3398C55.3238 10.3398 55.4167 10.3398 55.5096 10.3398C55.6955 10.3398 55.7884 10.3398 55.9743 10.4338H56.0672V10.5278L56.5318 12.0318C56.7177 12.5018 56.8106 13.0658 56.9964 13.5358L57.0894 13.8178H56.8106C56.6247 13.8178 56.4389 13.7238 56.253 13.7238C56.0672 13.7238 55.8813 13.7238 55.6955 13.6298C55.5096 13.6298 55.3238 13.6298 55.1379 13.6298C54.9521 13.6298 54.7662 13.6298 54.5804 13.6298C54.3945 13.6298 54.2087 13.6298 54.0229 13.6298C53.837 13.6298 53.6512 13.6298 53.4653 13.6298C53.2795 13.6298 53.0936 13.6298 52.9078 13.6298C52.7219 13.6298 52.5361 13.6298 52.3502 13.6298H51.7927H51.2351C51.0493 13.6298 50.8634 13.6298 50.6776 13.6298H50.3988C50.3059 13.6298 50.2129 13.6298 50.12 13.6298L49.5625 13.7238C49.3766 13.7238 49.1908 13.8178 49.0049 13.8178L48.7262 13.9118C48.6332 13.9118 48.5403 13.9118 48.4474 14.0058H48.0757L48.5403 13.8178C48.6332 13.8178 48.7262 13.7238 48.8191 13.7238L49.0979 13.6298C49.2837 13.6298 49.4696 13.5358 49.6554 13.5358L50.2129 13.4418C50.3988 13.4418 50.5846 13.3478 50.7705 13.3478C50.9563 13.3478 51.1422 13.2538 51.328 13.2538L51.8856 13.1598H52.4431C52.629 13.1598 52.8148 13.1598 53.0007 13.1598C53.1865 13.1598 53.3724 13.1598 53.5582 13.1598C53.7441 13.1598 53.9299 13.1598 54.1158 13.1598C54.3016 13.1598 54.4875 13.1598 54.6733 13.1598C54.8592 13.1598 55.045 13.1598 55.2309 13.1598C55.4167 13.1598 55.6026 13.1598 55.7884 13.1598C55.9743 13.1598 56.1601 13.1598 56.346 13.2538C56.5318 13.2538 56.7177 13.2538 56.9035 13.3478L56.7177 13.5358C56.5318 13.0658 56.4389 12.5958 56.253 12.0318L55.7884 10.5278L55.8813 10.6218H55.6955C55.6026 10.6218 55.5096 10.6218 55.5096 10.6218C55.4167 10.6218 55.3238 10.6218 55.3238 10.6218C55.2309 10.6218 55.1379 10.6218 55.1379 10.6218C55.045 10.6218 54.9521 10.6218 54.9521 10.6218H54.7662C54.5804 10.6218 54.4875 10.6218 54.3016 10.6218C54.1158 10.6218 54.0229 10.6218 53.837 10.7158C53.6512 10.7158 53.5582 10.8098 53.3724 10.8098C53.1865 10.8098 53.0936 10.9038 52.9078 10.9038C52.7219 10.9038 52.629 10.9978 52.4431 10.9978C52.2573 10.9978 52.1644 11.0918 51.9785 11.0918C51.7927 11.0918 51.6997 11.1858 51.5139 11.2798C51.328 11.3738 51.2351 11.3738 51.0493 11.4678C50.8634 11.5618 50.7705 11.5618 50.5846 11.6558C50.3059 11.7498 50.0271 11.8438 49.7483 12.0318C49.0979 12.0318 48.8191 12.2198 48.5403 12.3138Z" fill="#D1860B"/>
<path d="M48.3545 12.972C48.3545 12.972 51.6069 10.716 55.4168 10.998L55.6026 11.938C55.6955 11.938 53.3724 10.716 48.3545 12.972Z" fill="#F7D234"/>
<path d="M55.6956 12.9717C55.6956 12.9717 57.5541 15.6037 59.1338 16.9197C60.7135 18.2357 67.5899 23.4997 68.5192 24.2517C68.5192 24.2517 67.4041 24.3457 63.6871 23.0297C59.9701 21.7137 56.5319 20.3977 53.5583 17.3897C53.5583 17.4837 53.93 13.5357 55.6956 12.9717Z" fill="#6D360E"/>
<path d="M41.4781 13.1595C41.4781 13.1595 42.9649 11.5615 42.2215 9.21152C42.2215 9.21152 39.155 7.80152 35.7168 9.77552C32.3715 11.7495 29.8626 14.7575 29.3979 20.7735C29.3979 20.7735 37.2036 11.2795 41.4781 13.1595Z" fill="#6D360E"/>
<path d="M59.5056 56.8695C59.5056 56.7755 59.5056 56.7755 59.5056 56.8695C59.5985 56.7755 59.5985 56.6815 59.6915 56.5875C59.8773 56.3995 60.0632 56.2115 60.3419 56.0235C60.6207 55.8355 60.9924 55.5535 61.457 55.3655C61.55 55.2715 61.6429 55.2715 61.8287 55.2715C61.9217 55.2715 62.0146 55.1775 62.2004 55.1775C62.4792 55.0835 62.665 54.9895 62.9438 54.9895C63.2226 54.8955 63.4084 54.8955 63.6872 54.8955C63.7801 54.8955 63.966 54.8955 64.0589 54.8955C64.1518 54.8955 64.3377 54.8955 64.4306 54.8955C64.5235 54.8955 64.6165 54.8955 64.8023 54.8955C64.8952 54.8955 64.9882 54.8955 65.0811 54.9895C65.174 54.9895 65.2669 54.9895 65.3599 55.0835C65.4528 55.0835 65.5457 55.1775 65.6386 55.1775C65.8245 55.2715 66.0103 55.2715 66.1033 55.3655C66.1962 55.4595 66.382 55.4595 66.475 55.5535C66.5679 55.6475 66.6608 55.6475 66.6608 55.6475C66.5679 55.6475 66.4749 55.6475 66.382 55.6475C66.2891 55.6475 66.1962 55.6475 66.0103 55.6475C65.9174 55.6475 65.8245 55.6475 65.8245 55.6475C65.7316 55.6475 65.6386 55.6475 65.5457 55.6475C65.4528 55.6475 65.3599 55.6475 65.2669 55.6475C65.174 55.6475 65.0811 55.6475 64.9882 55.6475C64.8952 55.6475 64.8023 55.6475 64.7094 55.6475C64.6165 55.6475 64.5235 55.6475 64.4306 55.6475C64.3377 55.6475 64.2448 55.6475 64.1518 55.6475C64.0589 55.6475 63.966 55.6475 63.7801 55.6475C63.5943 55.6475 63.3155 55.7415 63.1297 55.7415C62.9438 55.7415 62.665 55.8355 62.4792 55.9295C62.2933 56.0235 62.0146 56.0235 61.8287 56.1175C61.6429 56.2115 61.457 56.2115 61.2712 56.3055C61.0853 56.3995 60.8995 56.4935 60.7136 56.4935C60.5278 56.5875 60.4349 56.5875 60.249 56.6815C60.1561 56.7755 59.9702 56.7755 59.8773 56.8695C59.6915 56.6815 59.5985 56.7755 59.5056 56.8695Z" fill="#D1860B"/>
<path d="M27.168 56.1175C27.2609 56.0235 27.3538 55.9295 27.4467 55.9295C27.5397 55.8355 27.6326 55.8355 27.8184 55.7415C27.9114 55.6475 28.0972 55.6475 28.2831 55.5535C28.4689 55.4595 28.6548 55.4595 28.8406 55.3655C28.9335 55.3655 29.0265 55.3655 29.1194 55.2715C29.2123 55.2715 29.3052 55.2715 29.4911 55.2715C29.584 55.2715 29.7699 55.2715 29.8628 55.2715C29.9557 55.2715 30.1416 55.2715 30.2345 55.2715C30.3274 55.2715 30.5133 55.2715 30.6062 55.2715C30.6991 55.2715 30.8849 55.2715 30.9779 55.2715C31.0708 55.2715 31.2566 55.2715 31.3496 55.3655C31.4425 55.3655 31.4425 55.3655 31.5354 55.3655C31.6283 55.3655 31.6283 55.3655 31.7213 55.3655C31.8142 55.3655 32 55.4595 32.093 55.4595C32.1859 55.4595 32.1859 55.4595 32.2788 55.5535C32.3717 55.5535 32.3717 55.5535 32.4647 55.6475C32.6505 55.7415 32.9293 55.8355 33.1151 55.9295C33.301 56.0235 33.4868 56.1175 33.6727 56.2115C33.7656 56.2115 33.8585 56.3055 33.8585 56.3055C33.9515 56.3055 33.9515 56.3995 34.0444 56.3995C34.1373 56.4935 34.2302 56.5875 34.3232 56.5875C34.4161 56.6815 34.509 56.6815 34.509 56.7755L34.6019 56.8695C34.6019 56.8695 34.6019 56.8695 34.509 56.8695C34.4161 56.8695 34.4161 56.8695 34.2302 56.7755C34.1373 56.7755 34.0444 56.6815 33.8585 56.6815C33.7656 56.6815 33.6727 56.6815 33.6727 56.5875C33.5798 56.5875 33.4868 56.5875 33.3939 56.4935C33.2081 56.4935 33.0222 56.3995 32.8364 56.3055C32.6505 56.3055 32.4647 56.2115 32.1859 56.1175C32 56.0235 31.7213 56.0235 31.5354 56.0235C31.4425 56.0235 31.4425 56.0235 31.3496 56.0235C31.2566 56.0235 31.2566 56.0235 31.1637 56.0235C31.0708 56.0235 30.9779 56.0235 30.792 55.9295C30.6991 55.9295 30.6062 55.9295 30.4203 55.9295C30.3274 55.9295 30.2345 55.9295 30.0486 55.9295C29.8628 55.9295 29.584 55.9295 29.3982 55.9295C29.3052 55.9295 29.2123 55.9295 29.1194 55.9295C29.0265 55.9295 28.9335 55.9295 28.8406 55.9295C28.7477 55.9295 28.7477 55.9295 28.6548 55.9295C28.5618 55.9295 28.5618 55.9295 28.4689 55.9295C28.376 55.9295 28.2831 55.9295 28.1901 55.9295C28.0043 55.9295 27.8184 55.9295 27.7255 56.0235C27.5397 56.0235 27.4467 56.0235 27.3538 56.1175C27.3538 56.1175 27.2609 56.1175 27.168 56.1175Z" fill="#D1860B"/>
<path d="M30.6997 55.9299C30.6997 55.9299 34.4167 58.3739 39.2488 58.9379C44.9172 59.5959 54.4884 59.2199 56.7186 58.3739C59.0417 57.5279 62.6657 56.7759 63.6879 55.8359C63.6879 55.8359 60.8072 61.9459 56.6256 66.4579C52.444 70.9699 44.0808 74.8239 37.3903 68.2439C32.744 63.6379 30.6997 55.9299 30.6997 55.9299Z" fill="#6B1510"/>
<path d="M48.0762 71.7212C44.0805 72.5672 40.3635 71.4392 37.297 68.4312C32.6508 63.8252 30.6064 56.1171 30.6064 56.0231C30.6064 55.9291 30.6064 55.8351 30.6994 55.8351C30.7923 55.7411 30.8852 55.7411 30.9781 55.8351C30.9781 55.8351 34.6951 58.2791 39.4343 58.8431C43.8017 59.3131 52.3508 59.3131 56.0677 58.5611C56.4394 58.4671 56.6253 58.4671 56.9041 58.3731C57.6475 58.0911 58.5767 57.8091 59.413 57.6211C61.2715 57.0571 63.13 56.4931 63.7805 55.9291C63.8734 55.8351 63.9663 55.8351 64.0593 55.9291C64.1522 56.0231 64.1522 56.1171 64.1522 56.2111C64.1522 56.3051 61.2715 62.4151 57.0899 66.8331C54.3951 69.2771 51.2357 71.1572 48.0762 71.7212ZM31.0711 56.3991C31.6286 58.1851 33.673 64.2951 37.5758 68.0551C40.5494 70.9691 44.0805 72.0972 47.9833 71.2512C51.0498 70.5932 54.2093 68.8071 56.5324 66.2691C59.7847 62.7911 62.2937 58.1851 63.13 56.4931C62.2008 56.9631 60.8069 57.4331 59.3201 57.8091C58.4838 58.0911 57.5545 58.3731 56.8111 58.5611C56.6253 58.6551 56.2536 58.7491 55.9748 58.7491C54.3951 59.0311 51.5145 59.3131 48.355 59.4071C45.0097 59.5011 41.6645 59.4071 39.2484 59.1251C35.4385 58.7491 32.2791 57.0571 31.0711 56.3991Z" fill="#D1860B"/>
<path d="M40.085 69.5589C40.085 69.5589 41.4788 67.8669 43.4302 68.0549C45.3817 68.2429 46.218 69.6529 46.218 69.6529C46.218 69.6529 47.426 67.9609 49.1916 67.9609C50.9571 67.9609 52.2581 69.2769 52.2581 69.2769C52.2581 69.2769 49.1916 71.0629 46.218 71.1569C43.0585 71.3449 40.085 69.5589 40.085 69.5589Z" fill="#A11A1C"/>
<path d="M47.7046 71.439C47.1471 71.533 46.5895 71.627 46.032 71.627C42.9655 71.721 39.9919 69.935 39.806 69.841L39.4343 69.653L39.7131 69.371C39.7131 69.277 40.7353 68.149 42.2221 67.867C42.6867 67.679 43.0584 67.679 43.4301 67.679C44.9169 67.867 45.7532 68.619 46.1249 69.089C46.4966 68.619 47.3329 67.961 48.3551 67.679C48.5409 67.585 48.8197 67.585 49.0055 67.585C50.864 67.585 52.2579 68.995 52.2579 68.995L52.5367 69.277L52.165 69.465C52.2579 69.747 50.1206 70.875 47.7046 71.439ZM40.6423 69.465C41.5716 69.935 43.8947 70.969 46.032 70.875C46.4966 70.875 47.0541 70.781 47.5188 70.687C49.1914 70.311 50.7711 69.653 51.4216 69.277C50.957 68.901 50.0277 68.337 49.0055 68.337C48.8197 68.337 48.6338 68.337 48.448 68.431C47.1471 68.713 46.3107 69.841 46.3107 69.935L46.032 70.405L45.7532 69.935C45.7532 69.841 45.0098 68.713 43.2442 68.525C42.9655 68.525 42.6867 68.525 42.4079 68.525C41.6645 68.619 41.014 69.089 40.6423 69.465Z" fill="#851817"/>
<path d="M40.4561 74.447C40.4561 74.447 40.549 74.447 40.6419 74.447C40.7348 74.447 40.9207 74.447 41.0136 74.541C41.1995 74.541 41.3853 74.635 41.6641 74.635C41.9428 74.635 42.2216 74.729 42.5004 74.729C42.7792 74.729 43.1509 74.823 43.5226 74.823C43.8943 74.823 44.266 74.917 44.6377 74.917C45.0094 74.917 45.3811 74.917 45.8457 74.917C46.2174 74.917 46.682 74.917 47.0537 74.917H47.3325C47.4254 74.917 47.5183 74.917 47.6112 74.917C47.7971 74.917 47.9829 74.917 48.2617 74.917C48.6334 74.917 49.098 74.823 49.4697 74.823C49.6556 74.823 49.8414 74.729 50.0273 74.729C50.2131 74.729 50.399 74.635 50.5848 74.635C50.7707 74.635 50.9565 74.541 51.0494 74.541C51.2353 74.541 51.3282 74.447 51.5141 74.447C51.6999 74.447 51.7928 74.353 51.9787 74.353C52.0716 74.353 52.0716 74.353 52.1645 74.353C52.2575 74.353 52.2575 74.353 52.3504 74.353C52.6292 74.259 52.815 74.259 53.0009 74.259C53.1867 74.259 53.2796 74.165 53.3726 74.165C53.4655 74.165 53.5584 74.165 53.5584 74.165C53.5584 74.165 53.4655 74.165 53.4655 74.259C53.3726 74.259 53.2796 74.353 53.0938 74.447C52.9079 74.541 52.7221 74.635 52.4433 74.729C52.1645 74.823 51.9787 74.917 51.607 75.011C51.3282 75.105 50.9565 75.199 50.6777 75.293C50.399 75.199 50.2131 75.199 50.0273 75.199C49.8414 75.199 49.6556 75.293 49.4697 75.293C49.2839 75.293 49.098 75.387 48.9122 75.387C48.7263 75.387 48.5405 75.481 48.2617 75.481C48.0759 75.481 47.89 75.575 47.6112 75.575C47.5183 75.575 47.4254 75.575 47.3325 75.575H47.0537C46.5891 75.575 46.2174 75.575 45.7528 75.575C45.3811 75.575 44.9164 75.575 44.5447 75.481C44.173 75.481 43.8013 75.387 43.4296 75.293C43.0579 75.199 42.7792 75.105 42.4075 75.105C42.1287 75.011 41.8499 74.917 41.5711 74.823C41.2924 74.729 41.1065 74.635 40.9207 74.541C40.7348 74.447 40.6419 74.447 40.549 74.353C40.549 74.447 40.4561 74.447 40.4561 74.447Z" fill="#D1860B"/>
<path d="M39.1551 16.3564C39.1551 16.3564 33.022 21.0564 28.4687 32.4304C23.9154 43.8044 23.8225 51.0424 23.8225 51.0424C23.8225 51.0424 10.7202 63.0744 21.6853 86.0104C21.6853 86.0104 12.5787 79.6184 14.0654 67.6804C15.5522 55.7424 21.7782 49.8204 21.7782 49.8204C21.7782 49.8204 23.5437 30.1744 39.1551 16.3564Z" fill="#F7D234"/>
<path d="M60.5277 20.5855C60.3418 20.3975 65.1739 24.3455 68.7979 33.6515C72.422 42.9575 73.1654 49.7255 73.1654 49.7255C73.1654 49.7255 77.5328 55.1775 78.4621 62.3215L73.63 56.2115C73.63 56.2115 72.0503 52.0755 70.2847 49.8195C70.2847 49.7255 69.6343 34.1215 60.5277 20.5855Z" fill="#F7D234"/>
<path d="M23.2649 51.7945C23.2649 51.7945 23.3578 51.7945 23.4507 51.7005C23.5437 51.7005 23.6366 51.6065 23.7295 51.6065C23.8224 51.6065 23.9154 51.5125 24.1012 51.5125C24.1941 51.4185 24.38 51.4185 24.5658 51.3245C24.7517 51.2305 24.9375 51.2305 25.1234 51.1365C25.3092 51.0425 25.4951 51.0425 25.6809 50.9485C25.8668 50.8545 26.1456 50.8545 26.3314 50.7605C26.6102 50.7605 26.796 50.6665 27.0748 50.6665C27.3536 50.6665 27.6323 50.5725 27.9111 50.5725C28.1899 50.5725 28.4687 50.5725 28.7474 50.4785C29.0262 50.4785 29.305 50.4785 29.5838 50.4785C29.8625 50.4785 30.2342 50.4785 30.513 50.4785C30.7918 50.4785 31.1635 50.5725 31.4422 50.5725C31.721 50.6665 32.0927 50.6665 32.3715 50.7605C32.4644 50.7605 32.5573 50.7605 32.6503 50.8545L32.929 50.9485L33.3937 51.0425H33.4866H33.5795H33.6724L33.8583 51.1365C34.0441 51.2305 34.1371 51.2305 34.3229 51.3245L34.5088 51.4185C34.6017 51.4185 34.6946 51.5125 34.6946 51.5125C34.8805 51.6065 34.9734 51.6065 35.1592 51.7005C35.438 51.7945 35.7168 51.9825 35.9955 52.0765C36.0885 52.1705 36.2743 52.1705 36.3672 52.2645C36.4602 52.3585 36.646 52.4525 36.7389 52.4525C36.8319 52.5465 37.0177 52.5465 37.1106 52.6405C37.2036 52.7345 37.3894 52.8285 37.4823 52.8285C37.5753 52.9225 37.7611 53.0165 37.854 53.0165C37.947 53.1105 38.1328 53.2045 38.2257 53.2045C38.4116 53.3925 38.6904 53.4865 38.8762 53.6745C39.0621 53.8625 39.2479 53.9565 39.4338 54.1445C39.8055 54.4265 40.0842 54.7085 40.363 54.9905C40.6418 55.2725 40.8276 55.5545 41.0135 55.7425C41.1993 55.9305 41.2922 56.1185 41.3852 56.2125C41.4781 56.3065 41.4781 56.4005 41.4781 56.4005C41.3852 56.3065 41.1993 56.1185 41.0135 55.9305C40.8276 55.7425 40.5488 55.5545 40.2701 55.2725C40.0842 55.1785 39.9913 54.9905 39.8055 54.8965C39.6196 54.8025 39.4338 54.6145 39.2479 54.5205C39.0621 54.4265 38.8762 54.2385 38.5974 54.1445C38.5045 54.0505 38.4116 54.0505 38.3187 53.9565C38.2257 53.8625 38.1328 53.8625 37.947 53.7685C37.854 53.6745 37.7611 53.6745 37.5753 53.5805C37.4823 53.4865 37.2965 53.4865 37.2036 53.3925C37.1106 53.2985 36.9248 53.2985 36.8319 53.2045C36.7389 53.1105 36.5531 53.1105 36.4602 53.0165C36.3672 52.9225 36.1814 52.9225 36.0885 52.8285C35.9955 52.7345 35.8097 52.7345 35.7168 52.6405C35.438 52.5465 35.1592 52.3585 34.8805 52.2645C34.6946 52.1705 34.6017 52.1705 34.4158 52.0765C34.3229 52.0765 34.23 51.9825 34.23 51.9825L34.0441 51.8885C33.8583 51.7945 33.7654 51.7945 33.5795 51.7005H33.3007H33.2078H33.1149L32.6503 51.6065L32.4644 51.5125C32.3715 51.5125 32.2786 51.5125 32.2786 51.4185C31.9998 51.3245 31.721 51.3245 31.3493 51.2305C31.0705 51.2305 30.7918 51.1365 30.4201 51.1365C30.1413 51.1365 29.8625 51.1365 29.5838 51.0425C29.305 51.0425 29.0262 51.0425 28.7474 51.0425C28.4687 51.0425 28.1899 51.0425 27.9111 51.0425C27.6323 51.0425 27.3536 51.0425 27.1677 51.1365C26.8889 51.1365 26.7031 51.2305 26.4243 51.2305C26.2385 51.2305 25.9597 51.3245 25.7739 51.3245C25.588 51.3245 25.4022 51.4185 25.2163 51.4185C25.0305 51.4185 24.8446 51.5125 24.6588 51.5125C24.4729 51.5125 24.38 51.6065 24.1941 51.6065C24.1012 51.6065 23.9154 51.7005 23.8224 51.7005C23.7295 51.7005 23.6366 51.7945 23.5437 51.7945C23.4507 51.7945 23.3578 51.7945 23.2649 51.7945Z" fill="#D1860B"/>
<path d="M29.398 50.4783C29.398 50.4783 25.4951 40.7023 28.3758 32.4303C31.2565 24.1583 35.1593 24.3463 37.4824 24.2523C39.8984 24.0643 43.5225 24.3463 47.2395 30.7383C47.2395 30.7383 53.0937 20.0223 61.8286 25.0983C70.5635 30.1743 66.3819 47.0003 65.081 50.0083L57.7399 50.5723L45.7527 49.8203L30.9777 49.5383L29.398 50.4783Z" fill="#984F17"/>
<path d="M30.2342 50.2907C30.2342 50.2907 26.4243 36.9427 32.0927 29.6107C37.7611 22.2787 45.6597 29.3287 47.4252 31.2087C47.4252 31.2087 54.2087 23.1247 60.6205 27.3547C67.0323 31.5847 66.2889 43.6167 64.5233 50.1967C64.5233 50.1967 57.554 49.2567 52.5361 55.5547C52.5361 55.5547 49.5625 54.5207 47.1465 51.0427C47.1465 51.0427 45.1951 53.7687 40.8276 55.5547C40.7347 55.5547 38.1328 51.1367 30.2342 50.2907Z" fill="white"/>
<path d="M47.2392 34.4984C47.2392 34.4984 54.0227 26.2264 59.6911 31.9604C65.3595 37.6944 62.2 50.3844 62.2 50.3844C62.2 50.3844 56.6245 50.2904 52.4429 55.5544C52.4429 55.5544 49.2835 54.8024 47.0533 51.0424C47.0533 51.0424 45.009 54.0504 40.7345 55.5544C40.7345 55.5544 38.9689 52.5464 32.1854 50.6664C32.1854 50.6664 29.7694 40.7024 33.1147 34.0284C36.4599 27.2604 44.2656 30.8324 47.2392 34.4984Z" fill="#E0E7DE"/>
<path d="M47.7969 44.4617C48.1686 48.4097 50.6775 51.4177 53.4653 51.1357C56.253 50.8537 58.2044 47.3757 57.8327 43.4277C57.461 39.4797 54.952 36.4717 52.1643 36.7537C49.3766 37.0357 47.4252 40.4197 47.7969 44.4617Z" fill="#3DA2DB"/>
<path d="M53.8371 51.2302C53.7442 51.2302 53.5583 51.2302 53.4654 51.3242C52.3503 51.4182 51.3282 51.0422 50.306 50.2902C48.8192 49.0682 47.797 46.9062 47.5182 44.4622C47.1466 40.6082 49.005 37.1302 51.6999 36.5662C51.7928 36.5662 51.9786 36.5662 52.0715 36.4722C53.1866 36.3782 54.2088 36.7542 55.231 37.5062C56.7178 38.7282 57.7399 40.8902 58.0187 43.3342C58.3904 47.2822 56.5319 50.7602 53.8371 51.2302ZM51.7928 36.9422C49.2838 37.5062 47.6112 40.7962 47.8899 44.4622C48.0758 46.7182 49.098 48.8802 50.4918 50.0082C51.4211 50.7602 52.3503 51.0422 53.3725 50.9482C53.4654 50.9482 53.5583 50.9482 53.7442 50.8542C56.2531 50.2902 57.9258 47.0002 57.647 43.3342C57.4612 41.0782 56.439 38.9162 55.0451 37.7882C54.1159 37.0362 53.1866 36.7542 52.1645 36.8482C52.0715 36.8482 51.8857 36.9422 51.7928 36.9422Z" fill="#1A3F71"/>
<path d="M50.1202 44.1802C50.306 46.7182 51.607 48.5982 53.0938 48.5042C54.5806 48.4102 55.6027 46.2482 55.4169 43.7102C55.231 41.1722 53.9301 39.2922 52.4433 39.3862C50.9565 39.4802 49.9343 41.6422 50.1202 44.1802Z" fill="#1A3F71"/>
<path opacity="0.7" d="M53.5585 36.7539C53.5585 36.7539 50.399 38.3519 53.7443 42.0179C56.0674 44.6499 57.6471 41.7359 57.6471 41.7359C57.6471 41.7359 57.3684 38.3519 53.5585 36.7539Z" fill="#BCE3F9"/>
<path opacity="0.7" d="M52.5366 47.1881C53.187 48.0341 53.28 48.9741 52.7224 49.4441C52.1649 49.9141 51.2356 49.5381 50.5851 48.7861C49.9347 47.9401 49.8418 47.0001 50.3993 46.5301C50.9568 46.0601 51.8861 46.3421 52.5366 47.1881Z" fill="#BCE3F9"/>
<path opacity="0.56" d="M50.8638 43.4278C50.8638 43.4278 50.3992 42.2999 51.5143 41.5479L52.1648 42.1118C52.1648 42.1118 51.2355 42.3939 51.6072 43.4278H50.8638Z" fill="#BCE3F9"/>
<path d="M37.5752 44.1808C37.7611 48.1288 39.9913 51.3248 42.6861 51.2308C45.3809 51.1368 47.4252 47.9408 47.3323 43.8988C47.2394 39.8568 44.9163 36.7548 42.2215 36.8488C39.5266 36.9428 37.3894 40.2328 37.5752 44.1808Z" fill="#3DA2DB"/>
<path d="M43.3364 51.3242C43.1506 51.3242 42.9647 51.4182 42.6859 51.4182C39.8982 51.5122 37.4822 48.2222 37.3892 44.1802C37.2963 40.5142 39.0619 37.3182 41.5708 36.7542C41.7567 36.7542 41.9425 36.6602 42.2213 36.6602C45.0091 36.5662 47.4251 39.8562 47.518 43.8982C47.6109 47.6582 45.8454 50.8542 43.3364 51.3242ZM41.5708 37.1302C39.2477 37.6002 37.5751 40.6082 37.668 44.1802C37.7609 48.0342 39.9911 51.1362 42.593 51.0422C42.7789 51.0422 42.9647 51.0422 43.1506 50.9482C45.4737 50.4782 47.1463 47.4702 47.0534 43.8982C46.9605 40.0442 44.7303 36.9422 42.1284 37.0362C41.9425 37.1302 41.7567 37.1302 41.5708 37.1302Z" fill="#1A3F71"/>
<path d="M39.8982 44.0862C39.9912 46.5302 41.1063 48.5982 42.5001 48.5982C43.894 48.5982 45.0091 46.5302 44.9162 44.0862C44.8232 41.6422 43.7081 39.5742 42.3143 39.5742C40.9204 39.5742 39.8053 41.6422 39.8982 44.0862Z" fill="#1A3F71"/>
<path opacity="0.7" d="M43.5219 37.0361C43.5219 37.0361 40.4554 38.3521 43.429 42.2061C45.4734 44.9321 47.2389 42.2061 47.2389 42.2061C47.2389 42.2061 47.0531 39.0101 43.5219 37.0361Z" fill="#BCE3F9"/>
<path opacity="0.7" d="M42.0351 47.2818C42.5927 48.1278 42.6856 49.1618 42.1281 49.5378C41.5705 49.9138 40.6413 49.5378 40.0837 48.6918C39.5262 47.8458 39.4333 46.8118 39.9908 46.4358C40.5483 46.0598 41.4776 46.4358 42.0351 47.2818Z" fill="#BCE3F9"/>
<path opacity="0.56" d="M40.6415 43.4286C40.6415 43.4286 40.2698 42.3006 41.3849 41.6426L42.0354 42.3006C42.0354 42.3006 41.199 42.4886 41.3849 43.6166L40.6415 43.4286Z" fill="#BCE3F9"/>
<path d="M30.2342 50.2901C30.2342 50.2901 26.9818 39.2921 30.3271 32.6182C33.5795 26.1322 39.5266 23.3122 47.4252 31.2082C47.4252 31.2082 53.2795 24.1581 59.2266 26.6021C65.1738 29.0461 67.404 39.2921 64.5233 50.2901C64.5233 50.2901 68.4261 40.6081 64.7092 30.6441C60.9922 20.5861 49.1908 26.7901 47.3323 30.8321C47.3323 30.8321 40.27 22.2781 33.0219 27.5421C25.7738 32.8061 28.8403 47.2821 30.2342 50.2901Z" fill="#6D360E"/>
<path d="M51.9785 56.118C51.9785 56.118 51.9785 56.024 52.0714 55.93C52.0714 55.836 52.1644 55.836 52.2573 55.742C52.3502 55.648 52.4431 55.554 52.5361 55.46C52.629 55.366 52.7219 55.272 52.8148 55.084C52.9078 54.99 53.0936 54.802 53.1865 54.708C53.2795 54.614 53.4653 54.426 53.6512 54.238C53.837 54.05 54.0229 53.956 54.2087 53.768C54.3946 53.58 54.5804 53.486 54.7663 53.298C54.9521 53.11 55.2309 53.016 55.4167 52.828C55.6026 52.64 55.8813 52.546 56.1601 52.358C56.4389 52.17 56.6247 52.076 56.9035 51.888C57.1823 51.794 57.4611 51.606 57.7398 51.512C58.0186 51.418 58.2974 51.23 58.5762 51.136C58.8549 51.042 59.1337 50.948 59.5054 50.854C59.5983 50.854 59.6912 50.76 59.6912 50.76L59.97 50.666L60.4346 50.572H60.5276H60.6205H60.7134H60.8993C61.0851 50.572 61.178 50.478 61.3639 50.478H61.5497C61.6427 50.478 61.7356 50.478 61.8285 50.478C62.0144 50.478 62.1073 50.478 62.2931 50.384C62.5719 50.29 62.9436 50.29 63.2224 50.29C63.4082 50.29 63.5012 50.29 63.687 50.29C63.8729 50.29 63.9658 50.29 64.1516 50.29C64.3375 50.29 64.4304 50.29 64.6162 50.29C64.8021 50.29 64.895 50.29 65.0809 50.29C65.2667 50.29 65.3596 50.29 65.5455 50.29C65.7313 50.29 65.8243 50.29 65.9172 50.29C66.196 50.29 66.4747 50.384 66.7535 50.384C67.0323 50.384 67.2181 50.478 67.4969 50.478C67.9615 50.572 68.4262 50.666 68.7978 50.76C69.1695 50.854 69.4483 50.948 69.7271 51.042C70.0059 51.136 70.1917 51.23 70.2846 51.324C70.0988 51.324 69.9129 51.23 69.6342 51.136C69.3554 51.042 69.0766 51.042 68.7049 50.948C68.5191 50.948 68.3332 50.854 68.1474 50.854C67.9615 50.854 67.6828 50.76 67.4969 50.76C67.2181 50.76 67.0323 50.666 66.7535 50.666C66.6606 50.666 66.4747 50.666 66.3818 50.666C66.2889 50.666 66.103 50.666 66.0101 50.666C65.9172 50.666 65.7313 50.666 65.6384 50.666C65.5455 50.666 65.3596 50.666 65.2667 50.666C65.0809 50.666 64.9879 50.666 64.8021 50.666C64.6162 50.666 64.5233 50.666 64.3375 50.666C64.1516 50.666 64.0587 50.666 63.8728 50.666C63.687 50.666 63.5941 50.666 63.4082 50.666C63.1295 50.666 62.8507 50.76 62.479 50.76C62.2931 50.76 62.2002 50.76 62.0144 50.854C61.9214 50.854 61.8285 50.854 61.8285 50.854H61.6427C61.4568 50.854 61.3639 50.948 61.178 50.948H60.9922H60.8993H60.8063L60.3417 51.042L60.1559 51.136C60.0629 51.136 59.97 51.136 59.97 51.23C59.6912 51.324 59.4125 51.418 59.1337 51.512C58.8549 51.606 58.5762 51.7 58.2974 51.888C58.0186 51.982 57.7398 52.17 57.4611 52.264C57.1823 52.358 56.9035 52.546 56.7177 52.64C56.4389 52.734 56.253 52.922 55.9743 53.016C55.7884 53.204 55.5096 53.298 55.3238 53.392C55.1379 53.58 54.9521 53.674 54.7663 53.768C54.5804 53.956 54.3946 54.05 54.2087 54.144C54.0229 54.238 53.837 54.426 53.7441 54.52C53.5582 54.614 53.4653 54.802 53.3724 54.896C52.8148 55.272 52.7219 55.46 52.629 55.46C52.5361 55.554 52.4431 55.648 52.3502 55.742C52.2573 55.836 52.1644 55.836 52.1644 55.93C52.0714 56.024 52.0714 56.024 51.9785 56.118Z" fill="#D1860B"/>
<path d="M60.2488 79.7119C60.2488 79.7119 60.4347 81.9679 63.8729 84.5999C63.8729 84.5999 60.5276 89.8639 48.3545 89.7699C48.3545 89.7699 58.2045 87.1379 60.2488 79.7119Z" fill="#F7D234"/>
<path d="M61.2708 78.7724C61.2708 78.7724 63.0363 82.2504 64.709 83.5664C64.709 83.5664 67.4967 82.1564 68.1472 80.3704C68.1472 80.3704 66.1028 79.3364 64.9877 74.8244C64.9877 74.7304 63.5939 77.7384 61.2708 78.7724Z" fill="#F7D234"/>
</g>
<defs>
<filter id="filter0_d_1337_11637" x="-2.31567" y="0" width="98.9246" height="100" filterUnits="userSpaceOnUse" color-interpolation-filters="sRGB">
<feFlood flood-opacity="0" result="BackgroundImageFix"/>
<feColorMatrix in="SourceAlpha" type="matrix" values="0 0 0 0 0 0 0 0 0 0 0 0 0 0 0 0 0 0 127 0" result="hardAlpha"/>
<feOffset dy="3"/>
<feGaussianBlur stdDeviation="1.5"/>
<feColorMatrix type="matrix" values="0 0 0 0 0 0 0 0 0 0 0 0 0 0 0 0 0 0 0.25 0"/>
<feBlend mode="normal" in2="BackgroundImageFix" result="effect1_dropShadow_1337_11637"/>
<feBlend mode="normal" in="SourceGraphic" in2="effect1_dropShadow_1337_11637" result="shape"/>
</filter>
<clipPath id="clip0_1337_11637">
<rect width="92.9245" height="94" fill="white" transform="translate(0.684326)"/>
</clipPath>
</defs>
</svg>
