<svg width="151" height="188" viewBox="0 0 151 188" fill="none" xmlns="http://www.w3.org/2000/svg">
<g id="Completion Certificate" clip-path="url(#clip0_1384_2275)">
<g id="Layer 2">
<g id="&#195;&#145;&#195;&#171;&#195;&#174;&#195;&#169; 1">
<path id="Vector" d="M43.3473 114.763C43.1889 114.762 43.032 114.733 42.8842 114.675C24.7043 107.59 11.2634 89.763 9.43203 70.3482C9.41642 70.1824 9.43365 70.0151 9.48275 69.8559C9.53185 69.6967 9.61185 69.5487 9.71818 69.4204C9.82451 69.2921 9.9551 69.186 10.1025 69.1081C10.2499 69.0302 10.4111 68.9821 10.5771 68.9665C10.7431 68.9509 10.9106 68.9681 11.0699 69.0172C11.2292 69.0662 11.3773 69.1462 11.5057 69.2524C11.6342 69.3587 11.7404 69.4891 11.8183 69.6364C11.8963 69.7836 11.9444 69.9448 11.96 70.1106C13.6996 88.596 26.5023 105.539 43.8103 112.312C44.1157 112.393 44.3791 112.587 44.5475 112.854C44.716 113.121 44.777 113.442 44.7184 113.753C44.6598 114.063 44.4858 114.339 44.2315 114.527C43.9772 114.714 43.6613 114.799 43.3473 114.763Z" fill="#D6DEE5"/>
<path id="Vector_2" d="M43.3472 115.609C43.0832 115.608 42.8215 115.559 42.5755 115.463C24.1077 108.252 10.454 90.1545 8.58932 70.448C8.53824 69.8899 8.71066 69.3344 9.06879 68.9031C9.42692 68.4719 9.94155 68.2 10.4999 68.1472C10.775 68.118 11.0532 68.1447 11.3177 68.2256C11.5823 68.3066 11.8277 68.4401 12.0392 68.6182C12.2527 68.7906 12.4301 69.0035 12.5611 69.2445C12.6921 69.4855 12.7742 69.75 12.8026 70.0228C14.513 88.1955 27.0988 104.872 44.119 111.516C44.3779 111.616 44.6142 111.767 44.8141 111.959C45.0139 112.152 45.1733 112.382 45.2829 112.637C45.396 112.891 45.4573 113.165 45.463 113.442C45.4687 113.72 45.4188 113.996 45.3162 114.254C45.1666 114.654 44.8974 114.999 44.5452 115.241C44.193 115.484 43.7748 115.612 43.3472 115.609ZM10.7043 69.8061H10.6626C10.606 69.8106 10.5509 69.8266 10.5007 69.8531C10.4505 69.8796 10.4062 69.9161 10.3706 69.9603C10.3349 70.0028 10.308 70.0519 10.2915 70.1049C10.275 70.1578 10.2693 70.2136 10.2746 70.2688C12.0726 89.3751 25.2925 106.902 43.1929 113.887C43.2709 113.921 43.3574 113.931 43.4408 113.914C43.5243 113.897 43.6006 113.855 43.6596 113.794C43.7186 113.733 43.7575 113.655 43.771 113.571C43.7845 113.487 43.772 113.401 43.7352 113.325C43.7133 113.274 43.6813 113.227 43.6412 113.189C43.6011 113.15 43.5536 113.12 43.5016 113.1C25.9015 106.231 12.8861 88.9833 11.1173 70.1687C11.1123 70.1129 11.096 70.0586 11.0695 70.0092C11.043 69.9598 11.0067 69.9162 10.963 69.8811C10.8874 69.8282 10.7965 69.8019 10.7043 69.8061Z" fill="#99ADBF"/>
<path id="Vector_3" d="M134.247 141.38C132.42 144.206 127.689 145.685 122.566 146.436C114.361 147.644 105.125 146.986 105.125 146.986L102.726 88.0705L105.121 86.4408C105.171 86.4408 105.262 86.4032 105.388 86.3782C105.721 86.2949 106.051 86.2282 106.372 86.1615C106.597 86.1073 106.827 86.0656 107.056 86.0323L107.173 86.0073C107.807 85.8989 108.424 85.8114 108.992 85.753C118.758 84.7319 122.404 90.4546 124.527 95.8397C126.905 101.883 139.002 134.044 134.247 141.38Z" fill="#EBEFF2"/>
<path id="Vector_4" d="M111.194 148.007C107.632 148.007 105.108 147.832 105.058 147.828C104.85 147.816 104.654 147.726 104.509 147.576C104.363 147.427 104.28 147.228 104.274 147.02L101.879 88.1042C101.872 87.9607 101.902 87.8177 101.966 87.6892C102.031 87.5606 102.127 87.4509 102.246 87.3706L104.641 85.7409C104.744 85.6712 104.86 85.6243 104.983 85.6033L105.221 85.5533C105.496 85.4783 105.813 85.4116 106.126 85.3491C106.439 85.2866 106.685 85.2324 106.931 85.199L107.031 85.174C107.699 85.0615 108.316 84.974 108.908 84.9156C119.308 83.8278 123.138 90.0131 125.311 95.5275C127.814 101.888 140.037 134.007 134.956 141.843C133.233 144.506 129.116 146.332 122.687 147.261C118.879 147.78 115.038 148.03 111.194 148.007ZM105.934 146.186C108.291 146.311 115.758 146.603 122.441 145.602C128.281 144.744 132.111 143.127 133.538 140.922C137.384 134.986 128.811 109.04 123.738 96.1485C121.653 90.8843 118.29 85.6284 109.084 86.5953C108.525 86.6537 107.949 86.7329 107.319 86.8413L107.181 86.8704C106.973 86.8996 106.764 86.9371 106.556 86.9871H106.472C106.184 87.0455 105.892 87.108 105.6 87.183L105.458 87.2122L103.59 88.4876L105.934 146.186Z" fill="#99ADBF"/>
<path id="Vector_5" d="M122.562 146.436C114.356 147.644 105.121 146.986 105.121 146.986L102.726 88.0704L105.121 86.4407C105.171 86.4407 105.262 86.4031 105.388 86.3781C105.763 86.2948 106.405 86.1697 107.056 86.0322L107.173 86.0072C107.807 85.8988 108.424 85.8113 108.992 85.7529C110.627 98.9323 114.231 144.477 122.149 146.327C122.291 146.361 122.429 146.394 122.562 146.436Z" fill="#D6DEE5"/>
<path id="Vector_6" d="M111.19 148.007C107.632 148.007 105.108 147.832 105.058 147.828C104.85 147.815 104.654 147.725 104.509 147.576C104.363 147.426 104.28 147.227 104.274 147.019L101.879 88.1036C101.872 87.9601 101.902 87.8171 101.966 87.6886C102.031 87.5601 102.127 87.4503 102.246 87.37L104.641 85.7403C104.744 85.6706 104.86 85.6237 104.983 85.6028L105.221 85.5528C105.45 85.4986 105.817 85.4236 106.226 85.3402L106.885 85.2068L107.031 85.1735C107.699 85.0568 108.316 84.9734 108.908 84.9109C109.018 84.8981 109.129 84.9071 109.234 84.9374C109.34 84.9676 109.439 85.0185 109.525 85.0871C109.611 85.1557 109.683 85.2406 109.736 85.337C109.789 85.4333 109.823 85.5393 109.834 85.6486C110.068 87.5451 110.343 90.121 110.669 93.1011C112.308 108.348 116.146 144.056 122.349 145.502C122.516 145.544 122.671 145.581 122.825 145.631C123.018 145.677 123.189 145.791 123.306 145.951C123.424 146.112 123.479 146.309 123.464 146.507C123.448 146.706 123.362 146.892 123.221 147.032C123.08 147.173 122.894 147.258 122.696 147.273C118.883 147.789 115.038 148.034 111.19 148.007ZM105.934 146.185C110.618 146.429 115.313 146.335 119.984 145.906C114.461 140.071 111.42 115.946 108.983 93.2803C108.708 90.7253 108.466 88.4704 108.253 86.6948C107.953 86.7365 107.644 86.7865 107.319 86.8407L107.056 86.0321L107.227 86.8657L106.564 87.0033C106.168 87.0824 105.817 87.1533 105.575 87.2075L105.458 87.2325L103.59 88.5079L105.934 146.185Z" fill="#99ADBF"/>
<path id="Vector_7" d="M111.403 142.693L78.7893 187.145L46.184 142.701C46.184 139.75 48.858 137.207 52.7084 136.057C54.2075 135.615 55.7632 135.393 57.3263 135.399C62.4282 135.399 66.725 137.637 68.0516 140.704C69.3823 137.637 73.6791 135.399 78.781 135.399C83.8829 135.399 88.1796 137.637 89.5062 140.704C90.8369 137.637 95.1337 135.399 100.236 135.399C105.058 135.399 109.175 137.412 110.736 140.217C111.163 140.973 111.393 141.824 111.403 142.693Z" fill="#D6DEE5"/>
<path id="Vector_8" d="M75.8608 177.797L72.7822 178.964L46.184 142.701C46.184 139.751 48.858 137.208 52.7084 136.058L75.8608 177.797Z" fill="#EBEFF2"/>
<path id="Vector_9" d="M78.7893 187.999C78.6559 188.001 78.5241 187.97 78.4051 187.91C78.286 187.849 78.1832 187.762 78.1051 187.653L45.5081 143.214C45.3937 143.064 45.3308 142.881 45.3287 142.693C45.3287 139.458 48.1279 136.532 52.4539 135.24L52.5415 135.219C54.0981 134.764 55.7127 134.537 57.3346 134.544C61.9818 134.544 66.0658 136.291 68.0599 139.016C70.0539 136.291 74.1421 134.544 78.7893 134.544C83.4364 134.544 87.5205 136.291 89.5145 139.016C91.5085 136.291 95.5967 134.544 100.244 134.544C105.221 134.544 109.738 136.653 111.482 139.796C111.983 140.687 112.246 141.692 112.246 142.714C112.247 142.893 112.19 143.069 112.083 143.214L79.4692 187.653C79.3916 187.761 79.2894 187.848 79.1712 187.909C79.0529 187.969 78.922 188 78.7893 187.999ZM47.0308 142.426L78.7893 185.724L110.548 142.43C110.501 141.792 110.314 141.171 110.001 140.613C108.55 137.995 104.624 136.236 100.244 136.236C95.6092 136.236 91.5169 138.208 90.2904 141.034C90.226 141.186 90.1179 141.315 89.9797 141.406C89.8416 141.496 89.6797 141.544 89.5145 141.542C89.3493 141.544 89.1874 141.496 89.0493 141.406C88.9111 141.315 88.803 141.186 88.7386 141.034C87.5163 138.208 83.4239 136.236 78.7893 136.236C74.1546 136.236 70.0831 138.208 68.8316 141.034C68.7672 141.186 68.6591 141.315 68.5209 141.406C68.3828 141.496 68.2209 141.544 68.0557 141.542C67.8905 141.544 67.7286 141.496 67.5905 141.406C67.4523 141.315 67.3442 141.186 67.2798 141.034C66.0575 138.208 61.9651 136.236 57.3305 136.236C55.8577 136.231 54.392 136.441 52.9795 136.857H52.8919C49.4461 137.924 47.1893 140.075 47.0308 142.426Z" fill="#99ADBF"/>
<path id="Vector_10" d="M47.1601 23.9198C50.9146 15.046 55.7453 2.21678 62.1779 1.14143C68.6105 0.0660694 95.7678 1.93752 101.07 4.6676C108.579 8.53138 110.865 29.2299 110.865 29.2299L47.1601 23.9198Z" fill="#D6DEE5"/>
<path id="Vector_11" d="M105.125 8.9857C98.8673 6.3765 73.0032 4.63425 66.7458 5.68044C61.2309 6.60158 56.8883 16.1381 53.3966 24.4367L47.1392 23.924C50.8937 15.046 55.7286 2.21678 62.157 1.14143C68.5855 0.0660695 95.7511 1.93752 101.057 4.6676C102.647 5.48037 103.99 7.03505 105.125 8.9857Z" fill="#EBEFF2"/>
<path id="Vector_12" d="M110.865 30.0762H110.794L47.0892 24.7619C46.9544 24.7507 46.8243 24.7069 46.7102 24.6343C46.5961 24.5617 46.5014 24.4624 46.4342 24.3451C46.3662 24.2303 46.3258 24.1012 46.3164 23.968C46.307 23.8349 46.3288 23.7014 46.38 23.5782C46.672 22.8863 46.9724 22.1694 47.2769 21.4358C51.0063 12.5037 55.6493 1.37913 62.0361 0.307939C68.4228 -0.763251 95.9472 1.07486 101.458 3.91747C109.271 7.94381 111.607 28.2714 111.703 29.1384C111.718 29.2563 111.708 29.376 111.672 29.4894C111.637 29.6029 111.578 29.7076 111.499 29.7964C111.42 29.8852 111.323 29.9561 111.214 30.0044C111.106 30.0526 110.988 30.0771 110.869 30.0762H110.865ZM48.3907 23.1739L109.889 28.3006C109.296 24.1367 106.793 8.56068 100.682 5.41797C95.53 2.75875 68.4145 0.953987 62.3156 1.97516C56.8508 2.89213 52.2203 13.9917 48.8413 22.0985C48.6883 22.4625 48.5381 22.821 48.3907 23.1739Z" fill="#99ADBF"/>
<path id="Vector_13" d="M110.744 140.209C109.184 137.404 105.066 135.391 100.244 135.391C95.142 135.391 90.8453 137.629 89.5145 140.697C88.188 137.629 83.8912 135.391 78.7893 135.391C73.6874 135.391 69.3906 137.629 68.0599 140.697C66.7333 137.629 62.4366 135.391 57.3347 135.391C51.1649 135.391 46.1756 138.663 46.1756 142.693H45.9962C38.6482 106.662 38.6482 69.521 45.9962 33.4902H111.232C104.049 68.6852 103.883 104.95 110.744 140.209Z" fill="#D6DEE5"/>
<path id="Vector_14" d="M53.9848 33.4814C47.0911 67.2851 46.6665 102.087 52.7334 136.049C48.8746 137.191 46.1923 139.742 46.1923 142.693H46.0129C38.6648 106.662 38.6648 69.5206 46.0129 33.4898L53.9848 33.4814Z" fill="#EBEFF2"/>
<path id="Vector_15" d="M68.0599 141.542C67.8641 141.546 67.6733 141.481 67.5207 141.358C67.3682 141.235 67.2637 141.063 67.2256 140.871C60.1338 107.06 59.9253 69.5475 66.6708 35.2444C66.7139 35.0233 66.8432 34.8284 67.0302 34.7025C67.2171 34.5767 67.4465 34.5302 67.6678 34.5733C67.889 34.6164 68.0841 34.7456 68.2101 34.9324C68.336 35.1192 68.3826 35.3484 68.3394 35.5695C61.6398 69.66 61.8358 106.931 68.8901 140.525C68.9144 140.634 68.9167 140.746 68.8968 140.856C68.8769 140.966 68.8351 141.07 68.7741 141.164C68.713 141.257 68.6339 141.337 68.5413 141.399C68.4487 141.461 68.3446 141.504 68.2351 141.526C68.1775 141.537 68.1187 141.543 68.0599 141.542Z" fill="#99ADBF"/>
<path id="Vector_16" d="M89.5145 141.542C89.3205 141.546 89.131 141.483 88.9788 141.363C88.8265 141.243 88.7209 141.073 88.6802 140.884C81.2464 108.018 81.1212 70.1226 88.3381 34.1814C88.36 34.072 88.4033 33.9679 88.4655 33.8751C88.5276 33.7824 88.6075 33.7028 88.7005 33.6408C88.7934 33.5789 88.8977 33.5359 89.0073 33.5142C89.1169 33.4925 89.2297 33.4927 89.3393 33.5146C89.4489 33.5364 89.553 33.5797 89.6459 33.6418C89.7387 33.7039 89.8184 33.7837 89.8804 33.8766C89.9424 33.9695 89.9854 34.0737 90.0071 34.1832C90.0288 34.2927 90.0287 34.4054 90.0068 34.5149C82.8399 70.2351 82.9567 107.873 90.3447 140.521C90.3705 140.629 90.3743 140.741 90.3561 140.851C90.3378 140.961 90.2977 141.066 90.2383 141.16C90.1788 141.254 90.1011 141.335 90.0098 141.398C89.9184 141.462 89.8153 141.507 89.7064 141.53C89.6433 141.542 89.5787 141.547 89.5145 141.542Z" fill="#99ADBF"/>
<path id="Vector_17" d="M46.1839 143.548H46.0046C45.8082 143.551 45.6169 143.485 45.4643 143.362C45.3116 143.238 45.2075 143.065 45.1702 142.872C37.7531 106.729 37.7531 69.4582 45.1702 33.3151C45.2075 33.1224 45.3116 32.9491 45.4643 32.8256C45.6169 32.7021 45.8082 32.6363 46.0046 32.6399H111.232C111.358 32.6369 111.484 32.6627 111.599 32.7153C111.714 32.7679 111.815 32.8459 111.896 32.9435C111.976 33.0411 112.033 33.1556 112.063 33.2785C112.092 33.4013 112.094 33.5293 112.066 33.6527C104.866 68.7363 104.699 104.898 111.574 140.046C111.65 140.255 111.64 140.485 111.546 140.686C111.452 140.886 111.282 141.042 111.073 141.118C110.865 141.193 110.635 141.183 110.434 141.089C110.233 140.996 110.077 140.826 110.001 140.617C108.545 137.996 104.624 136.237 100.244 136.237C95.6093 136.237 91.5169 138.208 90.2904 141.034C90.226 141.186 90.1179 141.316 89.9798 141.406C89.8416 141.497 89.6797 141.544 89.5145 141.543C89.3493 141.544 89.1874 141.497 89.0493 141.406C88.9112 141.316 88.803 141.186 88.7386 141.034C87.5163 138.208 83.424 136.237 78.7893 136.237C74.1546 136.237 70.0831 138.208 68.8316 141.034C68.7672 141.186 68.6591 141.316 68.521 141.406C68.3828 141.497 68.2209 141.544 68.0557 141.543C67.8905 141.544 67.7286 141.497 67.5905 141.406C67.4524 141.316 67.3442 141.186 67.2798 141.034C66.0575 138.208 61.9652 136.237 57.3305 136.237C51.6738 136.237 47.0683 139.1 47.0141 142.631C47.0258 142.747 47.0129 142.864 46.9762 142.975C46.9396 143.086 46.88 143.188 46.8013 143.275C46.7226 143.361 46.6266 143.43 46.5196 143.477C46.4125 143.524 46.2967 143.548 46.1798 143.548H46.1839ZM46.6971 34.3446C39.6652 69.0578 39.5121 104.812 46.2465 139.584C48.057 136.637 52.3454 134.561 57.3347 134.561C61.9819 134.561 66.0659 136.312 68.0599 139.034C70.0581 136.308 74.1421 134.561 78.7893 134.561C83.4365 134.561 87.5205 136.312 89.5145 139.034C91.5086 136.308 95.5967 134.561 100.244 134.561C103.79 134.561 107.102 135.632 109.346 137.387C103.066 103.299 103.35 68.3269 110.181 34.3446H46.6971Z" fill="#99ADBF"/>
<path id="Vector_18" d="M48.8162 82.1229C57.5642 82.1229 64.6559 75.0373 64.6559 66.2968C64.6559 57.5563 57.5642 50.4707 48.8162 50.4707C40.0683 50.4707 32.9766 57.5563 32.9766 66.2968C32.9766 75.0373 40.0683 82.1229 48.8162 82.1229Z" fill="white"/>
<path id="Vector_19" d="M48.8079 82.9684C45.5076 82.9684 42.2814 81.9906 39.5374 80.1587C36.7933 78.3267 34.6545 75.7229 33.3916 72.6764C32.1286 69.63 31.7982 66.2777 32.442 63.0437C33.0859 59.8096 34.6751 56.8389 37.0088 54.5072C39.3424 52.1756 42.3156 50.5877 45.5525 49.9444C48.7894 49.3011 52.1445 49.6312 55.1935 50.8931C58.2426 52.155 60.8486 54.2919 62.6822 57.0337C64.5157 59.7754 65.4943 62.9988 65.4943 66.2962C65.4943 68.4857 65.0627 70.6537 64.2242 72.6764C63.3856 74.6992 62.1565 76.5371 60.607 78.0853C59.0575 79.6334 57.218 80.8615 55.1935 81.6994C53.169 82.5372 50.9992 82.9684 48.8079 82.9684ZM48.8079 51.3163C45.8437 51.3212 42.9474 52.204 40.4852 53.853C38.0229 55.502 36.1051 57.8433 34.9742 60.581C33.8433 63.3186 33.5499 66.3298 34.1313 69.234C34.7126 72.1382 36.1425 74.805 38.2402 76.8975C40.338 78.99 43.0095 80.4142 45.9172 80.9902C48.8248 81.5662 51.838 81.2681 54.5762 80.1335C57.3143 78.999 59.6544 77.079 61.3007 74.6161C62.947 72.1532 63.8257 69.2579 63.8257 66.2962C63.8191 62.321 62.2339 58.5108 59.4182 55.7023C56.6026 52.8937 52.7865 51.3163 48.8079 51.3163Z" fill="#99ADBF"/>
<path id="Vector_20" d="M61.7733 66.2971C61.7735 68.3658 61.0764 70.3743 59.7945 71.9988C58.5125 73.6233 56.7203 74.7691 54.7069 75.2515C52.6935 75.7339 50.5761 75.5247 48.6962 74.6577C46.8163 73.7907 45.2834 72.3164 44.3447 70.4726C43.4059 68.6287 43.116 66.5227 43.5217 64.494C43.9274 62.4654 45.005 60.6324 46.5809 59.2905C48.1567 57.9486 50.1389 57.1761 52.2079 57.0975C54.2769 57.0188 56.3122 57.6387 57.9855 58.8571C55.3657 61.2912 54.0183 63.7795 54.8651 64.9799C55.7119 66.1803 58.4193 65.7385 61.5397 64.1463C61.7041 64.8512 61.7826 65.5734 61.7733 66.2971Z" fill="#99ADBF"/>
<path id="Vector_21" d="M96.7064 82.1229C105.454 82.1229 112.546 75.0373 112.546 66.2968C112.546 57.5563 105.454 50.4707 96.7064 50.4707C87.9584 50.4707 80.8668 57.5563 80.8668 66.2968C80.8668 75.0373 87.9584 82.1229 96.7064 82.1229Z" fill="white"/>
<path id="Vector_22" d="M96.7064 82.9684C93.4061 82.9684 90.1799 81.9906 87.4359 80.1587C84.6918 78.3267 82.553 75.7229 81.2901 72.6764C80.0271 69.63 79.6967 66.2777 80.3405 63.0437C80.9844 59.8096 82.5736 56.8389 84.9073 54.5072C87.2409 52.1756 90.2141 50.5877 93.451 49.9444C96.6879 49.3011 100.043 49.6312 103.092 50.8931C106.141 52.155 108.747 54.2919 110.581 57.0337C112.414 59.7754 113.393 62.9988 113.393 66.2962C113.393 68.4857 112.961 70.6537 112.123 72.6764C111.284 74.6992 110.055 76.5371 108.505 78.0853C106.956 79.6334 105.116 80.8615 103.092 81.6994C101.068 82.5372 98.8977 82.9684 96.7064 82.9684ZM96.7064 51.3163C93.7413 51.3171 90.843 52.1963 88.378 53.8429C85.913 55.4894 83.9919 57.8292 82.8578 60.5665C81.7237 63.3038 81.4274 66.3157 82.0063 69.2212C82.5853 72.1268 84.0136 74.7956 86.1105 76.8902C88.2075 78.9847 90.8789 80.411 93.7871 80.9887C96.6953 81.5664 99.7097 81.2695 102.449 80.1355C105.188 79.0016 107.53 77.0816 109.177 74.6182C110.824 72.1549 111.703 69.2588 111.703 66.2962C111.697 62.3246 110.114 58.5176 107.303 55.7096C104.492 52.9017 100.681 51.3218 96.7064 51.3163Z" fill="#99ADBF"/>
<path id="Vector_23" d="M102.747 66.2969C102.746 68.3634 102.049 70.3694 100.768 71.9917C99.4868 73.614 97.6962 74.7581 95.6848 75.2394C93.6735 75.7208 91.5585 75.5115 89.6807 74.6453C87.8029 73.779 86.2718 72.3062 85.3341 70.4643C84.3963 68.6225 84.1066 66.5187 84.5116 64.4923C84.9167 62.4658 85.9928 60.6346 87.5666 59.2938C89.1405 57.953 91.1203 57.1808 93.187 57.1015C95.2538 57.0222 97.287 57.6406 98.9591 58.8569C96.3351 61.291 94.9919 63.7794 95.8345 64.9798C96.6772 66.1802 99.3887 65.7383 102.509 64.1461C102.675 64.8508 102.755 65.573 102.747 66.2969Z" fill="#99ADBF"/>
<path id="Vector_24" d="M60.964 41.7591C64.4056 40.4128 67.6803 40.5504 68.2726 42.0675C68.865 43.5847 66.5581 45.9021 63.1165 47.2526C59.6749 48.603 56.3961 48.4613 55.8037 46.9441C55.2113 45.427 57.5182 43.1054 60.964 41.7591Z" fill="#99ADBF"/>
<path id="Vector_25" d="M91.8423 46.7691C91.4251 48.3446 88.1921 48.8531 84.617 47.9278C81.042 47.0025 78.4723 44.956 78.8852 43.3805C79.2982 41.805 82.5354 41.2964 86.1105 42.2218C89.6856 43.1471 92.2553 45.1936 91.8423 46.7691Z" fill="#99ADBF"/>
<path id="Vector_26" d="M88.0211 174.562L78.7935 187.145L69.5533 174.553C70.6953 173.222 72.1123 172.152 73.7069 171.419C75.3016 170.686 77.0361 170.307 78.7914 170.307C80.5467 170.307 82.2812 170.686 83.8759 171.419C85.4705 172.152 86.8874 173.222 88.0294 174.553L88.0211 174.562Z" fill="#D6DEE5"/>
<path id="Vector_27" d="M78.7935 187.999C78.6601 188 78.5283 187.97 78.4093 187.909C78.2902 187.849 78.1874 187.761 78.1093 187.653L68.8734 175.057C68.7565 174.902 68.6975 174.711 68.7066 174.517C68.7158 174.323 68.7924 174.138 68.9234 173.994C70.1461 172.575 71.6608 171.437 73.3642 170.656C75.0676 169.876 76.9195 169.472 78.7935 169.472C80.6675 169.472 82.5194 169.876 84.2228 170.656C85.9261 171.437 87.4409 172.575 88.6635 173.994C88.7945 174.138 88.8712 174.323 88.8803 174.517C88.8895 174.711 88.8305 174.902 88.7136 175.057L79.4776 187.653C79.3996 187.761 79.2967 187.849 79.1777 187.909C79.0586 187.97 78.9269 188 78.7935 187.999ZM70.6547 174.641L78.7935 185.736L86.9323 174.641C85.8809 173.544 84.6182 172.671 83.2201 172.074C81.8221 171.478 80.3178 171.171 78.7977 171.171C77.2775 171.171 75.7732 171.478 74.3752 172.074C72.9771 172.671 71.7144 173.544 70.663 174.641H70.6547Z" fill="#99ADBF"/>
<path id="Vector_28" d="M112.559 40.4293L42.6631 35.9861C42.1583 35.9508 41.6879 35.7177 41.3543 35.3375C41.0207 34.9574 40.8509 34.4609 40.8818 33.9563L41.5034 24.2072C41.5193 23.9562 41.5846 23.7107 41.6956 23.4849C41.8066 23.2591 41.961 23.0574 42.1501 22.8913C42.3392 22.7252 42.5592 22.598 42.7976 22.517C43.0359 22.436 43.2879 22.4027 43.5391 22.4191L113.422 26.8497C113.929 26.8819 114.403 27.1137 114.739 27.4942C115.075 27.8747 115.247 28.3729 115.216 28.8796L114.594 38.6245C114.58 38.877 114.517 39.1242 114.407 39.352C114.297 39.5797 114.143 39.7833 113.953 39.9512C113.764 40.119 113.543 40.2477 113.304 40.3297C113.064 40.4118 112.811 40.4456 112.559 40.4293Z" fill="#D6DEE5"/>
<path id="Vector_29" d="M115.091 30.8435L115.057 31.3061L50.1512 27.1964C49.1212 27.1314 48.1075 27.4777 47.333 28.1593C46.5585 28.8409 46.0867 29.8019 46.0213 30.831L45.6834 36.1786L44.6363 36.1119C44.1265 36.0801 43.6279 35.948 43.1693 35.7232C42.7107 35.4984 42.301 35.1853 41.9638 34.8019C41.6266 34.4186 41.3685 33.9724 41.2043 33.4891C41.0401 33.0058 40.973 32.4948 41.007 31.9855L41.3699 26.1711C41.4375 25.1435 41.9102 24.1846 42.6844 23.5048C43.4587 22.825 44.4712 22.4798 45.4998 22.5449L111.461 26.713C112.491 26.7804 113.451 27.2533 114.132 28.0278C114.812 28.8023 115.157 29.815 115.091 30.8435Z" fill="#EBEFF2"/>
<path id="Vector_30" d="M110.848 41.1469H110.539L44.5779 36.9789C43.3285 36.8984 42.1617 36.3273 41.3324 35.3901C40.5031 34.453 40.0786 33.226 40.1518 31.9772L40.5189 26.142C40.5992 24.8895 41.1739 23.7202 42.1166 22.8909C42.5821 22.4788 43.1251 22.1635 43.7138 21.9631C44.3025 21.7627 44.9252 21.6814 45.5457 21.7238L111.507 25.8919C112.757 25.9723 113.923 26.5435 114.753 27.4806C115.582 28.4178 116.006 29.6447 115.933 30.8935L115.562 36.7288C115.487 37.9275 114.958 39.0526 114.082 39.8756C113.207 40.6985 112.05 41.1576 110.848 41.1594V41.1469ZM110.648 39.4505C111.047 39.4766 111.448 39.4236 111.827 39.2948C112.206 39.166 112.556 38.9638 112.856 38.6998C113.157 38.4358 113.403 38.1151 113.579 37.7562C113.756 37.3972 113.86 37.007 113.885 36.6079L114.252 30.7727C114.304 29.9685 114.033 29.1768 113.5 28.5718C112.968 27.9668 112.216 27.598 111.411 27.5466L45.4456 23.3785C44.6403 23.3283 43.8479 23.5994 43.2425 24.1324C42.6372 24.6654 42.2682 25.4166 42.2167 26.2211L41.8496 32.0356C41.7993 32.8395 42.0701 33.6306 42.6027 34.2353C43.1352 34.8401 43.886 35.2091 44.6905 35.2616L110.648 39.4505Z" fill="#99ADBF"/>
<path id="Vector_31" d="M87.6039 83.752C87.5923 85.217 87.4189 86.6764 87.0866 88.1034C86.2064 92.0089 84.1665 95.7518 80.9085 97.7399C77.7912 99.6127 74.1184 100.342 70.5212 99.8031C68.9174 99.5737 67.361 99.0882 65.9115 98.3651C61.2477 96.0227 58.6362 91.1711 58.169 85.9819C59.0409 86.2695 59.9211 86.532 60.8096 86.7529C68.6155 88.7062 76.8376 88.1669 84.3209 85.2108C85.4222 84.7898 86.5151 84.298 87.6039 83.752Z" fill="#D6DEE5"/>
<path id="Vector_32" d="M72.7822 100.812C71.978 100.812 71.1749 100.754 70.3793 100.637C68.6911 100.404 67.0523 99.8971 65.5277 99.1363C60.9139 96.823 57.8478 91.938 57.3221 86.0736C57.3061 85.9329 57.3262 85.7904 57.3805 85.6596C57.4348 85.5289 57.5216 85.414 57.6326 85.326C57.7436 85.238 57.8753 85.1798 58.0151 85.1567C58.1549 85.1336 58.2983 85.1465 58.4318 85.1941C59.3621 85.5026 60.2047 85.7485 61.0099 85.9485C68.6434 87.8616 76.6852 87.3354 84.0038 84.4439C85.1176 84.0021 86.1897 83.5144 87.1951 82.9976C87.326 82.9236 87.4745 82.8864 87.6248 82.8899C87.7751 82.8933 87.9217 82.9373 88.0491 83.0172C88.1765 83.097 88.2799 83.2098 88.3484 83.3435C88.4169 83.4773 88.4479 83.6271 88.4382 83.777C88.4294 85.3053 88.2489 86.8279 87.9001 88.316C86.8822 92.8425 84.4919 96.5521 81.3423 98.4819C78.7562 100.027 75.7952 100.833 72.7822 100.812ZM59.1702 87.199C59.9336 91.9005 62.5367 95.7435 66.2869 97.6191C67.6507 98.294 69.1141 98.7457 70.6213 98.957C74.0227 99.4598 77.4934 98.7721 80.4454 97.0106C83.207 95.3183 85.3179 92.0089 86.2398 87.9075C86.4467 86.9923 86.5862 86.0631 86.6569 85.1274C85.9937 85.4359 85.3095 85.7276 84.6129 86.0069C76.9635 89.0285 68.5585 89.578 60.5802 87.5782C60.1324 87.4727 59.6624 87.3462 59.1702 87.199Z" fill="#99ADBF"/>
<path id="Vector_33" d="M87.0658 88.1035C86.1856 92.009 84.1457 95.7519 80.8876 97.7401C77.7703 99.6128 74.0975 100.342 70.5003 99.8032C71.5863 97.2205 73.2202 94.904 75.2893 93.0135C75.6603 92.6631 76.0502 92.3333 76.4574 92.0256C79.5298 89.703 83.2202 88.3385 87.0658 88.1035Z" fill="#EBEFF2"/>
<path id="Vector_34" d="M72.7822 100.812C71.978 100.812 71.1749 100.754 70.3793 100.637C70.2511 100.62 70.1286 100.574 70.0215 100.501C69.9143 100.429 69.8255 100.333 69.7619 100.22C69.6998 100.108 69.6638 99.9824 69.6566 99.854C69.6493 99.7256 69.6711 99.5972 69.7202 99.4783C70.8592 96.7841 72.5667 94.3672 74.7261 92.3926C75.1151 92.0268 75.5231 91.6818 75.9484 91.359C79.1548 88.9289 83.0109 87.5044 87.0282 87.2659C87.1595 87.2562 87.2912 87.2777 87.4126 87.3286C87.534 87.3795 87.6416 87.4584 87.7266 87.5588C87.8116 87.6592 87.8717 87.7783 87.9018 87.9063C87.932 88.0344 87.9314 88.1677 87.9001 88.2954C86.8781 92.8303 84.4877 96.5357 81.3381 98.4655C78.755 100.016 75.7954 100.827 72.7822 100.812ZM71.7518 99.0865C74.7939 99.3022 77.8285 98.5744 80.4413 97.0025C82.9442 95.4687 84.9091 92.601 85.9436 89.0332C82.6842 89.4463 79.5894 90.7035 76.9663 92.6802C76.5849 92.9711 76.2187 93.2813 75.8692 93.6097C74.1686 95.1644 72.7724 97.0216 71.7518 99.0865Z" fill="#99ADBF"/>
<path id="Vector_35" d="M84.3167 85.2324C84.0138 86.577 83.4122 87.8362 82.5563 88.917C81.9724 89.6707 81.2825 90.3362 80.508 90.8926C78.949 91.9806 77.1657 92.7055 75.2893 93.0142C73.9832 93.2452 72.6549 93.3249 71.3305 93.2518C68.6732 93.1267 65.9658 92.439 63.8216 90.851C62.4271 89.8233 61.3723 88.4021 60.793 86.7704C68.6025 88.7257 76.8288 88.1879 84.3167 85.2324Z" fill="white"/>
<path id="Vector_36" d="M72.2941 94.1228C71.9603 94.1228 71.6224 94.1228 71.2845 94.0978C68.1308 93.9477 65.3775 93.0599 63.3293 91.5303C61.792 90.4016 60.6293 88.8378 59.992 87.0413C59.9384 86.8969 59.9258 86.7406 59.9557 86.5896C59.9856 86.4386 60.0568 86.2988 60.1613 86.1857C60.2659 86.0726 60.3997 85.9907 60.548 85.9489C60.6963 85.9072 60.8533 85.9073 61.0015 85.9492C68.6337 87.8623 76.6741 87.336 83.9913 84.4446C84.134 84.3833 84.291 84.3631 84.4446 84.3862C84.5982 84.4093 84.7423 84.4748 84.8607 84.5753C84.9791 84.6758 85.067 84.8074 85.1146 84.9551C85.1622 85.1028 85.1676 85.2609 85.1301 85.4115C84.8009 86.8805 84.1451 88.2566 83.2112 89.4379C82.5776 90.2569 81.8287 90.9799 80.9877 91.5844C79.3269 92.7449 77.4266 93.5183 75.427 93.8477C74.393 94.0327 73.3445 94.1248 72.2941 94.1228ZM62.3156 87.9832C62.847 88.8327 63.5333 89.575 64.3388 90.1715C66.1201 91.5011 68.5521 92.2555 71.3721 92.4055C72.628 92.4781 73.888 92.4039 75.1266 92.1846C76.8791 91.8972 78.5452 91.2222 80.0032 90.209C80.7117 89.6979 81.3426 89.0872 81.8763 88.3959C82.302 87.8525 82.6618 87.2607 82.9484 86.6328C76.3134 88.9084 69.191 89.3745 62.3156 87.9832Z" fill="#99ADBF"/>
<path id="Vector_37" d="M110.585 126.208C104.712 128.867 97.207 126.667 93.2732 121.561C89.3393 116.455 89.0014 109.019 91.9675 103.301C94.9335 97.5821 100.895 93.6683 107.256 92.6221C107.935 93.9565 108.301 95.4271 108.329 96.9235C103.902 97.307 99.7642 99.7453 97.9287 103.784C97.0036 105.815 96.6353 108.055 96.8614 110.275C97.0876 112.495 97.9001 114.615 99.2157 116.418C100.531 118.221 102.303 119.642 104.349 120.537C106.395 121.431 108.642 121.765 110.861 121.507C110.577 122.957 110.877 124.77 110.585 126.208Z" fill="#EBEFF2"/>
<path id="Vector_38" d="M105.125 128.204C102.711 128.193 100.331 127.636 98.164 126.575C95.9966 125.514 94.0978 123.976 92.6099 122.077C88.5592 116.821 88.0211 109.119 91.2249 102.904C94.2076 97.1649 100.298 92.901 107.127 91.7798C107.298 91.7503 107.473 91.7745 107.63 91.8492C107.786 91.9239 107.915 92.0453 107.999 92.1966C108.745 93.6556 109.15 95.2645 109.184 96.9023C109.191 97.118 109.114 97.3279 108.969 97.488C108.824 97.6481 108.623 97.746 108.408 97.761C104.04 98.1403 100.319 100.583 98.7046 104.13C97.8427 106.025 97.5003 108.115 97.7124 110.186C97.9245 112.257 98.6834 114.234 99.9115 115.916C101.14 117.598 102.793 118.923 104.702 119.757C106.611 120.59 108.708 120.902 110.777 120.66C110.91 120.646 111.044 120.662 111.17 120.708C111.295 120.755 111.408 120.83 111.499 120.927C111.59 121.025 111.656 121.144 111.692 121.273C111.728 121.402 111.731 121.538 111.703 121.669C111.594 122.39 111.553 123.12 111.582 123.849C111.612 124.693 111.559 125.537 111.424 126.37C111.399 126.502 111.342 126.626 111.258 126.731C111.175 126.837 111.067 126.92 110.944 126.975C109.114 127.795 107.13 128.214 105.125 128.204ZM106.793 93.5679C100.732 94.7475 95.384 98.5696 92.7308 103.692C89.8524 109.236 90.3572 116.375 93.9573 121.048C97.6283 125.812 104.516 127.767 109.834 125.633C109.887 125.048 109.906 124.461 109.893 123.874C109.893 123.399 109.893 122.915 109.918 122.44C107.626 122.527 105.35 122.027 103.306 120.987C101.262 119.947 99.5181 118.403 98.2404 116.499C96.9628 114.596 96.1936 112.398 96.0062 110.114C95.8187 107.83 96.2192 105.536 97.1694 103.45C98.934 99.5782 102.822 96.8482 107.444 96.1938C107.356 95.2916 107.136 94.4071 106.793 93.5679Z" fill="#99ADBF"/>
<path id="Vector_39" d="M103.706 109.202C103.374 109.232 103.045 109.128 102.789 108.914C102.534 108.7 102.374 108.394 102.344 108.062C102.315 107.731 102.419 107.401 102.633 107.146C102.847 106.891 103.153 106.731 103.485 106.702C112.719 105.029 121.204 100.526 127.76 93.8177C134.317 87.1091 138.621 78.5276 140.075 69.2641C140.1 69.0999 140.158 68.9424 140.245 68.8005C140.332 68.6586 140.445 68.5352 140.58 68.4373C140.714 68.3394 140.867 68.2689 141.028 68.2298C141.19 68.1907 141.358 68.1839 141.522 68.2096C141.686 68.2353 141.844 68.2931 141.986 68.3797C142.128 68.4663 142.252 68.58 142.35 68.7144C142.448 68.8487 142.518 69.0009 142.557 69.1625C142.596 69.324 142.603 69.4917 142.578 69.6559C141.044 79.4408 136.5 88.5059 129.575 95.5927C122.651 102.679 113.689 107.436 103.936 109.202C103.859 109.209 103.783 109.209 103.706 109.202Z" fill="#D6DEE5"/>
<path id="Vector_40" d="M103.706 110.057C103.178 110.057 102.668 109.86 102.278 109.504C101.888 109.147 101.646 108.658 101.599 108.132C101.551 107.606 101.703 107.082 102.024 106.662C102.344 106.242 102.811 105.957 103.331 105.864C112.393 104.225 120.72 99.8069 127.154 93.2234C133.589 86.6399 137.811 78.2178 139.236 69.1268C139.302 68.7146 139.489 68.3313 139.773 68.025C140.057 67.7186 140.425 67.5029 140.831 67.4049C141.237 67.3069 141.663 67.331 142.055 67.4742C142.448 67.6174 142.789 67.8733 143.036 68.2098C143.201 68.4332 143.32 68.6873 143.385 68.9572C143.45 69.227 143.461 69.5072 143.416 69.7811C141.857 79.7415 137.233 88.9696 130.184 96.1836C123.136 103.398 114.014 108.239 104.086 110.036C103.96 110.053 103.833 110.06 103.706 110.057ZM141.326 69.0309C141.225 69.0299 141.127 69.0657 141.05 69.1317C140.973 69.1976 140.923 69.2892 140.909 69.3893C139.432 78.8284 135.049 87.5734 128.369 94.4095C121.689 101.246 113.044 105.833 103.635 107.535C103.525 107.555 103.427 107.618 103.362 107.71C103.298 107.803 103.273 107.917 103.293 108.027C103.313 108.138 103.376 108.236 103.469 108.3C103.561 108.364 103.675 108.389 103.786 108.369C113.367 106.635 122.169 101.963 128.972 95.0026C135.775 88.0421 140.24 79.1382 141.747 69.5269C141.757 69.4721 141.755 69.4159 141.743 69.3617C141.73 69.3075 141.707 69.2564 141.674 69.2113C141.642 69.1662 141.6 69.1282 141.553 69.0993C141.505 69.0705 141.452 69.0515 141.397 69.0434L141.326 69.0309Z" fill="#99ADBF"/>
<path id="Vector_41" d="M146.311 52.588C143.103 51.8211 139.403 55.7891 138.043 61.4493C137.93 61.9203 137.847 62.3871 137.772 62.8498C136.174 61.0158 134.401 60.103 133.342 60.7366C131.952 61.5702 132.32 64.7379 134.176 67.8222C135.845 70.6357 138.71 72.653 141.397 73.0907C144.651 73.62 148.305 69.8938 149.665 64.2294C151.025 58.565 149.515 53.3508 146.311 52.588Z" fill="#D6DEE5"/>
<path id="Vector_42" d="M142.018 73.9912C141.761 73.9932 141.504 73.9723 141.251 73.9287C138.268 73.4452 135.202 71.2195 133.433 68.2602C131.285 64.659 131.06 61.112 132.908 60.0074C134.055 59.328 135.644 59.7615 137.25 61.137C137.845 58.5043 139.088 56.0617 140.867 54.0304C142.644 52.1256 144.647 51.317 146.507 51.7672C148.368 52.2173 149.786 53.8512 150.504 56.352C151.175 58.6903 151.163 61.5621 150.474 64.4381C149.123 70.0608 145.589 73.9912 142.018 73.9912ZM134.113 61.3829C133.996 61.3784 133.879 61.4058 133.775 61.4621C133.045 61.8789 133.116 64.4256 134.889 67.3932C136.412 69.9441 139.015 71.853 141.522 72.2615C144.396 72.7283 147.608 69.1188 148.827 64.0379C149.452 61.4371 149.469 58.8696 148.881 56.8105C148.334 54.9141 147.354 53.7095 146.111 53.4136C144.859 53.1176 143.449 53.747 142.106 55.1892C140.642 56.7564 139.491 59.0529 138.869 61.6538C138.76 62.104 138.677 62.5458 138.606 62.9876C138.584 63.1486 138.516 63.2998 138.41 63.4225C138.303 63.5453 138.163 63.6343 138.007 63.6785C137.85 63.7228 137.684 63.7205 137.529 63.6717C137.374 63.623 137.237 63.5301 137.134 63.4044C135.953 62.0498 134.781 61.3829 134.113 61.3829Z" fill="#99ADBF"/>
<path id="Vector_43" d="M17.6585 58.7108C16.5989 58.0814 14.8259 58.9942 13.2282 60.824C13.1531 60.3655 13.0697 59.8987 12.957 59.4277C11.5971 53.7675 7.89688 49.7953 4.68891 50.5664C1.48093 51.3375 1.00732e-05 56.5476 1.34744 62.2078C2.69487 67.868 6.40761 71.8402 9.61559 71.0732C10.283 70.9107 13.6871 70.8607 16.8367 65.8007C18.7389 62.7496 19.0476 59.5402 17.6585 58.7108Z" fill="#D6DEE5"/>
<path id="Vector_44" d="M8.79377 72.015C7.23776 72.015 5.62752 71.1813 4.17162 69.6308C2.50298 67.8511 1.21812 65.2836 0.525632 62.4076C-0.166857 59.5316 -0.1752 56.6557 0.49643 54.3174C1.21395 51.8166 2.6323 50.1869 4.49284 49.7326C6.35338 49.2782 8.35575 50.091 10.1329 52C11.909 54.0249 13.1521 56.4602 13.7497 59.0857C15.3557 57.7144 16.9451 57.2767 18.0923 57.9603C18.3855 58.1473 18.638 58.3913 18.8351 58.6777C19.0322 58.9641 19.1697 59.287 19.2395 59.6275C19.6567 61.3447 19.0142 63.8664 17.5709 66.2005C14.5089 71.1397 11.1299 71.6898 10.0119 71.8566L9.80331 71.8941C9.47259 71.9731 9.13382 72.0137 8.79377 72.015ZM5.50237 51.3164C5.29582 51.3147 5.08984 51.3385 4.88914 51.3873C3.63766 51.6832 2.66567 52.8919 2.12336 54.7842C1.53099 56.8474 1.54768 59.4149 2.17342 62.0116C2.79916 64.6083 3.94636 66.9091 5.42311 68.4763C6.76637 69.9184 8.19306 70.5603 9.42786 70.2519C9.51129 70.2296 9.62393 70.2088 9.76576 70.1894C10.7836 70.0268 13.491 69.5933 16.1316 65.3544C17.5041 63.1537 17.8629 61.1155 17.6084 60.0735C17.5691 59.8231 17.4365 59.5968 17.2371 59.4399C16.699 59.1148 15.2973 59.7567 13.8998 61.3823C13.7969 61.508 13.6594 61.6009 13.5043 61.6496C13.3491 61.6983 13.1832 61.7007 13.0267 61.6564C12.8703 61.6121 12.7302 61.5231 12.6237 61.4004C12.5172 61.2776 12.4489 61.1265 12.4273 60.9655C12.3563 60.5236 12.2729 60.0777 12.1644 59.6317C11.5429 57.0308 10.3915 54.7342 8.92727 53.167C7.77173 51.9541 6.58699 51.3164 5.50237 51.3164Z" fill="#99ADBF"/>
</g>
</g>
</g>
<defs>
<clipPath id="clip0_1384_2275">
<rect width="151" height="188" fill="white"/>
</clipPath>
</defs>
</svg>
