<svg width="135" height="220" viewBox="0 0 135 220" fill="none" xmlns="http://www.w3.org/2000/svg">
<g id="Creative Thinking" clip-path="url(#clip0_1384_2432)">
<g id="Layer 2">
<g id="&#195;&#145;&#195;&#171;&#195;&#174;&#195;&#169; 1">
<path id="Vector" d="M96.8159 166.911L82.6227 219.011L20.9026 182.648C20.2491 179.402 22.3984 176.01 26.1161 173.705C27.9728 172.581 30.0064 171.788 32.1284 171.36C38.0632 170.142 43.601 171.742 45.8811 175.036C46.6943 171.096 51.1624 166.431 57.0923 165.198C63.0223 163.964 68.565 166.568 70.845 169.863C71.6583 165.922 76.1263 162.251 82.066 161.018C89.2497 159.53 95.8477 162.168 96.8159 166.911Z" fill="#1DA1F2"/>
<path id="Vector_2" d="M72.3941 209.76L69.0781 211.028L20.9026 182.638C20.2491 179.393 22.3984 176.001 26.1161 173.695L72.3941 209.76Z" fill="#BDE0FE"/>
<path id="Vector_3" d="M82.6275 219.999C82.4577 219.997 82.2912 219.952 82.1434 219.867L20.4088 183.504C20.2861 183.437 20.1793 183.343 20.0957 183.23C20.0121 183.116 19.9538 182.986 19.9247 182.848C19.2034 179.295 21.3769 175.467 25.5884 172.858C27.5523 171.669 29.704 170.831 31.9492 170.381C37.3661 169.265 42.5409 170.347 45.5034 173.078C47.1203 169.329 51.3947 165.364 56.918 164.214C62.4414 163.064 67.621 165.046 70.4722 167.88C72.1423 164.199 76.4748 161.155 81.8772 160.048C89.5692 158.458 96.6948 161.458 97.7646 166.735C97.8016 166.887 97.8016 167.047 97.7646 167.2L83.5714 219.285C83.5318 219.431 83.4592 219.566 83.3592 219.679C83.2592 219.792 83.1347 219.88 82.9954 219.936C82.8787 219.983 82.7532 220.005 82.6275 219.999ZM21.7836 182.026L81.9982 217.503L95.7993 166.911C94.7827 162.848 88.7946 160.646 82.2838 161.992C76.8766 163.112 72.6022 166.431 71.8277 170.068C71.7941 170.262 71.7035 170.441 71.5677 170.582C71.4319 170.723 71.2572 170.819 71.0664 170.858C70.8756 170.898 70.6776 170.878 70.4982 170.801C70.3189 170.725 70.1664 170.595 70.0608 170.43C68.0373 167.493 62.8819 165.017 57.3101 166.172C51.7384 167.327 47.5947 171.683 46.8589 175.232C46.825 175.425 46.7347 175.603 46.5996 175.744C46.4645 175.884 46.2908 175.98 46.101 176.02C45.9112 176.059 45.714 176.04 45.535 175.965C45.356 175.89 45.2033 175.763 45.0968 175.599C42.9959 172.559 37.7485 171.218 32.3413 172.329C30.3331 172.737 28.408 173.486 26.6486 174.547C23.3229 176.598 21.5125 179.427 21.7836 182.026Z" fill="#387DD8"/>
<path id="Vector_4" d="M88.0056 199.246L82.6275 219.011L65.2394 208.766C66.5367 203.681 69.7268 199.535 74.3594 197.699C78.8275 195.923 83.7457 196.647 88.0056 199.246Z" fill="#9397B4"/>
<path id="Vector_5" d="M82.6276 220C82.4578 219.997 82.2913 219.952 82.1435 219.867L64.7602 209.623C64.573 209.516 64.4262 209.349 64.343 209.149C64.2597 208.949 64.2447 208.726 64.3003 208.516C65.7235 202.936 69.267 198.653 74.0158 196.769C78.5758 194.953 83.8668 195.545 88.5382 198.389C88.7229 198.5 88.866 198.67 88.9449 198.872C89.0238 199.074 89.034 199.297 88.9738 199.505L83.5715 219.285C83.5306 219.431 83.4575 219.566 83.3577 219.679C83.258 219.793 83.1341 219.882 82.9955 219.941C82.8777 219.984 82.7528 220.004 82.6276 220ZM66.3867 208.291L82.0176 217.503L86.8584 199.721C82.8454 197.488 78.5565 197.092 74.7177 198.619C70.7676 200.195 67.7712 203.69 66.3867 208.291Z" fill="#505578"/>
<path id="Vector_6" d="M52.8856 17.6211C59.7353 12.369 70.4335 1.72779 79.6213 1.05231C94.347 -0.0343227 127.41 14.5668 133.606 27.4106C136.389 33.1913 125.081 52.7508 125.081 52.7508L52.8856 17.6211Z" fill="#EA5189"/>
<path id="Vector_7" d="M134.008 30.4547C124.418 18.5653 95.6831 6.47035 82.2112 7.47378C74.6547 8.03178 66.0817 15.3054 59.4595 20.8169L52.8905 17.6206C59.7402 12.3685 70.4335 1.72733 79.6214 1.05185C94.347 -0.0298924 127.41 14.5614 133.606 27.4101C133.998 28.3729 134.136 29.4218 134.008 30.4547Z" fill="#FF73A5"/>
<path id="Vector_8" d="M125.072 53.7442C124.924 53.7448 124.778 53.7113 124.646 53.6463L52.4597 18.5019C52.3057 18.4307 52.1728 18.3199 52.0744 18.1806C51.976 18.0412 51.9154 17.8782 51.8987 17.7078C51.8821 17.5374 51.9099 17.3656 51.9795 17.2094C52.049 17.0533 52.1579 16.9184 52.2951 16.8181C53.6651 15.7657 55.1996 14.4784 56.86 13.1176C63.5645 7.55229 71.91 0.62131 79.5488 0.0584121C94.957 -1.06738 128.126 13.7637 134.477 26.9796C137.406 33.0638 127.105 51.2087 125.919 53.2596C125.832 53.4088 125.709 53.5322 125.56 53.6173C125.411 53.7025 125.243 53.7462 125.072 53.7442ZM54.7446 17.4103L124.679 51.4583C127.971 45.5846 134.71 31.9918 132.71 27.846C126.751 15.4622 94.2261 0.978627 79.694 2.04079C72.6749 2.53027 64.5956 9.26546 58.1041 14.6546C56.9278 15.6287 55.7999 16.5636 54.7446 17.4103Z" fill="#AD1D52"/>
<path id="Vector_9" d="M96.8158 166.911C95.8477 162.153 89.2545 159.515 82.0901 160.993C76.1505 162.227 71.6824 165.888 70.8692 169.838C68.5892 166.544 63.0561 163.94 57.1165 165.173C51.1768 166.407 46.7185 171.047 45.9052 175.012C43.6252 171.713 38.0873 170.117 32.1525 171.336C24.9736 172.804 19.9489 177.89 20.9074 182.633C6.93685 126.426 26.6486 56.7201 45.7019 29.6912L59.4836 23.3574L100.088 34.263C100.088 34.263 117.631 44.1308 120.647 56.7201C105.108 87.6159 93.3063 139.3 96.8158 166.911Z" fill="url(#paint0_linear_1384_2432)"/>
<path id="Vector_10" d="M111.488 42.7652C109.552 41.4729 108.298 40.7583 108.298 40.7583L67.6937 29.8577L54.7349 34.263C37.4 58.8493 18.6855 120.739 26.1403 173.695C22.4032 175.991 20.2539 179.393 20.9122 182.648C6.93688 126.426 26.6486 56.7201 45.7019 29.6912L59.4885 23.3574L100.088 34.263C104.179 36.6744 108.002 39.525 111.488 42.7652Z" fill="#BDE0FE"/>
<path id="Vector_11" d="M45.9004 176.02C45.6866 176.023 45.478 175.953 45.3073 175.823C45.1365 175.693 45.0131 175.509 44.9565 175.301C36.306 145.007 44.4579 76.3239 67.5727 36.4658C67.701 36.2387 67.9134 36.0724 68.1631 36.0035C68.4127 35.9347 68.6792 35.9689 68.9039 36.0987C69.1286 36.2286 69.293 36.4433 69.3611 36.6957C69.4292 36.9482 69.3953 37.2176 69.2669 37.4448C46.3894 76.8966 38.2859 144.802 46.8444 174.723C46.8827 174.849 46.8956 174.981 46.8823 175.112C46.869 175.243 46.8297 175.369 46.7669 175.485C46.7041 175.6 46.6191 175.701 46.5168 175.782C46.4145 175.863 46.297 175.923 46.1715 175.957C46.0843 175.99 45.9931 176.011 45.9004 176.02Z" fill="#387DD8"/>
<path id="Vector_12" d="M70.8644 170.827C70.6174 170.827 70.3795 170.732 70.1996 170.561C70.0196 170.39 69.9111 170.156 69.8962 169.906C67.4081 136.935 78.9679 74.7766 97.0579 47.0478C97.2011 46.8284 97.4246 46.6755 97.6792 46.6227C97.9338 46.5699 98.1988 46.6216 98.4158 46.7664C98.6327 46.9111 98.784 47.1371 98.8362 47.3946C98.8884 47.652 98.8373 47.92 98.6941 48.1393C80.8122 75.55 69.388 137.097 71.8519 169.764C71.8631 169.895 71.8485 170.026 71.8088 170.15C71.7691 170.274 71.7052 170.39 71.6208 170.489C71.5365 170.588 71.4334 170.668 71.3176 170.726C71.2018 170.785 71.0757 170.819 70.9467 170.827H70.8644Z" fill="#387DD8"/>
<path id="Vector_13" d="M20.9026 183.641C20.6808 183.648 20.4635 183.577 20.2873 183.44C20.1111 183.304 19.9865 183.111 19.9344 182.892C5.94937 126.529 25.816 56.1915 44.9032 29.1137C45.0043 28.9725 45.1392 28.8597 45.2953 28.7857L59.0819 22.4519C59.2883 22.3565 59.5213 22.3374 59.7402 22.3981L100.34 33.284C100.42 33.3026 100.497 33.334 100.567 33.377C101.298 33.7882 118.522 43.6315 121.601 56.4901C121.656 56.7206 121.628 56.9634 121.523 57.1754C105.505 88.9913 94.4148 140.239 97.8034 166.818C97.8464 167.078 97.7856 167.344 97.6345 167.558C97.4833 167.773 97.2542 167.917 96.9974 167.961C96.7406 168.004 96.4773 167.943 96.2653 167.79C96.0533 167.637 95.9101 167.406 95.8671 167.146C95.0199 162.941 88.9302 160.631 82.3129 162.002C76.9057 163.122 72.6313 166.441 71.8567 170.078C71.8232 170.272 71.7325 170.451 71.5967 170.592C71.4609 170.733 71.2863 170.829 71.0955 170.868C70.9047 170.908 70.7067 170.888 70.5273 170.811C70.3479 170.735 70.1955 170.605 70.0899 170.44C68.0664 167.503 62.911 165.027 57.3392 166.182C51.7675 167.337 47.5947 171.683 46.8589 175.232C46.825 175.425 46.7347 175.603 46.5996 175.744C46.4645 175.884 46.2908 175.98 46.101 176.02C45.9112 176.059 45.7141 176.041 45.535 175.966C45.356 175.891 45.2034 175.763 45.0968 175.599C42.9959 172.56 37.7485 171.218 32.3414 172.33C25.7143 173.705 21.0139 178.247 21.8659 182.457C21.8929 182.582 21.8953 182.712 21.8727 182.839C21.8501 182.965 21.8031 183.086 21.7343 183.194C21.6655 183.303 21.5763 183.396 21.4718 183.469C21.3673 183.543 21.2495 183.594 21.1252 183.622C21.0518 183.635 20.9772 183.642 20.9026 183.641ZM46.3506 30.4842C28.0427 56.6712 9.10556 122.995 20.7912 177.777C22.5968 174.351 26.7454 171.458 31.9251 170.381C37.3419 169.265 42.5167 170.347 45.4793 173.078C47.0961 169.329 51.3705 165.364 56.8939 164.214C62.4172 163.064 67.5968 165.046 70.4481 167.88C72.1181 164.199 76.4507 161.155 81.853 160.049C87.2553 158.942 92.464 160.098 95.4072 162.755C93.5677 135.041 104.338 87.1166 119.611 56.6125C116.615 45.2419 101.134 35.9908 99.7203 35.1636L59.5757 24.3951L46.3506 30.4842Z" fill="#387DD8"/>
<path id="Vector_14" d="M52.0773 105.262C62.2285 105.262 70.4577 96.9407 70.4577 86.6762C70.4577 76.4118 62.2285 68.0908 52.0773 68.0908C41.926 68.0908 33.6968 76.4118 33.6968 86.6762C33.6968 96.9407 41.926 105.262 52.0773 105.262Z" fill="white"/>
<path id="Vector_15" d="M52.0483 106.26C47.9121 106.254 43.8863 104.91 40.5605 102.424C37.2348 99.9371 34.7838 96.4392 33.5667 92.4421C32.3496 88.445 32.4302 84.1588 33.7969 80.2114C35.1635 76.2641 37.7443 72.8629 41.1612 70.5062C44.5781 68.1494 48.6516 66.9609 52.785 67.1148C56.9183 67.2687 60.8943 68.7568 64.1306 71.3613C67.3669 73.9657 69.6933 77.5496 70.7692 81.5879C71.845 85.6262 71.6138 89.9067 70.1092 93.8025C68.7022 97.4851 66.2215 100.648 62.996 102.873C59.7706 105.098 55.9526 106.279 52.0483 106.26ZM52.0483 69.0595C47.699 69.05 43.503 70.6826 40.2818 73.6375C37.0607 76.5923 35.0465 80.6567 34.6336 85.0345C34.2208 89.4124 35.4391 93.7884 38.05 97.3056C40.6608 100.823 44.4761 103.228 48.7487 104.05C53.0213 104.871 57.4434 104.051 61.1491 101.749C64.8547 99.4463 67.5769 95.8282 68.7825 91.6028C69.9882 87.3775 69.5904 82.8492 67.6672 78.9048C65.7439 74.9604 62.4337 71.8841 58.3849 70.2783C56.3717 69.4825 54.2292 69.0741 52.0676 69.0741L52.0483 69.0595Z" fill="black"/>
<path id="Vector_16" d="M41.5001 82.5057C40.7337 84.4972 40.5684 86.6738 41.0251 88.7603C41.4818 90.8467 42.5399 92.7495 44.0658 94.228C45.5917 95.7066 47.5168 96.6946 49.5978 97.0671C51.6789 97.4396 53.8224 97.1799 55.7576 96.3209C57.6927 95.4619 59.3326 94.0421 60.4699 92.241C61.6072 90.4398 62.1909 88.3382 62.1472 86.2017C62.1036 84.0651 61.4345 81.9897 60.2246 80.2376C59.0147 78.4854 57.3182 77.1353 55.3496 76.3579C53.2442 75.5188 50.9282 75.385 48.742 75.9761C50.5476 79.7598 50.9494 83.049 49.5262 84.0035C48.103 84.958 45.3679 83.3183 42.6861 80.2443C42.2022 80.9471 41.804 81.7064 41.5001 82.5057Z" fill="black"/>
<path id="Vector_17" d="M119.438 97.2528C120.569 87.0523 114.448 77.9849 105.766 77.0001C97.0831 76.0154 89.1272 83.4862 87.9956 93.6867C86.8641 103.887 92.9854 112.955 101.668 113.939C110.35 114.924 118.306 107.453 119.438 97.2528Z" fill="white"/>
<path id="Vector_18" d="M103.186 115.026C102.638 115.027 102.09 114.996 101.545 114.933C92.3479 113.891 85.8176 104.316 87.023 93.5871C88.2284 82.8578 96.6707 74.987 105.873 76.0198C115.075 77.0526 121.601 86.6414 120.395 97.3707C119.282 107.444 111.735 115.026 103.186 115.026ZM104.217 77.914C96.6562 77.914 89.9662 84.7325 88.9593 93.8073C87.8895 103.45 93.6355 112.04 101.763 112.961C109.891 113.881 117.38 106.788 118.449 97.1505C119.519 87.5127 113.759 78.9028 105.641 77.9777C105.168 77.9248 104.693 77.8986 104.217 77.8994V77.914Z" fill="black"/>
<path id="Vector_19" d="M88.5866 90.9493C87.818 92.9405 87.6506 95.1174 88.1056 97.2048C88.5606 99.2922 89.6175 101.196 91.1427 102.676C92.6678 104.156 94.5928 105.146 96.6741 105.52C98.7554 105.894 100.9 105.635 102.836 104.777C104.772 103.918 106.412 102.499 107.551 100.698C108.689 98.8964 109.273 96.7944 109.23 94.6574C109.187 92.5203 108.518 90.4443 107.307 88.6917C106.097 86.9391 104.4 85.5887 102.431 84.8113C100.326 83.9719 98.0097 83.838 95.8235 84.4295C97.6292 88.2131 98.0358 91.5024 96.6126 92.4569C95.1894 93.4114 92.4495 91.7716 89.7726 88.6977C89.2885 89.3969 88.8902 90.153 88.5866 90.9493Z" fill="black"/>
<path id="Vector_20" d="M73.5075 127.263C72.453 127.265 71.4008 127.163 70.3658 126.959C67.0758 126.245 64.0509 124.609 61.6362 122.24C59.2215 119.87 57.5145 116.861 56.7099 113.558C56.6807 113.431 56.6764 113.299 56.6975 113.171C56.7185 113.042 56.7644 112.919 56.8325 112.808C56.9006 112.697 56.9896 112.601 57.0944 112.525C57.1992 112.45 57.3177 112.395 57.4433 112.366C57.5688 112.336 57.6989 112.332 57.8261 112.353C57.9533 112.374 58.0751 112.421 58.1845 112.49C58.294 112.559 58.389 112.648 58.464 112.754C58.5391 112.86 58.5928 112.98 58.622 113.107C59.2884 116.061 60.7878 118.757 62.9386 120.867C65.0895 122.976 67.7993 124.41 70.7398 124.994C73.6803 125.578 76.7251 125.287 79.5053 124.156C82.2855 123.026 84.6816 121.104 86.4033 118.624C86.5535 118.409 86.782 118.263 87.0385 118.219C87.2949 118.174 87.5584 118.234 87.7709 118.386C87.9833 118.538 88.1274 118.769 88.1715 119.028C88.2155 119.288 88.1558 119.554 88.0056 119.769C84.772 124.424 79.1179 127.263 73.5075 127.263Z" fill="black"/>
<path id="Vector_21" d="M63.3369 115.766C63.089 115.767 62.8499 115.673 62.6689 115.501C61.4312 114.349 59.8201 113.693 58.1379 113.656C56.4525 113.622 54.8142 114.22 53.5391 115.335C53.4416 115.42 53.3283 115.485 53.206 115.526C53.0836 115.567 52.9544 115.583 52.8259 115.573C52.6973 115.564 52.5719 115.529 52.4567 115.47C52.3415 115.412 52.2389 115.331 52.1547 115.232C52.0704 115.133 52.0063 115.019 51.9658 114.895C51.9253 114.771 51.9093 114.641 51.9188 114.511C51.9282 114.381 51.9629 114.254 52.0208 114.138C52.0787 114.021 52.1588 113.917 52.2563 113.832C53.8976 112.401 56.0031 111.631 58.1704 111.669C60.3377 111.708 62.4148 112.553 64.0049 114.043C64.1582 114.175 64.2668 114.352 64.3158 114.55C64.3647 114.747 64.3515 114.955 64.278 115.145C64.2045 115.334 64.0743 115.496 63.9057 115.607C63.737 115.719 63.5381 115.774 63.3369 115.766Z" fill="black"/>
<path id="Vector_22" d="M55.277 58.7854C55.824 60.616 59.5999 61.081 63.7048 59.8231C67.8098 58.5651 70.695 56.059 70.1479 54.2284C69.6009 52.3977 65.8251 51.9327 61.7201 53.1907C57.6151 54.4486 54.7252 56.9548 55.277 58.7854Z" fill="black"/>
<path id="Vector_23" d="M85.5513 56.8867C84.3315 58.3551 85.9967 61.7815 89.2691 64.6058C92.5414 67.43 96.1914 68.4971 97.4161 67.0531C98.6408 65.6092 96.9708 62.1584 93.6984 59.3341C90.426 56.5098 86.7761 55.4281 85.5513 56.8867Z" fill="black"/>
<path id="Vector_24" d="M43.7511 33.48C60.4228 32.966 101.032 43.5142 118.599 62.0067C118.868 62.2922 119.19 62.5196 119.548 62.675C119.906 62.8304 120.292 62.9105 120.681 62.9105C121.07 62.9105 121.456 62.8304 121.814 62.675C122.172 62.5196 122.494 62.2922 122.763 62.0067L129.874 54.3806C130.32 53.9018 130.591 53.2835 130.643 52.6276C130.695 51.9718 130.524 51.3177 130.159 50.7732C112.732 24.6645 69.388 12.0164 49.41 16.7888C48.7169 16.9608 48.1156 17.3953 47.7303 18.0027C45.2227 21.9185 42.8895 26.0693 41.1758 29.202C40.9307 29.6467 40.8066 30.1493 40.8162 30.6583C40.8258 31.1674 40.9689 31.6648 41.2307 32.0997C41.4925 32.5347 41.8638 32.8916 42.3065 33.1341C42.7493 33.3766 43.2478 33.4959 43.7511 33.48Z" fill="#9397B4"/>
<path id="Vector_25" d="M130.445 53.5336C111.745 29.6423 71.1596 18.2375 52.0433 22.8141C51.3498 22.9793 50.7483 23.4136 50.3684 24.0231C48.2966 27.2292 46.3409 30.6262 44.7725 33.4651C44.4191 33.4651 44.0851 33.4651 43.7511 33.4651C43.2505 33.4768 42.7557 33.3549 42.3165 33.1118C41.8773 32.8687 41.5092 32.5129 41.2491 32.0803C40.989 31.6476 40.8462 31.1534 40.8351 30.6472C40.8239 30.141 40.9447 29.6408 41.1854 29.1969C42.8846 26.0691 45.2323 21.8988 47.7447 17.9977C48.1264 17.3878 48.7296 16.9537 49.4245 16.7887C69.4024 12.0114 112.761 24.6594 130.179 50.7632C130.446 51.1667 130.61 51.631 130.657 52.1145C130.703 52.598 130.63 53.0856 130.445 53.5336Z" fill="#B5BBDE"/>
<path id="Vector_26" d="M120.72 63.9102C120.194 63.9092 119.674 63.8007 119.19 63.5913C118.707 63.3818 118.271 63.0758 117.907 62.6914C100.427 44.3116 59.9919 33.9788 43.785 34.4731C43.1136 34.5004 42.4474 34.3443 41.8562 34.0213C41.2651 33.6983 40.7709 33.2204 40.4255 32.6376C40.0635 32.0537 39.8636 31.382 39.8465 30.6931C39.8295 30.0042 39.996 29.3233 40.3286 28.7218C41.9019 25.8143 44.3223 21.5069 46.9218 17.4638C47.4433 16.6426 48.2584 16.0568 49.197 15.829C69.1652 11.0566 113.284 23.6606 131.006 50.2245C131.499 50.9547 131.729 51.8333 131.658 52.7141C131.588 53.5949 131.221 54.4247 130.619 55.0654L123.489 62.7012C123.136 63.0822 122.711 63.386 122.238 63.5939C121.765 63.8019 121.255 63.9095 120.739 63.9102H120.72ZM44.9032 32.4712C62.1171 32.4712 101.879 42.9704 119.321 61.316C119.502 61.5096 119.72 61.6637 119.963 61.7689C120.205 61.8741 120.466 61.9282 120.729 61.9279C120.979 61.927 121.226 61.8745 121.455 61.7735C121.684 61.6724 121.89 61.5251 122.061 61.3405L129.177 53.7145C129.47 53.3993 129.649 52.992 129.682 52.5602C129.716 52.1285 129.602 51.6981 129.36 51.3405C112.089 25.4521 69.0926 13.1271 49.6472 17.7673C49.2023 17.8811 48.8177 18.1632 48.5725 18.5554C45.9875 22.5544 43.6059 26.8177 42.052 29.691C41.8916 29.9839 41.8115 30.3149 41.82 30.6497C41.8285 30.9844 41.9253 31.3108 42.1004 31.595C42.2672 31.8766 42.5057 32.1077 42.7909 32.2644C43.0761 32.4211 43.3977 32.4975 43.722 32.4859C44.1045 32.4761 44.4966 32.4712 44.9032 32.4712Z" fill="#505578"/>
<path id="Vector_27" d="M87.0713 176.211C86.2838 176.215 85.5095 176.006 84.8287 175.606C84.1478 175.206 83.5851 174.629 83.1986 173.935L57.3682 127.474C56.8272 126.444 56.706 125.24 57.0305 124.121C57.355 123.002 58.0994 122.055 59.1048 121.483C60.1102 120.911 61.2969 120.76 62.4114 121.06C63.526 121.361 64.48 122.091 65.0699 123.093L90.9003 169.554C91.2791 170.233 91.4754 171.001 91.4696 171.78C91.4638 172.56 91.2562 173.324 90.8675 173.998C90.4788 174.671 89.9224 175.23 89.2538 175.618C88.5853 176.006 87.8278 176.211 87.0568 176.211H87.0713Z" fill="#BD491F"/>
<path id="Vector_28" d="M87.0713 177.19C86.1125 177.19 85.171 176.932 84.3433 176.442C83.5157 175.953 82.8316 175.25 82.3612 174.405L56.5307 127.944C56.1833 127.319 55.961 126.631 55.8765 125.919C55.792 125.208 55.8469 124.486 56.0382 123.796C56.2295 123.106 56.5533 122.46 56.9912 121.897C57.4292 121.333 57.9726 120.862 58.5905 120.511C59.2084 120.16 59.8887 119.935 60.5925 119.849C61.2963 119.764 62.0099 119.82 62.6924 120.013C63.375 120.206 64.0132 120.534 64.5707 120.977C65.1281 121.419 65.5938 121.969 65.9412 122.594L91.7717 169.055C92.4731 170.317 92.6504 171.809 92.2647 173.203C91.8789 174.597 90.9616 175.779 89.7144 176.49C88.9062 176.946 87.9967 177.187 87.0713 177.19ZM61.2311 121.815C60.6322 121.817 60.0439 121.976 59.5247 122.278C59.0055 122.58 58.5733 123.014 58.271 123.537C57.9687 124.059 57.8067 124.653 57.8012 125.259C57.7957 125.864 57.9468 126.461 58.2395 126.989L84.07 173.45C84.5193 174.254 85.266 174.844 86.1457 175.091C87.0254 175.338 87.966 175.221 88.7607 174.767C89.5554 174.313 90.1391 173.558 90.3833 172.668C90.6275 171.779 90.5122 170.828 90.0629 170.024L64.2324 123.568C63.9305 123.033 63.4936 122.589 62.9662 122.281C62.4389 121.973 61.8401 121.812 61.2311 121.815Z" fill="#702509"/>
<path id="Vector_29" d="M44.3078 49.1621C37.2334 49.1621 30.318 51.2833 24.4358 55.2574C18.5537 59.2315 13.9692 64.8801 11.2619 71.4888C8.55468 78.0976 7.84634 85.3696 9.22648 92.3854C10.6066 99.4012 14.0133 105.846 19.0156 110.904C24.0179 115.962 30.3913 119.406 37.3297 120.802C44.2681 122.197 51.46 121.481 57.9959 118.744C64.5317 116.006 70.118 111.371 74.0483 105.423C77.9786 99.4753 80.0764 92.4827 80.0764 85.3295C80.0623 75.7417 76.2894 66.5506 69.5845 59.771C62.8796 52.9914 53.7899 49.1764 44.3078 49.1621Z" fill="#1DA1F2"/>
<path id="Vector_30" d="M44.3078 129.138C35.7389 129.138 27.3624 126.568 20.2376 121.755C13.1129 116.941 7.55978 110.099 4.28061 102.094C1.00144 94.0894 0.143457 85.281 1.81516 76.7831C3.48687 68.2851 7.61319 60.4793 13.6723 54.3526C19.7314 48.2259 27.4512 44.0536 35.8555 42.3633C44.2597 40.6729 52.9709 41.5405 60.8876 44.8562C68.8042 48.1719 75.5706 53.7869 80.3313 60.9911C85.0919 68.1953 87.6329 76.6652 87.6329 85.3296C87.62 96.9443 83.0513 108.08 74.9291 116.292C66.8068 124.505 55.7944 129.125 44.3078 129.138ZM44.3078 49.1622C37.2334 49.1622 30.3179 51.2834 24.4358 55.2575C18.5537 59.2317 13.9691 64.8802 11.2619 71.489C8.55464 78.0977 7.8463 85.3698 9.22645 92.3855C10.6066 99.4013 14.0132 105.846 19.0155 110.904C24.0179 115.962 30.3912 119.407 37.3297 120.802C44.2681 122.198 51.46 121.481 57.9958 118.744C64.5317 116.007 70.118 111.371 74.0483 105.423C77.9786 99.4755 80.0764 92.4829 80.0764 85.3296C80.0623 75.7418 76.2893 66.5508 69.5844 59.7711C62.8796 52.9915 53.7899 49.1765 44.3078 49.1622Z" fill="#BD491F"/>
<path id="Vector_31" d="M44.3078 130.132C35.5445 130.132 26.9781 127.504 19.6917 122.581C12.4053 117.659 6.7263 110.661 3.37275 102.475C0.0191979 94.2885 -0.858244 85.2804 0.851381 76.5897C2.56101 67.899 6.78091 59.9161 12.9775 53.6505C19.174 47.3848 27.0689 43.1179 35.6638 41.3892C44.2586 39.6605 53.1674 40.5477 61.2636 43.9387C69.3598 47.3296 76.2798 53.072 81.1484 60.4396C86.017 67.8072 88.6156 76.4692 88.6156 85.3301C88.6027 97.2083 83.9305 108.596 75.624 116.995C67.3174 125.395 56.055 130.119 44.3078 130.132ZM44.3078 42.5156C35.9319 42.5146 27.7438 45.0253 20.7791 49.7299C13.8144 54.4346 8.38588 61.122 5.18012 68.9465C1.97436 76.7709 1.13533 85.3808 2.76915 93.6874C4.40298 101.994 8.43626 109.624 14.3589 115.613C20.2816 121.602 27.8276 125.68 36.0426 127.332C44.2576 128.984 52.7726 128.136 60.5108 124.894C68.2489 121.653 74.8626 116.163 79.5154 109.121C84.1682 102.079 86.6512 93.7994 86.6502 85.3301C86.6374 73.9785 82.1724 63.0955 74.2345 55.0683C66.2967 47.041 55.5342 42.525 44.3078 42.5107V42.5156ZM44.3078 122.491C37.04 122.491 29.9355 120.312 23.8926 116.229C17.8496 112.146 13.1397 106.343 10.3585 99.554C7.57724 92.7646 6.84954 85.2938 8.26741 78.0862C9.68528 70.8786 13.185 64.258 18.3241 59.0616C23.4632 53.8653 30.0108 50.3265 37.1389 48.8928C44.267 47.4591 51.6555 48.1949 58.37 51.0072C65.0846 53.8195 70.8236 58.5819 74.8614 64.6921C78.8991 70.8024 81.0542 77.9862 81.0542 85.335C81.0414 95.185 77.1657 104.628 70.277 111.592C63.3883 118.557 54.0492 122.475 44.3078 122.486V122.491ZM44.3078 50.1612C37.4278 50.1612 30.7023 52.2241 24.9818 56.0891C19.2612 59.954 14.8026 65.4474 12.1698 71.8746C9.53691 78.3017 8.84804 85.374 10.1903 92.1971C11.5325 99.0201 14.8455 105.287 19.7104 110.207C24.5753 115.126 30.7736 118.476 37.5214 119.833C44.2692 121.19 51.2635 120.494 57.6198 117.831C63.9761 115.169 69.4089 110.661 73.2312 104.876C77.0536 99.0922 79.0937 92.2917 79.0937 85.335C79.0835 76.0091 75.4154 67.068 68.8941 60.4731C62.3729 53.8782 53.5309 50.168 44.3078 50.1563V50.1612Z" fill="#702509"/>
<path id="Vector_32" d="M44.3078 114.116C60.0306 114.116 72.7765 101.228 72.7765 85.33C72.7765 69.4319 60.0306 56.5439 44.3078 56.5439C28.585 56.5439 15.8391 69.4319 15.8391 85.33C15.8391 101.228 28.585 114.116 44.3078 114.116Z" fill="white"/>
<path id="Vector_33" d="M44.2738 115.109C39.4822 115.106 34.7637 113.92 30.5281 111.654C26.2924 109.389 22.6675 106.113 19.9679 102.11C17.2682 98.1066 15.5755 93.498 15.0365 88.6836C14.4975 83.8692 15.1286 78.9946 16.875 74.4827C18.827 69.4358 22.1041 65.0232 26.353 61.7203C30.6019 58.4174 35.6616 56.3494 40.987 55.7392C46.3123 55.129 51.7013 55.9997 56.5735 58.2575C61.4456 60.5152 65.6161 64.0745 68.6355 68.5517C71.655 73.0289 73.409 78.2544 73.7086 83.6651C74.0081 89.0758 72.8419 94.4666 70.3354 99.2566C67.829 104.047 64.0775 108.054 59.485 110.848C54.8925 113.641 49.6332 115.115 44.2738 115.109ZM44.3416 57.5322C38.8019 57.5276 33.3897 59.213 28.8124 62.3681C24.2351 65.5232 20.7057 70.0013 18.6854 75.217C16.5504 80.7464 16.2224 86.8217 17.7492 92.5533C19.2761 98.2848 22.5777 103.372 27.1705 107.069C31.7633 110.765 37.4061 112.878 43.2725 113.098C49.1389 113.318 54.9207 111.632 59.7713 108.289C64.6219 104.945 68.2863 100.119 70.2281 94.5176C72.1699 88.9158 72.2869 82.8326 70.5621 77.1587C68.8373 71.4849 65.3612 66.5184 60.6429 62.9867C55.9246 59.455 50.212 57.5435 44.3416 57.5322Z" fill="black"/>
<path id="Vector_34" d="M27.9314 78.8637C26.5745 82.3696 26.4249 86.2354 27.5067 89.8378C28.5885 93.4401 30.8387 96.5691 33.8943 98.7202C36.95 100.871 40.6331 101.919 44.3497 101.695C48.0664 101.47 51.6 99.9866 54.3807 97.4831C57.1615 94.9795 59.0273 91.602 59.6774 87.8951C60.3275 84.1881 59.7239 80.3678 57.9641 77.0501C56.2042 73.7325 53.3905 71.1108 49.9768 69.6079C46.5631 68.1049 42.7483 67.8083 39.1475 68.7658C41.9406 74.6396 42.5699 79.7252 40.3674 81.1985C38.1648 82.6719 33.9194 80.1413 29.766 75.3787C29.0193 76.4623 28.4034 77.6323 27.9314 78.8637Z" fill="black"/>
<path id="Vector_35" d="M87.3085 163.974C86.9233 164.01 86.5399 163.889 86.2426 163.639C85.9453 163.389 85.7584 163.029 85.7231 162.64C85.6878 162.251 85.807 161.863 86.0544 161.562C86.3017 161.262 86.6571 161.073 87.0422 161.037C92.5054 160.019 97.8469 158.421 102.978 156.269C106.851 154.635 108.923 152.794 109.271 150.631C109.562 148.908 108.744 147.023 107.95 145.398C105.237 139.809 101.834 134.591 97.8227 129.867C97.5659 129.567 97.4375 129.177 97.4656 128.781C97.4938 128.385 97.6762 128.017 97.9728 127.757C98.2693 127.498 98.6558 127.368 99.047 127.396C99.4383 127.425 99.8024 127.609 100.059 127.909C104.233 132.82 107.773 138.248 110.593 144.062C111.663 146.265 112.592 148.639 112.171 151.115C111.44 155.442 107.209 157.689 104.087 159.001C98.7709 161.241 93.2363 162.908 87.5747 163.974C87.4861 163.981 87.3971 163.981 87.3085 163.974Z" fill="#505578"/>
<path id="Vector_36" d="M87.3085 164.953C86.6944 164.956 86.1015 164.726 85.6469 164.309C85.1924 163.891 84.9092 163.316 84.8532 162.698C84.7973 162.079 84.9727 161.462 85.3448 160.968C85.7169 160.474 86.2587 160.139 86.8632 160.029C92.2662 159.029 97.5495 157.454 102.625 155.33C106.12 153.862 108.046 152.217 108.347 150.435C108.589 149.006 107.838 147.293 107.112 145.805C104.436 140.292 101.081 135.145 97.1257 130.484C96.9025 130.239 96.7305 129.951 96.6199 129.638C96.5092 129.324 96.4621 128.991 96.4815 128.658C96.5009 128.326 96.5862 128 96.7326 127.702C96.8789 127.403 97.0831 127.138 97.3331 126.921C97.5831 126.704 97.8738 126.54 98.1877 126.439C98.5017 126.338 98.8326 126.302 99.1606 126.333C99.4886 126.364 99.8071 126.462 100.097 126.62C100.387 126.778 100.642 126.994 100.848 127.254C105.068 132.231 108.646 137.73 111.498 143.617C112.64 145.967 113.633 148.512 113.163 151.277C112.35 156.089 107.838 158.507 104.488 159.907C99.1023 162.168 93.4944 163.847 87.7587 164.914C87.6102 164.942 87.4595 164.955 87.3085 164.953ZM98.9603 128.365C98.8426 128.365 98.7291 128.409 98.6408 128.487C98.5918 128.529 98.5516 128.581 98.5225 128.639C98.4934 128.697 98.476 128.76 98.4714 128.825C98.4633 128.956 98.5048 129.086 98.5876 129.187C102.654 133.972 106.103 139.26 108.85 144.924C109.712 146.696 110.598 148.752 110.259 150.768C109.828 153.289 107.572 155.379 103.356 157.132C98.163 159.331 92.7548 160.968 87.2214 162.017C87.1578 162.028 87.0971 162.052 87.0428 162.087C86.9884 162.123 86.9415 162.169 86.9046 162.222C86.8302 162.33 86.8013 162.464 86.8244 162.594C86.8476 162.724 86.9207 162.839 87.0278 162.914C87.135 162.99 87.2673 163.019 87.3957 162.995C92.9961 161.954 98.4711 160.313 103.728 158.101C106.633 156.882 110.573 154.811 111.227 150.969C111.595 148.771 110.743 146.564 109.731 144.523C106.947 138.783 103.453 133.424 99.3331 128.575C99.2895 128.517 99.2333 128.468 99.1688 128.435C99.1042 128.401 99.033 128.382 98.9603 128.38V128.365Z" fill="#252945"/>
<path id="Vector_37" d="M40.1786 158.683C39.4341 158.685 38.6914 158.611 37.9615 158.463C27.1859 156.245 24.3153 140.939 23.565 132.031C23.5316 131.638 23.6541 131.247 23.9056 130.945C24.157 130.643 24.5169 130.454 24.9059 130.42C25.2949 130.387 25.6812 130.511 25.9799 130.765C26.2786 131.019 26.4651 131.383 26.4985 131.776C27.0503 138.296 29.3207 153.666 38.5472 155.565C41.4468 156.142 44.5353 155.002 47.4397 153.695C54.923 150.277 61.8616 145.752 68.0276 140.269C68.1729 140.14 68.3418 140.042 68.5246 139.979C68.7075 139.917 68.9007 139.891 69.0933 139.904C69.286 139.917 69.4742 139.968 69.6472 140.055C69.8203 140.141 69.9748 140.261 70.1019 140.408C70.2291 140.555 70.3263 140.726 70.3882 140.911C70.4501 141.096 70.4753 141.291 70.4625 141.486C70.4497 141.681 70.3991 141.871 70.3135 142.046C70.228 142.221 70.1092 142.377 69.9639 142.506C63.5783 148.185 56.3915 152.87 48.6403 156.407C46.0795 157.562 43.1508 158.683 40.1786 158.683Z" fill="#505578"/>
<path id="Vector_38" d="M40.1786 159.677C39.366 159.678 38.5552 159.598 37.7582 159.437C26.3533 157.087 23.352 141.297 22.5775 132.095C22.5225 131.439 22.7272 130.788 23.1466 130.285C23.566 129.782 24.1657 129.468 24.814 129.412C25.4601 129.363 26.0995 129.572 26.5954 129.994C27.0912 130.415 27.404 131.017 27.4667 131.669C27.9944 137.968 30.1534 152.8 38.7312 154.567C41.3646 155.11 44.2739 154.023 47.0187 152.77C54.4094 149.394 61.2617 144.923 67.35 139.505C67.5911 139.285 67.8731 139.115 68.1796 139.006C68.4861 138.897 68.811 138.85 69.1355 138.869C69.4599 138.888 69.7775 138.971 70.0697 139.115C70.3619 139.259 70.623 139.46 70.8378 139.707C71.0525 139.953 71.2167 140.24 71.3208 140.552C71.4248 140.863 71.4667 141.192 71.444 141.52C71.4212 141.848 71.3343 142.168 71.1883 142.461C71.0423 142.755 70.84 143.016 70.5933 143.23C64.1352 148.975 56.8669 153.714 49.0276 157.293C46.4717 158.473 43.3978 159.677 40.1786 159.677ZM25.027 131.39H24.9882C24.9246 131.396 24.8627 131.414 24.8062 131.445C24.7497 131.475 24.6997 131.516 24.6591 131.566C24.6167 131.615 24.5847 131.673 24.5647 131.735C24.5447 131.797 24.5373 131.863 24.5429 131.928C25.2738 140.577 28.0089 155.423 38.16 157.489C38.8242 157.626 39.5007 157.693 40.1786 157.689C43.0395 157.689 45.8617 156.578 48.2482 155.487C55.9093 151.99 63.0128 147.359 69.325 141.747C69.3748 141.705 69.4156 141.652 69.4448 141.593C69.4741 141.534 69.4913 141.47 69.4954 141.404C69.4994 141.338 69.4903 141.272 69.4685 141.21C69.4467 141.148 69.4128 141.091 69.3686 141.042C69.3265 140.993 69.275 140.952 69.2171 140.923C69.1593 140.894 69.0962 140.877 69.0317 140.873C68.9672 140.868 68.9025 140.877 68.8414 140.899C68.7804 140.921 68.7243 140.954 68.6764 140.998C62.4429 146.546 55.4276 151.126 47.861 154.586C44.8161 155.976 41.5679 157.175 38.373 156.52C28.493 154.483 26.1113 138.585 25.5401 131.845C25.5358 131.78 25.5187 131.716 25.4897 131.658C25.4607 131.599 25.4204 131.547 25.3712 131.505C25.3221 131.462 25.265 131.43 25.2033 131.411C25.1417 131.391 25.0768 131.384 25.0124 131.39H25.027Z" fill="#252945"/>
<path id="Vector_39" d="M66.3188 133.627C70.6368 130.798 76.0004 131.424 78.3046 135.017C80.6088 138.61 78.9775 143.827 74.6595 146.647C70.3415 149.466 64.9779 148.854 62.6737 145.257C60.3695 141.659 61.9621 136.466 66.3188 133.627Z" fill="#505578"/>
<path id="Vector_40" d="M68.9232 149.422C66.0187 149.422 63.3369 148.179 61.8169 145.815C59.227 141.762 60.9891 135.932 65.7573 132.809C70.5255 129.686 76.5038 130.445 79.0985 134.498C81.6932 138.546 79.9263 144.38 75.1629 147.498C73.3094 148.733 71.1428 149.401 68.9232 149.422ZM72.0116 132.863C70.1643 132.886 68.3627 133.447 66.8222 134.478C62.9496 136.999 61.4587 141.6 63.4676 144.733C65.4765 147.866 70.2447 148.355 74.0931 145.834C77.9415 143.313 79.4567 138.707 77.4526 135.555C76.3102 133.793 74.2674 132.863 72.0116 132.863Z" fill="#252945"/>
<path id="Vector_41" d="M83.292 169.535C88.4313 169.316 92.4653 165.976 92.3023 162.076C92.1393 158.176 87.841 155.192 82.7017 155.412C77.5625 155.632 73.5285 158.971 73.6915 162.871C73.8545 166.771 78.1528 169.755 83.292 169.535Z" fill="#505578"/>
<path id="Vector_42" d="M82.7775 170.548C77.3559 170.548 72.8975 167.215 72.7184 162.922C72.5344 158.482 76.9976 154.669 82.671 154.43C85.2364 154.279 87.7817 154.965 89.9322 156.387C92.0041 157.831 93.1998 159.838 93.2917 162.046C93.3837 164.253 92.3623 166.353 90.4163 167.964C88.3929 169.566 85.9134 170.469 83.3439 170.538C83.1358 170.548 82.947 170.548 82.7775 170.548ZM83.2616 156.402H82.7775C78.1885 156.598 74.5482 159.481 74.7079 162.829C74.8677 166.177 78.6871 168.727 83.281 168.546C85.4134 168.488 87.4719 167.743 89.1577 166.422C90.6099 165.213 91.3796 163.686 91.3119 162.119C91.2489 160.553 90.3437 159.094 88.8043 158.017C87.1494 156.926 85.208 156.363 83.2326 156.402H83.2616Z" fill="#252945"/>
</g>
</g>
</g>
<defs>
<linearGradient id="paint0_linear_1384_2432" x1="68.4199" y1="23.3574" x2="68.4199" y2="182.633" gradientUnits="userSpaceOnUse">
<stop offset="0.16381" stop-color="#82C0EE"/>
<stop offset="0.615151" stop-color="#349AE6"/>
</linearGradient>
<clipPath id="clip0_1384_2432">
<rect width="135" height="220" fill="white"/>
</clipPath>
</defs>
</svg>
