<svg width="126" height="188" viewBox="0 0 126 188" fill="none" xmlns="http://www.w3.org/2000/svg">
<g id="Best Curriculum" clip-path="url(#clip0_1384_2372)">
<g id="Layer 2">
<g id="&#195;&#145;&#195;&#171;&#195;&#174;&#195;&#169; 1">
<path id="Vector" d="M54.0997 134.307H9.5293C8.41915 134.307 7.31987 134.089 6.29428 133.665C5.26869 133.241 4.33687 132.62 3.55207 131.837C2.76727 131.054 2.14486 130.125 1.7204 129.102C1.29595 128.079 1.07776 126.982 1.07831 125.875C1.07831 123.64 1.96868 121.496 3.55355 119.916C5.13841 118.335 7.28796 117.447 9.5293 117.447H54.0997V134.307Z" fill="#D6DEE5"/>
<path id="Vector_2" d="M54.0997 135.148H9.52929C7.06293 135.148 4.69758 134.171 2.9536 132.432C1.20962 130.693 0.229858 128.334 0.229858 125.875C0.229858 123.415 1.20962 121.056 2.9536 119.317C4.69758 117.578 7.06293 116.601 9.52929 116.601H54.0997C54.3214 116.601 54.534 116.688 54.6908 116.845C54.8475 117.001 54.9356 117.213 54.9356 117.434V134.294C54.9384 134.405 54.9188 134.516 54.8781 134.619C54.8373 134.723 54.7762 134.817 54.6983 134.897C54.6204 134.977 54.5273 135.04 54.4245 135.083C54.3217 135.126 54.2113 135.148 54.0997 135.148ZM9.52929 118.293C7.54328 118.339 5.65429 119.159 4.26614 120.576C2.878 121.993 2.10086 123.895 2.10086 125.877C2.10086 127.858 2.878 129.76 4.26614 131.177C5.65429 132.595 7.54328 133.414 9.52929 133.46H53.2513V118.293H9.52929Z" fill="#99ADBF"/>
<path id="Vector_3" d="M54.0997 131.293H9.89291C8.45189 131.293 7.06989 130.722 6.05093 129.706C5.03198 128.69 4.45953 127.312 4.45953 125.875C4.45953 124.437 5.03198 123.059 6.05093 122.043C7.06989 121.027 8.45189 120.456 9.89291 120.456H54.0997V131.293Z" fill="#EBEFF2"/>
<path id="Vector_4" d="M54.0997 132.127H9.89294C8.23022 132.127 6.63561 131.469 5.45989 130.296C4.28417 129.124 3.62366 127.533 3.62366 125.875C3.62366 124.217 4.28417 122.627 5.45989 121.454C6.63561 120.282 8.23022 119.623 9.89294 119.623H54.0997C54.3214 119.623 54.534 119.711 54.6908 119.867C54.8476 120.024 54.9356 120.236 54.9356 120.457V131.294C54.9356 131.515 54.8476 131.727 54.6908 131.883C54.534 132.039 54.3214 132.127 54.0997 132.127ZM9.89294 121.315C9.28057 121.297 8.67072 121.401 8.09955 121.622C7.52837 121.843 7.00749 122.176 6.56779 122.602C6.12809 123.027 5.77852 123.536 5.5398 124.099C5.30108 124.662 5.17807 125.266 5.17807 125.877C5.17807 126.488 5.30108 127.093 5.5398 127.656C5.77852 128.218 6.12809 128.727 6.56779 129.153C7.00749 129.578 7.52837 129.911 8.09955 130.132C8.67072 130.353 9.28057 130.458 9.89294 130.439H53.2513V121.315H9.89294Z" fill="#99ADBF"/>
<path id="Vector_5" d="M53.8656 100.558H9.29942C8.18716 100.559 7.08551 100.342 6.05765 99.9183C5.02979 99.4945 4.09593 98.8724 3.30964 98.0879C2.52334 97.3034 1.90008 96.3718 1.47557 95.3465C1.05107 94.3213 0.833691 93.2226 0.835893 92.1133C0.835893 89.8782 1.72626 87.7345 3.31113 86.154C4.896 84.5735 7.04554 83.6855 9.28688 83.6855H53.8656V100.558Z" fill="#D6DEE5"/>
<path id="Vector_6" d="M53.8657 101.404H9.29943C6.83307 101.404 4.46772 100.427 2.72374 98.688C0.979759 96.9488 0 94.59 0 92.1304C0 89.6708 0.979759 87.3119 2.72374 85.5727C4.46772 83.8335 6.83307 82.8564 9.29943 82.8564H53.8657C54.0874 82.8564 54.3 82.9443 54.4567 83.1006C54.6135 83.2569 54.7016 83.469 54.7016 83.6901V100.546C54.7049 100.657 54.6858 100.768 54.6453 100.872C54.6048 100.976 54.5437 101.071 54.4658 101.151C54.3878 101.231 54.2945 101.295 54.1914 101.339C54.0884 101.382 53.9776 101.404 53.8657 101.404ZM9.29943 84.5487C7.31343 84.5951 5.42443 85.4145 4.03629 86.8317C2.64814 88.2488 1.871 90.1513 1.871 92.1324C1.871 94.1136 2.64814 96.0161 4.03629 97.4332C5.42443 98.8504 7.31343 99.6698 9.29943 99.7162H53.0214V84.5487H9.29943Z" fill="#99ADBF"/>
<path id="Vector_7" d="M53.8657 97.5322H9.6589C8.21788 97.5322 6.83588 96.9614 5.81692 95.9452C4.79797 94.9291 4.22552 93.5508 4.22552 92.1138C4.22552 90.6767 4.79797 89.2985 5.81692 88.2823C6.83588 87.2662 8.21788 86.6953 9.6589 86.6953H53.8657V97.5322Z" fill="#EBEFF2"/>
<path id="Vector_8" d="M53.8657 98.3655H9.65887C7.99615 98.3655 6.40154 97.7068 5.22582 96.5343C4.0501 95.3618 3.38959 93.7716 3.38959 92.1134C3.38959 90.4553 4.0501 88.865 5.22582 87.6925C6.40154 86.52 7.99615 85.8613 9.65887 85.8613H53.8657C54.0874 85.8613 54.3 85.9492 54.4567 86.1055C54.6135 86.2618 54.7016 86.4739 54.7016 86.6949V97.5319C54.7016 97.753 54.6135 97.965 54.4567 98.1213C54.3 98.2777 54.0874 98.3655 53.8657 98.3655ZM9.65887 87.5661C8.52054 87.6747 7.46366 88.2024 6.69453 89.0463C5.92541 89.8902 5.49925 90.9897 5.49925 92.1301C5.49925 93.2705 5.92541 94.3699 6.69453 95.2138C7.46366 96.0577 8.52054 96.5855 9.65887 96.6941H53.0172V87.5661H9.65887Z" fill="#99ADBF"/>
<path id="Vector_9" d="M53.8656 117.431H9.29941C8.18855 117.432 7.08827 117.216 6.0615 116.793C5.03473 116.37 4.10162 115.75 3.31555 114.967C2.52947 114.184 1.90585 113.254 1.48037 112.231C1.05488 111.208 0.835875 110.111 0.835876 109.003C0.835875 107.895 1.05488 106.798 1.48037 105.775C1.90585 104.752 2.52947 103.822 3.31555 103.039C4.10162 102.256 5.03473 101.636 6.0615 101.213C7.08827 100.79 8.18855 100.574 9.29941 100.575H53.8656V117.431Z" fill="#D6DEE5"/>
<path id="Vector_10" d="M53.8657 118.276H9.29943C6.83307 118.276 4.46772 117.299 2.72374 115.56C0.979759 113.821 0 111.462 0 109.002C0 106.543 0.979759 104.184 2.72374 102.445C4.46772 100.706 6.83307 99.7285 9.29943 99.7285H53.8657C54.0874 99.7285 54.3 99.8163 54.4567 99.9727C54.6135 100.129 54.7016 100.341 54.7016 100.562V117.422C54.7044 117.533 54.6848 117.644 54.644 117.747C54.6033 117.851 54.5421 117.945 54.4642 118.025C54.3863 118.104 54.2932 118.168 54.1904 118.211C54.0876 118.254 53.9772 118.276 53.8657 118.276ZM9.29943 101.421C7.31343 101.467 5.42443 102.287 4.03629 103.704C2.64814 105.121 1.871 107.023 1.871 109.005C1.871 110.986 2.64814 112.888 4.03629 114.305C5.42443 115.722 7.31343 116.542 9.29943 116.588H53.0214V101.421H9.29943Z" fill="#99ADBF"/>
<path id="Vector_11" d="M53.8657 114.413H9.6589C8.21788 114.413 6.83588 113.842 5.81692 112.826C4.79797 111.81 4.22552 110.432 4.22552 108.995C4.22552 107.558 4.79797 106.179 5.81692 105.163C6.83588 104.147 8.21788 103.576 9.6589 103.576H53.8657V114.413Z" fill="#EBEFF2"/>
<path id="Vector_12" d="M53.8657 115.254H9.65887C7.99615 115.254 6.40154 114.595 5.22582 113.423C4.0501 112.25 3.38959 110.66 3.38959 109.002C3.38959 107.344 4.0501 105.754 5.22582 104.581C6.40154 103.409 7.99615 102.75 9.65887 102.75H53.8657C54.0873 102.75 54.3 102.838 54.4567 102.994C54.6135 103.15 54.7016 103.363 54.7016 103.584V114.412C54.7027 114.522 54.6819 114.632 54.6403 114.734C54.5988 114.836 54.5374 114.929 54.4597 115.007C54.382 115.085 54.2894 115.148 54.1875 115.19C54.0855 115.232 53.9761 115.254 53.8657 115.254ZM9.65887 104.442C8.46957 104.478 7.34103 104.974 6.5125 105.826C5.68397 106.678 5.22058 107.818 5.22058 109.004C5.22058 110.191 5.68397 111.331 6.5125 112.182C7.34103 113.034 8.46957 113.53 9.65887 113.566H53.0172V104.442H9.65887Z" fill="#99ADBF"/>
<path id="Vector_13" d="M17.9594 109.319H12.4759V118.31H17.9594V109.319Z" fill="#EBEFF2"/>
<path id="Vector_14" d="M17.9719 119.156H12.4759C12.2542 119.156 12.0415 119.068 11.8848 118.911C11.728 118.755 11.64 118.543 11.64 118.322V109.319C11.64 109.098 11.728 108.886 11.8848 108.73C12.0415 108.573 12.2542 108.485 12.4759 108.485H17.9719C18.1936 108.485 18.4062 108.573 18.563 108.73C18.7198 108.886 18.8078 109.098 18.8078 109.319V118.309C18.8095 118.42 18.7891 118.53 18.7478 118.632C18.7066 118.735 18.6453 118.828 18.5675 118.907C18.4897 118.986 18.397 119.048 18.2947 119.091C18.1925 119.134 18.0828 119.156 17.9719 119.156ZM13.3368 117.463H17.1235V110.161H13.3243L13.3368 117.463Z" fill="#99ADBF"/>
<path id="Vector_15" d="M29.0518 109.319H23.5683V118.31H29.0518V109.319Z" fill="#D6DEE5"/>
<path id="Vector_16" d="M29.0519 119.156H23.5683C23.3466 119.156 23.134 119.068 22.9773 118.911C22.8205 118.755 22.7324 118.543 22.7324 118.322V109.319C22.7324 109.098 22.8205 108.886 22.9773 108.73C23.134 108.573 23.3466 108.485 23.5683 108.485H29.0519C29.2736 108.485 29.4862 108.573 29.6429 108.73C29.7997 108.886 29.8878 109.098 29.8878 109.319V118.309C29.8894 118.42 29.869 118.53 29.8278 118.632C29.7865 118.735 29.7252 118.828 29.6474 118.907C29.5696 118.986 29.4769 119.048 29.3747 119.091C29.2724 119.134 29.1627 119.156 29.0519 119.156ZM24.4168 117.463H28.2034V110.161H24.4168V117.463Z" fill="#99ADBF"/>
<path id="Vector_17" d="M23.4429 126.788H17.9594V135.779H23.4429V126.788Z" fill="#D6DEE5"/>
<path id="Vector_18" d="M23.4388 136.624H17.972C17.7503 136.624 17.5376 136.536 17.3809 136.38C17.2241 136.224 17.136 136.012 17.136 135.791V126.788C17.136 126.567 17.2241 126.355 17.3809 126.198C17.5376 126.042 17.7503 125.954 17.972 125.954H23.4388C23.6605 125.954 23.8731 126.042 24.0298 126.198C24.1866 126.355 24.2747 126.567 24.2747 126.788V135.778C24.2763 135.889 24.2559 135.998 24.2147 136.101C24.1734 136.204 24.1121 136.297 24.0343 136.376C23.9565 136.454 23.8638 136.517 23.7616 136.56C23.6593 136.602 23.5496 136.624 23.4388 136.624ZM18.8079 134.936H22.5987V127.634H18.8079V134.936Z" fill="#99ADBF"/>
<path id="Vector_19" d="M23.4429 93.043H17.9594V102.033H23.4429V93.043Z" fill="#D6DEE5"/>
<path id="Vector_20" d="M23.4388 102.879H17.972C17.7503 102.879 17.5376 102.791 17.3809 102.635C17.2241 102.479 17.136 102.267 17.136 102.046V93.0426C17.136 92.8215 17.2241 92.6095 17.3809 92.4531C17.5376 92.2968 17.7503 92.209 17.972 92.209H23.4388C23.6605 92.209 23.8731 92.2968 24.0298 92.4531C24.1866 92.6095 24.2747 92.8215 24.2747 93.0426V102.033C24.2763 102.144 24.2559 102.253 24.2147 102.356C24.1734 102.459 24.1121 102.552 24.0343 102.631C23.9565 102.709 23.8638 102.772 23.7616 102.815C23.6593 102.857 23.5496 102.879 23.4388 102.879ZM18.8079 101.187H22.5987V93.8887H18.8079V101.187Z" fill="#99ADBF"/>
<path id="Vector_21" d="M33.0725 126.788H27.589V135.779H33.0725V126.788Z" fill="#EBEFF2"/>
<path id="Vector_22" d="M33.0725 136.624H27.5848C27.3631 136.624 27.1505 136.536 26.9937 136.38C26.837 136.224 26.7489 136.012 26.7489 135.791V126.788C26.7489 126.567 26.837 126.355 26.9937 126.198C27.1505 126.042 27.3631 125.954 27.5848 125.954H33.0725C33.2942 125.954 33.5068 126.042 33.6636 126.198C33.8204 126.355 33.9084 126.567 33.9084 126.788V135.778C33.9101 135.889 33.8897 135.998 33.8484 136.101C33.8072 136.204 33.7459 136.297 33.6681 136.376C33.5903 136.454 33.4976 136.517 33.3953 136.56C33.2931 136.602 33.1834 136.624 33.0725 136.624ZM28.4207 134.936H32.2241V127.634H28.4207V134.936Z" fill="#99ADBF"/>
<path id="Vector_23" d="M121.449 142.693L88.773 187.145L56.1059 142.701C56.1059 139.75 58.785 137.208 62.6427 136.058C64.1511 135.611 65.7168 135.386 67.2903 135.391C72.4018 135.391 76.7067 137.629 78.04 140.697C79.3691 137.629 83.6782 135.391 88.7856 135.391C93.8929 135.391 98.2062 137.629 99.5353 140.697C100.864 137.629 105.169 135.391 110.281 135.391C115.112 135.391 119.242 137.404 120.801 140.209C121.225 140.969 121.448 141.824 121.449 142.693Z" fill="#D6DEE5"/>
<path id="Vector_24" d="M85.8432 177.797L82.7587 178.964L56.1059 142.701C56.1059 139.751 58.785 137.208 62.6427 136.058L85.8432 177.797Z" fill="#EBEFF2"/>
<path id="Vector_25" d="M88.773 187.999C88.64 188 88.5089 187.969 88.3904 187.909C88.2719 187.849 88.1695 187.761 88.0917 187.654L55.433 143.21C55.3184 143.061 55.2553 142.88 55.2532 142.693C55.2532 139.458 58.0535 136.532 62.3919 135.24L62.4796 135.219C64.0419 134.763 65.6624 134.535 67.2903 134.544C71.9462 134.544 76.0422 136.295 78.04 139.017C80.0378 136.291 84.1295 134.544 88.7855 134.544C93.4415 134.544 97.5374 136.295 99.5353 139.017C101.533 136.291 105.625 134.544 110.281 134.544C115.271 134.544 119.798 136.657 121.54 139.796C122.043 140.687 122.308 141.691 122.309 142.714C122.309 142.893 122.252 143.068 122.146 143.214L89.4417 187.654C89.3652 187.759 89.2648 187.846 89.1486 187.906C89.0325 187.966 88.9038 187.998 88.773 187.999ZM56.9585 142.426L88.773 185.724L120.596 142.43C120.549 141.791 120.361 141.17 120.044 140.613C118.59 137.995 114.661 136.236 110.268 136.236C105.625 136.236 101.525 138.208 100.3 141.034C100.238 141.189 100.131 141.323 99.9928 141.417C99.8541 141.511 99.6904 141.561 99.5227 141.561C99.3551 141.561 99.1913 141.511 99.0527 141.417C98.914 141.323 98.8069 141.189 98.7453 141.034C97.5207 138.208 93.4206 136.236 88.773 136.236C84.1254 136.236 80.0294 138.208 78.8048 141.034C78.7432 141.189 78.6361 141.323 78.4975 141.417C78.3589 141.511 78.1951 141.561 78.0274 141.561C77.8598 141.561 77.696 141.511 77.5574 141.417C77.4188 141.323 77.3117 141.189 77.2501 141.034C76.0213 138.208 71.9253 136.236 67.2777 136.236C65.7938 136.23 64.3168 136.439 62.8934 136.857H62.8056C59.3742 137.924 57.1173 140.075 56.9585 142.426Z" fill="#99ADBF"/>
<path id="Vector_26" d="M57.0839 23.9198C60.8454 15.046 65.6895 2.21678 72.1301 1.14143C78.5708 0.0660694 105.788 1.93752 111.096 4.6676C118.619 8.53138 120.909 29.2299 120.909 29.2299L57.0839 23.9198Z" fill="#D6DEE5"/>
<path id="Vector_27" d="M115.179 8.9857C108.91 6.3765 82.9593 4.63425 76.69 5.68044C71.1605 6.60158 66.8138 16.1381 63.3155 24.4367L57.0839 23.924C60.8454 15.0461 65.6853 2.21678 72.1301 1.14143C78.575 0.0660694 105.788 1.93752 111.1 4.6676C112.676 5.48037 114.026 7.03505 115.179 8.9857Z" fill="#EBEFF2"/>
<path id="Vector_28" d="M120.909 30.0762H120.838L57.017 24.7619C56.8819 24.7507 56.7516 24.7069 56.6373 24.6343C56.523 24.5617 56.4281 24.4624 56.3608 24.3451C56.29 24.2313 56.2478 24.1023 56.2376 23.9688C56.2274 23.8353 56.2496 23.7013 56.3023 23.5782L57.2051 21.4358C60.9416 12.5037 65.5934 1.37913 71.9922 0.307939C78.3911 -0.763251 105.963 1.07486 111.485 3.91747C119.317 7.94381 121.657 28.2756 121.754 29.1384C121.769 29.2563 121.758 29.376 121.723 29.4894C121.687 29.6029 121.628 29.7076 121.549 29.7964C121.47 29.8852 121.373 29.9561 121.264 30.0044C121.155 30.0526 121.037 30.0771 120.918 30.0762H120.909ZM58.3168 23.1739L119.952 28.3006C119.375 24.1325 116.834 8.56068 110.724 5.41797C105.554 2.75875 78.412 0.953987 72.2723 1.97516C66.7971 2.89213 62.1578 13.9917 58.7682 22.0985L58.3168 23.1739Z" fill="#99ADBF"/>
<path id="Vector_29" d="M120.788 140.209C119.229 137.404 115.1 135.391 110.268 135.391C105.161 135.391 100.852 137.629 99.5228 140.701C98.1937 137.629 93.8846 135.391 88.773 135.391C83.6615 135.391 79.3566 137.629 78.0275 140.701C76.6984 137.629 72.3893 135.391 67.2778 135.391C61.1004 135.391 56.0975 138.663 56.0975 142.693H55.922C48.56 106.662 48.56 69.521 55.922 33.4902H121.281C114.083 68.6849 113.916 104.95 120.788 140.209Z" fill="#D6DEE5"/>
<path id="Vector_30" d="M63.9216 33.4814C57.0169 67.2853 56.5914 102.087 62.6677 136.049C58.8016 137.191 56.1142 139.742 56.1142 142.693H55.9387C48.5767 106.662 48.5767 69.5206 55.9387 33.4898L63.9216 33.4814Z" fill="#EBEFF2"/>
<path id="Vector_31" d="M78.0275 141.542C77.8313 141.546 77.6401 141.481 77.4873 141.358C77.3345 141.235 77.2298 141.063 77.1916 140.871C70.0864 107.06 69.8774 69.5474 76.6315 35.2444C76.6529 35.1349 76.6958 35.0307 76.7575 34.9377C76.8193 34.8448 76.8989 34.7648 76.9916 34.7025C77.0844 34.6402 77.1885 34.5967 77.2981 34.5746C77.4078 34.5524 77.5207 34.552 77.6304 34.5733C77.7402 34.5947 77.8447 34.6374 77.9379 34.699C78.0311 34.7606 78.1113 34.8399 78.1738 34.9324C78.2363 35.0249 78.2799 35.1288 78.3021 35.2381C78.3243 35.3474 78.3247 35.46 78.3033 35.5695C71.591 69.6558 71.7875 106.931 78.855 140.525C78.8795 140.634 78.8819 140.746 78.8622 140.855C78.8425 140.965 78.8011 141.069 78.7403 141.162C78.6796 141.256 78.6008 141.336 78.5085 141.398C78.4162 141.46 78.3124 141.504 78.203 141.526C78.1453 141.537 78.0864 141.543 78.0275 141.542Z" fill="#99ADBF"/>
<path id="Vector_32" d="M99.5228 141.542C99.3284 141.546 99.1386 141.483 98.986 141.363C98.8334 141.243 98.7276 141.073 98.6868 140.884C91.2348 108.019 91.1136 70.1184 98.3399 34.1814C98.3843 33.9604 98.5149 33.7659 98.703 33.6408C98.8911 33.5158 99.1213 33.4703 99.343 33.5146C99.5647 33.5588 99.7597 33.689 99.8851 33.8766C100.011 34.0642 100.056 34.2938 100.012 34.5149C92.8272 70.2351 92.9484 107.873 100.35 140.521C100.376 140.629 100.38 140.741 100.362 140.851C100.343 140.961 100.303 141.066 100.244 141.16C100.184 141.254 100.106 141.335 100.015 141.398C99.9232 141.462 99.8199 141.507 99.7108 141.53C99.649 141.542 99.5857 141.546 99.5228 141.542Z" fill="#99ADBF"/>
<path id="Vector_33" d="M56.1059 143.548H55.9303C55.7336 143.551 55.5419 143.485 55.389 143.362C55.2361 143.238 55.1318 143.065 55.0944 142.872C47.6633 106.729 47.6633 69.4581 55.0944 33.315C55.1318 33.1223 55.2361 32.949 55.389 32.8255C55.5419 32.702 55.7336 32.6362 55.9303 32.6398H121.281C121.407 32.6387 121.531 32.6659 121.645 32.7193C121.758 32.7727 121.858 32.851 121.937 32.9482C122.017 33.0456 122.074 33.1592 122.104 33.2809C122.134 33.4027 122.137 33.5296 122.113 33.6526C114.903 68.7367 114.737 104.898 121.624 140.046C121.7 140.254 121.69 140.484 121.596 140.684C121.503 140.885 121.333 141.04 121.125 141.115C120.916 141.191 120.686 141.181 120.485 141.088C120.284 140.994 120.128 140.825 120.053 140.617C118.594 137.996 114.665 136.237 110.272 136.237C105.629 136.237 101.529 138.208 100.304 141.034C100.243 141.19 100.136 141.323 99.997 141.417C99.8583 141.511 99.6945 141.561 99.5269 141.561C99.3592 141.561 99.1955 141.511 99.0568 141.417C98.9182 141.323 98.8111 141.19 98.7495 141.034C97.5249 138.208 93.4248 136.237 88.7772 136.237C84.1295 136.237 80.0336 138.208 78.809 141.034C78.7474 141.19 78.6403 141.323 78.5017 141.417C78.363 141.511 78.1993 141.561 78.0316 141.561C77.864 141.561 77.7002 141.511 77.5616 141.417C77.4229 141.323 77.3158 141.19 77.2542 141.034C76.0254 138.208 71.9295 136.237 67.2819 136.237C61.6186 136.237 57.0003 139.1 56.9501 142.635C56.9665 142.777 56.9449 142.921 56.8874 143.051C56.8207 143.202 56.7109 143.329 56.5718 143.417C56.4328 143.506 56.2707 143.551 56.1059 143.548ZM56.6241 34.3445C49.5789 69.0578 49.4256 104.812 56.1727 139.584C57.9825 136.62 62.2748 134.545 67.2903 134.545C71.9462 134.545 76.038 136.295 78.0358 139.017C80.0336 136.295 84.1254 134.545 88.7813 134.545C93.4373 134.545 97.5333 136.295 99.5311 139.017C101.529 136.295 105.621 134.545 110.277 134.545C113.833 134.545 117.152 135.616 119.396 137.37C113.109 103.281 113.397 68.3093 120.245 34.3278L56.6241 34.3445Z" fill="#99ADBF"/>
<path id="Vector_34" d="M64.3601 67.6425C65.2412 58.9463 59.9924 51.2957 52.6364 50.5545C45.2804 49.8132 38.6029 56.262 37.7217 64.9582C36.8406 73.6544 42.0895 81.305 49.4455 82.0463C56.8014 82.7875 63.4789 76.3388 64.3601 67.6425Z" fill="white"/>
<path id="Vector_35" d="M50.5973 82.9438C50.1793 82.9438 49.7614 82.9229 49.3685 82.8854C45.5568 82.4978 42.1588 80.3846 39.8016 76.9584C37.4298 73.3985 36.3937 69.118 36.8759 64.8711C37.7996 55.7264 44.9048 48.9283 52.7205 49.7119C60.5362 50.4955 66.1325 58.5815 65.2047 67.7262C64.3354 76.3874 57.9114 82.9438 50.5973 82.9438ZM51.4959 51.3374C45.0427 51.3374 39.3753 57.2435 38.5686 65.0378C38.1249 68.8883 39.0573 72.7715 41.2017 76.004C43.2915 79.0216 46.2171 80.8681 49.5357 81.2015C56.4152 81.8934 62.6928 75.783 63.5245 67.5553C64.3563 59.3276 59.437 52.1002 52.5575 51.3916C52.2048 51.3549 51.8504 51.3369 51.4959 51.3374Z" fill="#99ADBF"/>
<path id="Vector_36" d="M64.4357 66.2969C64.4349 68.3634 63.7365 70.3694 62.4529 71.9917C61.1693 73.614 59.3754 74.7581 57.3602 75.2394C55.345 75.7208 53.226 75.5115 51.3447 74.6453C49.4634 73.779 47.9294 72.3062 46.9898 70.4643C46.0503 68.6225 45.7601 66.5187 46.1658 64.4923C46.5716 62.4658 47.6498 60.6346 49.2266 59.2938C50.8034 57.953 52.787 57.1808 54.8577 57.1015C56.9283 57.0222 58.9654 57.6406 60.6407 58.8569C58.0117 61.291 56.6618 63.7794 57.5102 64.9798C58.3586 66.1802 61.0711 65.7383 64.1974 64.1461C64.3636 64.8508 64.4436 65.573 64.4357 66.2969Z" fill="#99ADBF"/>
<path id="Vector_37" d="M112.148 69.2529C113.782 60.6655 108.125 52.3836 99.5139 50.7548C90.9029 49.126 82.5982 54.767 80.9649 63.3545C79.3316 71.9419 84.9882 80.2237 93.5992 81.8526C102.21 83.4814 110.515 77.8403 112.148 69.2529Z" fill="white"/>
<path id="Vector_38" d="M96.5469 82.9684C93.2404 82.9684 90.0082 81.9906 87.2589 80.1587C84.5096 78.3267 82.3668 75.7229 81.1015 72.6764C79.8361 69.63 79.505 66.2777 80.1501 63.0437C80.7952 59.8096 82.3874 56.8389 84.7255 54.5072C87.0635 52.1756 90.0424 50.5877 93.2854 49.9444C96.5284 49.3011 99.8899 49.6312 102.945 50.8931C106 52.155 108.611 54.2919 110.448 57.0337C112.285 59.7754 113.265 62.9988 113.265 66.2962C113.265 68.4857 112.833 70.6537 111.992 72.6764C111.152 74.6992 109.921 76.5371 108.368 78.0853C106.816 79.6334 104.973 80.8615 102.945 81.6994C100.916 82.5372 98.7424 82.9684 96.5469 82.9684ZM96.5469 51.3163C93.5771 51.3212 90.6754 52.204 88.2085 53.853C85.7415 55.502 83.8201 57.8433 82.6871 60.581C81.554 63.3186 81.2601 66.3298 81.8425 69.234C82.4249 72.1382 83.8576 74.805 85.9593 76.8975C88.061 78.99 90.7376 80.4142 93.6507 80.9902C96.5639 81.5662 99.5829 81.2681 102.326 80.1335C105.069 78.999 107.414 77.079 109.063 74.6161C110.713 72.1532 111.593 69.2579 111.593 66.2962C111.587 62.321 109.998 58.5108 107.177 55.7023C104.356 52.8937 100.533 51.3163 96.5469 51.3163Z" fill="#99ADBF"/>
<path id="Vector_39" d="M104.601 66.2969C104.6 68.3634 103.902 70.3694 102.618 71.9917C101.335 73.614 99.5406 74.7581 97.5254 75.2394C95.5103 75.7208 93.3913 75.5115 91.5099 74.6453C89.6286 73.779 88.0946 72.3062 87.1551 70.4643C86.2155 68.6225 85.9253 66.5187 86.3311 64.4923C86.7368 62.4658 87.815 60.6346 89.3918 59.2938C90.9687 57.953 92.9522 57.1808 95.0229 57.1015C97.0935 57.0222 99.1306 57.6406 100.806 58.8569C98.177 61.291 96.8312 63.7794 97.6754 64.9798C98.5197 66.1802 101.236 65.7383 104.363 64.1461C104.529 64.8508 104.609 65.573 104.601 66.2969Z" fill="#99ADBF"/>
<path id="Vector_40" d="M60.7368 41.7591C64.1849 40.4128 67.4658 40.5504 68.0593 42.0675C68.6528 43.5847 66.3415 45.9021 62.8934 47.2526C59.4453 48.603 56.1644 48.4613 55.5667 46.9441C54.969 45.427 57.2845 43.1054 60.7368 41.7591Z" fill="#99ADBF"/>
<path id="Vector_41" d="M91.6736 46.7691C91.2557 48.3446 88.0165 48.8531 84.4347 47.9278C80.8528 47.0025 78.2783 44.956 78.692 43.3805C79.1058 41.805 82.3491 41.2964 85.931 42.2218C89.5128 43.1471 92.0874 45.1936 91.6736 46.7691Z" fill="#99ADBF"/>
<path id="Vector_42" d="M98.0348 174.562L88.7772 187.145L79.5237 174.553C80.6679 173.222 82.0875 172.152 83.6852 171.419C85.2828 170.686 87.0206 170.307 88.7793 170.307C90.5379 170.307 92.2757 170.686 93.8734 171.419C95.471 172.152 96.8907 173.222 98.0348 174.553V174.562Z" fill="#D6DEE5"/>
<path id="Vector_43" d="M88.7772 188C88.6442 188 88.5131 187.969 88.3946 187.909C88.2761 187.849 88.1737 187.761 88.0959 187.654L78.8383 175.058C78.7217 174.902 78.6633 174.711 78.6733 174.517C78.6832 174.323 78.7608 174.138 78.8926 173.995C80.1172 172.576 81.6344 171.438 83.3407 170.657C85.047 169.877 86.9021 169.473 88.7793 169.473C90.6565 169.473 92.5116 169.877 94.2179 170.657C95.9241 171.438 97.4414 172.576 98.666 173.995C98.7978 174.138 98.8754 174.323 98.8853 174.517C98.8952 174.711 98.8369 174.902 98.7203 175.058L89.4626 187.654C89.3845 187.762 89.2814 187.85 89.1621 187.91C89.0429 187.97 88.9109 188.001 88.7772 188ZM80.623 174.641L88.7772 185.737L96.9356 174.641C95.8822 173.544 94.6171 172.671 93.2164 172.075C91.8158 171.479 90.3085 171.171 88.7856 171.171C87.2626 171.171 85.7554 171.479 84.3547 172.075C82.954 172.671 81.6889 173.544 80.6355 174.641H80.623Z" fill="#99ADBF"/>
<path id="Vector_44" d="M122.61 40.43L52.5825 35.9868C52.3308 35.9714 52.0846 35.9067 51.858 35.7963C51.6314 35.6859 51.4288 35.5321 51.2619 35.3435C51.095 35.155 50.967 34.9355 50.8852 34.6976C50.8034 34.4597 50.7695 34.208 50.7854 33.957L51.4081 24.2079C51.4414 23.7013 51.6748 23.2285 52.0572 22.8933C52.4395 22.5581 52.9396 22.3878 53.4477 22.4198L123.476 26.8505C123.983 26.8826 124.457 27.1145 124.794 27.4952C125.13 27.8758 125.301 28.374 125.269 28.8803L124.65 38.6252C124.636 38.8775 124.571 39.1245 124.461 39.352C124.351 39.5794 124.196 39.7828 124.007 39.9506C123.817 40.1183 123.596 40.247 123.356 40.3293C123.117 40.4115 122.863 40.4458 122.61 40.43Z" fill="#D6DEE5"/>
<path id="Vector_45" d="M125.147 30.8435L125.11 31.3061L60.0848 27.1964C59.0528 27.1314 58.0372 27.4777 57.2613 28.1593C56.4853 28.8409 56.0126 29.8019 55.9471 30.831L55.6085 36.1786L54.5469 36.1119C54.0363 36.0796 53.5371 35.9471 53.0779 35.7221C52.6186 35.4972 52.2084 35.1841 51.8707 34.8008C51.5329 34.4175 51.2743 33.9716 51.1096 33.4885C50.9448 33.0054 50.8773 32.4947 50.9107 31.9855L51.2744 26.1711C51.342 25.1435 51.8157 24.1846 52.5914 23.5048C53.3671 22.825 54.3815 22.4798 55.4121 22.5449L121.499 26.713C122.01 26.7448 122.511 26.8769 122.971 27.1018C123.432 27.3267 123.843 27.64 124.182 28.0236C124.521 28.4073 124.781 28.8538 124.946 29.3377C125.112 29.8216 125.18 30.3333 125.147 30.8435Z" fill="#EBEFF2"/>
<path id="Vector_46" d="M120.893 41.147H120.588L54.4968 36.979C53.245 36.8985 52.076 36.3274 51.2452 35.3902C50.4143 34.4531 49.989 33.2261 50.0623 31.9773L50.4343 26.1421C50.4726 25.5235 50.6328 24.9186 50.9056 24.3617C51.1784 23.8049 51.5585 23.3072 52.0243 22.8969C52.49 22.4866 53.0322 22.1719 53.62 21.9706C54.2077 21.7693 54.8295 21.6855 55.4497 21.7239L121.54 25.892C122.791 25.9735 123.959 26.5451 124.789 27.4821C125.619 28.4192 126.044 29.6455 125.971 30.8936L125.603 36.7289C125.527 37.928 124.995 39.0531 124.118 39.876C123.24 40.6988 122.081 41.1577 120.876 41.1595L120.893 41.147ZM120.692 39.4506C121.499 39.5009 122.293 39.2297 122.899 38.6968C123.506 38.1638 123.875 37.4126 123.927 36.608L124.299 30.7728C124.348 29.9684 124.076 29.1774 123.542 28.5728C123.007 27.9681 122.255 27.5992 121.449 27.5467L55.3619 23.3786C54.5539 23.3285 53.7588 23.5997 53.151 24.133C52.8501 24.3952 52.6046 24.7145 52.4288 25.0724C52.253 25.4302 52.1504 25.8193 52.127 26.2171L51.755 32.0315C51.7046 32.8361 51.9765 33.6278 52.511 34.2326C53.0454 34.8375 53.7987 35.2061 54.6054 35.2576L120.692 39.4506Z" fill="#99ADBF"/>
<path id="Vector_47" d="M56.5071 83.7279C60.0847 92.8559 63.6791 97.1907 68.983 98.3661C69.5338 98.4903 70.0923 98.578 70.6548 98.6287C71.5614 98.722 72.4742 98.7415 73.384 98.687C75.2604 98.5626 77.0935 98.0692 78.7778 97.2351C80.462 96.401 81.9641 95.2427 83.1975 93.8271C83.7213 93.2334 84.1952 92.5977 84.6144 91.9264C84.7899 91.6555 84.9529 91.3762 85.1159 91.0928C86.4533 88.7587 87.4021 86.0912 88.5222 83.707C84.1045 87.9168 78.4914 91.4971 72.3809 91.2804C66.4543 91.0636 61.2634 87.3207 56.5071 83.7279Z" fill="#D6DEE5"/>
<path id="Vector_48" d="M72.3559 99.5614C71.7598 99.5633 71.164 99.5327 70.5712 99.4697C69.977 99.4131 69.3866 99.3212 68.8033 99.1946C63.2445 97.9442 59.4537 93.5719 55.7172 84.0354C55.6361 83.8625 55.617 83.6671 55.663 83.4818C55.7091 83.2965 55.8175 83.1326 55.9701 83.0174C56.1228 82.9023 56.3105 82.8428 56.5018 82.8491C56.6931 82.8553 56.8764 82.9269 57.0212 83.0518C62.208 86.9739 66.9518 90.2375 72.4228 90.4292C77.4382 90.6084 82.6459 88.141 87.9455 83.0893C88.0815 82.9308 88.2722 82.829 88.4799 82.8039C88.6875 82.7788 88.897 82.8323 89.0671 82.9537C89.2371 83.0751 89.3554 83.2557 89.3984 83.4599C89.4415 83.664 89.4063 83.8768 89.2997 84.0563C88.9151 84.8899 88.5557 85.7235 88.1879 86.5821C87.5086 88.2687 86.7298 89.9138 85.8557 91.5087C85.6927 91.8047 85.5214 92.1006 85.3291 92.3882C84.8904 93.0956 84.3926 93.7648 83.8412 94.3889C82.5322 95.8881 80.9389 97.1143 79.1528 97.9971C77.3667 98.8798 75.4233 99.4015 73.4342 99.5322C73.0622 99.5531 72.7237 99.5614 72.3559 99.5614ZM58.4673 86.2236C61.5853 93.226 64.7868 96.5646 69.1669 97.5316C69.6834 97.6476 70.207 97.7297 70.7342 97.7775C71.602 97.8669 72.4755 97.8864 73.3464 97.8358C75.4851 97.6795 77.5563 97.021 79.3911 95.9141C81.2259 94.8073 82.7722 93.2835 83.9039 91.4671C84.0794 91.2003 84.2299 90.9377 84.3804 90.6668C85.077 89.4136 85.7021 88.1223 86.2528 86.7988C81.5717 90.4959 76.9032 92.2798 72.3601 92.1131C67.3112 91.9422 62.9729 89.4706 58.4673 86.232V86.2236Z" fill="#99ADBF"/>
<path id="Vector_49" d="M68.983 98.3655C69.5338 98.4897 70.0923 98.5774 70.6548 98.6281C71.5614 98.7214 72.4742 98.741 73.384 98.6864C75.2604 98.5621 77.0935 98.0686 78.7778 97.2345C80.4621 96.4004 81.9642 95.2422 83.1975 93.8265C83.7213 93.2328 84.1952 92.5971 84.6144 91.9259C84.7899 91.6549 84.9529 91.3757 85.1159 91.0922C81.9771 90.4254 78.1278 90.7463 75.2648 92.1676C72.5695 93.5236 70.3714 95.6923 68.983 98.3655Z" fill="#EBEFF2"/>
<path id="Vector_50" d="M72.3558 99.5614C71.7597 99.5634 71.164 99.5328 70.5712 99.4697C69.9769 99.4131 69.3866 99.3212 68.8033 99.1947C68.6756 99.1672 68.5562 99.1103 68.4546 99.0285C68.353 98.9467 68.272 98.8423 68.2181 98.7237C68.16 98.6079 68.1298 98.4801 68.1298 98.3506C68.1298 98.2211 68.16 98.0934 68.2181 97.9776C69.6943 95.1395 72.0318 92.839 74.897 91.4046C77.8227 89.9541 81.8057 89.5164 85.2998 90.2625C85.4294 90.2892 85.5508 90.3462 85.6539 90.4288C85.7571 90.5114 85.8392 90.6173 85.8933 90.7377C85.9497 90.8579 85.9765 90.9899 85.9714 91.1226C85.9663 91.2553 85.9295 91.3848 85.8641 91.5004C85.6927 91.8047 85.5213 92.1006 85.3333 92.3882C84.0558 94.4309 82.3117 96.143 80.2436 97.3846C78.1755 98.6263 75.8421 99.3622 73.4342 99.5323C73.0622 99.5531 72.7236 99.5614 72.3558 99.5614ZM70.3246 97.7442L70.7426 97.7859C71.6102 97.8774 72.4839 97.8969 73.3548 97.8442C75.1194 97.7239 76.8428 97.2569 78.4258 96.47C80.0088 95.6832 81.4203 94.5921 82.579 93.2593C83.0107 92.773 83.4047 92.2547 83.7576 91.7088C80.9615 91.3629 77.9063 91.8047 75.6577 92.9092C73.4715 94.0063 71.6275 95.6781 70.3246 97.7442Z" fill="#99ADBF"/>
<path id="Vector_51" d="M47.7844 136.653C46.1544 136.653 44.5272 136.591 42.9028 136.466C42.7353 136.455 42.5716 136.411 42.4215 136.337C42.2713 136.262 42.1377 136.158 42.0286 136.031C41.9195 135.904 41.8371 135.756 41.7862 135.597C41.7353 135.437 41.7171 135.269 41.7325 135.103C41.7435 134.936 41.7879 134.773 41.863 134.624C41.9381 134.475 42.0424 134.342 42.1698 134.234C42.2972 134.125 42.4451 134.043 42.6047 133.993C42.7643 133.942 42.9324 133.924 43.0992 133.94C67.7082 135.84 93.1907 122.594 108.024 100.178C108.21 99.8977 108.501 99.7022 108.831 99.6349C109.162 99.5677 109.506 99.6343 109.788 99.82C110.069 100.006 110.265 100.295 110.333 100.625C110.4 100.955 110.333 101.298 110.147 101.579C95.7862 123.274 71.7331 136.653 47.7844 136.653Z" fill="#D6DEE5"/>
<path id="Vector_52" d="M47.7844 137.5C46.1419 137.5 44.4742 137.437 42.8359 137.312C42.2763 137.268 41.757 137.005 41.3918 136.58C41.0267 136.155 40.8455 135.603 40.8882 135.045C40.9093 134.763 40.9863 134.488 41.1147 134.236C41.2432 133.984 41.4205 133.76 41.6364 133.577C41.8476 133.398 42.0933 133.263 42.3584 133.182C42.6236 133.1 42.9026 133.073 43.1786 133.102C67.47 134.978 92.6516 121.882 107.318 99.7578C107.627 99.2902 108.111 98.9645 108.661 98.8523C109.212 98.7402 109.785 98.8507 110.254 99.1597C110.723 99.4687 111.049 99.9507 111.162 100.5C111.274 101.049 111.163 101.62 110.853 102.088C96.3755 123.924 72.2095 137.5 47.7844 137.5ZM42.9822 134.778C42.8888 134.776 42.798 134.809 42.7272 134.869C42.6821 134.905 42.6447 134.949 42.6175 135C42.5903 135.05 42.5739 135.106 42.5692 135.163C42.5645 135.22 42.5716 135.277 42.5902 135.332C42.6087 135.386 42.6383 135.436 42.6771 135.478C42.713 135.52 42.757 135.555 42.8065 135.58C42.856 135.605 42.9101 135.62 42.9654 135.624C44.562 135.749 46.1878 135.811 47.7886 135.811C71.6453 135.811 95.2721 122.524 109.441 101.133C109.472 101.087 109.495 101.035 109.506 100.98C109.517 100.925 109.517 100.869 109.505 100.814C109.494 100.759 109.472 100.707 109.44 100.661C109.408 100.615 109.367 100.576 109.32 100.546C109.273 100.514 109.221 100.492 109.166 100.481C109.111 100.47 109.054 100.47 108.999 100.481C108.944 100.492 108.892 100.515 108.846 100.547C108.8 100.578 108.76 100.619 108.73 100.666C94.687 121.874 71.1772 134.965 47.7928 134.965C46.2046 134.965 44.6205 134.907 43.0323 134.782L42.9822 134.778Z" fill="#99ADBF"/>
<path id="Vector_53" d="M44.6791 140.697C49.7527 140.697 53.8657 138.59 53.8657 135.991C53.8657 133.392 49.7527 131.285 44.6791 131.285C39.6055 131.285 35.4925 133.392 35.4925 135.991C35.4925 138.59 39.6055 140.697 44.6791 140.697Z" fill="#D6DEE5"/>
<path id="Vector_54" d="M44.679 141.543C39.0534 141.543 34.6482 139.104 34.6482 135.991C34.6482 132.877 39.0534 130.46 44.679 130.46C50.3047 130.46 54.7099 132.898 54.7099 136.012C54.7099 139.125 50.3089 141.543 44.679 141.543ZM44.679 132.127C39.7681 132.127 36.32 134.165 36.32 135.991C36.32 137.817 39.7472 139.855 44.679 139.855C49.6109 139.855 53.0172 137.817 53.0172 135.991C53.0172 134.165 49.5942 132.127 44.679 132.127Z" fill="#99ADBF"/>
</g>
</g>
</g>
<defs>
<clipPath id="clip0_1384_2372">
<rect width="126" height="188" fill="white"/>
</clipPath>
</defs>
</svg>
