<svg width="100" height="100" viewBox="0 0 100 100" fill="none" xmlns="http://www.w3.org/2000/svg">
<path d="M38.1382 22.5349C43.4159 13.0672 46.0548 8.33331 50 8.33331C53.9453 8.33331 56.5842 13.0672 61.8619 22.5349L63.2273 24.9843C64.727 27.6747 65.4769 29.0199 66.6461 29.9075C67.8153 30.7951 69.2715 31.1246 72.1838 31.7835L74.8353 32.3834C85.084 34.7023 90.2083 35.8617 91.4275 39.7822C92.6466 43.7027 89.1532 47.7878 82.1663 55.958L80.3587 58.0717C78.3733 60.3935 77.3806 61.5543 76.934 62.9905C76.4874 64.4266 76.6374 65.9755 76.9376 69.0731L77.2109 71.8933C78.2672 82.7941 78.7954 88.2446 75.6036 90.6676C72.4118 93.0905 67.6139 90.8814 58.0181 86.4632L55.5355 85.3201C52.8087 84.0646 51.4453 83.4369 50 83.4369C48.5548 83.4369 47.1914 84.0646 44.4646 85.3201L41.982 86.4632C32.3862 90.8814 27.5883 93.0905 24.3965 90.6676C21.2047 88.2446 21.7329 82.7942 22.7892 71.8933L23.0625 69.0731C23.3626 65.9754 23.5127 64.4266 23.0661 62.9905C22.6195 61.5543 21.6268 60.3935 19.6414 58.0717L17.8338 55.958C10.8469 47.7878 7.35348 43.7027 8.57263 39.7822C9.79178 35.8617 14.9161 34.7023 25.1648 32.3834L27.8162 31.7835C30.7286 31.1246 32.1848 30.7951 33.354 29.9075C34.5232 29.0199 35.2731 27.6747 36.7728 24.9843L38.1382 22.5349Z" fill="#D6DEE5"/>
<path fill-rule="evenodd" clip-rule="evenodd" d="M26.3885 76.3512C27.1011 70.2941 32.2345 65.7292 38.3334 65.7292H61.6667C67.7656 65.7292 72.899 70.2941 73.6116 76.3512L75.5059 92.4528C75.6471 93.6526 74.7888 94.7397 73.589 94.8809C72.3891 95.022 71.302 94.1638 71.1609 92.9639L69.2666 76.8623C68.8132 73.0086 65.5471 70.1042 61.6667 70.1042H38.3334C34.453 70.1042 31.1869 73.0086 30.7335 76.8623L28.8392 92.9639C28.6981 94.1638 27.611 95.022 26.4111 94.8809C25.2113 94.7397 24.353 93.6526 24.4942 92.4528L26.3885 76.3512Z" fill="#99ADBF"/>
<circle cx="50" cy="47.5" r="11.6667" fill="#99ADBF"/>
<path d="M38.3334 70.1042V82.5C38.3334 87.9997 38.3334 90.7496 40.0419 92.4581C41.7505 94.1667 44.5003 94.1667 50 94.1667C55.4998 94.1667 58.2496 94.1667 59.9582 92.4581C61.6667 90.7496 61.6667 87.9997 61.6667 82.5V70.1042H38.3334Z" fill="#99ADBF"/>
</svg>
