<svg width="157" height="51" viewBox="0 0 157 51" fill="none" xmlns="http://www.w3.org/2000/svg">
<g clip-path="url(#clip0_1086_27599)">
<path d="M81.1966 16.2398C81.1071 23.3159 87.4907 27.2644 92.2994 29.6122C97.24 32.0209 98.8996 33.5656 98.88 35.7199C98.8432 39.0165 94.939 40.4715 91.2857 40.5281C84.9119 40.627 81.2058 38.8039 78.2596 37.425L75.9635 48.1897C78.9195 49.5544 84.393 50.7446 90.0689 50.7969C103.392 50.7969 112.109 44.2074 112.156 33.9908C112.208 21.0245 94.2558 20.3069 94.3785 14.5113C94.4208 12.7539 96.0944 10.8786 99.7618 10.4018C101.577 10.1609 106.588 9.9766 112.27 12.5979L114.5 2.18282C111.444 1.06819 107.517 0.000873566 102.628 0.000873566C90.088 0.000873566 81.2677 6.68003 81.1966 16.2398ZM135.926 0.897984C133.494 0.897984 131.443 2.31984 130.528 4.50178L111.496 50.0319H124.81L127.459 42.6959H143.729L145.265 50.0319H157L146.76 0.897984H135.926ZM137.789 14.1709L141.631 32.6212H131.108L137.789 14.1709ZM65.0544 0.898598L54.56 50.0313H67.2469L77.7365 0.897369H65.0544M46.2862 0.897369L33.081 34.3405L27.7393 5.9052C27.1126 2.73091 24.6373 0.897984 21.8886 0.897984H0.302348L0 2.32475C4.43157 3.28822 9.46661 4.84219 12.5171 6.50491C14.3839 7.52061 14.9162 8.4085 15.5295 10.8221L25.6468 50.0319H39.0537L59.6085 0.897984L46.2862 0.897369Z" fill="url(#paint0_linear_1086_27599)"/>
</g>
<defs>
<linearGradient id="paint0_linear_1086_27599" x1="7217.92" y1="152.694" x2="7365.23" y2="-5064.11" gradientUnits="userSpaceOnUse">
<stop stop-color="#222357"/>
<stop offset="1" stop-color="#254AA5"/>
</linearGradient>
<clipPath id="clip0_1086_27599">
<rect width="157" height="51" fill="white"/>
</clipPath>
</defs>
</svg>
