<?xml version="1.0" encoding="UTF-8" standalone="no" ?>
<!DOCTYPE svg PUBLIC "-//W3C//DTD SVG 1.1//EN" "http://www.w3.org/Graphics/SVG/1.1/DTD/svg11.dtd">
<svg xmlns="http://www.w3.org/2000/svg" xmlns:xlink="http://www.w3.org/1999/xlink" version="1.1" width="1000" height="1000" viewBox="0 0 1000 1000" xml:space="preserve">
<desc>Created with Fabric.js 5.2.4</desc>
<defs>
</defs>
<g transform="matrix(1 0 0 1 500 500)" id="7c9c9d33-342f-48b9-b7fb-376e1b6de216"  >
<rect style="stroke: none; stroke-width: 1; stroke-dasharray: none; stroke-linecap: butt; stroke-dashoffset: 0; stroke-linejoin: miter; stroke-miterlimit: 4; fill: rgb(255,255,255); fill-rule: nonzero; opacity: 1;" vector-effect="non-scaling-stroke"  x="-500" y="-500" rx="0" ry="0" width="1000" height="1000" />
</g>
<g transform="matrix(Infinity NaN NaN Infinity 0 0)" id="c3bad420-e3ac-4831-8475-d71a9d3cf66b"  >
</g>
<g transform="matrix(1875 0 0 1875 15198.91 11555.03)"  >
<path style="stroke: none; stroke-width: 1; stroke-dasharray: none; stroke-linecap: butt; stroke-dashoffset: 0; stroke-linejoin: miter; stroke-miterlimit: 4; fill: rgb(0,0,0); fill-rule: nonzero; opacity: 1;"  transform=" translate(-12, -13)" d="M 6.735 12.322 C 6.359227888250068 11.92235430272266 5.73164930144719 11.900035690633938 5.3284371509808 12.27197832739069 C 4.925225000514411 12.643920964147439 4.896920685786426 13.27125808948504 5.265000000000001 13.677999999999999 L 8.877 17.596999999999998 C 9.414000000000001 18.122999999999998 10.214 18.122999999999998 10.711 17.627 L 11.075000000000001 17.268 C 12.389532125252265 15.975221808509332 13.702533045684316 14.680887567829142 15.013999999999397 13.38500000000019 L 15.054 13.345000000000002 C 16.27968832313645 12.137064564508801 17.499038397788667 10.922714558505994 18.71200000000013 9.701999999999803 C 19.089185765126416 9.307093780958565 19.079811979128404 8.682621523651013 18.69094315980132 8.299214345044817 C 18.30207434047424 7.9158071664386185 17.67753196738923 7.915266581504201 17.288 8.298000000000002 C 16.08066097472794 9.512337552545123 14.867312748638753 10.720685717263079 13.648000000000014 11.923000000000002 L 13.608 11.963000000000001 C 12.351272072985946 13.20529388052766 11.09293768686559 14.445961585200848 9.83299999999991 15.685000000000436 L 6.735 12.322000000000001 z" stroke-linecap="round" />
</g>
<g transform="matrix(41.67 0 0 41.67 477.59 446.6)"  >
<path style="stroke: none; stroke-width: 1; stroke-dasharray: none; stroke-linecap: butt; stroke-dashoffset: 0; stroke-linejoin: miter; stroke-miterlimit: 4; fill: rgb(0,0,0); fill-rule: nonzero; opacity: 1;"  transform=" translate(-12, -13)" d="M 6.735 12.322 C 6.359227888250068 11.92235430272266 5.73164930144719 11.900035690633938 5.3284371509808 12.27197832739069 C 4.925225000514411 12.643920964147439 4.896920685786426 13.27125808948504 5.265000000000001 13.677999999999999 L 8.877 17.596999999999998 C 9.414000000000001 18.122999999999998 10.214 18.122999999999998 10.711 17.627 L 11.075000000000001 17.268 C 12.389532125252265 15.975221808509332 13.702533045684316 14.680887567829142 15.013999999999397 13.38500000000019 L 15.054 13.345000000000002 C 16.27968832313645 12.137064564508801 17.499038397788667 10.922714558505994 18.71200000000013 9.701999999999803 C 19.089185765126416 9.307093780958565 19.079811979128404 8.682621523651013 18.69094315980132 8.299214345044817 C 18.30207434047424 7.9158071664386185 17.67753196738923 7.915266581504201 17.288 8.298000000000002 C 16.08066097472794 9.512337552545123 14.867312748638753 10.720685717263079 13.648000000000014 11.923000000000002 L 13.608 11.963000000000001 C 12.351272072985946 13.20529388052766 11.09293768686559 14.445961585200848 9.83299999999991 15.685000000000436 L 6.735 12.322000000000001 z" stroke-linecap="round" />
</g>
<g transform="matrix(NaN NaN NaN NaN 0 0)"  >
<g style=""   >
</g>
</g>
</svg>