<?xml version="1.0" encoding="UTF-8" standalone="no" ?>
<!DOCTYPE svg PUBLIC "-//W3C//DTD SVG 1.1//EN" "http://www.w3.org/Graphics/SVG/1.1/DTD/svg11.dtd">
<svg xmlns="http://www.w3.org/2000/svg" xmlns:xlink="http://www.w3.org/1999/xlink" version="1.1" width="1000" height="1000" viewBox="0 0 1000 1000" xml:space="preserve">
<desc>Created with Fabric.js 5.2.4</desc>
<defs>
</defs>
<g transform="matrix(0 0 0 0 0 0)" id="c3bad420-e3ac-4831-8475-d71a9d3cf66b"  >
</g>
<g transform="matrix(1 0 0 1 500 500)" id="7c9c9d33-342f-48b9-b7fb-376e1b6de216"  >
<rect style="stroke: none; stroke-width: 1; stroke-dasharray: none; stroke-linecap: butt; stroke-dashoffset: 0; stroke-linejoin: miter; stroke-miterlimit: 4; fill: rgb(255,255,255); fill-rule: nonzero; opacity: 1;" vector-effect="non-scaling-stroke"  x="-500" y="-500" rx="0" ry="0" width="1000" height="1000" />
</g>
<g transform="matrix(1875 0 0 1875 15198.91 11555.03)"  >
<path style="stroke: none; stroke-width: 1; stroke-dasharray: none; stroke-linecap: butt; stroke-dashoffset: 0; stroke-linejoin: miter; stroke-miterlimit: 4; fill: rgb(0,0,0); fill-rule: nonzero; opacity: 1;"  transform=" translate(-12, -13)" d="M 6.735 12.322 C 6.359227888250068 11.92235430272266 5.73164930144719 11.900035690633938 5.3284371509808 12.27197832739069 C 4.925225000514411 12.643920964147439 4.896920685786426 13.27125808948504 5.265000000000001 13.677999999999999 L 8.877 17.596999999999998 C 9.414000000000001 18.122999999999998 10.214 18.122999999999998 10.711 17.627 L 11.075000000000001 17.268 C 12.389532125252265 15.975221808509332 13.702533045684316 14.680887567829142 15.013999999999397 13.38500000000019 L 15.054 13.345000000000002 C 16.27968832313645 12.137064564508801 17.499038397788667 10.922714558505994 18.71200000000013 9.701999999999803 C 19.089185765126416 9.307093780958565 19.079811979128404 8.682621523651013 18.69094315980132 8.299214345044817 C 18.30207434047424 7.9158071664386185 17.67753196738923 7.915266581504201 17.288 8.298000000000002 C 16.08066097472794 9.512337552545123 14.867312748638753 10.720685717263079 13.648000000000014 11.923000000000002 L 13.608 11.963000000000001 C 12.351272072985946 13.20529388052766 11.09293768686559 14.445961585200848 9.83299999999991 15.685000000000436 L 6.735 12.322000000000001 z" stroke-linecap="round" />
</g>
<g transform="matrix(0 0 0 0 0 0)"  >
<g style=""   >
</g>
</g>
<g transform="matrix(41.67 0 0 41.67 500 500)"  >
<path style="stroke: none; stroke-width: 1; stroke-dasharray: none; stroke-linecap: butt; stroke-dashoffset: 0; stroke-linejoin: miter; stroke-miterlimit: 4; fill: rgb(0,0,0); fill-rule: evenodd; opacity: 1;"  transform=" translate(-11.7, -11.7)" d="M 11.701 16.7 C 9.897281992567741 16.725505236700833 8.219555606941977 15.77784223828121 7.310253516458159 14.219888812893814 C 6.400951425974341 12.661935387506418 6.40095142597434 10.735064612493582 7.310253516458158 9.177111187106187 C 8.219555606941977 7.619157761718791 9.897281992567743 6.6714947632991635 11.701000000000002 6.696999999999999 C 14.46352831865363 6.696999999999999 16.703 8.936471681346369 16.703000000000003 11.698999999999998 C 16.703000000000003 14.461528318653627 14.463528318653632 16.701 11.701000000000002 16.701 M 20.069000000000003 13.584 C 19.26417083022127 13.307117991737403 18.723633438044466 12.550124689914757 18.723000000000003 11.699 C 18.723000000000003 10.823 19.286 10.086 20.068 9.814 C 20.307452473974404 9.73508634125223 20.4450418760598 9.484367875229953 20.383000000000003 9.24 C 20.18589004150202 8.54432628803971 19.905175845719207 7.875111704074219 19.547000000000004 7.246999999999999 C 19.424826472408725 7.041167272593881 19.169025332975465 6.957753857561297 18.949000000000005 7.052 C 18.539036517988123 7.217779347705753 18.086305190959337 7.245855709071879 17.659000000000006 7.132 C 16.976338010008696 6.949565729683505 16.441820561845148 6.418474675418444 16.255000000000006 5.737 C 16.138306141996917 5.307937517170898 16.164993472353995 4.8524971556823555 16.331000000000007 4.440000000000002 C 16.42401509520292 4.2199806797859285 16.340326285221654 3.965071396322591 16.135000000000005 3.8430000000000004 C 15.511958006197778 3.4898998231366405 14.848914407001917 3.2125965254476396 14.160000000000002 3.0170000000000017 C 13.915852140890195 2.954337367678581 13.664913671796121 3.091610328123772 13.586000000000006 3.3310000000000004 C 13.30911799173741 4.135829169778731 12.552124689914763 4.676366561955538 11.701000000000006 4.6770000000000005 C 10.85040747540522 4.676391197780127 10.093847670724461 4.1362781737378675 9.817000000000005 3.3320000000000007 C 9.737258566732299 3.092740292934348 9.486559722095341 2.955400925872362 9.242000000000006 3.017000000000001 C 8.534000000000006 3.217000000000001 7.863000000000007 3.5020000000000007 7.238000000000007 3.859000000000001 C 7.036685079406251 3.976957936185349 6.952385841885942 4.224746604048074 7.040000000000006 4.441000000000001 C 7.34515401724256 5.184767350159903 7.175801694762635 6.03893106910526 6.609957607294214 6.610008396688995 C 6.0441135198257925 7.181085724272731 5.191545017081253 7.358294121420962 4.445 7.06 C 4.22552711461067 6.968153497203509 3.971917280744335 7.051695560124184 3.8500000000000005 7.256 C 3.49277986863189 7.88456493640847 3.213073009844747 8.55411532827109 3.0169999999999995 9.250000000000002 C 2.9554406448874606 9.491732810448594 3.089300485710326 9.740329657691058 3.325 9.822 C 4.117985254579385 10.105689060631978 4.647402787459208 10.856797684377577 4.648 11.698999999999998 C 4.648 12.565999999999999 4.096 13.298 3.324 13.576 C 3.0889197909651824 13.657222299037258 2.955113079426602 13.904851602858656 3.016 14.146 C 3.192052018352219 14.766888070502315 3.434449227237726 15.367013940357168 3.739 15.936000000000003 C 3.8630886775222284 16.155358129781096 4.136411082243053 16.24033336458212 4.3629999999999995 16.13 C 4.957999999999999 15.857 5.7059999999999995 15.866 6.467 16.368 C 6.584 16.445 6.691999999999999 16.552999999999997 6.768999999999999 16.668 C 7.295999999999999 17.468 7.280999999999999 18.247999999999998 6.967 18.855999999999998 C 6.847485607752943 19.076748393521022 6.921229633879939 19.352410586424316 7.135 19.483999999999998 C 7.796948409690661 19.872263326998876 8.50610432039648 20.17373861226102 9.245 20.380999999999997 C 9.487897569189375 20.44399146000818 9.737802627968485 20.306762892643512 9.815 20.067999999999998 C 10.089605261542252 19.260059540641922 10.847668693224644 18.716231426608903 11.700999999999997 18.714999999999996 C 12.578999999999999 18.714999999999996 13.318999999999999 19.281999999999996 13.588 20.067999999999998 C 13.665609601263233 20.30642185619864 13.915168978683548 20.443460602045235 14.158 20.380999999999997 C 14.887184274231052 20.175900418314004 15.587431366469646 19.879202634030566 16.241999999999997 19.497999999999998 C 16.45712581893378 19.365927056003166 16.530629306393944 19.088198309971045 16.409000000000002 18.866999999999997 C 16.091 18.258999999999997 16.072000000000003 17.473999999999997 16.6 16.671999999999997 C 16.677000000000003 16.555999999999997 16.785 16.446999999999996 16.902 16.369999999999997 C 17.674 15.858999999999998 18.429000000000002 15.856999999999998 19.027 16.139999999999997 C 19.25356835313381 16.2535516261615 19.529378941454244 16.170105747529522 19.655 15.949999999999998 C 19.961935266177065 15.380485629862644 20.206036429829837 14.779285923228832 20.383000000000003 14.157 C 20.445587553262673 13.913109883140908 20.30824769358725 13.662486508637667 20.069000000000003 13.583999999999998" stroke-linecap="round" />
</g>
<g transform="matrix(NaN NaN NaN NaN 0 0)"  >
<g style=""   >
</g>
</g>
</svg>