<svg width="20" height="20" fill="none" xmlns="http://www.w3.org/2000/svg"><path fill-rule="evenodd" clip-rule="evenodd" d="M7.3 0a2 2 0 100 4h2V2a2 2 0 00-2-2zm0 5.3H2a2 2 0 000 4h5.3a2 2 0 100-4z" fill="#36C5F0"></path><path fill-rule="evenodd" clip-rule="evenodd" d="M20 7.3a2 2 0 00-4 0v2h2a2 2 0 002-2zm-5.3 0V2a2 2 0 00-4 0v5.3a2 2 0 104 0z" fill="#2EB67D"></path><path fill-rule="evenodd" clip-rule="evenodd" d="M12.7 20a2 2 0 100-4h-2v2c0 1.1.9 2 2 2zm0-5.3H18a2 2 0 000-4h-5.3a2 2 0 000 4z" fill="#ECB22E"></path><path fill-rule="evenodd" clip-rule="evenodd" d="M0 12.7a2 2 0 004 0v-2H2a2 2 0 00-2 2zm5.3 0V18a2 2 0 004 0v-5.3a2 2 0 00-4 0z" fill="#E01E5A"></path></svg>
