<?xml version="1.0" encoding="UTF-8"?>
<svg width="121px" height="40px" viewBox="0 0 121 40" version="1.1" xmlns="http://www.w3.org/2000/svg" xmlns:xlink="http://www.w3.org/1999/xlink">
    <title>Group</title>
    <g id="Page-1" stroke="none" stroke-width="1" fill="none" fill-rule="evenodd">
        <g id="VISA" transform="translate(-11.000000, -51.000000)">
            <g id="Group" transform="translate(11.227000, 51.786000)">
                <polyline id="Fill-1" fill="#005C9C" points="51.708 38.053 41.975 38.053 48.058 0.669 57.792 0.669 51.708 38.053"></polyline>
                <path d="M33.787,0.669 L24.507,26.381 L23.41,20.844 L23.411,20.846 L20.135,4.036 C20.135,4.036 19.74,0.669 15.518,0.669 L0.179,0.669 L3.55271368e-15,1.301 C3.55271368e-15,1.301 4.692,2.277 10.18,5.576 L18.636,38.053 L28.777,38.053 L44.262,0.669 L33.787,0.669" id="Fill-2" fill="#005C9C"></path>
                <path d="M99.632,24.829 L104.747,10.838 L107.624,24.829 L99.632,24.829 Z M110.342,38.053 L119.279,38.053 L111.487,0.669 L103.662,0.669 C100.048,0.669 99.169,3.455 99.169,3.455 L84.654,38.053 L94.798,38.053 L96.828,32.501 L109.201,32.501 L110.342,38.053 L110.342,38.053 Z" id="Fill-3" fill="#005C9C"></path>
                <path d="M85.415,9.659 L86.803,1.63 C86.803,1.63 82.517,3.55271368e-15 78.049,3.55271368e-15 C73.219,3.55271368e-15 61.75,2.112 61.75,12.376 C61.75,22.035 75.211,22.155 75.211,27.226 C75.211,32.297 63.137,31.391 59.153,28.192 L57.705,36.585 C57.705,36.585 62.05,38.697 68.692,38.697 C75.333,38.697 85.354,35.256 85.354,25.898 C85.354,16.178 71.771,15.273 71.771,11.047 C71.771,6.821 81.25,7.364 85.415,9.659" id="Fill-4" fill="#005C9C"></path>
                <path d="M23.411,20.846 L20.135,4.036 C20.135,4.036 19.74,0.669 15.518,0.669 L0.179,0.669 L-1.77635684e-15,1.301 C-1.77635684e-15,1.301 7.373,2.83 14.446,8.554 C21.206,14.026 23.411,20.846 23.411,20.846" id="Fill-5" fill="#EE9F3F"></path>
            </g>
        </g>
    </g>
</svg>